<?xml version="1.0" encoding="utf-8"?>
<!-- Generator: Adobe Illustrator 15.1.0, SVG Export Plug-In . SVG Version: 6.00 Build 0)  -->
<!DOCTYPE svg PUBLIC "-//W3C//DTD SVG 1.1//EN" "http://www.w3.org/Graphics/SVG/1.1/DTD/svg11.dtd">
<svg version="1.1" id="_x31_" xmlns="http://www.w3.org/2000/svg" xmlns:xlink="http://www.w3.org/1999/xlink" x="0px" y="0px"
	 width="130.961px" height="130.961px" viewBox="0 0 130.961 130.961" enable-background="new 0 0 130.961 130.961"
	 xml:space="preserve">
<g>
	<path fill-rule="evenodd" clip-rule="evenodd" fill="#194F5E" d="M65.48,5.03c28.873,0,52.278,23.405,52.278,52.278
		c0,25.457-18.194,46.658-42.289,51.321l-3.588,6.212l-6.401,11.09l-6.401-11.09l-3.587-6.212
		c-24.094-4.663-42.29-25.864-42.29-51.321C13.202,28.435,36.607,5.03,65.48,5.03z"/>
	<g>
		<g>
			<defs>
				<path id="SVGID_1_" d="M65.48,103.196c25.425,0,46.166-20.737,46.166-46.166c0-25.427-20.737-46.165-46.166-46.165
					c-25.427,0-46.165,20.737-46.165,46.165C19.317,82.459,40.055,103.196,65.48,103.196z"/>
			</defs>
			<clipPath id="SVGID_2_">
				<use xlink:href="#SVGID_1_"  overflow="visible"/>
			</clipPath>
			
				<rect x="31.905" y="-34.106" transform="matrix(0.6485 0.7612 -0.7612 0.6485 24.6117 -18.1969)" clip-path="url(#SVGID_2_)" fill-rule="evenodd" clip-rule="evenodd" fill="#38798B" width="0.208" height="103.311"/>
			
				<rect x="31.629" y="-34.084" transform="matrix(-0.6467 -0.7627 0.7627 -0.6467 39.3373 53.3632)" clip-path="url(#SVGID_2_)" fill-rule="evenodd" clip-rule="evenodd" fill="#37798A" width="0.796" height="103.311"/>
			
				<rect x="31.972" y="-33.679" transform="matrix(-0.646 -0.7633 0.7633 -0.646 39.56 54.2979)" clip-path="url(#SVGID_2_)" fill-rule="evenodd" clip-rule="evenodd" fill="#37798A" width="0.795" height="103.311"/>
			
				<rect x="32.315" y="-33.275" transform="matrix(-0.647 -0.7625 0.7625 -0.647 39.8648 55.2165)" clip-path="url(#SVGID_2_)" fill-rule="evenodd" clip-rule="evenodd" fill="#37788A" width="0.795" height="103.312"/>
			
				<rect x="32.658" y="-32.87" transform="matrix(-0.6467 -0.7627 0.7627 -0.6467 40.1061 56.147)" clip-path="url(#SVGID_2_)" fill-rule="evenodd" clip-rule="evenodd" fill="#37788A" width="0.796" height="103.312"/>
			
				<rect x="33.001" y="-32.465" transform="matrix(-0.6467 -0.7627 0.7627 -0.6467 40.3624 57.0748)" clip-path="url(#SVGID_2_)" fill-rule="evenodd" clip-rule="evenodd" fill="#37788A" width="0.796" height="103.311"/>
			
				<rect x="33.344" y="-32.061" transform="matrix(-0.646 -0.7633 0.7633 -0.646 40.5831 58.0092)" clip-path="url(#SVGID_2_)" fill-rule="evenodd" clip-rule="evenodd" fill="#377889" width="0.795" height="103.311"/>
			
				<rect x="33.687" y="-31.656" transform="matrix(-0.6467 -0.7627 0.7627 -0.6467 40.8754 58.9306)" clip-path="url(#SVGID_2_)" fill-rule="evenodd" clip-rule="evenodd" fill="#377889" width="0.796" height="103.311"/>
			
				<rect x="34.03" y="-31.251" transform="matrix(-0.6467 -0.7627 0.7627 -0.6467 41.1315 59.8588)" clip-path="url(#SVGID_2_)" fill-rule="evenodd" clip-rule="evenodd" fill="#377789" width="0.796" height="103.311"/>
			
				<rect x="34.373" y="-30.847" transform="matrix(-0.6467 -0.7627 0.7627 -0.6467 41.3876 60.786)" clip-path="url(#SVGID_2_)" fill-rule="evenodd" clip-rule="evenodd" fill="#367789" width="0.796" height="103.311"/>
			
				<rect x="34.717" y="-30.443" transform="matrix(-0.647 -0.7625 0.7625 -0.647 41.6606 61.7119)" clip-path="url(#SVGID_2_)" fill-rule="evenodd" clip-rule="evenodd" fill="#367789" width="0.795" height="103.312"/>
			
				<rect x="35.059" y="-30.038" transform="matrix(-0.6467 -0.7627 0.7627 -0.6467 41.9005 62.6421)" clip-path="url(#SVGID_2_)" fill-rule="evenodd" clip-rule="evenodd" fill="#367788" width="0.796" height="103.312"/>
			
				<rect x="35.402" y="-29.633" transform="matrix(-0.6467 -0.7627 0.7627 -0.6467 42.1568 63.5699)" clip-path="url(#SVGID_2_)" fill-rule="evenodd" clip-rule="evenodd" fill="#367788" width="0.796" height="103.311"/>
			
				<rect x="35.745" y="-29.229" transform="matrix(-0.6467 -0.7627 0.7627 -0.6467 42.4127 64.4976)" clip-path="url(#SVGID_2_)" fill-rule="evenodd" clip-rule="evenodd" fill="#367788" width="0.796" height="103.311"/>
			
				<rect x="36.089" y="-28.824" transform="matrix(-0.646 -0.7633 0.7633 -0.646 42.6293 65.4317)" clip-path="url(#SVGID_2_)" fill-rule="evenodd" clip-rule="evenodd" fill="#367688" width="0.795" height="103.311"/>
			
				<rect x="36.431" y="-28.42" transform="matrix(-0.6467 -0.7627 0.7627 -0.6467 42.9255 66.3537)" clip-path="url(#SVGID_2_)" fill-rule="evenodd" clip-rule="evenodd" fill="#367688" width="0.796" height="103.311"/>
			
				<rect x="36.774" y="-28.015" transform="matrix(-0.6467 -0.7627 0.7627 -0.6467 43.1814 67.2813)" clip-path="url(#SVGID_2_)" fill-rule="evenodd" clip-rule="evenodd" fill="#357687" width="0.796" height="103.312"/>
			
				<rect x="37.117" y="-27.61" transform="matrix(-0.6467 -0.7627 0.7627 -0.6467 43.4377 68.2091)" clip-path="url(#SVGID_2_)" fill-rule="evenodd" clip-rule="evenodd" fill="#357687" width="0.796" height="103.311"/>
			
				<rect x="37.46" y="-27.206" transform="matrix(-0.6467 -0.7627 0.7627 -0.6467 43.6935 69.1372)" clip-path="url(#SVGID_2_)" fill-rule="evenodd" clip-rule="evenodd" fill="#357687" width="0.796" height="103.311"/>
			
				<rect x="37.803" y="-26.801" transform="matrix(-0.6467 -0.7627 0.7627 -0.6467 43.9508 70.0649)" clip-path="url(#SVGID_2_)" fill-rule="evenodd" clip-rule="evenodd" fill="#357587" width="0.796" height="103.311"/>
			
				<rect x="38.146" y="-26.397" transform="matrix(-0.6467 -0.7627 0.7627 -0.6467 44.2071 70.9927)" clip-path="url(#SVGID_2_)" fill-rule="evenodd" clip-rule="evenodd" fill="#357587" width="0.796" height="103.311"/>
			
				<rect x="38.489" y="-25.992" transform="matrix(-0.6467 -0.7627 0.7627 -0.6467 44.4628 71.9207)" clip-path="url(#SVGID_2_)" fill-rule="evenodd" clip-rule="evenodd" fill="#357586" width="0.796" height="103.311"/>
			
				<rect x="38.833" y="-25.588" transform="matrix(-0.6467 -0.7627 0.7627 -0.6467 44.7199 72.8489)" clip-path="url(#SVGID_2_)" fill-rule="evenodd" clip-rule="evenodd" fill="#357586" width="0.796" height="103.311"/>
			
				<rect x="39.175" y="-25.183" transform="matrix(-0.6467 -0.7627 0.7627 -0.6467 44.976 73.7761)" clip-path="url(#SVGID_2_)" fill-rule="evenodd" clip-rule="evenodd" fill="#347586" width="0.796" height="103.311"/>
			
				<rect x="39.518" y="-24.778" transform="matrix(-0.6467 -0.7627 0.7627 -0.6467 45.2316 74.7045)" clip-path="url(#SVGID_2_)" fill-rule="evenodd" clip-rule="evenodd" fill="#347486" width="0.796" height="103.312"/>
			
				<rect x="39.861" y="-24.374" transform="matrix(-0.6467 -0.7627 0.7627 -0.6467 45.4879 75.6323)" clip-path="url(#SVGID_2_)" fill-rule="evenodd" clip-rule="evenodd" fill="#347486" width="0.796" height="103.311"/>
			
				<rect x="40.205" y="-23.969" transform="matrix(-0.646 -0.7633 0.7633 -0.646 45.699 76.5647)" clip-path="url(#SVGID_2_)" fill-rule="evenodd" clip-rule="evenodd" fill="#347485" width="0.795" height="103.311"/>
			
				<rect x="40.548" y="-23.565" transform="matrix(-0.647 -0.7625 0.7625 -0.647 46.0205 77.4861)" clip-path="url(#SVGID_2_)" fill-rule="evenodd" clip-rule="evenodd" fill="#347485" width="0.795" height="103.312"/>
			
				<rect x="40.89" y="-23.16" transform="matrix(-0.6467 -0.7627 0.7627 -0.6467 46.2566 78.4161)" clip-path="url(#SVGID_2_)" fill-rule="evenodd" clip-rule="evenodd" fill="#347485" width="0.796" height="103.311"/>
			
				<rect x="41.233" y="-22.755" transform="matrix(-0.6467 -0.7627 0.7627 -0.6467 46.5131 79.3435)" clip-path="url(#SVGID_2_)" fill-rule="evenodd" clip-rule="evenodd" fill="#347485" width="0.796" height="103.311"/>
			
				<rect x="41.576" y="-22.351" transform="matrix(-0.6475 -0.7621 0.7621 -0.6475 46.8171 80.2668)" clip-path="url(#SVGID_2_)" fill-rule="evenodd" clip-rule="evenodd" fill="#337385" width="0.796" height="103.312"/>
			
				<rect x="41.92" y="-21.946" transform="matrix(-0.6467 -0.7627 0.7627 -0.6467 47.026 81.1997)" clip-path="url(#SVGID_2_)" fill-rule="evenodd" clip-rule="evenodd" fill="#337384" width="0.796" height="103.312"/>
			
				<rect x="42.263" y="-21.541" transform="matrix(-0.6467 -0.7627 0.7627 -0.6467 47.2823 82.1275)" clip-path="url(#SVGID_2_)" fill-rule="evenodd" clip-rule="evenodd" fill="#337384" width="0.796" height="103.311"/>
			
				<rect x="42.605" y="-21.137" transform="matrix(-0.6467 -0.7627 0.7627 -0.6467 47.5384 83.0547)" clip-path="url(#SVGID_2_)" fill-rule="evenodd" clip-rule="evenodd" fill="#337384" width="0.796" height="103.311"/>
			
				<rect x="42.949" y="-20.732" transform="matrix(-0.646 -0.7633 0.7633 -0.646 47.7454 83.9878)" clip-path="url(#SVGID_2_)" fill-rule="evenodd" clip-rule="evenodd" fill="#337384" width="0.795" height="103.311"/>
			
				<rect x="43.292" y="-20.328" transform="matrix(-0.6467 -0.7627 0.7627 -0.6467 48.051 84.9113)" clip-path="url(#SVGID_2_)" fill-rule="evenodd" clip-rule="evenodd" fill="#337284" width="0.796" height="103.311"/>
			
				<rect x="43.634" y="-19.923" transform="matrix(-0.6467 -0.7627 0.7627 -0.6467 48.3071 85.8385)" clip-path="url(#SVGID_2_)" fill-rule="evenodd" clip-rule="evenodd" fill="#337283" width="0.796" height="103.311"/>
			
				<rect x="43.978" y="-19.519" transform="matrix(-0.647 -0.7625 0.7625 -0.647 48.5851 86.7646)" clip-path="url(#SVGID_2_)" fill-rule="evenodd" clip-rule="evenodd" fill="#337283" width="0.795" height="103.311"/>
			
				<rect x="44.321" y="-19.114" transform="matrix(-0.646 -0.7633 0.7633 -0.646 48.7681 87.6989)" clip-path="url(#SVGID_2_)" fill-rule="evenodd" clip-rule="evenodd" fill="#327283" width="0.795" height="103.311"/>
			
				<rect x="44.664" y="-18.71" transform="matrix(-0.6467 -0.7627 0.7627 -0.6467 49.0763 88.6225)" clip-path="url(#SVGID_2_)" fill-rule="evenodd" clip-rule="evenodd" fill="#327283" width="0.796" height="103.311"/>
			
				<rect x="45.006" y="-18.305" transform="matrix(-0.6467 -0.7627 0.7627 -0.6467 49.3324 89.5497)" clip-path="url(#SVGID_2_)" fill-rule="evenodd" clip-rule="evenodd" fill="#327183" width="0.796" height="103.311"/>
			
				<rect x="45.349" y="-17.9" transform="matrix(-0.6467 -0.7627 0.7627 -0.6467 49.5883 90.4783)" clip-path="url(#SVGID_2_)" fill-rule="evenodd" clip-rule="evenodd" fill="#327182" width="0.796" height="103.311"/>
			
				<rect x="45.693" y="-17.496" transform="matrix(-0.6467 -0.7627 0.7627 -0.6467 49.8454 91.4064)" clip-path="url(#SVGID_2_)" fill-rule="evenodd" clip-rule="evenodd" fill="#327182" width="0.796" height="103.311"/>
			
				<rect x="46.036" y="-17.091" transform="matrix(-0.6467 -0.7627 0.7627 -0.6467 50.1015 92.3337)" clip-path="url(#SVGID_2_)" fill-rule="evenodd" clip-rule="evenodd" fill="#327182" width="0.796" height="103.311"/>
			
				<rect x="46.379" y="-16.687" transform="matrix(-0.6467 -0.7627 0.7627 -0.6467 50.3578 93.2615)" clip-path="url(#SVGID_2_)" fill-rule="evenodd" clip-rule="evenodd" fill="#327182" width="0.796" height="103.311"/>
			
				<rect x="46.722" y="-16.282" transform="matrix(-0.6467 -0.7627 0.7627 -0.6467 50.6134 94.1899)" clip-path="url(#SVGID_2_)" fill-rule="evenodd" clip-rule="evenodd" fill="#317182" width="0.796" height="103.311"/>
			
				<rect x="47.065" y="-15.877" transform="matrix(-0.646 -0.7633 0.7633 -0.646 50.8151 95.1208)" clip-path="url(#SVGID_2_)" fill-rule="evenodd" clip-rule="evenodd" fill="#317081" width="0.795" height="103.311"/>
			
				<rect x="47.408" y="-15.473" transform="matrix(-0.6467 -0.7627 0.7627 -0.6467 51.1266 96.0452)" clip-path="url(#SVGID_2_)" fill-rule="evenodd" clip-rule="evenodd" fill="#317081" width="0.796" height="103.311"/>
			
				<rect x="47.751" y="-15.068" transform="matrix(-0.6467 -0.7627 0.7627 -0.6467 51.3823 96.9733)" clip-path="url(#SVGID_2_)" fill-rule="evenodd" clip-rule="evenodd" fill="#317081" width="0.796" height="103.312"/>
			
				<rect x="48.094" y="-14.664" transform="matrix(-0.6467 -0.7627 0.7627 -0.6467 51.6386 97.9011)" clip-path="url(#SVGID_2_)" fill-rule="evenodd" clip-rule="evenodd" fill="#317081" width="0.796" height="103.311"/>
			
				<rect x="48.436" y="-14.259" transform="matrix(-0.6467 -0.7627 0.7627 -0.6467 51.8947 98.8283)" clip-path="url(#SVGID_2_)" fill-rule="evenodd" clip-rule="evenodd" fill="#317081" width="0.796" height="103.311"/>
			
				<rect x="48.78" y="-13.855" transform="matrix(-0.6467 -0.7627 0.7627 -0.6467 52.1515 99.7572)" clip-path="url(#SVGID_2_)" fill-rule="evenodd" clip-rule="evenodd" fill="#316F80" width="0.796" height="103.312"/>
			
				<rect x="49.123" y="-13.45" transform="matrix(-0.6467 -0.7627 0.7627 -0.6467 52.4078 100.685)" clip-path="url(#SVGID_2_)" fill-rule="evenodd" clip-rule="evenodd" fill="#306F80" width="0.796" height="103.311"/>
			
				<rect x="49.466" y="-13.045" transform="matrix(-0.6467 -0.7627 0.7627 -0.6467 52.6639 101.6122)" clip-path="url(#SVGID_2_)" fill-rule="evenodd" clip-rule="evenodd" fill="#306F80" width="0.796" height="103.311"/>
			
				<rect x="49.809" y="-12.641" transform="matrix(-0.6467 -0.7627 0.7627 -0.6467 52.921 102.5404)" clip-path="url(#SVGID_2_)" fill-rule="evenodd" clip-rule="evenodd" fill="#306F80" width="0.796" height="103.311"/>
			
				<rect x="50.152" y="-12.236" transform="matrix(-0.647 -0.7625 0.7625 -0.647 53.202 103.4678)" clip-path="url(#SVGID_2_)" fill-rule="evenodd" clip-rule="evenodd" fill="#306F80" width="0.795" height="103.312"/>
			
				<rect x="50.495" y="-11.832" transform="matrix(-0.6467 -0.7627 0.7627 -0.6467 53.433 104.3962)" clip-path="url(#SVGID_2_)" fill-rule="evenodd" clip-rule="evenodd" fill="#306E7F" width="0.796" height="103.311"/>
			
				<rect x="50.838" y="-11.427" transform="matrix(-0.647 -0.7625 0.7625 -0.647 53.7148 105.3229)" clip-path="url(#SVGID_2_)" fill-rule="evenodd" clip-rule="evenodd" fill="#306E7F" width="0.795" height="103.311"/>
			
				<rect x="51.181" y="-11.022" transform="matrix(-0.646 -0.7633 0.7633 -0.646 53.884 106.2544)" clip-path="url(#SVGID_2_)" fill-rule="evenodd" clip-rule="evenodd" fill="#306E7F" width="0.795" height="103.311"/>
			
				<rect x="51.524" y="-10.618" transform="matrix(-0.6467 -0.7627 0.7627 -0.6467 54.2018 107.18)" clip-path="url(#SVGID_2_)" fill-rule="evenodd" clip-rule="evenodd" fill="#306E7F" width="0.796" height="103.311"/>
			
				<rect x="51.867" y="-10.214" transform="matrix(-0.6467 -0.7627 0.7627 -0.6467 54.4579 108.1072)" clip-path="url(#SVGID_2_)" fill-rule="evenodd" clip-rule="evenodd" fill="#2F6E7F" width="0.796" height="103.311"/>
			
				<rect x="52.21" y="-9.808" transform="matrix(-0.6467 -0.7627 0.7627 -0.6467 54.7138 109.0358)" clip-path="url(#SVGID_2_)" fill-rule="evenodd" clip-rule="evenodd" fill="#2F6D7E" width="0.796" height="103.311"/>
			
				<rect x="52.553" y="-9.404" transform="matrix(-0.6467 -0.7627 0.7627 -0.6467 54.9697 109.9634)" clip-path="url(#SVGID_2_)" fill-rule="evenodd" clip-rule="evenodd" fill="#2F6D7E" width="0.796" height="103.311"/>
			
				<rect x="52.896" y="-9" transform="matrix(-0.6467 -0.7627 0.7627 -0.6467 55.227 110.8912)" clip-path="url(#SVGID_2_)" fill-rule="evenodd" clip-rule="evenodd" fill="#2F6D7E" width="0.796" height="103.311"/>
			
				<rect x="53.239" y="-8.595" transform="matrix(-0.647 -0.7625 0.7625 -0.647 55.5107 111.8183)" clip-path="url(#SVGID_2_)" fill-rule="evenodd" clip-rule="evenodd" fill="#2F6D7E" width="0.795" height="103.311"/>
			
				<rect x="53.582" y="-8.19" transform="matrix(-0.647 -0.7625 0.7625 -0.647 55.7664 112.7467)" clip-path="url(#SVGID_2_)" fill-rule="evenodd" clip-rule="evenodd" fill="#2F6D7E" width="0.795" height="103.311"/>
			
				<rect x="53.925" y="-7.786" transform="matrix(-0.6467 -0.7627 0.7627 -0.6467 55.9962 113.6752)" clip-path="url(#SVGID_2_)" fill-rule="evenodd" clip-rule="evenodd" fill="#2F6D7D" width="0.796" height="103.311"/>
			
				<rect x="54.268" y="-7.382" transform="matrix(-0.6467 -0.7627 0.7627 -0.6467 56.2523 114.6024)" clip-path="url(#SVGID_2_)" fill-rule="evenodd" clip-rule="evenodd" fill="#2E6C7D" width="0.796" height="103.311"/>
			
				<rect x="54.611" y="-6.976" transform="matrix(-0.6467 -0.7627 0.7627 -0.6467 56.5082 115.531)" clip-path="url(#SVGID_2_)" fill-rule="evenodd" clip-rule="evenodd" fill="#2E6C7D" width="0.796" height="103.311"/>
			
				<rect x="54.954" y="-6.572" transform="matrix(-0.6467 -0.7627 0.7627 -0.6467 56.7641 116.4586)" clip-path="url(#SVGID_2_)" fill-rule="evenodd" clip-rule="evenodd" fill="#2E6C7D" width="0.796" height="103.311"/>
			
				<rect x="55.298" y="-6.167" transform="matrix(-0.646 -0.7633 0.7633 -0.646 56.9537 117.3874)" clip-path="url(#SVGID_2_)" fill-rule="evenodd" clip-rule="evenodd" fill="#2E6C7D" width="0.795" height="103.311"/>
			
				<rect x="55.64" y="-5.763" transform="matrix(-0.6467 -0.7627 0.7627 -0.6467 57.277 118.3148)" clip-path="url(#SVGID_2_)" fill-rule="evenodd" clip-rule="evenodd" fill="#2E6C7C" width="0.796" height="103.312"/>
			
				<rect x="55.983" y="-5.358" transform="matrix(-0.647 -0.7625 0.7625 -0.647 57.5619 119.2419)" clip-path="url(#SVGID_2_)" fill-rule="evenodd" clip-rule="evenodd" fill="#2E6B7C" width="0.795" height="103.312"/>
			
				<rect x="56.326" y="-4.954" transform="matrix(-0.6467 -0.7627 0.7627 -0.6467 57.7894 120.1698)" clip-path="url(#SVGID_2_)" fill-rule="evenodd" clip-rule="evenodd" fill="#2E6B7C" width="0.796" height="103.311"/>
			
				<rect x="56.669" y="-4.549" transform="matrix(-0.6478 -0.7618 0.7618 -0.6478 58.1443 121.0962)" clip-path="url(#SVGID_2_)" fill-rule="evenodd" clip-rule="evenodd" fill="#2D6B7C" width="0.796" height="103.311"/>
			
				<rect x="57.012" y="-4.145" transform="matrix(-0.6467 -0.7627 0.7627 -0.6467 58.3022 122.026)" clip-path="url(#SVGID_2_)" fill-rule="evenodd" clip-rule="evenodd" fill="#2D6B7C" width="0.796" height="103.312"/>
			
				<rect x="57.355" y="-3.74" transform="matrix(-0.6467 -0.7627 0.7627 -0.6467 58.5586 122.9538)" clip-path="url(#SVGID_2_)" fill-rule="evenodd" clip-rule="evenodd" fill="#2D6B7B" width="0.796" height="103.311"/>
			
				<rect x="57.698" y="-3.335" transform="matrix(-0.6467 -0.7627 0.7627 -0.6467 58.8146 123.881)" clip-path="url(#SVGID_2_)" fill-rule="evenodd" clip-rule="evenodd" fill="#2D6A7B" width="0.796" height="103.311"/>
			
				<rect x="58.042" y="-2.931" transform="matrix(-0.6467 -0.7627 0.7627 -0.6467 59.0714 124.81)" clip-path="url(#SVGID_2_)" fill-rule="evenodd" clip-rule="evenodd" fill="#2D6A7B" width="0.796" height="103.312"/>
			
				<rect x="58.384" y="-2.526" transform="matrix(-0.6467 -0.7627 0.7627 -0.6467 59.3273 125.7376)" clip-path="url(#SVGID_2_)" fill-rule="evenodd" clip-rule="evenodd" fill="#2D6A7B" width="0.796" height="103.311"/>
			
				<rect x="58.727" y="-2.122" transform="matrix(-0.6467 -0.7627 0.7627 -0.6467 59.5838 126.665)" clip-path="url(#SVGID_2_)" fill-rule="evenodd" clip-rule="evenodd" fill="#2D6A7B" width="0.796" height="103.311"/>
			
				<rect x="59.07" y="-1.717" transform="matrix(-0.6467 -0.7627 0.7627 -0.6467 59.8393 127.5934)" clip-path="url(#SVGID_2_)" fill-rule="evenodd" clip-rule="evenodd" fill="#2C6A7A" width="0.796" height="103.311"/>
			
				<rect x="59.414" y="-1.312" transform="matrix(-0.646 -0.7633 0.7633 -0.646 60.023 128.5212)" clip-path="url(#SVGID_2_)" fill-rule="evenodd" clip-rule="evenodd" fill="#2C6A7A" width="0.795" height="103.311"/>
			
				<rect x="59.756" y="-0.908" transform="matrix(-0.6467 -0.7627 0.7627 -0.6467 60.3526 129.4488)" clip-path="url(#SVGID_2_)" fill-rule="evenodd" clip-rule="evenodd" fill="#2C697A" width="0.796" height="103.311"/>
			
				<rect x="60.1" y="-0.503" transform="matrix(-0.647 -0.7625 0.7625 -0.647 60.6403 130.3765)" clip-path="url(#SVGID_2_)" fill-rule="evenodd" clip-rule="evenodd" fill="#2C697A" width="0.795" height="103.311"/>
			
				<rect x="60.442" y="-0.099" transform="matrix(-0.6467 -0.7627 0.7627 -0.6467 60.8646 131.3046)" clip-path="url(#SVGID_2_)" fill-rule="evenodd" clip-rule="evenodd" fill="#2C697A" width="0.796" height="103.311"/>
			
				<rect x="60.786" y="0.306" transform="matrix(-0.6467 -0.7627 0.7627 -0.6467 61.1217 132.2327)" clip-path="url(#SVGID_2_)" fill-rule="evenodd" clip-rule="evenodd" fill="#2C6979" width="0.796" height="103.311"/>
			
				<rect x="61.128" y="0.71" transform="matrix(-0.6467 -0.7627 0.7627 -0.6467 61.3778 133.1599)" clip-path="url(#SVGID_2_)" fill-rule="evenodd" clip-rule="evenodd" fill="#2C6979" width="0.796" height="103.311"/>
			
				<rect x="61.472" y="1.115" transform="matrix(-0.6467 -0.7627 0.7627 -0.6467 61.6337 134.0885)" clip-path="url(#SVGID_2_)" fill-rule="evenodd" clip-rule="evenodd" fill="#2C6879" width="0.796" height="103.311"/>
			
				<rect x="61.814" y="1.52" transform="matrix(-0.6467 -0.7627 0.7627 -0.6467 61.8898 135.0157)" clip-path="url(#SVGID_2_)" fill-rule="evenodd" clip-rule="evenodd" fill="#2B6879" width="0.796" height="103.311"/>
			
				<rect x="62.158" y="1.924" transform="matrix(-0.6467 -0.7627 0.7627 -0.6467 62.147 135.9439)" clip-path="url(#SVGID_2_)" fill-rule="evenodd" clip-rule="evenodd" fill="#2B6879" width="0.796" height="103.311"/>
			
				<rect x="62.501" y="2.329" transform="matrix(-0.6467 -0.7627 0.7627 -0.6467 62.4025 136.8723)" clip-path="url(#SVGID_2_)" fill-rule="evenodd" clip-rule="evenodd" fill="#2B6878" width="0.796" height="103.312"/>
			
				<rect x="62.843" y="2.733" transform="matrix(-0.6467 -0.7627 0.7627 -0.6467 62.6586 137.7995)" clip-path="url(#SVGID_2_)" fill-rule="evenodd" clip-rule="evenodd" fill="#2B6878" width="0.796" height="103.312"/>
			
				<rect x="63.186" y="3.138" transform="matrix(-0.6467 -0.7627 0.7627 -0.6467 62.9149 138.7273)" clip-path="url(#SVGID_2_)" fill-rule="evenodd" clip-rule="evenodd" fill="#2B6778" width="0.796" height="103.311"/>
			
				<rect x="63.529" y="3.543" transform="matrix(-0.647 -0.7625 0.7625 -0.647 63.2043 139.6552)" clip-path="url(#SVGID_2_)" fill-rule="evenodd" clip-rule="evenodd" fill="#2B6778" width="0.795" height="103.311"/>
			
				<rect x="63.873" y="3.947" transform="matrix(-0.6467 -0.7627 0.7627 -0.6467 63.4277 140.5835)" clip-path="url(#SVGID_2_)" fill-rule="evenodd" clip-rule="evenodd" fill="#2B6778" width="0.796" height="103.312"/>
			
				<rect x="64.216" y="4.352" transform="matrix(-0.647 -0.7625 0.7625 -0.647 63.718 141.5117)" clip-path="url(#SVGID_2_)" fill-rule="evenodd" clip-rule="evenodd" fill="#2A6777" width="0.795" height="103.311"/>
			
				<rect x="64.558" y="4.756" transform="matrix(-0.6467 -0.7627 0.7627 -0.6467 63.9402 142.4385)" clip-path="url(#SVGID_2_)" fill-rule="evenodd" clip-rule="evenodd" fill="#2A6777" width="0.796" height="103.311"/>
			
				<rect x="64.902" y="5.161" transform="matrix(-0.6467 -0.7627 0.7627 -0.6467 64.1969 143.3675)" clip-path="url(#SVGID_2_)" fill-rule="evenodd" clip-rule="evenodd" fill="#2A6777" width="0.796" height="103.312"/>
			
				<rect x="65.245" y="5.565" transform="matrix(-0.6467 -0.7627 0.7627 -0.6467 64.453 144.2947)" clip-path="url(#SVGID_2_)" fill-rule="evenodd" clip-rule="evenodd" fill="#2A6677" width="0.796" height="103.312"/>
			
				<rect x="65.588" y="5.97" transform="matrix(-0.6467 -0.7627 0.7627 -0.6467 64.7093 145.2225)" clip-path="url(#SVGID_2_)" fill-rule="evenodd" clip-rule="evenodd" fill="#2A6677" width="0.796" height="103.311"/>
			
				<rect x="65.93" y="6.375" transform="matrix(-0.6467 -0.7627 0.7627 -0.6467 64.9649 146.1509)" clip-path="url(#SVGID_2_)" fill-rule="evenodd" clip-rule="evenodd" fill="#2A6676" width="0.796" height="103.311"/>
			
				<rect x="66.274" y="6.78" transform="matrix(-0.646 -0.7633 0.7633 -0.646 65.1391 147.0773)" clip-path="url(#SVGID_2_)" fill-rule="evenodd" clip-rule="evenodd" fill="#2A6676" width="0.795" height="103.311"/>
			
				<rect x="66.617" y="7.184" transform="matrix(-0.647 -0.7625 0.7625 -0.647 65.5135 148.0069)" clip-path="url(#SVGID_2_)" fill-rule="evenodd" clip-rule="evenodd" fill="#296676" width="0.795" height="103.312"/>
			
				<rect x="66.96" y="7.588" transform="matrix(-0.647 -0.7625 0.7625 -0.647 65.7696 148.9345)" clip-path="url(#SVGID_2_)" fill-rule="evenodd" clip-rule="evenodd" fill="#296576" width="0.795" height="103.311"/>
			
				<rect x="67.303" y="7.993" transform="matrix(-0.6467 -0.7627 0.7627 -0.6467 65.9901 149.8621)" clip-path="url(#SVGID_2_)" fill-rule="evenodd" clip-rule="evenodd" fill="#296576" width="0.796" height="103.311"/>
			
				<rect x="67.645" y="8.397" transform="matrix(-0.6475 -0.7621 0.7621 -0.6475 66.3315 150.7911)" clip-path="url(#SVGID_2_)" fill-rule="evenodd" clip-rule="evenodd" fill="#296575" width="0.796" height="103.312"/>
			
				<rect x="67.989" y="8.802" transform="matrix(-0.6467 -0.7627 0.7627 -0.6467 66.5033 151.7175)" clip-path="url(#SVGID_2_)" fill-rule="evenodd" clip-rule="evenodd" fill="#296575" width="0.796" height="103.311"/>
			
				<rect x="68.332" y="9.207" transform="matrix(-0.6467 -0.7627 0.7627 -0.6467 66.7593 152.6461)" clip-path="url(#SVGID_2_)" fill-rule="evenodd" clip-rule="evenodd" fill="#296575" width="0.796" height="103.311"/>
			
				<rect x="68.675" y="9.611" transform="matrix(-0.6467 -0.7627 0.7627 -0.6467 67.0154 153.5733)" clip-path="url(#SVGID_2_)" fill-rule="evenodd" clip-rule="evenodd" fill="#296475" width="0.796" height="103.311"/>
			
				<rect x="69.018" y="10.016" transform="matrix(-0.6467 -0.7627 0.7627 -0.6467 67.2725 154.5015)" clip-path="url(#SVGID_2_)" fill-rule="evenodd" clip-rule="evenodd" fill="#296475" width="0.796" height="103.311"/>
			
				<rect x="69.361" y="10.421" transform="matrix(-0.6467 -0.7627 0.7627 -0.6467 67.528 155.4299)" clip-path="url(#SVGID_2_)" fill-rule="evenodd" clip-rule="evenodd" fill="#286474" width="0.796" height="103.312"/>
			
				<rect x="69.704" y="10.825" transform="matrix(-0.6467 -0.7627 0.7627 -0.6467 67.7845 156.3573)" clip-path="url(#SVGID_2_)" fill-rule="evenodd" clip-rule="evenodd" fill="#286474" width="0.796" height="103.311"/>
			
				<rect x="70.047" y="11.23" transform="matrix(-0.6467 -0.7627 0.7627 -0.6467 68.0406 157.2845)" clip-path="url(#SVGID_2_)" fill-rule="evenodd" clip-rule="evenodd" fill="#286474" width="0.796" height="103.311"/>
			
				<rect x="70.391" y="11.635" transform="matrix(-0.6463 -0.7631 0.7631 -0.6463 68.2463 158.2117)" clip-path="url(#SVGID_2_)" fill-rule="evenodd" clip-rule="evenodd" fill="#286474" width="0.795" height="103.311"/>
			
				<rect x="70.733" y="12.039" transform="matrix(-0.6467 -0.7627 0.7627 -0.6467 68.5533 159.1411)" clip-path="url(#SVGID_2_)" fill-rule="evenodd" clip-rule="evenodd" fill="#286374" width="0.796" height="103.312"/>
			
				<rect x="71.076" y="12.443" transform="matrix(-0.6467 -0.7627 0.7627 -0.6467 68.8094 160.0683)" clip-path="url(#SVGID_2_)" fill-rule="evenodd" clip-rule="evenodd" fill="#286373" width="0.796" height="103.312"/>
			
				<rect x="71.419" y="12.848" transform="matrix(-0.6467 -0.7627 0.7627 -0.6467 69.0657 160.9961)" clip-path="url(#SVGID_2_)" fill-rule="evenodd" clip-rule="evenodd" fill="#286373" width="0.796" height="103.311"/>
			
				<rect x="71.761" y="13.253" transform="matrix(-0.6475 -0.7621 0.7621 -0.6475 69.4124 161.9273)" clip-path="url(#SVGID_2_)" fill-rule="evenodd" clip-rule="evenodd" fill="#276373" width="0.796" height="103.312"/>
			
				<rect x="72.105" y="13.657" transform="matrix(-0.6467 -0.7627 0.7627 -0.6467 69.5785 162.8523)" clip-path="url(#SVGID_2_)" fill-rule="evenodd" clip-rule="evenodd" fill="#276373" width="0.796" height="103.312"/>
			
				<rect x="72.448" y="14.062" transform="matrix(-0.6467 -0.7627 0.7627 -0.6467 69.8348 163.7801)" clip-path="url(#SVGID_2_)" fill-rule="evenodd" clip-rule="evenodd" fill="#276273" width="0.796" height="103.311"/>
			
				<rect x="72.791" y="14.467" transform="matrix(-0.6467 -0.7627 0.7627 -0.6467 70.0904 164.7085)" clip-path="url(#SVGID_2_)" fill-rule="evenodd" clip-rule="evenodd" fill="#276272" width="0.796" height="103.311"/>
			
				<rect x="73.134" y="14.871" transform="matrix(-0.6467 -0.7627 0.7627 -0.6467 70.3477 165.6362)" clip-path="url(#SVGID_2_)" fill-rule="evenodd" clip-rule="evenodd" fill="#276272" width="0.796" height="103.312"/>
			
				<rect x="73.477" y="15.275" transform="matrix(-0.6467 -0.7627 0.7627 -0.6467 70.6038 166.5634)" clip-path="url(#SVGID_2_)" fill-rule="evenodd" clip-rule="evenodd" fill="#276272" width="0.796" height="103.312"/>
			
				<rect x="73.82" y="15.68" transform="matrix(-0.647 -0.7625 0.7625 -0.647 70.8997 167.493)" clip-path="url(#SVGID_2_)" fill-rule="evenodd" clip-rule="evenodd" fill="#276272" width="0.795" height="103.311"/>
			
				<rect x="74.163" y="16.085" transform="matrix(-0.6467 -0.7627 0.7627 -0.6467 71.1156 168.4196)" clip-path="url(#SVGID_2_)" fill-rule="evenodd" clip-rule="evenodd" fill="#266172" width="0.796" height="103.311"/>
			
				<rect x="74.507" y="16.49" transform="matrix(-0.646 -0.7633 0.7633 -0.646 71.2781 169.3441)" clip-path="url(#SVGID_2_)" fill-rule="evenodd" clip-rule="evenodd" fill="#266171" width="0.795" height="103.311"/>
			
				<rect x="74.849" y="16.894" transform="matrix(-0.6467 -0.7627 0.7627 -0.6467 71.6288 170.275)" clip-path="url(#SVGID_2_)" fill-rule="evenodd" clip-rule="evenodd" fill="#266171" width="0.796" height="103.311"/>
			
				<rect x="75.192" y="17.299" transform="matrix(-0.6467 -0.7627 0.7627 -0.6467 71.8851 171.2028)" clip-path="url(#SVGID_2_)" fill-rule="evenodd" clip-rule="evenodd" fill="#266171" width="0.796" height="103.311"/>
			
				<rect x="75.535" y="17.703" transform="matrix(-0.6467 -0.7627 0.7627 -0.6467 72.1409 172.1308)" clip-path="url(#SVGID_2_)" fill-rule="evenodd" clip-rule="evenodd" fill="#266171" width="0.796" height="103.311"/>
			
				<rect x="75.878" y="18.108" transform="matrix(-0.6467 -0.7627 0.7627 -0.6467 72.398 173.059)" clip-path="url(#SVGID_2_)" fill-rule="evenodd" clip-rule="evenodd" fill="#266171" width="0.796" height="103.311"/>
			
				<rect x="76.221" y="18.512" transform="matrix(-0.6467 -0.7627 0.7627 -0.6467 72.6539 173.9866)" clip-path="url(#SVGID_2_)" fill-rule="evenodd" clip-rule="evenodd" fill="#266070" width="0.796" height="103.311"/>
			
				<rect x="76.564" y="18.917" transform="matrix(-0.6467 -0.7627 0.7627 -0.6467 72.91 174.9148)" clip-path="url(#SVGID_2_)" fill-rule="evenodd" clip-rule="evenodd" fill="#256070" width="0.796" height="103.311"/>
			
				<rect x="76.907" y="19.321" transform="matrix(-0.6467 -0.7627 0.7627 -0.6467 73.1661 175.842)" clip-path="url(#SVGID_2_)" fill-rule="evenodd" clip-rule="evenodd" fill="#256070" width="0.796" height="103.311"/>
			
				<rect x="77.251" y="19.727" transform="matrix(-0.6463 -0.7631 0.7631 -0.6463 73.3662 176.7683)" clip-path="url(#SVGID_2_)" fill-rule="evenodd" clip-rule="evenodd" fill="#256070" width="0.795" height="103.311"/>
			
				<rect x="77.593" y="20.131" transform="matrix(-0.6467 -0.7627 0.7627 -0.6467 73.6788 177.6986)" clip-path="url(#SVGID_2_)" fill-rule="evenodd" clip-rule="evenodd" fill="#256070" width="0.796" height="103.312"/>
			
				<rect x="77.936" y="20.535" transform="matrix(-0.6467 -0.7627 0.7627 -0.6467 73.9353 178.626)" clip-path="url(#SVGID_2_)" fill-rule="evenodd" clip-rule="evenodd" fill="#255F6F" width="0.796" height="103.311"/>
			
				<rect x="78.279" y="20.94" transform="matrix(-0.6467 -0.7627 0.7627 -0.6467 74.1912 179.5536)" clip-path="url(#SVGID_2_)" fill-rule="evenodd" clip-rule="evenodd" fill="#255F6F" width="0.796" height="103.311"/>
			
				<rect x="78.623" y="21.345" transform="matrix(-0.646 -0.7633 0.7633 -0.646 74.3468 180.4781)" clip-path="url(#SVGID_2_)" fill-rule="evenodd" clip-rule="evenodd" fill="#255F6F" width="0.795" height="103.311"/>
			
				<rect x="78.965" y="21.749" transform="matrix(-0.6467 -0.7627 0.7627 -0.6467 74.704 181.4098)" clip-path="url(#SVGID_2_)" fill-rule="evenodd" clip-rule="evenodd" fill="#255F6F" width="0.796" height="103.312"/>
			
				<rect x="79.308" y="22.154" transform="matrix(-0.6467 -0.7627 0.7627 -0.6467 74.9603 182.3376)" clip-path="url(#SVGID_2_)" fill-rule="evenodd" clip-rule="evenodd" fill="#245F6F" width="0.796" height="103.311"/>
			
				<rect x="79.652" y="22.559" transform="matrix(-0.646 -0.7633 0.7633 -0.646 75.1149 183.261)" clip-path="url(#SVGID_2_)" fill-rule="evenodd" clip-rule="evenodd" fill="#245E6E" width="0.795" height="103.311"/>
			
				<rect x="79.995" y="22.963" transform="matrix(-0.6467 -0.7627 0.7627 -0.6467 75.4732 184.1938)" clip-path="url(#SVGID_2_)" fill-rule="evenodd" clip-rule="evenodd" fill="#245E6E" width="0.796" height="103.312"/>
			
				<rect x="80.337" y="23.367" transform="matrix(-0.6467 -0.7627 0.7627 -0.6467 75.7293 185.121)" clip-path="url(#SVGID_2_)" fill-rule="evenodd" clip-rule="evenodd" fill="#245E6E" width="0.796" height="103.312"/>
			
				<rect x="80.68" y="23.772" transform="matrix(-0.6467 -0.7627 0.7627 -0.6467 75.9856 186.0488)" clip-path="url(#SVGID_2_)" fill-rule="evenodd" clip-rule="evenodd" fill="#245E6E" width="0.796" height="103.311"/>
			
				<rect x="81.023" y="24.177" transform="matrix(-0.6467 -0.7627 0.7627 -0.6467 76.2411 186.9772)" clip-path="url(#SVGID_2_)" fill-rule="evenodd" clip-rule="evenodd" fill="#245E6E" width="0.796" height="103.311"/>
			
				<rect x="81.367" y="24.581" transform="matrix(-0.646 -0.7633 0.7633 -0.646 76.3938 187.9)" clip-path="url(#SVGID_2_)" fill-rule="evenodd" clip-rule="evenodd" fill="#245D6D" width="0.795" height="103.311"/>
			
				<rect x="81.71" y="24.986" transform="matrix(-0.6467 -0.7627 0.7627 -0.6467 76.7543 188.8326)" clip-path="url(#SVGID_2_)" fill-rule="evenodd" clip-rule="evenodd" fill="#235D6D" width="0.796" height="103.311"/>
			
				<rect x="82.053" y="25.391" transform="matrix(-0.6467 -0.7627 0.7627 -0.6467 77.0107 189.7604)" clip-path="url(#SVGID_2_)" fill-rule="evenodd" clip-rule="evenodd" fill="#235D6D" width="0.796" height="103.311"/>
			
				<rect x="82.395" y="25.795" transform="matrix(-0.6467 -0.7627 0.7627 -0.6467 77.2664 190.6884)" clip-path="url(#SVGID_2_)" fill-rule="evenodd" clip-rule="evenodd" fill="#235D6D" width="0.796" height="103.311"/>
			
				<rect x="82.739" y="26.2" transform="matrix(-0.6467 -0.7627 0.7627 -0.6467 77.5235 191.6166)" clip-path="url(#SVGID_2_)" fill-rule="evenodd" clip-rule="evenodd" fill="#235D6D" width="0.796" height="103.311"/>
			
				<rect x="83.082" y="26.604" transform="matrix(-0.6467 -0.7627 0.7627 -0.6467 77.7796 192.5438)" clip-path="url(#SVGID_2_)" fill-rule="evenodd" clip-rule="evenodd" fill="#235D6C" width="0.796" height="103.311"/>
			
				<rect x="83.425" y="27.009" transform="matrix(-0.6467 -0.7627 0.7627 -0.6467 78.0355 193.4724)" clip-path="url(#SVGID_2_)" fill-rule="evenodd" clip-rule="evenodd" fill="#235C6C" width="0.796" height="103.311"/>
			
				<rect x="83.768" y="27.413" transform="matrix(-0.6463 -0.7631 0.7631 -0.6463 78.23 194.3972)" clip-path="url(#SVGID_2_)" fill-rule="evenodd" clip-rule="evenodd" fill="#235C6C" width="0.795" height="103.311"/>
			
				<rect x="84.111" y="27.818" transform="matrix(-0.6467 -0.7627 0.7627 -0.6467 78.5487 195.3278)" clip-path="url(#SVGID_2_)" fill-rule="evenodd" clip-rule="evenodd" fill="#225C6C" width="0.796" height="103.311"/>
			
				<rect x="84.454" y="28.223" transform="matrix(-0.6467 -0.7627 0.7627 -0.6467 78.8043 196.2562)" clip-path="url(#SVGID_2_)" fill-rule="evenodd" clip-rule="evenodd" fill="#225C6C" width="0.796" height="103.312"/>
			
				<rect x="84.797" y="28.627" transform="matrix(-0.6467 -0.7627 0.7627 -0.6467 79.0608 197.1836)" clip-path="url(#SVGID_2_)" fill-rule="evenodd" clip-rule="evenodd" fill="#225C6B" width="0.796" height="103.311"/>
			
				<rect x="85.139" y="29.032" transform="matrix(-0.6467 -0.7627 0.7627 -0.6467 79.3167 198.1112)" clip-path="url(#SVGID_2_)" fill-rule="evenodd" clip-rule="evenodd" fill="#225B6B" width="0.796" height="103.311"/>
			
				<rect x="85.483" y="29.437" transform="matrix(-0.6463 -0.7631 0.7631 -0.6463 79.5098 199.0367)" clip-path="url(#SVGID_2_)" fill-rule="evenodd" clip-rule="evenodd" fill="#225B6B" width="0.795" height="103.311"/>
			
				<rect x="85.826" y="29.841" transform="matrix(-0.6467 -0.7627 0.7627 -0.6467 79.8295 199.9673)" clip-path="url(#SVGID_2_)" fill-rule="evenodd" clip-rule="evenodd" fill="#225B6B" width="0.796" height="103.312"/>
			
				<rect x="86.169" y="30.246" transform="matrix(-0.6467 -0.7627 0.7627 -0.6467 80.0858 200.8951)" clip-path="url(#SVGID_2_)" fill-rule="evenodd" clip-rule="evenodd" fill="#225B6B" width="0.796" height="103.311"/>
			
				<rect x="86.512" y="30.65" transform="matrix(-0.6467 -0.7627 0.7627 -0.6467 80.3419 201.8224)" clip-path="url(#SVGID_2_)" fill-rule="evenodd" clip-rule="evenodd" fill="#225B6A" width="0.796" height="103.311"/>
			
				<rect x="86.855" y="31.055" transform="matrix(-0.6467 -0.7627 0.7627 -0.6467 80.5987 202.7513)" clip-path="url(#SVGID_2_)" fill-rule="evenodd" clip-rule="evenodd" fill="#215A6A" width="0.796" height="103.312"/>
			
				<rect x="87.198" y="31.459" transform="matrix(-0.647 -0.7625 0.7625 -0.647 80.9025 203.6816)" clip-path="url(#SVGID_2_)" fill-rule="evenodd" clip-rule="evenodd" fill="#215A6A" width="0.795" height="103.312"/>
			
				<rect x="87.541" y="31.864" transform="matrix(-0.6467 -0.7627 0.7627 -0.6467 81.1111 204.6063)" clip-path="url(#SVGID_2_)" fill-rule="evenodd" clip-rule="evenodd" fill="#215A6A" width="0.796" height="103.311"/>
			
				<rect x="87.885" y="32.269" transform="matrix(-0.6463 -0.7631 0.7631 -0.6463 81.3018 205.5314)" clip-path="url(#SVGID_2_)" fill-rule="evenodd" clip-rule="evenodd" fill="#215A6A" width="0.795" height="103.312"/>
			
				<rect x="88.227" y="32.673" transform="matrix(-0.646 -0.7633 0.7633 -0.646 81.5095 206.4559)" clip-path="url(#SVGID_2_)" fill-rule="evenodd" clip-rule="evenodd" fill="#215A69" width="0.795" height="103.311"/>
			
				<rect x="88.57" y="33.077" transform="matrix(-0.6467 -0.7627 0.7627 -0.6467 81.8798 207.3901)" clip-path="url(#SVGID_2_)" fill-rule="evenodd" clip-rule="evenodd" fill="#215A69" width="0.796" height="103.311"/>
			
				<rect x="88.913" y="33.482" transform="matrix(-0.6467 -0.7627 0.7627 -0.6467 82.1363 208.3175)" clip-path="url(#SVGID_2_)" fill-rule="evenodd" clip-rule="evenodd" fill="#215969" width="0.796" height="103.311"/>
			
				<rect x="89.256" y="33.887" transform="matrix(-0.6467 -0.7627 0.7627 -0.6467 82.3919 209.2459)" clip-path="url(#SVGID_2_)" fill-rule="evenodd" clip-rule="evenodd" fill="#205969" width="0.796" height="103.311"/>
			
				<rect x="89.6" y="34.292" transform="matrix(-0.6463 -0.7631 0.7631 -0.6463 82.5819 210.1701)" clip-path="url(#SVGID_2_)" fill-rule="evenodd" clip-rule="evenodd" fill="#205969" width="0.795" height="103.311"/>
			
				<rect x="89.942" y="34.696" transform="matrix(-0.6467 -0.7627 0.7627 -0.6467 82.9051 211.1013)" clip-path="url(#SVGID_2_)" fill-rule="evenodd" clip-rule="evenodd" fill="#205968" width="0.796" height="103.311"/>
			
				<rect x="90.285" y="35.101" transform="matrix(-0.6467 -0.7627 0.7627 -0.6467 83.161 212.0299)" clip-path="url(#SVGID_2_)" fill-rule="evenodd" clip-rule="evenodd" fill="#205968" width="0.796" height="103.311"/>
			
				<rect x="90.629" y="35.505" transform="matrix(-0.646 -0.7633 0.7633 -0.646 83.3001 212.9503)" clip-path="url(#SVGID_2_)" fill-rule="evenodd" clip-rule="evenodd" fill="#205868" width="0.795" height="103.311"/>
			
				<rect x="90.971" y="35.91" transform="matrix(-0.6467 -0.7627 0.7627 -0.6467 83.6743 213.8853)" clip-path="url(#SVGID_2_)" fill-rule="evenodd" clip-rule="evenodd" fill="#205868" width="0.796" height="103.311"/>
			
				<rect x="91.314" y="36.314" transform="matrix(-0.6467 -0.7627 0.7627 -0.6467 83.9304 214.8125)" clip-path="url(#SVGID_2_)" fill-rule="evenodd" clip-rule="evenodd" fill="#205868" width="0.796" height="103.311"/>
			
				<rect x="91.657" y="36.719" transform="matrix(-0.6467 -0.7627 0.7627 -0.6467 84.1863 215.7411)" clip-path="url(#SVGID_2_)" fill-rule="evenodd" clip-rule="evenodd" fill="#1F5867" width="0.796" height="103.311"/>
			
				<rect x="92" y="37.124" transform="matrix(-0.6467 -0.7627 0.7627 -0.6467 84.4422 216.6687)" clip-path="url(#SVGID_2_)" fill-rule="evenodd" clip-rule="evenodd" fill="#1F5867" width="0.796" height="103.311"/>
			
				<rect x="92.344" y="37.528" transform="matrix(-0.646 -0.7633 0.7633 -0.646 84.5792 217.5889)" clip-path="url(#SVGID_2_)" fill-rule="evenodd" clip-rule="evenodd" fill="#1F5767" width="0.795" height="103.311"/>
			
				<rect x="92.686" y="37.933" transform="matrix(-0.6467 -0.7627 0.7627 -0.6467 84.955 218.5249)" clip-path="url(#SVGID_2_)" fill-rule="evenodd" clip-rule="evenodd" fill="#1F5767" width="0.796" height="103.312"/>
			
				<rect x="93.029" y="38.337" transform="matrix(-0.6467 -0.7627 0.7627 -0.6467 85.2115 219.4523)" clip-path="url(#SVGID_2_)" fill-rule="evenodd" clip-rule="evenodd" fill="#1F5767" width="0.796" height="103.311"/>
			
				<rect x="93.372" y="38.742" transform="matrix(-0.6467 -0.7627 0.7627 -0.6467 85.4675 220.3799)" clip-path="url(#SVGID_2_)" fill-rule="evenodd" clip-rule="evenodd" fill="#1F5766" width="0.796" height="103.311"/>
			
				<rect x="93.715" y="39.146" transform="matrix(-0.646 -0.7633 0.7633 -0.646 85.6017 221.3004)" clip-path="url(#SVGID_2_)" fill-rule="evenodd" clip-rule="evenodd" fill="#1F5766" width="0.795" height="103.312"/>
			
				<rect x="94.058" y="39.551" transform="matrix(-0.6467 -0.7627 0.7627 -0.6467 85.9803 222.2361)" clip-path="url(#SVGID_2_)" fill-rule="evenodd" clip-rule="evenodd" fill="#1E5766" width="0.796" height="103.312"/>
			
				<rect x="94.401" y="39.956" transform="matrix(-0.6467 -0.7627 0.7627 -0.6467 86.2366 223.1639)" clip-path="url(#SVGID_2_)" fill-rule="evenodd" clip-rule="evenodd" fill="#1E5666" width="0.796" height="103.311"/>
			
				<rect x="94.745" y="40.36" transform="matrix(-0.646 -0.7633 0.7633 -0.646 86.3698 224.0833)" clip-path="url(#SVGID_2_)" fill-rule="evenodd" clip-rule="evenodd" fill="#1E5666" width="0.795" height="103.311"/>
			
				<rect x="95.087" y="40.765" transform="matrix(-0.6467 -0.7627 0.7627 -0.6467 86.7495 225.0201)" clip-path="url(#SVGID_2_)" fill-rule="evenodd" clip-rule="evenodd" fill="#1E5665" width="0.796" height="103.312"/>
			
				<rect x="95.43" y="41.169" transform="matrix(-0.6467 -0.7627 0.7627 -0.6467 87.0054 225.9477)" clip-path="url(#SVGID_2_)" fill-rule="evenodd" clip-rule="evenodd" fill="#1E5665" width="0.796" height="103.311"/>
			
				<rect x="95.773" y="41.574" transform="matrix(-0.6467 -0.7627 0.7627 -0.6467 87.2619 226.8751)" clip-path="url(#SVGID_2_)" fill-rule="evenodd" clip-rule="evenodd" fill="#1E5665" width="0.796" height="103.311"/>
			
				<rect x="96.116" y="41.978" transform="matrix(-0.647 -0.7625 0.7625 -0.647 87.5707 227.8071)" clip-path="url(#SVGID_2_)" fill-rule="evenodd" clip-rule="evenodd" fill="#1E5565" width="0.795" height="103.312"/>
			
				<rect x="96.46" y="42.383" transform="matrix(-0.646 -0.7633 0.7633 -0.646 87.6485 228.7227)" clip-path="url(#SVGID_2_)" fill-rule="evenodd" clip-rule="evenodd" fill="#1E5565" width="0.795" height="103.311"/>
			
				<rect x="96.802" y="42.787" transform="matrix(-0.6467 -0.7627 0.7627 -0.6467 88.0306 229.6589)" clip-path="url(#SVGID_2_)" fill-rule="evenodd" clip-rule="evenodd" fill="#1D5564" width="0.796" height="103.311"/>
			
				<rect x="97.145" y="43.192" transform="matrix(-0.6467 -0.7627 0.7627 -0.6467 88.2871 230.5863)" clip-path="url(#SVGID_2_)" fill-rule="evenodd" clip-rule="evenodd" fill="#1D5564" width="0.796" height="103.311"/>
			
				<rect x="97.488" y="43.597" transform="matrix(-0.6467 -0.7627 0.7627 -0.6467 88.5426 231.5147)" clip-path="url(#SVGID_2_)" fill-rule="evenodd" clip-rule="evenodd" fill="#1D5564" width="0.796" height="103.311"/>
			
				<rect x="97.832" y="44.001" transform="matrix(-0.6467 -0.7627 0.7627 -0.6467 88.7998 232.4428)" clip-path="url(#SVGID_2_)" fill-rule="evenodd" clip-rule="evenodd" fill="#1D5464" width="0.796" height="103.311"/>
			
				<rect x="98.174" y="44.406" transform="matrix(-0.6467 -0.7627 0.7627 -0.6467 89.0559 233.3701)" clip-path="url(#SVGID_2_)" fill-rule="evenodd" clip-rule="evenodd" fill="#1D5464" width="0.796" height="103.311"/>
			
				<rect x="98.596" y="44.641" transform="matrix(-0.6471 -0.7624 0.7624 -0.6471 89.2737 233.9148)" clip-path="url(#SVGID_2_)" fill-rule="evenodd" clip-rule="evenodd" fill="#1D5463" width="0.352" height="103.312"/>
		</g>
	</g>
	<path fill-rule="evenodd" clip-rule="evenodd" fill="#FCFAE6" d="M93.456,71.365c-2.266-1.662-6.62-3.889-13.634-3.884
		c-7.122-0.01-11.369,2.42-13.521,4.205V46.032c0.017-0.022,0.039-0.055,0.088-0.108c0.747-0.878,4.466-4.897,13.431-4.904
		c5.139,0,8.617,1.252,10.819,2.479c1.101,0.61,1.88,1.216,2.375,1.657c0.188,0.168,0.333,0.308,0.441,0.421L93.456,71.365
		L93.456,71.365L93.456,71.365z M50.653,67.481h-0.04c-7.016-0.005-11.371,2.22-13.639,3.884V45.584
		c0.977-0.998,4.968-4.556,13.639-4.564c5.131,0,8.524,1.326,10.654,2.603c1.061,0.651,1.799,1.286,2.27,1.751
		c0.237,0.234,0.403,0.423,0.505,0.547c0.041,0.045,0.061,0.072,0.077,0.097l0.002,25.653C61.963,69.895,57.73,67.485,50.653,67.481
		L50.653,67.481L50.653,67.481z M95.404,44.495c-0.122-0.181-4.571-5.667-15.584-5.656c-8.518-0.009-12.972,3.454-14.606,5.132
		c-1.635-1.676-6.084-5.139-14.602-5.132c-11.015-0.011-15.466,5.476-15.585,5.656c-0.149,0.189-0.229,0.43-0.229,0.669v28.645
		c0,0.459,0.297,0.88,0.729,1.028c0.444,0.149,0.932,0.005,1.218-0.359c0,0,0.022-0.041,0.133-0.156
		c0.792-0.833,4.751-4.651,13.735-4.661c5.132,0,8.509,1.331,10.621,2.619c1.053,0.646,1.788,1.286,2.251,1.751
		c0.237,0.232,0.401,0.422,0.502,0.545c0.106,0.128,0.125,0.164,0.129,0.164c0.198,0.3,0.538,0.481,0.898,0.481l0.403-0.002
		c0.36,0,0.7-0.179,0.898-0.48c0,0,0.022-0.036,0.129-0.164c0.732-0.874,4.411-4.901,13.377-4.918c5.139,0,8.617,1.256,10.818,2.479
		c1.102,0.61,1.88,1.221,2.376,1.662c0.245,0.224,0.421,0.403,0.533,0.519c0.112,0.117,0.137,0.156,0.137,0.156
		c0.286,0.364,0.774,0.509,1.218,0.359c0.436-0.149,0.732-0.569,0.732-1.028V45.158C95.634,44.927,95.553,44.685,95.404,44.495z"/>
	<path fill-rule="evenodd" clip-rule="evenodd" fill="#FCFAE6" d="M85.589,72.907c-1.634-1.2-4.775-2.806-9.837-2.801
		c-5.139-0.007-8.2,1.747-9.754,3.033L66,54.631c0.011-0.018,0.027-0.038,0.063-0.077c0.537-0.635,3.222-3.533,9.69-3.54
		c3.709,0,6.217,0.903,7.804,1.788c0.795,0.442,1.355,0.878,1.714,1.196c0.135,0.122,0.24,0.226,0.317,0.304V72.907L85.589,72.907
		L85.589,72.907z M54.71,70.104h-0.029c-5.062-0.002-8.205,1.604-9.839,2.801v-18.6c0.705-0.718,3.583-3.285,9.839-3.292
		c3.702,0,6.151,0.957,7.687,1.878c0.766,0.468,1.297,0.928,1.638,1.263c0.171,0.168,0.29,0.304,0.365,0.394
		c0.029,0.031,0.043,0.052,0.055,0.07l0.002,18.509C62.869,71.844,59.817,70.106,54.71,70.104L54.71,70.104L54.71,70.104z
		 M86.994,53.521c-0.087-0.13-3.299-4.089-11.242-4.08c-6.145-0.004-9.357,2.493-10.538,3.702c-1.18-1.209-4.391-3.709-10.536-3.702
		c-7.946-0.009-11.157,3.951-11.244,4.083c-0.108,0.135-0.165,0.308-0.165,0.481v20.667c0,0.328,0.214,0.635,0.527,0.74
		c0.32,0.108,0.673,0.004,0.878-0.261c0.002,0,0.018-0.029,0.097-0.112c0.569-0.602,3.429-3.357,9.907-3.361
		c3.702,0,6.138,0.958,7.662,1.889c0.761,0.467,1.291,0.928,1.624,1.266c0.171,0.167,0.29,0.304,0.362,0.394
		c0.077,0.092,0.09,0.119,0.092,0.119c0.142,0.217,0.387,0.35,0.648,0.35l0.29-0.003c0.262,0,0.506-0.128,0.648-0.347
		c0,0,0.018-0.027,0.092-0.119c0.529-0.628,3.182-3.535,9.65-3.548c3.709,0,6.217,0.906,7.804,1.787
		c0.795,0.441,1.355,0.881,1.713,1.2c0.176,0.16,0.304,0.29,0.385,0.374c0.081,0.083,0.099,0.112,0.099,0.112
		c0.207,0.264,0.559,0.366,0.879,0.261c0.313-0.105,0.526-0.412,0.526-0.74V54.005C87.161,53.832,87.103,53.658,86.994,53.521z"/>
</g>
</svg>
