<?xml version="1.0" encoding="utf-8"?>
<!-- Generator: Adobe Illustrator 15.1.0, SVG Export Plug-In . SVG Version: 6.00 Build 0)  -->
<!DOCTYPE svg PUBLIC "-//W3C//DTD SVG 1.1//EN" "http://www.w3.org/Graphics/SVG/1.1/DTD/svg11.dtd">
<svg version="1.1" id="_x31_" xmlns="http://www.w3.org/2000/svg" xmlns:xlink="http://www.w3.org/1999/xlink" x="0px" y="0px"
	 width="130.961px" height="130.961px" viewBox="0 0 130.961 130.961" enable-background="new 0 0 130.961 130.961"
	 xml:space="preserve">
<g>
	<path fill-rule="evenodd" clip-rule="evenodd" fill="#9C0259" d="M65.48,5.032c28.872,0,52.277,23.405,52.277,52.277
		c0,25.455-18.195,46.658-42.289,51.321l-3.587,6.212l-6.401,11.087l-6.401-11.087l-3.587-6.212
		c-24.094-4.663-42.29-25.866-42.29-51.321C13.203,28.438,36.608,5.032,65.48,5.032z"/>
	<g>
		<g>
			<defs>
				<path id="SVGID_1_" d="M65.48,103.197c25.427,0,46.165-20.737,46.165-46.166c0-25.427-20.737-46.165-46.165-46.165
					c-25.425,0-46.165,20.737-46.165,46.165C19.315,82.46,40.055,103.197,65.48,103.197z"/>
			</defs>
			<clipPath id="SVGID_2_">
				<use xlink:href="#SVGID_1_"  overflow="visible"/>
			</clipPath>
			
				<rect x="31.904" y="-34.103" transform="matrix(0.6473 0.7622 -0.7622 0.6473 24.6683 -18.2069)" clip-path="url(#SVGID_2_)" fill-rule="evenodd" clip-rule="evenodd" fill="#C9187C" width="0.208" height="103.312"/>
			
				<rect x="31.629" y="-34.082" transform="matrix(-0.647 -0.7625 0.7625 -0.647 39.3499 53.3649)" clip-path="url(#SVGID_2_)" fill-rule="evenodd" clip-rule="evenodd" fill="#C8187C" width="0.795" height="103.313"/>
			
				<rect x="31.972" y="-33.677" transform="matrix(-0.647 -0.7625 0.7625 -0.647 39.6058 54.2929)" clip-path="url(#SVGID_2_)" fill-rule="evenodd" clip-rule="evenodd" fill="#C8187C" width="0.795" height="103.313"/>
			
				<rect x="32.315" y="-33.273" transform="matrix(-0.6467 -0.7627 0.7627 -0.6467 39.8477 55.2236)" clip-path="url(#SVGID_2_)" fill-rule="evenodd" clip-rule="evenodd" fill="#C8187C" width="0.796" height="103.313"/>
			
				<rect x="32.658" y="-32.868" transform="matrix(-0.6467 -0.7627 0.7627 -0.6467 40.1042 56.151)" clip-path="url(#SVGID_2_)" fill-rule="evenodd" clip-rule="evenodd" fill="#C8177B" width="0.796" height="103.312"/>
			
				<rect x="33.001" y="-32.463" transform="matrix(-0.646 -0.7633 0.7633 -0.646 40.3254 57.0855)" clip-path="url(#SVGID_2_)" fill-rule="evenodd" clip-rule="evenodd" fill="#C8177B" width="0.795" height="103.312"/>
			
				<rect x="33.344" y="-32.059" transform="matrix(-0.6467 -0.7627 0.7627 -0.6467 40.6168 58.0076)" clip-path="url(#SVGID_2_)" fill-rule="evenodd" clip-rule="evenodd" fill="#C7177B" width="0.796" height="103.313"/>
			
				<rect x="33.687" y="-31.654" transform="matrix(-0.6467 -0.7627 0.7627 -0.6467 40.8729 58.9348)" clip-path="url(#SVGID_2_)" fill-rule="evenodd" clip-rule="evenodd" fill="#C7177B" width="0.796" height="103.313"/>
			
				<rect x="34.03" y="-31.249" transform="matrix(-0.6467 -0.7627 0.7627 -0.6467 41.1293 59.8626)" clip-path="url(#SVGID_2_)" fill-rule="evenodd" clip-rule="evenodd" fill="#C7177B" width="0.796" height="103.312"/>
			
				<rect x="34.373" y="-30.845" transform="matrix(-0.6467 -0.7627 0.7627 -0.6467 41.3852 60.7902)" clip-path="url(#SVGID_2_)" fill-rule="evenodd" clip-rule="evenodd" fill="#C7177B" width="0.796" height="103.312"/>
			
				<rect x="34.716" y="-30.441" transform="matrix(-0.6467 -0.7627 0.7627 -0.6467 41.6421 61.7188)" clip-path="url(#SVGID_2_)" fill-rule="evenodd" clip-rule="evenodd" fill="#C7177A" width="0.796" height="103.313"/>
			
				<rect x="35.059" y="-30.036" transform="matrix(-0.647 -0.7625 0.7625 -0.647 41.9143 62.6438)" clip-path="url(#SVGID_2_)" fill-rule="evenodd" clip-rule="evenodd" fill="#C6177A" width="0.795" height="103.313"/>
			
				<rect x="35.402" y="-29.631" transform="matrix(-0.6467 -0.7627 0.7627 -0.6467 42.1539 63.574)" clip-path="url(#SVGID_2_)" fill-rule="evenodd" clip-rule="evenodd" fill="#C6177A" width="0.796" height="103.313"/>
			
				<rect x="35.745" y="-29.227" transform="matrix(-0.647 -0.7625 0.7625 -0.647 42.4277 64.4997)" clip-path="url(#SVGID_2_)" fill-rule="evenodd" clip-rule="evenodd" fill="#C6177A" width="0.795" height="103.313"/>
			
				<rect x="36.088" y="-28.823" transform="matrix(-0.6467 -0.7627 0.7627 -0.6467 42.6669 65.4298)" clip-path="url(#SVGID_2_)" fill-rule="evenodd" clip-rule="evenodd" fill="#C6167A" width="0.796" height="103.313"/>
			
				<rect x="36.431" y="-28.418" transform="matrix(-0.6467 -0.7627 0.7627 -0.6467 42.9233 66.3576)" clip-path="url(#SVGID_2_)" fill-rule="evenodd" clip-rule="evenodd" fill="#C6167A" width="0.796" height="103.312"/>
			
				<rect x="36.774" y="-28.013" transform="matrix(-0.6467 -0.7627 0.7627 -0.6467 43.1796 67.2854)" clip-path="url(#SVGID_2_)" fill-rule="evenodd" clip-rule="evenodd" fill="#C51679" width="0.796" height="103.312"/>
			
				<rect x="37.118" y="-27.608" transform="matrix(-0.646 -0.7633 0.7633 -0.646 43.3947 68.2193)" clip-path="url(#SVGID_2_)" fill-rule="evenodd" clip-rule="evenodd" fill="#C51679" width="0.795" height="103.312"/>
			
				<rect x="37.46" y="-27.204" transform="matrix(-0.6467 -0.7627 0.7627 -0.6467 43.6924 69.1415)" clip-path="url(#SVGID_2_)" fill-rule="evenodd" clip-rule="evenodd" fill="#C51679" width="0.796" height="103.312"/>
			
				<rect x="37.803" y="-26.799" transform="matrix(-0.6467 -0.7627 0.7627 -0.6467 43.9483 70.0692)" clip-path="url(#SVGID_2_)" fill-rule="evenodd" clip-rule="evenodd" fill="#C51679" width="0.796" height="103.313"/>
			
				<rect x="38.146" y="-26.395" transform="matrix(-0.647 -0.7625 0.7625 -0.647 44.2228 70.9947)" clip-path="url(#SVGID_2_)" fill-rule="evenodd" clip-rule="evenodd" fill="#C51679" width="0.795" height="103.312"/>
			
				<rect x="38.489" y="-25.99" transform="matrix(-0.647 -0.7625 0.7625 -0.647 44.4787 71.9228)" clip-path="url(#SVGID_2_)" fill-rule="evenodd" clip-rule="evenodd" fill="#C41679" width="0.795" height="103.312"/>
			
				<rect x="38.832" y="-25.586" transform="matrix(-0.6467 -0.7627 0.7627 -0.6467 44.7175 72.8531)" clip-path="url(#SVGID_2_)" fill-rule="evenodd" clip-rule="evenodd" fill="#C41679" width="0.796" height="103.313"/>
			
				<rect x="39.175" y="-25.181" transform="matrix(-0.6467 -0.7627 0.7627 -0.6467 44.9736 73.7803)" clip-path="url(#SVGID_2_)" fill-rule="evenodd" clip-rule="evenodd" fill="#C41678" width="0.796" height="103.313"/>
			
				<rect x="39.518" y="-24.777" transform="matrix(-0.6467 -0.7627 0.7627 -0.6467 45.2295 74.708)" clip-path="url(#SVGID_2_)" fill-rule="evenodd" clip-rule="evenodd" fill="#C41678" width="0.796" height="103.312"/>
			
				<rect x="39.862" y="-24.372" transform="matrix(-0.646 -0.7633 0.7633 -0.646 45.4411 75.6414)" clip-path="url(#SVGID_2_)" fill-rule="evenodd" clip-rule="evenodd" fill="#C41578" width="0.795" height="103.312"/>
			
				<rect x="40.204" y="-23.968" transform="matrix(-0.6467 -0.7627 0.7627 -0.6467 45.7423 76.5641)" clip-path="url(#SVGID_2_)" fill-rule="evenodd" clip-rule="evenodd" fill="#C31578" width="0.796" height="103.313"/>
			
				<rect x="40.547" y="-23.563" transform="matrix(-0.6467 -0.7627 0.7627 -0.6467 45.9986 77.4919)" clip-path="url(#SVGID_2_)" fill-rule="evenodd" clip-rule="evenodd" fill="#C31578" width="0.796" height="103.312"/>
			
				<rect x="40.89" y="-23.158" transform="matrix(-0.647 -0.7625 0.7625 -0.647 46.2746 78.4182)" clip-path="url(#SVGID_2_)" fill-rule="evenodd" clip-rule="evenodd" fill="#C31578" width="0.795" height="103.312"/>
			
				<rect x="41.233" y="-22.753" transform="matrix(-0.6467 -0.7627 0.7627 -0.6467 46.5107 79.3477)" clip-path="url(#SVGID_2_)" fill-rule="evenodd" clip-rule="evenodd" fill="#C31577" width="0.796" height="103.312"/>
			
				<rect x="41.577" y="-22.349" transform="matrix(-0.647 -0.7625 0.7625 -0.647 46.788 80.274)" clip-path="url(#SVGID_2_)" fill-rule="evenodd" clip-rule="evenodd" fill="#C31577" width="0.795" height="103.313"/>
			
				<rect x="41.919" y="-21.944" transform="matrix(-0.6467 -0.7627 0.7627 -0.6467 47.0237 81.2035)" clip-path="url(#SVGID_2_)" fill-rule="evenodd" clip-rule="evenodd" fill="#C21577" width="0.796" height="103.313"/>
			
				<rect x="42.262" y="-21.54" transform="matrix(-0.6467 -0.7627 0.7627 -0.6467 47.28 82.1313)" clip-path="url(#SVGID_2_)" fill-rule="evenodd" clip-rule="evenodd" fill="#C21577" width="0.796" height="103.312"/>
			
				<rect x="42.605" y="-21.135" transform="matrix(-0.6467 -0.7627 0.7627 -0.6467 47.5359 83.0589)" clip-path="url(#SVGID_2_)" fill-rule="evenodd" clip-rule="evenodd" fill="#C21577" width="0.796" height="103.312"/>
			
				<rect x="42.949" y="-20.73" transform="matrix(-0.646 -0.7633 0.7633 -0.646 47.7433 83.9912)" clip-path="url(#SVGID_2_)" fill-rule="evenodd" clip-rule="evenodd" fill="#C21577" width="0.795" height="103.312"/>
			
				<rect x="43.291" y="-20.326" transform="matrix(-0.6467 -0.7627 0.7627 -0.6467 48.049 84.9147)" clip-path="url(#SVGID_2_)" fill-rule="evenodd" clip-rule="evenodd" fill="#C21476" width="0.796" height="103.313"/>
			
				<rect x="43.634" y="-19.921" transform="matrix(-0.6467 -0.7627 0.7627 -0.6467 48.3047 85.8427)" clip-path="url(#SVGID_2_)" fill-rule="evenodd" clip-rule="evenodd" fill="#C11476" width="0.796" height="103.313"/>
			
				<rect x="43.978" y="-19.517" transform="matrix(-0.646 -0.7633 0.7633 -0.646 48.5104 86.7752)" clip-path="url(#SVGID_2_)" fill-rule="evenodd" clip-rule="evenodd" fill="#C11476" width="0.795" height="103.312"/>
			
				<rect x="44.32" y="-19.113" transform="matrix(-0.6467 -0.7627 0.7627 -0.6467 48.8177 87.6985)" clip-path="url(#SVGID_2_)" fill-rule="evenodd" clip-rule="evenodd" fill="#C11476" width="0.796" height="103.313"/>
			
				<rect x="44.663" y="-18.708" transform="matrix(-0.6467 -0.7627 0.7627 -0.6467 49.0742 88.6259)" clip-path="url(#SVGID_2_)" fill-rule="evenodd" clip-rule="evenodd" fill="#C11476" width="0.796" height="103.313"/>
			
				<rect x="45.007" y="-18.303" transform="matrix(-0.647 -0.7625 0.7625 -0.647 49.3526 89.5525)" clip-path="url(#SVGID_2_)" fill-rule="evenodd" clip-rule="evenodd" fill="#C11476" width="0.795" height="103.312"/>
			
				<rect x="45.349" y="-17.898" transform="matrix(-0.6467 -0.7627 0.7627 -0.6467 49.5861 90.4821)" clip-path="url(#SVGID_2_)" fill-rule="evenodd" clip-rule="evenodd" fill="#C01476" width="0.796" height="103.312"/>
			
				<rect x="45.693" y="-17.494" transform="matrix(-0.6467 -0.7627 0.7627 -0.6467 49.8434 91.4099)" clip-path="url(#SVGID_2_)" fill-rule="evenodd" clip-rule="evenodd" fill="#C01475" width="0.796" height="103.313"/>
			
				<rect x="46.035" y="-17.09" transform="matrix(-0.6467 -0.7627 0.7627 -0.6467 50.0993 92.3375)" clip-path="url(#SVGID_2_)" fill-rule="evenodd" clip-rule="evenodd" fill="#C01475" width="0.796" height="103.312"/>
			
				<rect x="46.378" y="-16.684" transform="matrix(-0.6467 -0.7627 0.7627 -0.6467 50.3552 93.2661)" clip-path="url(#SVGID_2_)" fill-rule="evenodd" clip-rule="evenodd" fill="#C01475" width="0.796" height="103.312"/>
			
				<rect x="46.721" y="-16.28" transform="matrix(-0.6467 -0.7627 0.7627 -0.6467 50.6113 94.1933)" clip-path="url(#SVGID_2_)" fill-rule="evenodd" clip-rule="evenodd" fill="#C01375" width="0.796" height="103.312"/>
			
				<rect x="47.065" y="-15.875" transform="matrix(-0.646 -0.7633 0.7633 -0.646 50.8124 95.1245)" clip-path="url(#SVGID_2_)" fill-rule="evenodd" clip-rule="evenodd" fill="#BF1375" width="0.795" height="103.312"/>
			
				<rect x="47.408" y="-15.471" transform="matrix(-0.6467 -0.7627 0.7627 -0.6467 51.1241 96.0495)" clip-path="url(#SVGID_2_)" fill-rule="evenodd" clip-rule="evenodd" fill="#BF1375" width="0.796" height="103.313"/>
			
				<rect x="47.75" y="-15.066" transform="matrix(-0.6467 -0.7627 0.7627 -0.6467 51.3801 96.9771)" clip-path="url(#SVGID_2_)" fill-rule="evenodd" clip-rule="evenodd" fill="#BF1374" width="0.796" height="103.313"/>
			
				<rect x="48.094" y="-14.662" transform="matrix(-0.646 -0.7633 0.7633 -0.646 51.5803 97.9078)" clip-path="url(#SVGID_2_)" fill-rule="evenodd" clip-rule="evenodd" fill="#BF1374" width="0.795" height="103.312"/>
			
				<rect x="48.437" y="-14.258" transform="matrix(-0.6467 -0.7627 0.7627 -0.6467 51.8933 98.8325)" clip-path="url(#SVGID_2_)" fill-rule="evenodd" clip-rule="evenodd" fill="#BF1374" width="0.796" height="103.313"/>
			
				<rect x="48.78" y="-13.853" transform="matrix(-0.6467 -0.7627 0.7627 -0.6467 52.1492 99.7611)" clip-path="url(#SVGID_2_)" fill-rule="evenodd" clip-rule="evenodd" fill="#BE1374" width="0.796" height="103.313"/>
			
				<rect x="49.123" y="-13.448" transform="matrix(-0.6467 -0.7627 0.7627 -0.6467 52.4057 100.6885)" clip-path="url(#SVGID_2_)" fill-rule="evenodd" clip-rule="evenodd" fill="#BE1374" width="0.796" height="103.312"/>
			
				<rect x="49.465" y="-13.043" transform="matrix(-0.6467 -0.7627 0.7627 -0.6467 52.6616 101.6161)" clip-path="url(#SVGID_2_)" fill-rule="evenodd" clip-rule="evenodd" fill="#BE1374" width="0.796" height="103.312"/>
			
				<rect x="49.809" y="-12.639" transform="matrix(-0.647 -0.7625 0.7625 -0.647 52.944 102.5432)" clip-path="url(#SVGID_2_)" fill-rule="evenodd" clip-rule="evenodd" fill="#BE1374" width="0.795" height="103.312"/>
			
				<rect x="50.152" y="-12.234" transform="matrix(-0.6467 -0.7627 0.7627 -0.6467 53.1745 103.4723)" clip-path="url(#SVGID_2_)" fill-rule="evenodd" clip-rule="evenodd" fill="#BE1273" width="0.796" height="103.313"/>
			
				<rect x="50.495" y="-11.83" transform="matrix(-0.6467 -0.7627 0.7627 -0.6467 53.431 104.3997)" clip-path="url(#SVGID_2_)" fill-rule="evenodd" clip-rule="evenodd" fill="#BD1273" width="0.796" height="103.312"/>
			
				<rect x="50.837" y="-11.425" transform="matrix(-0.6467 -0.7627 0.7627 -0.6467 53.6869 105.3273)" clip-path="url(#SVGID_2_)" fill-rule="evenodd" clip-rule="evenodd" fill="#BD1273" width="0.796" height="103.312"/>
			
				<rect x="51.181" y="-11.02" transform="matrix(-0.646 -0.7633 0.7633 -0.646 53.8817 106.2582)" clip-path="url(#SVGID_2_)" fill-rule="evenodd" clip-rule="evenodd" fill="#BD1273" width="0.795" height="103.312"/>
			
				<rect x="51.524" y="-10.616" transform="matrix(-0.6467 -0.7627 0.7627 -0.6467 54.1997 107.1834)" clip-path="url(#SVGID_2_)" fill-rule="evenodd" clip-rule="evenodd" fill="#BD1273" width="0.796" height="103.313"/>
			
				<rect x="51.867" y="-10.212" transform="matrix(-0.6467 -0.7627 0.7627 -0.6467 54.4556 108.1111)" clip-path="url(#SVGID_2_)" fill-rule="evenodd" clip-rule="evenodd" fill="#BD1273" width="0.796" height="103.312"/>
			
				<rect x="52.21" y="-9.807" transform="matrix(-0.646 -0.7633 0.7633 -0.646 54.65 109.0408)" clip-path="url(#SVGID_2_)" fill-rule="evenodd" clip-rule="evenodd" fill="#BC1272" width="0.795" height="103.312"/>
			
				<rect x="52.553" y="-9.403" transform="matrix(-0.6467 -0.7627 0.7627 -0.6467 54.9685 109.9672)" clip-path="url(#SVGID_2_)" fill-rule="evenodd" clip-rule="evenodd" fill="#BC1272" width="0.796" height="103.313"/>
			
				<rect x="52.896" y="-8.998" transform="matrix(-0.6467 -0.7627 0.7627 -0.6467 55.2248 110.895)" clip-path="url(#SVGID_2_)" fill-rule="evenodd" clip-rule="evenodd" fill="#BC1272" width="0.796" height="103.312"/>
			
				<rect x="53.239" y="-8.593" transform="matrix(-0.6467 -0.7627 0.7627 -0.6467 55.4813 111.8224)" clip-path="url(#SVGID_2_)" fill-rule="evenodd" clip-rule="evenodd" fill="#BC1272" width="0.796" height="103.312"/>
			
				<rect x="53.582" y="-8.189" transform="matrix(-0.647 -0.7625 0.7625 -0.647 55.7643 112.7501)" clip-path="url(#SVGID_2_)" fill-rule="evenodd" clip-rule="evenodd" fill="#BC1172" width="0.795" height="103.313"/>
			
				<rect x="53.925" y="-7.784" transform="matrix(-0.6467 -0.7627 0.7627 -0.6467 55.9941 113.6786)" clip-path="url(#SVGID_2_)" fill-rule="evenodd" clip-rule="evenodd" fill="#BB1172" width="0.796" height="103.313"/>
			
				<rect x="54.268" y="-7.38" transform="matrix(-0.6467 -0.7627 0.7627 -0.6467 56.25 114.6062)" clip-path="url(#SVGID_2_)" fill-rule="evenodd" clip-rule="evenodd" fill="#BB1171" width="0.796" height="103.312"/>
			
				<rect x="54.611" y="-6.975" transform="matrix(-0.6467 -0.7627 0.7627 -0.6467 56.5061 115.5334)" clip-path="url(#SVGID_2_)" fill-rule="evenodd" clip-rule="evenodd" fill="#BB1171" width="0.796" height="103.312"/>
			
				<rect x="54.954" y="-6.57" transform="matrix(-0.6467 -0.7627 0.7627 -0.6467 56.7621 116.462)" clip-path="url(#SVGID_2_)" fill-rule="evenodd" clip-rule="evenodd" fill="#BB1171" width="0.796" height="103.312"/>
			
				<rect x="55.297" y="-6.166" transform="matrix(-0.646 -0.7633 0.7633 -0.646 56.9514 117.3912)" clip-path="url(#SVGID_2_)" fill-rule="evenodd" clip-rule="evenodd" fill="#BB1171" width="0.795" height="103.312"/>
			
				<rect x="55.64" y="-5.761" transform="matrix(-0.6467 -0.7627 0.7627 -0.6467 57.2753 118.3174)" clip-path="url(#SVGID_2_)" fill-rule="evenodd" clip-rule="evenodd" fill="#BA1171" width="0.796" height="103.312"/>
			
				<rect x="55.983" y="-5.357" transform="matrix(-0.647 -0.7625 0.7625 -0.647 57.5598 119.2454)" clip-path="url(#SVGID_2_)" fill-rule="evenodd" clip-rule="evenodd" fill="#BA1171" width="0.795" height="103.313"/>
			
				<rect x="56.327" y="-4.952" transform="matrix(-0.646 -0.7633 0.7633 -0.646 57.7191 120.175)" clip-path="url(#SVGID_2_)" fill-rule="evenodd" clip-rule="evenodd" fill="#BA1171" width="0.795" height="103.312"/>
			
				<rect x="56.669" y="-4.548" transform="matrix(-0.6467 -0.7627 0.7627 -0.6467 58.044 121.1012)" clip-path="url(#SVGID_2_)" fill-rule="evenodd" clip-rule="evenodd" fill="#BA1170" width="0.796" height="103.313"/>
			
				<rect x="57.012" y="-4.143" transform="matrix(-0.6467 -0.7627 0.7627 -0.6467 58.3002 122.0294)" clip-path="url(#SVGID_2_)" fill-rule="evenodd" clip-rule="evenodd" fill="#BA1170" width="0.796" height="103.313"/>
			
				<rect x="57.355" y="-3.738" transform="matrix(-0.6467 -0.7627 0.7627 -0.6467 58.5565 122.9572)" clip-path="url(#SVGID_2_)" fill-rule="evenodd" clip-rule="evenodd" fill="#B91070" width="0.796" height="103.312"/>
			
				<rect x="57.698" y="-3.333" transform="matrix(-0.6467 -0.7627 0.7627 -0.6467 58.8124 123.8848)" clip-path="url(#SVGID_2_)" fill-rule="evenodd" clip-rule="evenodd" fill="#B91070" width="0.796" height="103.312"/>
			
				<rect x="58.041" y="-2.93" transform="matrix(-0.6467 -0.7627 0.7627 -0.6467 59.0693 124.8124)" clip-path="url(#SVGID_2_)" fill-rule="evenodd" clip-rule="evenodd" fill="#B91070" width="0.796" height="103.313"/>
			
				<rect x="58.384" y="-2.525" transform="matrix(-0.6467 -0.7627 0.7627 -0.6467 59.3252 125.741)" clip-path="url(#SVGID_2_)" fill-rule="evenodd" clip-rule="evenodd" fill="#B91070" width="0.796" height="103.313"/>
			
				<rect x="58.727" y="-2.12" transform="matrix(-0.647 -0.7625 0.7625 -0.647 59.6118 126.6684)" clip-path="url(#SVGID_2_)" fill-rule="evenodd" clip-rule="evenodd" fill="#B9106F" width="0.795" height="103.313"/>
			
				<rect x="59.07" y="-1.715" transform="matrix(-0.6467 -0.7627 0.7627 -0.6467 59.8376 127.596)" clip-path="url(#SVGID_2_)" fill-rule="evenodd" clip-rule="evenodd" fill="#B8106F" width="0.796" height="103.312"/>
			
				<rect x="59.414" y="-1.311" transform="matrix(-0.6463 -0.7631 0.7631 -0.6463 60.0518 128.5249)" clip-path="url(#SVGID_2_)" fill-rule="evenodd" clip-rule="evenodd" fill="#B8106F" width="0.795" height="103.313"/>
			
				<rect x="59.756" y="-0.906" transform="matrix(-0.6467 -0.7627 0.7627 -0.6467 60.3505 129.4522)" clip-path="url(#SVGID_2_)" fill-rule="evenodd" clip-rule="evenodd" fill="#B8106F" width="0.796" height="103.313"/>
			
				<rect x="60.099" y="-0.502" transform="matrix(-0.647 -0.7625 0.7625 -0.647 60.6378 130.3797)" clip-path="url(#SVGID_2_)" fill-rule="evenodd" clip-rule="evenodd" fill="#B8106F" width="0.795" height="103.313"/>
			
				<rect x="60.443" y="-0.097" transform="matrix(-0.646 -0.7633 0.7633 -0.646 60.7886 131.3083)" clip-path="url(#SVGID_2_)" fill-rule="evenodd" clip-rule="evenodd" fill="#B8106F" width="0.795" height="103.313"/>
			
				<rect x="60.785" y="0.307" transform="matrix(-0.6467 -0.7627 0.7627 -0.6467 61.1192 132.236)" clip-path="url(#SVGID_2_)" fill-rule="evenodd" clip-rule="evenodd" fill="#B70F6E" width="0.796" height="103.313"/>
			
				<rect x="61.128" y="0.712" transform="matrix(-0.6467 -0.7627 0.7627 -0.6467 61.3757 133.1634)" clip-path="url(#SVGID_2_)" fill-rule="evenodd" clip-rule="evenodd" fill="#B70F6E" width="0.796" height="103.313"/>
			
				<rect x="61.471" y="1.117" transform="matrix(-0.6467 -0.7627 0.7627 -0.6467 61.632 134.0912)" clip-path="url(#SVGID_2_)" fill-rule="evenodd" clip-rule="evenodd" fill="#B70F6E" width="0.796" height="103.312"/>
			
				<rect x="61.814" y="1.522" transform="matrix(-0.6467 -0.7627 0.7627 -0.6467 61.8876 135.0196)" clip-path="url(#SVGID_2_)" fill-rule="evenodd" clip-rule="evenodd" fill="#B70F6E" width="0.796" height="103.312"/>
			
				<rect x="62.157" y="1.926" transform="matrix(-0.6467 -0.7627 0.7627 -0.6467 62.1445 135.9472)" clip-path="url(#SVGID_2_)" fill-rule="evenodd" clip-rule="evenodd" fill="#B70F6E" width="0.796" height="103.313"/>
			
				<rect x="62.5" y="2.33" transform="matrix(-0.647 -0.7625 0.7625 -0.647 62.4337 136.8752)" clip-path="url(#SVGID_2_)" fill-rule="evenodd" clip-rule="evenodd" fill="#B60F6E" width="0.795" height="103.313"/>
			
				<rect x="62.843" y="2.735" transform="matrix(-0.647 -0.7625 0.7625 -0.647 62.6894 137.8036)" clip-path="url(#SVGID_2_)" fill-rule="evenodd" clip-rule="evenodd" fill="#B60F6E" width="0.795" height="103.313"/>
			
				<rect x="63.186" y="3.14" transform="matrix(-0.6467 -0.7627 0.7627 -0.6467 62.9128 138.7308)" clip-path="url(#SVGID_2_)" fill-rule="evenodd" clip-rule="evenodd" fill="#B60F6D" width="0.796" height="103.312"/>
			
				<rect x="63.529" y="3.544" transform="matrix(-0.6467 -0.7627 0.7627 -0.6467 63.1689 139.658)" clip-path="url(#SVGID_2_)" fill-rule="evenodd" clip-rule="evenodd" fill="#B60F6D" width="0.796" height="103.312"/>
			
				<rect x="63.872" y="3.949" transform="matrix(-0.6467 -0.7627 0.7627 -0.6467 63.426 140.5862)" clip-path="url(#SVGID_2_)" fill-rule="evenodd" clip-rule="evenodd" fill="#B60F6D" width="0.796" height="103.312"/>
			
				<rect x="64.215" y="4.353" transform="matrix(-0.6467 -0.7627 0.7627 -0.6467 63.6816 141.5146)" clip-path="url(#SVGID_2_)" fill-rule="evenodd" clip-rule="evenodd" fill="#B50E6D" width="0.796" height="103.313"/>
			
				<rect x="64.558" y="4.758" transform="matrix(-0.6467 -0.7627 0.7627 -0.6467 63.9381 142.442)" clip-path="url(#SVGID_2_)" fill-rule="evenodd" clip-rule="evenodd" fill="#B50E6D" width="0.796" height="103.312"/>
			
				<rect x="64.901" y="5.162" transform="matrix(-0.6467 -0.7627 0.7627 -0.6467 64.1948 143.3699)" clip-path="url(#SVGID_2_)" fill-rule="evenodd" clip-rule="evenodd" fill="#B50E6D" width="0.796" height="103.313"/>
			
				<rect x="65.244" y="5.567" transform="matrix(-0.6467 -0.7627 0.7627 -0.6467 64.4507 144.2986)" clip-path="url(#SVGID_2_)" fill-rule="evenodd" clip-rule="evenodd" fill="#B50E6C" width="0.796" height="103.313"/>
			
				<rect x="65.587" y="5.972" transform="matrix(-0.6467 -0.7627 0.7627 -0.6467 64.7068 145.2258)" clip-path="url(#SVGID_2_)" fill-rule="evenodd" clip-rule="evenodd" fill="#B50E6C" width="0.796" height="103.313"/>
			
				<rect x="65.93" y="6.376" transform="matrix(-0.647 -0.7625 0.7625 -0.647 64.9981 146.1541)" clip-path="url(#SVGID_2_)" fill-rule="evenodd" clip-rule="evenodd" fill="#B40E6C" width="0.795" height="103.312"/>
			
				<rect x="66.274" y="6.781" transform="matrix(-0.646 -0.7633 0.7633 -0.646 65.137 147.0797)" clip-path="url(#SVGID_2_)" fill-rule="evenodd" clip-rule="evenodd" fill="#B40E6C" width="0.795" height="103.312"/>
			
				<rect x="66.617" y="7.185" transform="matrix(-0.6467 -0.7627 0.7627 -0.6467 65.476 148.0097)" clip-path="url(#SVGID_2_)" fill-rule="evenodd" clip-rule="evenodd" fill="#B40E6C" width="0.796" height="103.313"/>
			
				<rect x="66.959" y="7.59" transform="matrix(-0.6467 -0.7627 0.7627 -0.6467 65.7321 148.937)" clip-path="url(#SVGID_2_)" fill-rule="evenodd" clip-rule="evenodd" fill="#B40E6C" width="0.796" height="103.313"/>
			
				<rect x="67.302" y="7.995" transform="matrix(-0.6467 -0.7627 0.7627 -0.6467 65.9884 149.8647)" clip-path="url(#SVGID_2_)" fill-rule="evenodd" clip-rule="evenodd" fill="#B40E6C" width="0.796" height="103.312"/>
			
				<rect x="67.645" y="8.399" transform="matrix(-0.6467 -0.7627 0.7627 -0.6467 66.2445 150.7919)" clip-path="url(#SVGID_2_)" fill-rule="evenodd" clip-rule="evenodd" fill="#B30D6B" width="0.796" height="103.312"/>
			
				<rect x="67.989" y="8.804" transform="matrix(-0.6467 -0.7627 0.7627 -0.6467 66.5012 151.7209)" clip-path="url(#SVGID_2_)" fill-rule="evenodd" clip-rule="evenodd" fill="#B30D6B" width="0.796" height="103.313"/>
			
				<rect x="68.331" y="9.208" transform="matrix(-0.6467 -0.7627 0.7627 -0.6467 66.7571 152.6485)" clip-path="url(#SVGID_2_)" fill-rule="evenodd" clip-rule="evenodd" fill="#B30D6B" width="0.796" height="103.312"/>
			
				<rect x="68.674" y="9.613" transform="matrix(-0.6467 -0.7627 0.7627 -0.6467 67.0136 153.5759)" clip-path="url(#SVGID_2_)" fill-rule="evenodd" clip-rule="evenodd" fill="#B30D6B" width="0.796" height="103.312"/>
			
				<rect x="69.018" y="10.017" transform="matrix(-0.647 -0.7625 0.7625 -0.647 67.3068 154.5056)" clip-path="url(#SVGID_2_)" fill-rule="evenodd" clip-rule="evenodd" fill="#B30D6B" width="0.795" height="103.313"/>
			
				<rect x="69.361" y="10.422" transform="matrix(-0.647 -0.7625 0.7625 -0.647 67.563 155.4332)" clip-path="url(#SVGID_2_)" fill-rule="evenodd" clip-rule="evenodd" fill="#B20D6B" width="0.795" height="103.313"/>
			
				<rect x="69.703" y="10.826" transform="matrix(-0.6467 -0.7627 0.7627 -0.6467 67.7824 156.3597)" clip-path="url(#SVGID_2_)" fill-rule="evenodd" clip-rule="evenodd" fill="#B20D6A" width="0.796" height="103.312"/>
			
				<rect x="70.046" y="11.231" transform="matrix(-0.6467 -0.7627 0.7627 -0.6467 68.0385 157.2879)" clip-path="url(#SVGID_2_)" fill-rule="evenodd" clip-rule="evenodd" fill="#B20D6A" width="0.796" height="103.313"/>
			
				<rect x="70.39" y="11.636" transform="matrix(-0.646 -0.7633 0.7633 -0.646 68.2063 158.2135)" clip-path="url(#SVGID_2_)" fill-rule="evenodd" clip-rule="evenodd" fill="#B20D6A" width="0.795" height="103.312"/>
			
				<rect x="70.733" y="12.04" transform="matrix(-0.6467 -0.7627 0.7627 -0.6467 68.5516 159.1437)" clip-path="url(#SVGID_2_)" fill-rule="evenodd" clip-rule="evenodd" fill="#B20D6A" width="0.796" height="103.312"/>
			
				<rect x="71.076" y="12.445" transform="matrix(-0.6467 -0.7627 0.7627 -0.6467 68.8077 160.0709)" clip-path="url(#SVGID_2_)" fill-rule="evenodd" clip-rule="evenodd" fill="#B10C6A" width="0.796" height="103.312"/>
			
				<rect x="71.419" y="12.85" transform="matrix(-0.6467 -0.7627 0.7627 -0.6467 69.0636 160.9995)" clip-path="url(#SVGID_2_)" fill-rule="evenodd" clip-rule="evenodd" fill="#B10C6A" width="0.796" height="103.312"/>
			
				<rect x="71.761" y="13.254" transform="matrix(-0.6467 -0.7627 0.7627 -0.6467 69.3195 161.9271)" clip-path="url(#SVGID_2_)" fill-rule="evenodd" clip-rule="evenodd" fill="#B10C69" width="0.796" height="103.312"/>
			
				<rect x="72.105" y="13.659" transform="matrix(-0.6467 -0.7627 0.7627 -0.6467 69.5768 162.8549)" clip-path="url(#SVGID_2_)" fill-rule="evenodd" clip-rule="evenodd" fill="#B10C69" width="0.796" height="103.312"/>
			
				<rect x="72.448" y="14.063" transform="matrix(-0.647 -0.7625 0.7625 -0.647 69.8713 163.7845)" clip-path="url(#SVGID_2_)" fill-rule="evenodd" clip-rule="evenodd" fill="#B10C69" width="0.795" height="103.313"/>
			
				<rect x="72.791" y="14.468" transform="matrix(-0.647 -0.7625 0.7625 -0.647 70.1278 164.7123)" clip-path="url(#SVGID_2_)" fill-rule="evenodd" clip-rule="evenodd" fill="#B00C69" width="0.795" height="103.312"/>
			
				<rect x="73.134" y="14.872" transform="matrix(-0.6467 -0.7627 0.7627 -0.6467 70.3456 165.6387)" clip-path="url(#SVGID_2_)" fill-rule="evenodd" clip-rule="evenodd" fill="#B00C69" width="0.796" height="103.313"/>
			
				<rect x="73.477" y="15.277" transform="matrix(-0.6467 -0.7627 0.7627 -0.6467 70.6013 166.5667)" clip-path="url(#SVGID_2_)" fill-rule="evenodd" clip-rule="evenodd" fill="#B00C69" width="0.796" height="103.313"/>
			
				<rect x="73.82" y="15.682" transform="matrix(-0.6467 -0.7627 0.7627 -0.6467 70.8576 167.4945)" clip-path="url(#SVGID_2_)" fill-rule="evenodd" clip-rule="evenodd" fill="#B00C69" width="0.796" height="103.313"/>
			
				<rect x="74.163" y="16.086" transform="matrix(-0.647 -0.7625 0.7625 -0.647 71.1539 168.4236)" clip-path="url(#SVGID_2_)" fill-rule="evenodd" clip-rule="evenodd" fill="#B00C68" width="0.795" height="103.312"/>
			
				<rect x="74.506" y="16.491" transform="matrix(-0.646 -0.7633 0.7633 -0.646 71.276 169.3465)" clip-path="url(#SVGID_2_)" fill-rule="evenodd" clip-rule="evenodd" fill="#AF0C68" width="0.795" height="103.312"/>
			
				<rect x="74.849" y="16.895" transform="matrix(-0.6467 -0.7627 0.7627 -0.6467 71.6267 170.2785)" clip-path="url(#SVGID_2_)" fill-rule="evenodd" clip-rule="evenodd" fill="#AF0B68" width="0.796" height="103.313"/>
			
				<rect x="75.192" y="17.3" transform="matrix(-0.6467 -0.7627 0.7627 -0.6467 71.8828 171.2057)" clip-path="url(#SVGID_2_)" fill-rule="evenodd" clip-rule="evenodd" fill="#AF0B68" width="0.796" height="103.313"/>
			
				<rect x="75.535" y="17.705" transform="matrix(-0.6467 -0.7627 0.7627 -0.6467 72.1392 172.1335)" clip-path="url(#SVGID_2_)" fill-rule="evenodd" clip-rule="evenodd" fill="#AF0B68" width="0.796" height="103.312"/>
			
				<rect x="75.878" y="18.109" transform="matrix(-0.647 -0.7625 0.7625 -0.647 72.4357 173.0634)" clip-path="url(#SVGID_2_)" fill-rule="evenodd" clip-rule="evenodd" fill="#AF0B68" width="0.795" height="103.313"/>
			
				<rect x="76.221" y="18.514" transform="matrix(-0.6467 -0.7627 0.7627 -0.6467 72.652 173.9897)" clip-path="url(#SVGID_2_)" fill-rule="evenodd" clip-rule="evenodd" fill="#AE0B67" width="0.796" height="103.313"/>
			
				<rect x="76.564" y="18.918" transform="matrix(-0.6467 -0.7627 0.7627 -0.6467 72.9081 174.9169)" clip-path="url(#SVGID_2_)" fill-rule="evenodd" clip-rule="evenodd" fill="#AE0B67" width="0.796" height="103.313"/>
			
				<rect x="76.907" y="19.323" transform="matrix(-0.6467 -0.7627 0.7627 -0.6467 73.164 175.8455)" clip-path="url(#SVGID_2_)" fill-rule="evenodd" clip-rule="evenodd" fill="#AE0B67" width="0.796" height="103.313"/>
			
				<rect x="77.25" y="19.728" transform="matrix(-0.646 -0.7633 0.7633 -0.646 73.322 176.7694)" clip-path="url(#SVGID_2_)" fill-rule="evenodd" clip-rule="evenodd" fill="#AE0B67" width="0.795" height="103.312"/>
			
				<rect x="77.593" y="20.132" transform="matrix(-0.6467 -0.7627 0.7627 -0.6467 73.6768 177.7007)" clip-path="url(#SVGID_2_)" fill-rule="evenodd" clip-rule="evenodd" fill="#AE0B67" width="0.796" height="103.313"/>
			
				<rect x="77.936" y="20.536" transform="matrix(-0.6467 -0.7627 0.7627 -0.6467 73.9332 178.6284)" clip-path="url(#SVGID_2_)" fill-rule="evenodd" clip-rule="evenodd" fill="#AD0B67" width="0.796" height="103.312"/>
			
				<rect x="78.279" y="20.942" transform="matrix(-0.6467 -0.7627 0.7627 -0.6467 74.1891 179.5571)" clip-path="url(#SVGID_2_)" fill-rule="evenodd" clip-rule="evenodd" fill="#AD0A66" width="0.796" height="103.312"/>
			
				<rect x="78.622" y="21.346" transform="matrix(-0.646 -0.7633 0.7633 -0.646 74.3453 180.4803)" clip-path="url(#SVGID_2_)" fill-rule="evenodd" clip-rule="evenodd" fill="#AD0A66" width="0.795" height="103.312"/>
			
				<rect x="78.965" y="21.75" transform="matrix(-0.6467 -0.7627 0.7627 -0.6467 74.7025 181.412)" clip-path="url(#SVGID_2_)" fill-rule="evenodd" clip-rule="evenodd" fill="#AD0A66" width="0.796" height="103.313"/>
			
				<rect x="79.308" y="22.155" transform="matrix(-0.647 -0.7625 0.7625 -0.647 75.0009 182.3427)" clip-path="url(#SVGID_2_)" fill-rule="evenodd" clip-rule="evenodd" fill="#AD0A66" width="0.795" height="103.313"/>
			
				<rect x="79.651" y="22.56" transform="matrix(-0.6467 -0.7627 0.7627 -0.6467 75.2144 183.2682)" clip-path="url(#SVGID_2_)" fill-rule="evenodd" clip-rule="evenodd" fill="#AC0A66" width="0.796" height="103.312"/>
			
				<rect x="79.994" y="22.964" transform="matrix(-0.6467 -0.7627 0.7627 -0.6467 75.4705 184.1954)" clip-path="url(#SVGID_2_)" fill-rule="evenodd" clip-rule="evenodd" fill="#AC0A66" width="0.796" height="103.312"/>
			
				<rect x="80.337" y="23.368" transform="matrix(-0.6467 -0.7627 0.7627 -0.6467 75.7276 185.1236)" clip-path="url(#SVGID_2_)" fill-rule="evenodd" clip-rule="evenodd" fill="#AC0A66" width="0.796" height="103.312"/>
			
				<rect x="80.68" y="23.773" transform="matrix(-0.6467 -0.7627 0.7627 -0.6467 75.9831 186.052)" clip-path="url(#SVGID_2_)" fill-rule="evenodd" clip-rule="evenodd" fill="#AC0A65" width="0.796" height="103.313"/>
			
				<rect x="81.023" y="24.178" transform="matrix(-0.6467 -0.7627 0.7627 -0.6467 76.2392 186.9792)" clip-path="url(#SVGID_2_)" fill-rule="evenodd" clip-rule="evenodd" fill="#AC0A65" width="0.796" height="103.313"/>
			
				<rect x="81.367" y="24.583" transform="matrix(-0.646 -0.7633 0.7633 -0.646 76.3917 187.9024)" clip-path="url(#SVGID_2_)" fill-rule="evenodd" clip-rule="evenodd" fill="#AB0A65" width="0.795" height="103.312"/>
			
				<rect x="81.709" y="24.987" transform="matrix(-0.647 -0.7625 0.7625 -0.647 76.7968 188.8371)" clip-path="url(#SVGID_2_)" fill-rule="evenodd" clip-rule="evenodd" fill="#AB0965" width="0.795" height="103.313"/>
			
				<rect x="82.052" y="25.392" transform="matrix(-0.6467 -0.7627 0.7627 -0.6467 77.0084 189.7632)" clip-path="url(#SVGID_2_)" fill-rule="evenodd" clip-rule="evenodd" fill="#AB0965" width="0.796" height="103.313"/>
			
				<rect x="82.395" y="25.796" transform="matrix(-0.6467 -0.7627 0.7627 -0.6467 77.2649 190.6906)" clip-path="url(#SVGID_2_)" fill-rule="evenodd" clip-rule="evenodd" fill="#AB0965" width="0.796" height="103.312"/>
			
				<rect x="82.739" y="26.201" transform="matrix(-0.646 -0.7633 0.7633 -0.646 77.415 191.6133)" clip-path="url(#SVGID_2_)" fill-rule="evenodd" clip-rule="evenodd" fill="#AB0964" width="0.795" height="103.312"/>
			
				<rect x="83.082" y="26.605" transform="matrix(-0.647 -0.7625 0.7625 -0.647 77.8229 192.5495)" clip-path="url(#SVGID_2_)" fill-rule="evenodd" clip-rule="evenodd" fill="#AA0964" width="0.795" height="103.313"/>
			
				<rect x="83.424" y="27.01" transform="matrix(-0.6467 -0.7627 0.7627 -0.6467 78.0336 193.4744)" clip-path="url(#SVGID_2_)" fill-rule="evenodd" clip-rule="evenodd" fill="#AA0964" width="0.796" height="103.313"/>
			
				<rect x="83.767" y="27.415" transform="matrix(-0.6467 -0.7627 0.7627 -0.6467 78.2899 194.4022)" clip-path="url(#SVGID_2_)" fill-rule="evenodd" clip-rule="evenodd" fill="#AA0964" width="0.796" height="103.312"/>
			
				<rect x="84.11" y="27.819" transform="matrix(-0.6467 -0.7627 0.7627 -0.6467 78.546 195.3294)" clip-path="url(#SVGID_2_)" fill-rule="evenodd" clip-rule="evenodd" fill="#AA0964" width="0.796" height="103.312"/>
			
				<rect x="84.453" y="28.223" transform="matrix(-0.6467 -0.7627 0.7627 -0.6467 78.8024 196.2582)" clip-path="url(#SVGID_2_)" fill-rule="evenodd" clip-rule="evenodd" fill="#AA0964" width="0.796" height="103.313"/>
			
				<rect x="84.796" y="28.628" transform="matrix(-0.6467 -0.7627 0.7627 -0.6467 79.0587 197.186)" clip-path="url(#SVGID_2_)" fill-rule="evenodd" clip-rule="evenodd" fill="#A90964" width="0.796" height="103.312"/>
			
				<rect x="85.139" y="29.033" transform="matrix(-0.6467 -0.7627 0.7627 -0.6467 79.3148 198.1132)" clip-path="url(#SVGID_2_)" fill-rule="evenodd" clip-rule="evenodd" fill="#A90863" width="0.796" height="103.312"/>
			
				<rect x="85.483" y="29.437" transform="matrix(-0.646 -0.7633 0.7633 -0.646 79.4612 199.0358)" clip-path="url(#SVGID_2_)" fill-rule="evenodd" clip-rule="evenodd" fill="#A90863" width="0.795" height="103.313"/>
			
				<rect x="85.825" y="29.842" transform="matrix(-0.6467 -0.7627 0.7627 -0.6467 79.8276 199.9694)" clip-path="url(#SVGID_2_)" fill-rule="evenodd" clip-rule="evenodd" fill="#A90863" width="0.796" height="103.313"/>
			
				<rect x="86.168" y="30.246" transform="matrix(-0.6467 -0.7627 0.7627 -0.6467 80.0839 200.8972)" clip-path="url(#SVGID_2_)" fill-rule="evenodd" clip-rule="evenodd" fill="#A90863" width="0.796" height="103.312"/>
			
				<rect x="86.511" y="30.651" transform="matrix(-0.6467 -0.7627 0.7627 -0.6467 80.3404 201.8246)" clip-path="url(#SVGID_2_)" fill-rule="evenodd" clip-rule="evenodd" fill="#A80863" width="0.796" height="103.312"/>
			
				<rect x="86.855" y="31.056" transform="matrix(-0.646 -0.7633 0.7633 -0.646 80.4843 202.7471)" clip-path="url(#SVGID_2_)" fill-rule="evenodd" clip-rule="evenodd" fill="#A80863" width="0.795" height="103.312"/>
			
				<rect x="87.198" y="31.46" transform="matrix(-0.6467 -0.7627 0.7627 -0.6467 80.8531 203.6812)" clip-path="url(#SVGID_2_)" fill-rule="evenodd" clip-rule="evenodd" fill="#A80862" width="0.796" height="103.312"/>
			
				<rect x="87.54" y="31.865" transform="matrix(-0.6467 -0.7627 0.7627 -0.6467 81.1092 204.6084)" clip-path="url(#SVGID_2_)" fill-rule="evenodd" clip-rule="evenodd" fill="#A80862" width="0.796" height="103.312"/>
			
				<rect x="87.883" y="32.269" transform="matrix(-0.6467 -0.7627 0.7627 -0.6467 81.3647 205.5368)" clip-path="url(#SVGID_2_)" fill-rule="evenodd" clip-rule="evenodd" fill="#A80862" width="0.796" height="103.313"/>
			
				<rect x="88.226" y="32.674" transform="matrix(-0.6467 -0.7627 0.7627 -0.6467 81.621 206.4646)" clip-path="url(#SVGID_2_)" fill-rule="evenodd" clip-rule="evenodd" fill="#A70862" width="0.796" height="103.312"/>
			
				<rect x="88.57" y="33.079" transform="matrix(-0.646 -0.7633 0.7633 -0.646 81.763 207.3855)" clip-path="url(#SVGID_2_)" fill-rule="evenodd" clip-rule="evenodd" fill="#A70762" width="0.795" height="103.312"/>
			
				<rect x="88.912" y="33.483" transform="matrix(-0.6467 -0.7627 0.7627 -0.6467 82.1341 208.3204)" clip-path="url(#SVGID_2_)" fill-rule="evenodd" clip-rule="evenodd" fill="#A70762" width="0.796" height="103.313"/>
			
				<rect x="89.255" y="33.888" transform="matrix(-0.6467 -0.7627 0.7627 -0.6467 82.39 209.248)" clip-path="url(#SVGID_2_)" fill-rule="evenodd" clip-rule="evenodd" fill="#A70761" width="0.796" height="103.313"/>
			
				<rect x="89.599" y="34.292" transform="matrix(-0.646 -0.7633 0.7633 -0.646 82.5307 210.1692)" clip-path="url(#SVGID_2_)" fill-rule="evenodd" clip-rule="evenodd" fill="#A70761" width="0.795" height="103.312"/>
			
				<rect x="89.941" y="34.696" transform="matrix(-0.6467 -0.7627 0.7627 -0.6467 82.9032 211.1034)" clip-path="url(#SVGID_2_)" fill-rule="evenodd" clip-rule="evenodd" fill="#A60761" width="0.796" height="103.313"/>
			
				<rect x="90.284" y="35.101" transform="matrix(-0.6467 -0.7627 0.7627 -0.6467 83.1591 212.032)" clip-path="url(#SVGID_2_)" fill-rule="evenodd" clip-rule="evenodd" fill="#A60761" width="0.796" height="103.313"/>
			
				<rect x="90.628" y="35.506" transform="matrix(-0.6467 -0.7627 0.7627 -0.6467 83.4156 212.9594)" clip-path="url(#SVGID_2_)" fill-rule="evenodd" clip-rule="evenodd" fill="#A60761" width="0.796" height="103.312"/>
			
				<rect x="90.97" y="35.911" transform="matrix(-0.6467 -0.7627 0.7627 -0.6467 83.6715 213.887)" clip-path="url(#SVGID_2_)" fill-rule="evenodd" clip-rule="evenodd" fill="#A60761" width="0.796" height="103.312"/>
			
				<rect x="91.314" y="36.315" transform="matrix(-0.6467 -0.7627 0.7627 -0.6467 83.9283 214.8159)" clip-path="url(#SVGID_2_)" fill-rule="evenodd" clip-rule="evenodd" fill="#A60761" width="0.796" height="103.313"/>
			
				<rect x="91.657" y="36.72" transform="matrix(-0.6467 -0.7627 0.7627 -0.6467 84.1844 215.7431)" clip-path="url(#SVGID_2_)" fill-rule="evenodd" clip-rule="evenodd" fill="#A50760" width="0.796" height="103.313"/>
			
				<rect x="92" y="37.124" transform="matrix(-0.647 -0.7625 0.7625 -0.647 84.4911 216.6739)" clip-path="url(#SVGID_2_)" fill-rule="evenodd" clip-rule="evenodd" fill="#A50760" width="0.795" height="103.313"/>
			
				<rect x="92.342" y="37.529" transform="matrix(-0.6467 -0.7627 0.7627 -0.6467 84.6964 217.599)" clip-path="url(#SVGID_2_)" fill-rule="evenodd" clip-rule="evenodd" fill="#A50660" width="0.796" height="103.313"/>
			
				<rect x="92.686" y="37.934" transform="matrix(-0.646 -0.7633 0.7633 -0.646 84.8324 218.5193)" clip-path="url(#SVGID_2_)" fill-rule="evenodd" clip-rule="evenodd" fill="#A50660" width="0.795" height="103.312"/>
			
				<rect x="93.029" y="38.338" transform="matrix(-0.6467 -0.7627 0.7627 -0.6467 85.2096 219.4543)" clip-path="url(#SVGID_2_)" fill-rule="evenodd" clip-rule="evenodd" fill="#A50660" width="0.796" height="103.313"/>
			
				<rect x="93.371" y="38.743" transform="matrix(-0.6467 -0.7627 0.7627 -0.6467 85.4655 220.3819)" clip-path="url(#SVGID_2_)" fill-rule="evenodd" clip-rule="evenodd" fill="#A40660" width="0.796" height="103.312"/>
			
				<rect x="93.715" y="39.148" transform="matrix(-0.646 -0.7633 0.7633 -0.646 85.6 221.303)" clip-path="url(#SVGID_2_)" fill-rule="evenodd" clip-rule="evenodd" fill="#A4065F" width="0.795" height="103.312"/>
			
				<rect x="94.058" y="39.551" transform="matrix(-0.6467 -0.7627 0.7627 -0.6467 85.9784 222.2381)" clip-path="url(#SVGID_2_)" fill-rule="evenodd" clip-rule="evenodd" fill="#A4065F" width="0.796" height="103.313"/>
			
				<rect x="94.401" y="39.956" transform="matrix(-0.6467 -0.7627 0.7627 -0.6467 86.2347 223.1659)" clip-path="url(#SVGID_2_)" fill-rule="evenodd" clip-rule="evenodd" fill="#A4065F" width="0.796" height="103.312"/>
			
				<rect x="94.744" y="40.361" transform="matrix(-0.6467 -0.7627 0.7627 -0.6467 86.4906 224.0945)" clip-path="url(#SVGID_2_)" fill-rule="evenodd" clip-rule="evenodd" fill="#A4065F" width="0.796" height="103.312"/>
			
				<rect x="95.086" y="40.766" transform="matrix(-0.6467 -0.7627 0.7627 -0.6467 86.7467 225.0217)" clip-path="url(#SVGID_2_)" fill-rule="evenodd" clip-rule="evenodd" fill="#A3065F" width="0.796" height="103.312"/>
			
				<rect x="95.43" y="41.17" transform="matrix(-0.6467 -0.7627 0.7627 -0.6467 87.0036 225.9493)" clip-path="url(#SVGID_2_)" fill-rule="evenodd" clip-rule="evenodd" fill="#A3065F" width="0.796" height="103.313"/>
			
				<rect x="95.773" y="41.575" transform="matrix(-0.6467 -0.7627 0.7627 -0.6467 87.2599 226.8771)" clip-path="url(#SVGID_2_)" fill-rule="evenodd" clip-rule="evenodd" fill="#A3055E" width="0.796" height="103.312"/>
			
				<rect x="96.116" y="41.979" transform="matrix(-0.6467 -0.7627 0.7627 -0.6467 87.5155 227.8055)" clip-path="url(#SVGID_2_)" fill-rule="evenodd" clip-rule="evenodd" fill="#A3055E" width="0.796" height="103.313"/>
			
				<rect x="96.459" y="42.384" transform="matrix(-0.6467 -0.7627 0.7627 -0.6467 87.772 228.7329)" clip-path="url(#SVGID_2_)" fill-rule="evenodd" clip-rule="evenodd" fill="#A3055E" width="0.796" height="103.312"/>
			
				<rect x="96.802" y="42.789" transform="matrix(-0.646 -0.7633 0.7633 -0.646 87.902 229.6523)" clip-path="url(#SVGID_2_)" fill-rule="evenodd" clip-rule="evenodd" fill="#A2055E" width="0.795" height="103.312"/>
			
				<rect x="97.145" y="43.193" transform="matrix(-0.647 -0.7625 0.7625 -0.647 88.3385 230.5932)" clip-path="url(#SVGID_2_)" fill-rule="evenodd" clip-rule="evenodd" fill="#A2055E" width="0.795" height="103.313"/>
			
				<rect x="97.488" y="43.598" transform="matrix(-0.6467 -0.7627 0.7627 -0.6467 88.5407 231.5167)" clip-path="url(#SVGID_2_)" fill-rule="evenodd" clip-rule="evenodd" fill="#A2055E" width="0.796" height="103.313"/>
			
				<rect x="97.831" y="44.002" transform="matrix(-0.646 -0.7633 0.7633 -0.646 88.6697 232.436)" clip-path="url(#SVGID_2_)" fill-rule="evenodd" clip-rule="evenodd" fill="#A2055E" width="0.795" height="103.312"/>
			
				<rect x="98.174" y="44.406" transform="matrix(-0.6467 -0.7627 0.7627 -0.6467 89.0539 233.3721)" clip-path="url(#SVGID_2_)" fill-rule="evenodd" clip-rule="evenodd" fill="#A2055D" width="0.796" height="103.313"/>
			
				<rect x="98.595" y="44.643" transform="matrix(-0.6464 -0.763 0.763 -0.6464 89.1486 233.9094)" clip-path="url(#SVGID_2_)" fill-rule="evenodd" clip-rule="evenodd" fill="#A1055D" width="0.352" height="103.313"/>
		</g>
	</g>
	<path fill-rule="evenodd" clip-rule="evenodd" fill="#FCFAE6" d="M83.937,70.409c0,2.378-1.97,4.34-4.345,4.344H57.57
		c-2.385-0.004-4.348-1.966-4.357-4.344V47.198l2.187-2.179v-8.604h-1.15c0,0-1.738,0-3.616,0h-4.488
		c-0.903-0.047-1.689,0.62-1.905,1.182c-0.041,0.087-0.072,0.168-0.097,0.245h-0.763v-1.024c0-0.219,0.124-0.496,0.432-0.764
		c0.304-0.254,0.759-0.437,1.225-0.437c1.454,0,8.732,0.126,10.467,0.126c0.061,0,0.111,0,0.157,0
		c-0.011,0.153-0.038,0.379-0.047,0.676v2.75h5.63l3.371-3.366l14.975,0.004c2.373,0.004,4.344,1.956,4.344,4.336v30.267H83.937
		L83.937,70.409z M44.5,45.311c-0.614-0.887-1.216-1.7-1.7-2.301c-0.453,0.595-1.024,1.389-1.607,2.269
		c-1.243,1.844-2.4,4.213-2.349,5.29c0.024,1.249,0.504,1.862,1.263,2.373c0.764,0.509,1.865,0.729,2.675,0.729
		c0.806,0,1.981-0.237,2.806-0.759c0.849-0.538,1.353-1.18,1.378-2.353C47.016,49.542,45.806,47.164,44.5,45.311L44.5,45.311
		L44.5,45.311z M79.593,33.506h-15.93l-3.371,3.367l-2.373-0.001v-0.453c-0.01-0.081,0.045-0.398,0.054-0.817
		c0.002-0.383-0.072-1.014-0.583-1.518c-0.504-0.5-1.178-0.639-1.882-0.639c-1.693,0-8.963-0.12-10.467-0.12
		c-2.013,0.011-3.884,1.389-3.958,3.493v3.323l1.06-0.001l-0.241,0.291c-0.018,0.02-1.306,1.583-2.625,3.58
		c-1.288,2.037-2.681,4.377-2.729,6.557c-0.016,2.006,1.043,3.525,2.329,4.318c1.279,0.813,2.729,1.077,3.911,1.085
		c1.196-0.009,2.684-0.292,4.01-1.094c1.331-0.784,2.493-2.29,2.468-4.32c-0.049-2.189-1.508-4.505-2.855-6.548
		c-1.373-2.006-2.733-3.578-2.751-3.595l-0.236-0.275l2.987,0l-0.132-1.272h-0.009c0-0.042,0.009-0.101,0.016-0.155l6.821,0v5.35
		l-2.179,2.182V70.41c0,3.661,2.985,6.641,6.649,6.645l22.023-0.002c3.656-0.003,6.645-2.981,6.645-6.645V40.143
		C86.231,36.484,83.253,33.515,79.593,33.506L79.593,33.506L79.593,33.506z M79.924,48.893l-0.002-5.188
		c0-2.044-1.687-3.73-3.733-3.73h-5.187L79.924,48.893L79.924,48.893L79.924,48.893z M76.189,37.765H65.686l16.45,16.464V43.704
		C82.129,40.427,79.463,37.765,76.189,37.765z"/>
</g>
</svg>
