<?xml version="1.0" encoding="utf-8"?>
<!-- Generator: Adobe Illustrator 15.1.0, SVG Export Plug-In . SVG Version: 6.00 Build 0)  -->
<!DOCTYPE svg PUBLIC "-//W3C//DTD SVG 1.1//EN" "http://www.w3.org/Graphics/SVG/1.1/DTD/svg11.dtd">
<svg version="1.1" id="_x31_" xmlns="http://www.w3.org/2000/svg" xmlns:xlink="http://www.w3.org/1999/xlink" x="0px" y="0px"
	 width="130.961px" height="130.961px" viewBox="0 0 130.961 130.961" enable-background="new 0 0 130.961 130.961"
	 xml:space="preserve">
<g>
	<path fill-rule="evenodd" clip-rule="evenodd" fill="#E879B1" d="M65.48,5.032c28.873,0,52.277,23.405,52.277,52.277
		c0,25.455-18.194,46.658-42.289,51.321l-3.587,6.212l-6.401,11.087l-6.401-11.087l-3.587-6.212
		c-24.094-4.663-42.29-25.866-42.29-51.321C13.203,28.438,36.608,5.032,65.48,5.032z"/>
	<g>
		<g>
			<defs>
				<path id="SVGID_1_" d="M65.48,103.196c25.425,0,46.165-20.736,46.165-46.165c0-25.427-20.737-46.165-46.165-46.165
					c-25.427,0-46.165,20.737-46.165,46.165C19.318,82.46,40.055,103.196,65.48,103.196z"/>
			</defs>
			<clipPath id="SVGID_2_">
				<use xlink:href="#SVGID_1_"  overflow="visible"/>
			</clipPath>
			
				<rect x="31.905" y="-34.103" transform="matrix(0.6457 0.7636 -0.7636 0.6457 24.7416 -18.2227)" clip-path="url(#SVGID_2_)" fill-rule="evenodd" clip-rule="evenodd" fill="#FAB5C6" width="0.207" height="103.31"/>
			
				<rect x="31.63" y="-34.082" transform="matrix(-0.647 -0.7625 0.7625 -0.647 39.352 53.3644)" clip-path="url(#SVGID_2_)" fill-rule="evenodd" clip-rule="evenodd" fill="#FAB5C6" width="0.795" height="103.311"/>
			
				<rect x="31.973" y="-33.677" transform="matrix(-0.6467 -0.7627 0.7627 -0.6467 39.5935 54.2953)" clip-path="url(#SVGID_2_)" fill-rule="evenodd" clip-rule="evenodd" fill="#FAB4C6" width="0.796" height="103.31"/>
			
				<rect x="32.316" y="-33.272" transform="matrix(-0.6467 -0.7627 0.7627 -0.6467 39.8499 55.2231)" clip-path="url(#SVGID_2_)" fill-rule="evenodd" clip-rule="evenodd" fill="#FAB4C5" width="0.796" height="103.31"/>
			
				<rect x="32.659" y="-32.868" transform="matrix(-0.6467 -0.7627 0.7627 -0.6467 40.106 56.1504)" clip-path="url(#SVGID_2_)" fill-rule="evenodd" clip-rule="evenodd" fill="#FAB4C5" width="0.796" height="103.31"/>
			
				<rect x="33.002" y="-32.463" transform="matrix(-0.646 -0.7633 0.7633 -0.646 40.3274 57.0854)" clip-path="url(#SVGID_2_)" fill-rule="evenodd" clip-rule="evenodd" fill="#FAB4C5" width="0.795" height="103.31"/>
			
				<rect x="33.345" y="-32.058" transform="matrix(-0.6467 -0.7627 0.7627 -0.6467 40.6188 58.0065)" clip-path="url(#SVGID_2_)" fill-rule="evenodd" clip-rule="evenodd" fill="#FAB4C5" width="0.796" height="103.31"/>
			
				<rect x="33.688" y="-31.654" transform="matrix(-0.6467 -0.7627 0.7627 -0.6467 40.8751 58.9343)" clip-path="url(#SVGID_2_)" fill-rule="evenodd" clip-rule="evenodd" fill="#FAB4C5" width="0.796" height="103.31"/>
			
				<rect x="34.031" y="-31.249" transform="matrix(-0.6467 -0.7627 0.7627 -0.6467 41.131 59.8619)" clip-path="url(#SVGID_2_)" fill-rule="evenodd" clip-rule="evenodd" fill="#FAB4C5" width="0.796" height="103.31"/>
			
				<rect x="34.373" y="-30.845" transform="matrix(-0.6478 -0.7618 0.7618 -0.6478 41.4404 60.7813)" clip-path="url(#SVGID_2_)" fill-rule="evenodd" clip-rule="evenodd" fill="#FAB4C5" width="0.796" height="103.311"/>
			
				<rect x="34.717" y="-30.44" transform="matrix(-0.6467 -0.7627 0.7627 -0.6467 41.6445 61.7179)" clip-path="url(#SVGID_2_)" fill-rule="evenodd" clip-rule="evenodd" fill="#FAB3C5" width="0.796" height="103.31"/>
			
				<rect x="35.06" y="-30.035" transform="matrix(-0.647 -0.7625 0.7625 -0.647 41.9165 62.6434)" clip-path="url(#SVGID_2_)" fill-rule="evenodd" clip-rule="evenodd" fill="#F9B3C5" width="0.795" height="103.31"/>
			
				<rect x="35.403" y="-29.631" transform="matrix(-0.6467 -0.7627 0.7627 -0.6467 42.1565 63.5737)" clip-path="url(#SVGID_2_)" fill-rule="evenodd" clip-rule="evenodd" fill="#F9B3C5" width="0.796" height="103.31"/>
			
				<rect x="35.746" y="-29.226" transform="matrix(-0.6467 -0.7627 0.7627 -0.6467 42.4132 64.5017)" clip-path="url(#SVGID_2_)" fill-rule="evenodd" clip-rule="evenodd" fill="#F9B3C4" width="0.796" height="103.31"/>
			
				<rect x="36.089" y="-28.822" transform="matrix(-0.6467 -0.7627 0.7627 -0.6467 42.6691 65.4293)" clip-path="url(#SVGID_2_)" fill-rule="evenodd" clip-rule="evenodd" fill="#F9B3C4" width="0.796" height="103.311"/>
			
				<rect x="36.432" y="-28.417" transform="matrix(-0.6467 -0.7627 0.7627 -0.6467 42.9254 66.3571)" clip-path="url(#SVGID_2_)" fill-rule="evenodd" clip-rule="evenodd" fill="#F9B3C4" width="0.796" height="103.31"/>
			
				<rect x="36.775" y="-28.013" transform="matrix(-0.6467 -0.7627 0.7627 -0.6467 43.1813 67.2847)" clip-path="url(#SVGID_2_)" fill-rule="evenodd" clip-rule="evenodd" fill="#F9B3C4" width="0.796" height="103.31"/>
			
				<rect x="37.119" y="-27.608" transform="matrix(-0.646 -0.7633 0.7633 -0.646 43.3971 68.2184)" clip-path="url(#SVGID_2_)" fill-rule="evenodd" clip-rule="evenodd" fill="#F9B2C4" width="0.795" height="103.31"/>
			
				<rect x="37.461" y="-27.203" transform="matrix(-0.6467 -0.7627 0.7627 -0.6467 43.6942 69.1409)" clip-path="url(#SVGID_2_)" fill-rule="evenodd" clip-rule="evenodd" fill="#F9B2C4" width="0.796" height="103.31"/>
			
				<rect x="37.804" y="-26.799" transform="matrix(-0.6467 -0.7627 0.7627 -0.6467 43.9505 70.0687)" clip-path="url(#SVGID_2_)" fill-rule="evenodd" clip-rule="evenodd" fill="#F9B2C4" width="0.796" height="103.31"/>
			
				<rect x="38.147" y="-26.394" transform="matrix(-0.647 -0.7625 0.7625 -0.647 44.2246 70.9941)" clip-path="url(#SVGID_2_)" fill-rule="evenodd" clip-rule="evenodd" fill="#F9B2C4" width="0.795" height="103.31"/>
			
				<rect x="38.49" y="-25.99" transform="matrix(-0.6478 -0.7618 0.7618 -0.6478 44.5242 71.917)" clip-path="url(#SVGID_2_)" fill-rule="evenodd" clip-rule="evenodd" fill="#F9B2C4" width="0.796" height="103.311"/>
			
				<rect x="38.833" y="-25.585" transform="matrix(-0.6467 -0.7627 0.7627 -0.6467 44.7192 72.8525)" clip-path="url(#SVGID_2_)" fill-rule="evenodd" clip-rule="evenodd" fill="#F9B2C3" width="0.796" height="103.311"/>
			
				<rect x="39.176" y="-25.181" transform="matrix(-0.6467 -0.7627 0.7627 -0.6467 44.9757 73.7799)" clip-path="url(#SVGID_2_)" fill-rule="evenodd" clip-rule="evenodd" fill="#F9B2C3" width="0.796" height="103.31"/>
			
				<rect x="39.519" y="-24.776" transform="matrix(-0.6467 -0.7627 0.7627 -0.6467 45.2317 74.7075)" clip-path="url(#SVGID_2_)" fill-rule="evenodd" clip-rule="evenodd" fill="#F9B2C3" width="0.796" height="103.31"/>
			
				<rect x="39.863" y="-24.371" transform="matrix(-0.646 -0.7633 0.7633 -0.646 45.4433 75.6409)" clip-path="url(#SVGID_2_)" fill-rule="evenodd" clip-rule="evenodd" fill="#F9B1C3" width="0.795" height="103.31"/>
			
				<rect x="40.205" y="-23.967" transform="matrix(-0.6467 -0.7627 0.7627 -0.6467 45.7445 76.5637)" clip-path="url(#SVGID_2_)" fill-rule="evenodd" clip-rule="evenodd" fill="#F9B1C3" width="0.796" height="103.311"/>
			
				<rect x="40.548" y="-23.562" transform="matrix(-0.6467 -0.7627 0.7627 -0.6467 46.0008 77.4915)" clip-path="url(#SVGID_2_)" fill-rule="evenodd" clip-rule="evenodd" fill="#F9B1C3" width="0.796" height="103.31"/>
			
				<rect x="40.891" y="-23.157" transform="matrix(-0.6467 -0.7627 0.7627 -0.6467 46.2565 78.4195)" clip-path="url(#SVGID_2_)" fill-rule="evenodd" clip-rule="evenodd" fill="#F9B1C3" width="0.796" height="103.31"/>
			
				<rect x="41.234" y="-22.753" transform="matrix(-0.6467 -0.7627 0.7627 -0.6467 46.5128 79.3473)" clip-path="url(#SVGID_2_)" fill-rule="evenodd" clip-rule="evenodd" fill="#F9B1C3" width="0.796" height="103.31"/>
			
				<rect x="41.577" y="-22.349" transform="matrix(-0.647 -0.7625 0.7625 -0.647 46.7898 80.2734)" clip-path="url(#SVGID_2_)" fill-rule="evenodd" clip-rule="evenodd" fill="#F9B1C3" width="0.795" height="103.311"/>
			
				<rect x="41.92" y="-21.944" transform="matrix(-0.6467 -0.7627 0.7627 -0.6467 47.0259 81.2031)" clip-path="url(#SVGID_2_)" fill-rule="evenodd" clip-rule="evenodd" fill="#F9B1C3" width="0.796" height="103.31"/>
			
				<rect x="42.263" y="-21.539" transform="matrix(-0.6467 -0.7627 0.7627 -0.6467 47.2818 82.1307)" clip-path="url(#SVGID_2_)" fill-rule="evenodd" clip-rule="evenodd" fill="#F9B0C2" width="0.796" height="103.31"/>
			
				<rect x="42.606" y="-21.135" transform="matrix(-0.6467 -0.7627 0.7627 -0.6467 47.5381 83.0585)" clip-path="url(#SVGID_2_)" fill-rule="evenodd" clip-rule="evenodd" fill="#F9B0C2" width="0.796" height="103.31"/>
			
				<rect x="42.949" y="-20.73" transform="matrix(-0.6467 -0.7627 0.7627 -0.6467 47.7948 83.9865)" clip-path="url(#SVGID_2_)" fill-rule="evenodd" clip-rule="evenodd" fill="#F9B0C2" width="0.796" height="103.31"/>
			
				<rect x="43.292" y="-20.326" transform="matrix(-0.647 -0.7625 0.7625 -0.647 48.0722 84.9129)" clip-path="url(#SVGID_2_)" fill-rule="evenodd" clip-rule="evenodd" fill="#F9B0C2" width="0.795" height="103.31"/>
			
				<rect x="43.635" y="-19.921" transform="matrix(-0.6467 -0.7627 0.7627 -0.6467 48.307 85.8419)" clip-path="url(#SVGID_2_)" fill-rule="evenodd" clip-rule="evenodd" fill="#F9B0C2" width="0.796" height="103.31"/>
			
				<rect x="43.979" y="-19.516" transform="matrix(-0.646 -0.7633 0.7633 -0.646 48.5128 86.7743)" clip-path="url(#SVGID_2_)" fill-rule="evenodd" clip-rule="evenodd" fill="#F9B0C2" width="0.795" height="103.31"/>
			
				<rect x="44.321" y="-19.112" transform="matrix(-0.6467 -0.7627 0.7627 -0.6467 48.8201 87.6976)" clip-path="url(#SVGID_2_)" fill-rule="evenodd" clip-rule="evenodd" fill="#F9B0C2" width="0.796" height="103.31"/>
			
				<rect x="44.664" y="-18.707" transform="matrix(-0.6467 -0.7627 0.7627 -0.6467 49.076 88.6263)" clip-path="url(#SVGID_2_)" fill-rule="evenodd" clip-rule="evenodd" fill="#F9B0C2" width="0.796" height="103.31"/>
			
				<rect x="45.007" y="-18.303" transform="matrix(-0.647 -0.7625 0.7625 -0.647 49.3542 89.5523)" clip-path="url(#SVGID_2_)" fill-rule="evenodd" clip-rule="evenodd" fill="#F9AFC2" width="0.795" height="103.31"/>
			
				<rect x="45.35" y="-17.898" transform="matrix(-0.6467 -0.7627 0.7627 -0.6467 49.5884 90.4812)" clip-path="url(#SVGID_2_)" fill-rule="evenodd" clip-rule="evenodd" fill="#F9AFC2" width="0.796" height="103.31"/>
			
				<rect x="45.693" y="-17.494" transform="matrix(-0.6467 -0.7627 0.7627 -0.6467 49.8453 91.4088)" clip-path="url(#SVGID_2_)" fill-rule="evenodd" clip-rule="evenodd" fill="#F9AFC1" width="0.796" height="103.31"/>
			
				<rect x="46.036" y="-17.089" transform="matrix(-0.6467 -0.7627 0.7627 -0.6467 50.1012 92.3374)" clip-path="url(#SVGID_2_)" fill-rule="evenodd" clip-rule="evenodd" fill="#F9AFC1" width="0.796" height="103.31"/>
			
				<rect x="46.379" y="-16.684" transform="matrix(-0.6467 -0.7627 0.7627 -0.6467 50.3572 93.265)" clip-path="url(#SVGID_2_)" fill-rule="evenodd" clip-rule="evenodd" fill="#F9AFC1" width="0.796" height="103.31"/>
			
				<rect x="46.722" y="-16.28" transform="matrix(-0.6467 -0.7627 0.7627 -0.6467 50.6137 94.1924)" clip-path="url(#SVGID_2_)" fill-rule="evenodd" clip-rule="evenodd" fill="#F9AFC1" width="0.796" height="103.31"/>
			
				<rect x="47.065" y="-15.875" transform="matrix(-0.6467 -0.7627 0.7627 -0.6467 50.87 95.1212)" clip-path="url(#SVGID_2_)" fill-rule="evenodd" clip-rule="evenodd" fill="#F9AFC1" width="0.796" height="103.311"/>
			
				<rect x="47.409" y="-15.471" transform="matrix(-0.6467 -0.7627 0.7627 -0.6467 51.1265 96.0486)" clip-path="url(#SVGID_2_)" fill-rule="evenodd" clip-rule="evenodd" fill="#F9AEC1" width="0.796" height="103.31"/>
			
				<rect x="47.751" y="-15.066" transform="matrix(-0.6467 -0.7627 0.7627 -0.6467 51.3824 96.9762)" clip-path="url(#SVGID_2_)" fill-rule="evenodd" clip-rule="evenodd" fill="#F9AEC1" width="0.796" height="103.31"/>
			
				<rect x="48.095" y="-14.661" transform="matrix(-0.646 -0.7633 0.7633 -0.646 51.5823 97.9077)" clip-path="url(#SVGID_2_)" fill-rule="evenodd" clip-rule="evenodd" fill="#F9AEC1" width="0.795" height="103.31"/>
			
				<rect x="48.438" y="-14.257" transform="matrix(-0.6467 -0.7627 0.7627 -0.6467 51.8953 98.8324)" clip-path="url(#SVGID_2_)" fill-rule="evenodd" clip-rule="evenodd" fill="#F9AEC1" width="0.796" height="103.311"/>
			
				<rect x="48.781" y="-13.852" transform="matrix(-0.6467 -0.7627 0.7627 -0.6467 52.1516 99.7602)" clip-path="url(#SVGID_2_)" fill-rule="evenodd" clip-rule="evenodd" fill="#F9AEC1" width="0.796" height="103.31"/>
			
				<rect x="49.123" y="-13.448" transform="matrix(-0.6467 -0.7627 0.7627 -0.6467 52.4077 100.6874)" clip-path="url(#SVGID_2_)" fill-rule="evenodd" clip-rule="evenodd" fill="#F9AEC0" width="0.796" height="103.31"/>
			
				<rect x="49.466" y="-13.043" transform="matrix(-0.6467 -0.7627 0.7627 -0.6467 52.6636 101.616)" clip-path="url(#SVGID_2_)" fill-rule="evenodd" clip-rule="evenodd" fill="#F9AEC0" width="0.796" height="103.31"/>
			
				<rect x="49.81" y="-12.639" transform="matrix(-0.6467 -0.7627 0.7627 -0.6467 52.9203 102.544)" clip-path="url(#SVGID_2_)" fill-rule="evenodd" clip-rule="evenodd" fill="#F9AEC0" width="0.796" height="103.31"/>
			
				<rect x="50.153" y="-12.234" transform="matrix(-0.6467 -0.7627 0.7627 -0.6467 53.1768 103.4714)" clip-path="url(#SVGID_2_)" fill-rule="evenodd" clip-rule="evenodd" fill="#F9ADC0" width="0.796" height="103.31"/>
			
				<rect x="50.495" y="-11.83" transform="matrix(-0.6467 -0.7627 0.7627 -0.6467 53.4325 104.3994)" clip-path="url(#SVGID_2_)" fill-rule="evenodd" clip-rule="evenodd" fill="#F9ADC0" width="0.796" height="103.311"/>
			
				<rect x="50.838" y="-11.425" transform="matrix(-0.6467 -0.7627 0.7627 -0.6467 53.6885 105.327)" clip-path="url(#SVGID_2_)" fill-rule="evenodd" clip-rule="evenodd" fill="#F9ADC0" width="0.796" height="103.31"/>
			
				<rect x="51.182" y="-11.02" transform="matrix(-0.6467 -0.7627 0.7627 -0.6467 53.9456 106.2552)" clip-path="url(#SVGID_2_)" fill-rule="evenodd" clip-rule="evenodd" fill="#F9ADC0" width="0.796" height="103.31"/>
			
				<rect x="51.525" y="-10.616" transform="matrix(-0.6467 -0.7627 0.7627 -0.6467 54.2017 107.1834)" clip-path="url(#SVGID_2_)" fill-rule="evenodd" clip-rule="evenodd" fill="#F9ADC0" width="0.796" height="103.311"/>
			
				<rect x="51.868" y="-10.211" transform="matrix(-0.6467 -0.7627 0.7627 -0.6467 54.4576 108.111)" clip-path="url(#SVGID_2_)" fill-rule="evenodd" clip-rule="evenodd" fill="#F9ADC0" width="0.796" height="103.31"/>
			
				<rect x="52.212" y="-9.806" transform="matrix(-0.6463 -0.7631 0.7631 -0.6463 54.6785 109.0403)" clip-path="url(#SVGID_2_)" fill-rule="evenodd" clip-rule="evenodd" fill="#F9ADC0" width="0.795" height="103.31"/>
			
				<rect x="52.554" y="-9.402" transform="matrix(-0.6467 -0.7627 0.7627 -0.6467 54.9708 109.9664)" clip-path="url(#SVGID_2_)" fill-rule="evenodd" clip-rule="evenodd" fill="#F9ACBF" width="0.796" height="103.31"/>
			
				<rect x="52.897" y="-8.997" transform="matrix(-0.6467 -0.7627 0.7627 -0.6467 55.2268 110.895)" clip-path="url(#SVGID_2_)" fill-rule="evenodd" clip-rule="evenodd" fill="#F9ACBF" width="0.796" height="103.31"/>
			
				<rect x="53.24" y="-8.593" transform="matrix(-0.6467 -0.7627 0.7627 -0.6467 55.4829 111.8222)" clip-path="url(#SVGID_2_)" fill-rule="evenodd" clip-rule="evenodd" fill="#F9ACBF" width="0.796" height="103.31"/>
			
				<rect x="53.583" y="-8.188" transform="matrix(-0.6467 -0.7627 0.7627 -0.6467 55.7392 112.75)" clip-path="url(#SVGID_2_)" fill-rule="evenodd" clip-rule="evenodd" fill="#F9ACBF" width="0.796" height="103.31"/>
			
				<rect x="53.926" y="-7.784" transform="matrix(-0.6467 -0.7627 0.7627 -0.6467 55.9961 113.6776)" clip-path="url(#SVGID_2_)" fill-rule="evenodd" clip-rule="evenodd" fill="#F9ACBF" width="0.796" height="103.31"/>
			
				<rect x="54.269" y="-7.379" transform="matrix(-0.6467 -0.7627 0.7627 -0.6467 56.252 114.6062)" clip-path="url(#SVGID_2_)" fill-rule="evenodd" clip-rule="evenodd" fill="#F9ACBF" width="0.796" height="103.31"/>
			
				<rect x="54.612" y="-6.975" transform="matrix(-0.6467 -0.7627 0.7627 -0.6467 56.5081 115.5334)" clip-path="url(#SVGID_2_)" fill-rule="evenodd" clip-rule="evenodd" fill="#F9ACBF" width="0.796" height="103.31"/>
			
				<rect x="54.954" y="-6.57" transform="matrix(-0.6467 -0.7627 0.7627 -0.6467 56.764 116.461)" clip-path="url(#SVGID_2_)" fill-rule="evenodd" clip-rule="evenodd" fill="#F9ACBF" width="0.796" height="103.31"/>
			
				<rect x="55.298" y="-6.165" transform="matrix(-0.6467 -0.7627 0.7627 -0.6467 57.0208 117.39)" clip-path="url(#SVGID_2_)" fill-rule="evenodd" clip-rule="evenodd" fill="#F9ABBF" width="0.796" height="103.311"/>
			
				<rect x="55.641" y="-5.761" transform="matrix(-0.6467 -0.7627 0.7627 -0.6467 57.2773 118.3174)" clip-path="url(#SVGID_2_)" fill-rule="evenodd" clip-rule="evenodd" fill="#F9ABBE" width="0.796" height="103.31"/>
			
				<rect x="55.984" y="-5.356" transform="matrix(-0.647 -0.7625 0.7625 -0.647 57.5621 119.2445)" clip-path="url(#SVGID_2_)" fill-rule="evenodd" clip-rule="evenodd" fill="#F9ABBE" width="0.795" height="103.31"/>
			
				<rect x="56.328" y="-4.951" transform="matrix(-0.646 -0.7633 0.7633 -0.646 57.7215 120.1741)" clip-path="url(#SVGID_2_)" fill-rule="evenodd" clip-rule="evenodd" fill="#F9ABBE" width="0.795" height="103.309"/>
			
				<rect x="56.67" y="-4.547" transform="matrix(-0.6467 -0.7627 0.7627 -0.6467 58.046 121.1012)" clip-path="url(#SVGID_2_)" fill-rule="evenodd" clip-rule="evenodd" fill="#F9ABBE" width="0.796" height="103.311"/>
			
				<rect x="57.013" y="-4.143" transform="matrix(-0.6467 -0.7627 0.7627 -0.6467 58.3025 122.0285)" clip-path="url(#SVGID_2_)" fill-rule="evenodd" clip-rule="evenodd" fill="#F9ABBE" width="0.796" height="103.31"/>
			
				<rect x="57.356" y="-3.738" transform="matrix(-0.6467 -0.7627 0.7627 -0.6467 58.5584 122.9562)" clip-path="url(#SVGID_2_)" fill-rule="evenodd" clip-rule="evenodd" fill="#F9ABBE" width="0.796" height="103.31"/>
			
				<rect x="57.699" y="-3.333" transform="matrix(-0.6467 -0.7627 0.7627 -0.6467 58.8144 123.8848)" clip-path="url(#SVGID_2_)" fill-rule="evenodd" clip-rule="evenodd" fill="#F9AABE" width="0.796" height="103.31"/>
			
				<rect x="58.042" y="-2.929" transform="matrix(-0.6467 -0.7627 0.7627 -0.6467 59.0713 124.8123)" clip-path="url(#SVGID_2_)" fill-rule="evenodd" clip-rule="evenodd" fill="#F9AABE" width="0.796" height="103.311"/>
			
				<rect x="58.385" y="-2.524" transform="matrix(-0.6467 -0.7627 0.7627 -0.6467 59.3272 125.7399)" clip-path="url(#SVGID_2_)" fill-rule="evenodd" clip-rule="evenodd" fill="#F9AABE" width="0.796" height="103.31"/>
			
				<rect x="58.728" y="-2.119" transform="matrix(-0.6467 -0.7627 0.7627 -0.6467 59.5835 126.6677)" clip-path="url(#SVGID_2_)" fill-rule="evenodd" clip-rule="evenodd" fill="#F9AABE" width="0.796" height="103.31"/>
			
				<rect x="59.071" y="-1.715" transform="matrix(-0.6467 -0.7627 0.7627 -0.6467 59.8392 127.5958)" clip-path="url(#SVGID_2_)" fill-rule="evenodd" clip-rule="evenodd" fill="#F9AABD" width="0.796" height="103.31"/>
			
				<rect x="59.414" y="-1.311" transform="matrix(-0.647 -0.7625 0.7625 -0.647 60.1274 128.5238)" clip-path="url(#SVGID_2_)" fill-rule="evenodd" clip-rule="evenodd" fill="#F9AABD" width="0.795" height="103.311"/>
			
				<rect x="59.757" y="-0.906" transform="matrix(-0.6467 -0.7627 0.7627 -0.6467 60.3528 129.4513)" clip-path="url(#SVGID_2_)" fill-rule="evenodd" clip-rule="evenodd" fill="#F9AABD" width="0.796" height="103.31"/>
			
				<rect x="60.1" y="-0.501" transform="matrix(-0.6467 -0.7627 0.7627 -0.6467 60.6084 130.3797)" clip-path="url(#SVGID_2_)" fill-rule="evenodd" clip-rule="evenodd" fill="#F9AABD" width="0.796" height="103.31"/>
			
				<rect x="60.444" y="-0.097" transform="matrix(-0.646 -0.7633 0.7633 -0.646 60.791 131.3075)" clip-path="url(#SVGID_2_)" fill-rule="evenodd" clip-rule="evenodd" fill="#F9A9BD" width="0.795" height="103.31"/>
			
				<rect x="60.786" y="0.308" transform="matrix(-0.6467 -0.7627 0.7627 -0.6467 61.1216 132.2351)" clip-path="url(#SVGID_2_)" fill-rule="evenodd" clip-rule="evenodd" fill="#F9A9BD" width="0.796" height="103.31"/>
			
				<rect x="61.129" y="0.713" transform="matrix(-0.647 -0.7625 0.7625 -0.647 61.4096 133.1638)" clip-path="url(#SVGID_2_)" fill-rule="evenodd" clip-rule="evenodd" fill="#F9A9BD" width="0.795" height="103.311"/>
			
				<rect x="61.472" y="1.117" transform="matrix(-0.6467 -0.7627 0.7627 -0.6467 61.6336 134.0909)" clip-path="url(#SVGID_2_)" fill-rule="evenodd" clip-rule="evenodd" fill="#F9A9BD" width="0.796" height="103.31"/>
			
				<rect x="61.815" y="1.522" transform="matrix(-0.6467 -0.7627 0.7627 -0.6467 61.8895 135.0185)" clip-path="url(#SVGID_2_)" fill-rule="evenodd" clip-rule="evenodd" fill="#F9A9BD" width="0.796" height="103.31"/>
			
				<rect x="62.158" y="1.926" transform="matrix(-0.6467 -0.7627 0.7627 -0.6467 62.1468 135.9463)" clip-path="url(#SVGID_2_)" fill-rule="evenodd" clip-rule="evenodd" fill="#F9A9BD" width="0.796" height="103.31"/>
			
				<rect x="62.501" y="2.331" transform="matrix(-0.6467 -0.7627 0.7627 -0.6467 62.4024 136.8747)" clip-path="url(#SVGID_2_)" fill-rule="evenodd" clip-rule="evenodd" fill="#F9A9BC" width="0.796" height="103.311"/>
			
				<rect x="62.844" y="2.736" transform="matrix(-0.647 -0.7625 0.7625 -0.647 62.6918 137.8027)" clip-path="url(#SVGID_2_)" fill-rule="evenodd" clip-rule="evenodd" fill="#F9A8BC" width="0.795" height="103.31"/>
			
				<rect x="63.187" y="3.14" transform="matrix(-0.6467 -0.7627 0.7627 -0.6467 62.9148 138.7297)" clip-path="url(#SVGID_2_)" fill-rule="evenodd" clip-rule="evenodd" fill="#F9A8BC" width="0.796" height="103.31"/>
			
				<rect x="63.53" y="3.544" transform="matrix(-0.6475 -0.7621 0.7621 -0.6475 63.2499 139.6586)" clip-path="url(#SVGID_2_)" fill-rule="evenodd" clip-rule="evenodd" fill="#F9A8BC" width="0.796" height="103.311"/>
			
				<rect x="63.873" y="3.949" transform="matrix(-0.6467 -0.7627 0.7627 -0.6467 63.428 140.5861)" clip-path="url(#SVGID_2_)" fill-rule="evenodd" clip-rule="evenodd" fill="#F9A8BC" width="0.796" height="103.31"/>
			
				<rect x="64.216" y="4.354" transform="matrix(-0.6467 -0.7627 0.7627 -0.6467 63.6839 141.5137)" clip-path="url(#SVGID_2_)" fill-rule="evenodd" clip-rule="evenodd" fill="#F8A8BC" width="0.796" height="103.31"/>
			
				<rect x="64.559" y="4.758" transform="matrix(-0.6467 -0.7627 0.7627 -0.6467 63.9401 142.4419)" clip-path="url(#SVGID_2_)" fill-rule="evenodd" clip-rule="evenodd" fill="#F8A8BC" width="0.796" height="103.31"/>
			
				<rect x="64.902" y="5.163" transform="matrix(-0.6467 -0.7627 0.7627 -0.6467 64.1968 143.3699)" clip-path="url(#SVGID_2_)" fill-rule="evenodd" clip-rule="evenodd" fill="#F8A8BC" width="0.796" height="103.311"/>
			
				<rect x="65.245" y="5.568" transform="matrix(-0.6467 -0.7627 0.7627 -0.6467 64.4531 144.2977)" clip-path="url(#SVGID_2_)" fill-rule="evenodd" clip-rule="evenodd" fill="#F8A8BC" width="0.796" height="103.31"/>
			
				<rect x="65.588" y="5.972" transform="matrix(-0.6467 -0.7627 0.7627 -0.6467 64.7092 145.2249)" clip-path="url(#SVGID_2_)" fill-rule="evenodd" clip-rule="evenodd" fill="#F8A7BC" width="0.796" height="103.31"/>
			
				<rect x="65.931" y="6.377" transform="matrix(-0.647 -0.7625 0.7625 -0.647 64.9997 146.1538)" clip-path="url(#SVGID_2_)" fill-rule="evenodd" clip-rule="evenodd" fill="#F8A7BB" width="0.795" height="103.311"/>
			
				<rect x="66.275" y="6.782" transform="matrix(-0.6463 -0.7631 0.7631 -0.6463 65.174 147.0807)" clip-path="url(#SVGID_2_)" fill-rule="evenodd" clip-rule="evenodd" fill="#F8A7BB" width="0.795" height="103.31"/>
			
				<rect x="66.617" y="7.186" transform="matrix(-0.6467 -0.7627 0.7627 -0.6467 65.4779 148.0087)" clip-path="url(#SVGID_2_)" fill-rule="evenodd" clip-rule="evenodd" fill="#F8A7BB" width="0.796" height="103.31"/>
			
				<rect x="66.96" y="7.59" transform="matrix(-0.6467 -0.7627 0.7627 -0.6467 65.7341 148.9369)" clip-path="url(#SVGID_2_)" fill-rule="evenodd" clip-rule="evenodd" fill="#F8A7BB" width="0.796" height="103.311"/>
			
				<rect x="67.303" y="7.995" transform="matrix(-0.6467 -0.7627 0.7627 -0.6467 65.99 149.8645)" clip-path="url(#SVGID_2_)" fill-rule="evenodd" clip-rule="evenodd" fill="#F8A7BB" width="0.796" height="103.31"/>
			
				<rect x="67.646" y="8.4" transform="matrix(-0.6475 -0.7621 0.7621 -0.6475 66.3312 150.7939)" clip-path="url(#SVGID_2_)" fill-rule="evenodd" clip-rule="evenodd" fill="#F8A7BB" width="0.796" height="103.31"/>
			
				<rect x="67.99" y="8.804" transform="matrix(-0.6467 -0.7627 0.7627 -0.6467 66.5032 151.7209)" clip-path="url(#SVGID_2_)" fill-rule="evenodd" clip-rule="evenodd" fill="#F8A6BB" width="0.796" height="103.311"/>
			
				<rect x="68.332" y="9.209" transform="matrix(-0.6467 -0.7627 0.7627 -0.6467 66.7591 152.6485)" clip-path="url(#SVGID_2_)" fill-rule="evenodd" clip-rule="evenodd" fill="#F8A6BB" width="0.796" height="103.31"/>
			
				<rect x="68.675" y="9.613" transform="matrix(-0.6467 -0.7627 0.7627 -0.6467 67.0156 153.5759)" clip-path="url(#SVGID_2_)" fill-rule="evenodd" clip-rule="evenodd" fill="#F8A6BB" width="0.796" height="103.31"/>
			
				<rect x="69.019" y="10.018" transform="matrix(-0.6467 -0.7627 0.7627 -0.6467 67.2723 154.5038)" clip-path="url(#SVGID_2_)" fill-rule="evenodd" clip-rule="evenodd" fill="#F8A6BB" width="0.796" height="103.31"/>
			
				<rect x="69.362" y="10.422" transform="matrix(-0.647 -0.7625 0.7625 -0.647 67.5649 155.4331)" clip-path="url(#SVGID_2_)" fill-rule="evenodd" clip-rule="evenodd" fill="#F8A6BA" width="0.795" height="103.311"/>
			
				<rect x="69.704" y="10.827" transform="matrix(-0.6467 -0.7627 0.7627 -0.6467 67.7844 156.3596)" clip-path="url(#SVGID_2_)" fill-rule="evenodd" clip-rule="evenodd" fill="#F8A6BA" width="0.796" height="103.31"/>
			
				<rect x="70.047" y="11.232" transform="matrix(-0.647 -0.7625 0.7625 -0.647 68.0778 157.2882)" clip-path="url(#SVGID_2_)" fill-rule="evenodd" clip-rule="evenodd" fill="#F8A6BA" width="0.795" height="103.31"/>
			
				<rect x="70.391" y="11.636" transform="matrix(-0.646 -0.7633 0.7633 -0.646 68.2087 158.2127)" clip-path="url(#SVGID_2_)" fill-rule="evenodd" clip-rule="evenodd" fill="#F8A6BA" width="0.795" height="103.31"/>
			
				<rect x="70.733" y="12.041" transform="matrix(-0.6467 -0.7627 0.7627 -0.6467 68.5531 159.1435)" clip-path="url(#SVGID_2_)" fill-rule="evenodd" clip-rule="evenodd" fill="#F8A5BA" width="0.796" height="103.311"/>
			
				<rect x="71.076" y="12.445" transform="matrix(-0.6467 -0.7627 0.7627 -0.6467 68.8096 160.0708)" clip-path="url(#SVGID_2_)" fill-rule="evenodd" clip-rule="evenodd" fill="#F8A5BA" width="0.796" height="103.31"/>
			
				<rect x="71.419" y="12.85" transform="matrix(-0.6467 -0.7627 0.7627 -0.6467 69.0655 160.9985)" clip-path="url(#SVGID_2_)" fill-rule="evenodd" clip-rule="evenodd" fill="#F8A5BA" width="0.796" height="103.31"/>
			
				<rect x="71.762" y="13.254" transform="matrix(-0.6475 -0.7621 0.7621 -0.6475 69.4126 161.9289)" clip-path="url(#SVGID_2_)" fill-rule="evenodd" clip-rule="evenodd" fill="#F8A5BA" width="0.796" height="103.31"/>
			
				<rect x="72.106" y="13.659" transform="matrix(-0.6467 -0.7627 0.7627 -0.6467 69.5788 162.8548)" clip-path="url(#SVGID_2_)" fill-rule="evenodd" clip-rule="evenodd" fill="#F8A5BA" width="0.796" height="103.31"/>
			
				<rect x="72.449" y="14.064" transform="matrix(-0.647 -0.7625 0.7625 -0.647 69.8736 163.7836)" clip-path="url(#SVGID_2_)" fill-rule="evenodd" clip-rule="evenodd" fill="#F8A5BA" width="0.795" height="103.31"/>
			
				<rect x="72.792" y="14.468" transform="matrix(-0.647 -0.7625 0.7625 -0.647 70.1297 164.7113)" clip-path="url(#SVGID_2_)" fill-rule="evenodd" clip-rule="evenodd" fill="#F8A5B9" width="0.795" height="103.31"/>
			
				<rect x="73.135" y="14.873" transform="matrix(-0.6467 -0.7627 0.7627 -0.6467 70.3475 165.6386)" clip-path="url(#SVGID_2_)" fill-rule="evenodd" clip-rule="evenodd" fill="#F8A4B9" width="0.796" height="103.311"/>
			
				<rect x="73.478" y="15.277" transform="matrix(-0.6467 -0.7627 0.7627 -0.6467 70.6036 166.5658)" clip-path="url(#SVGID_2_)" fill-rule="evenodd" clip-rule="evenodd" fill="#F8A4B9" width="0.796" height="103.311"/>
			
				<rect x="73.821" y="15.682" transform="matrix(-0.6467 -0.7627 0.7627 -0.6467 70.8599 167.4936)" clip-path="url(#SVGID_2_)" fill-rule="evenodd" clip-rule="evenodd" fill="#F8A4B9" width="0.796" height="103.31"/>
			
				<rect x="74.163" y="16.087" transform="matrix(-0.6467 -0.7627 0.7627 -0.6467 71.1159 168.4212)" clip-path="url(#SVGID_2_)" fill-rule="evenodd" clip-rule="evenodd" fill="#F8A4B9" width="0.796" height="103.31"/>
			
				<rect x="74.507" y="16.491" transform="matrix(-0.646 -0.7633 0.7633 -0.646 71.278 169.3465)" clip-path="url(#SVGID_2_)" fill-rule="evenodd" clip-rule="evenodd" fill="#F8A4B9" width="0.795" height="103.31"/>
			
				<rect x="74.85" y="16.896" transform="matrix(-0.6467 -0.7627 0.7627 -0.6467 71.6287 170.2774)" clip-path="url(#SVGID_2_)" fill-rule="evenodd" clip-rule="evenodd" fill="#F8A4B9" width="0.796" height="103.31"/>
			
				<rect x="75.193" y="17.3" transform="matrix(-0.647 -0.7625 0.7625 -0.647 71.9256 171.2067)" clip-path="url(#SVGID_2_)" fill-rule="evenodd" clip-rule="evenodd" fill="#F8A4B9" width="0.795" height="103.31"/>
			
				<rect x="75.535" y="17.705" transform="matrix(-0.6467 -0.7627 0.7627 -0.6467 72.1407 172.1332)" clip-path="url(#SVGID_2_)" fill-rule="evenodd" clip-rule="evenodd" fill="#F8A4B9" width="0.796" height="103.31"/>
			
				<rect x="75.878" y="18.109" transform="matrix(-0.6478 -0.7618 0.7618 -0.6478 72.5347 173.0661)" clip-path="url(#SVGID_2_)" fill-rule="evenodd" clip-rule="evenodd" fill="#F8A3B8" width="0.796" height="103.311"/>
			
				<rect x="76.222" y="18.514" transform="matrix(-0.6467 -0.7627 0.7627 -0.6467 72.6544 173.9888)" clip-path="url(#SVGID_2_)" fill-rule="evenodd" clip-rule="evenodd" fill="#F8A3B8" width="0.796" height="103.31"/>
			
				<rect x="76.565" y="18.919" transform="matrix(-0.6467 -0.7627 0.7627 -0.6467 72.9099 174.9172)" clip-path="url(#SVGID_2_)" fill-rule="evenodd" clip-rule="evenodd" fill="#F8A3B8" width="0.796" height="103.31"/>
			
				<rect x="76.908" y="19.323" transform="matrix(-0.6467 -0.7627 0.7627 -0.6467 73.166 175.8444)" clip-path="url(#SVGID_2_)" fill-rule="evenodd" clip-rule="evenodd" fill="#F8A3B8" width="0.796" height="103.31"/>
			
				<rect x="77.251" y="19.728" transform="matrix(-0.646 -0.7633 0.7633 -0.646 73.3244 176.7686)" clip-path="url(#SVGID_2_)" fill-rule="evenodd" clip-rule="evenodd" fill="#F8A3B8" width="0.795" height="103.31"/>
			
				<rect x="77.594" y="20.132" transform="matrix(-0.6467 -0.7627 0.7627 -0.6467 73.6792 177.6998)" clip-path="url(#SVGID_2_)" fill-rule="evenodd" clip-rule="evenodd" fill="#F8A3B8" width="0.796" height="103.31"/>
			
				<rect x="77.937" y="20.537" transform="matrix(-0.6467 -0.7627 0.7627 -0.6467 73.9351 178.6284)" clip-path="url(#SVGID_2_)" fill-rule="evenodd" clip-rule="evenodd" fill="#F8A3B8" width="0.796" height="103.31"/>
			
				<rect x="78.28" y="20.942" transform="matrix(-0.6467 -0.7627 0.7627 -0.6467 74.1911 179.556)" clip-path="url(#SVGID_2_)" fill-rule="evenodd" clip-rule="evenodd" fill="#F8A2B8" width="0.796" height="103.31"/>
			
				<rect x="78.623" y="21.346" transform="matrix(-0.646 -0.7633 0.7633 -0.646 74.3477 180.4794)" clip-path="url(#SVGID_2_)" fill-rule="evenodd" clip-rule="evenodd" fill="#F8A2B8" width="0.795" height="103.31"/>
			
				<rect x="78.966" y="21.751" transform="matrix(-0.647 -0.7625 0.7625 -0.647 74.7468 181.414)" clip-path="url(#SVGID_2_)" fill-rule="evenodd" clip-rule="evenodd" fill="#F8A2B8" width="0.795" height="103.311"/>
			
				<rect x="79.309" y="22.155" transform="matrix(-0.647 -0.7625 0.7625 -0.647 75.0033 182.3419)" clip-path="url(#SVGID_2_)" fill-rule="evenodd" clip-rule="evenodd" fill="#F8A2B7" width="0.795" height="103.31"/>
			
				<rect x="79.652" y="22.56" transform="matrix(-0.6467 -0.7627 0.7627 -0.6467 75.2163 183.2672)" clip-path="url(#SVGID_2_)" fill-rule="evenodd" clip-rule="evenodd" fill="#F8A2B7" width="0.796" height="103.31"/>
			
				<rect x="79.994" y="22.964" transform="matrix(-0.6475 -0.7621 0.7621 -0.6475 75.5749 184.2)" clip-path="url(#SVGID_2_)" fill-rule="evenodd" clip-rule="evenodd" fill="#F8A2B7" width="0.796" height="103.311"/>
			
				<rect x="80.338" y="23.369" transform="matrix(-0.6467 -0.7627 0.7627 -0.6467 75.7291 185.1234)" clip-path="url(#SVGID_2_)" fill-rule="evenodd" clip-rule="evenodd" fill="#F8A2B7" width="0.796" height="103.311"/>
			
				<rect x="80.681" y="23.774" transform="matrix(-0.6467 -0.7627 0.7627 -0.6467 75.9855 186.0512)" clip-path="url(#SVGID_2_)" fill-rule="evenodd" clip-rule="evenodd" fill="#F8A2B7" width="0.796" height="103.31"/>
			
				<rect x="81.024" y="24.178" transform="matrix(-0.6467 -0.7627 0.7627 -0.6467 76.2416 186.9784)" clip-path="url(#SVGID_2_)" fill-rule="evenodd" clip-rule="evenodd" fill="#F8A1B7" width="0.796" height="103.31"/>
			
				<rect x="81.368" y="24.583" transform="matrix(-0.646 -0.7633 0.7633 -0.646 76.3937 187.9024)" clip-path="url(#SVGID_2_)" fill-rule="evenodd" clip-rule="evenodd" fill="#F8A1B7" width="0.795" height="103.31"/>
			
				<rect x="81.71" y="24.987" transform="matrix(-0.6467 -0.7627 0.7627 -0.6467 76.7542 188.835)" clip-path="url(#SVGID_2_)" fill-rule="evenodd" clip-rule="evenodd" fill="#F8A1B7" width="0.796" height="103.31"/>
			
				<rect x="82.053" y="25.392" transform="matrix(-0.6467 -0.7627 0.7627 -0.6467 77.0107 189.7624)" clip-path="url(#SVGID_2_)" fill-rule="evenodd" clip-rule="evenodd" fill="#F8A1B7" width="0.796" height="103.31"/>
			
				<rect x="82.396" y="25.796" transform="matrix(-0.6467 -0.7627 0.7627 -0.6467 77.2664 190.6904)" clip-path="url(#SVGID_2_)" fill-rule="evenodd" clip-rule="evenodd" fill="#F8A1B7" width="0.796" height="103.311"/>
			
				<rect x="82.74" y="26.201" transform="matrix(-0.646 -0.7633 0.7633 -0.646 77.417 191.6132)" clip-path="url(#SVGID_2_)" fill-rule="evenodd" clip-rule="evenodd" fill="#F8A1B6" width="0.795" height="103.31"/>
			
				<rect x="83.082" y="26.606" transform="matrix(-0.6467 -0.7627 0.7627 -0.6467 77.7795 192.5461)" clip-path="url(#SVGID_2_)" fill-rule="evenodd" clip-rule="evenodd" fill="#F8A1B6" width="0.796" height="103.31"/>
			
				<rect x="83.425" y="27.01" transform="matrix(-0.6467 -0.7627 0.7627 -0.6467 78.0356 193.4743)" clip-path="url(#SVGID_2_)" fill-rule="evenodd" clip-rule="evenodd" fill="#F8A0B6" width="0.796" height="103.311"/>
			
				<rect x="83.768" y="27.415" transform="matrix(-0.6467 -0.7627 0.7627 -0.6467 78.2915 194.402)" clip-path="url(#SVGID_2_)" fill-rule="evenodd" clip-rule="evenodd" fill="#F8A0B6" width="0.796" height="103.31"/>
			
				<rect x="84.111" y="27.819" transform="matrix(-0.6478 -0.7618 0.7618 -0.6478 78.7022 195.3376)" clip-path="url(#SVGID_2_)" fill-rule="evenodd" clip-rule="evenodd" fill="#F8A0B6" width="0.796" height="103.311"/>
			
				<rect x="84.454" y="28.224" transform="matrix(-0.6467 -0.7627 0.7627 -0.6467 78.8047 196.2573)" clip-path="url(#SVGID_2_)" fill-rule="evenodd" clip-rule="evenodd" fill="#F8A0B6" width="0.796" height="103.31"/>
			
				<rect x="84.797" y="28.629" transform="matrix(-0.6467 -0.7627 0.7627 -0.6467 79.0607 197.1859)" clip-path="url(#SVGID_2_)" fill-rule="evenodd" clip-rule="evenodd" fill="#F8A0B6" width="0.796" height="103.31"/>
			
				<rect x="85.14" y="29.033" transform="matrix(-0.6467 -0.7627 0.7627 -0.6467 79.3167 198.1132)" clip-path="url(#SVGID_2_)" fill-rule="evenodd" clip-rule="evenodd" fill="#F8A0B6" width="0.796" height="103.31"/>
			
				<rect x="85.484" y="29.438" transform="matrix(-0.646 -0.7633 0.7633 -0.646 79.4634 199.0354)" clip-path="url(#SVGID_2_)" fill-rule="evenodd" clip-rule="evenodd" fill="#F8A0B6" width="0.795" height="103.31"/>
			
				<rect x="85.826" y="29.842" transform="matrix(-0.6467 -0.7627 0.7627 -0.6467 79.83 199.9685)" clip-path="url(#SVGID_2_)" fill-rule="evenodd" clip-rule="evenodd" fill="#F8A0B6" width="0.796" height="103.31"/>
			
				<rect x="86.169" y="30.247" transform="matrix(-0.6467 -0.7627 0.7627 -0.6467 80.0859 200.8971)" clip-path="url(#SVGID_2_)" fill-rule="evenodd" clip-rule="evenodd" fill="#F89FB5" width="0.796" height="103.31"/>
			
				<rect x="86.512" y="30.651" transform="matrix(-0.6467 -0.7627 0.7627 -0.6467 80.342 201.8243)" clip-path="url(#SVGID_2_)" fill-rule="evenodd" clip-rule="evenodd" fill="#F89FB5" width="0.796" height="103.31"/>
			
				<rect x="86.856" y="31.056" transform="matrix(-0.646 -0.7633 0.7633 -0.646 80.4867 202.7462)" clip-path="url(#SVGID_2_)" fill-rule="evenodd" clip-rule="evenodd" fill="#F89FB5" width="0.795" height="103.31"/>
			
				<rect x="87.198" y="31.461" transform="matrix(-0.6467 -0.7627 0.7627 -0.6467 80.8547 203.6809)" clip-path="url(#SVGID_2_)" fill-rule="evenodd" clip-rule="evenodd" fill="#F89FB5" width="0.796" height="103.311"/>
			
				<rect x="87.541" y="31.865" transform="matrix(-0.6467 -0.7627 0.7627 -0.6467 81.1112 204.6083)" clip-path="url(#SVGID_2_)" fill-rule="evenodd" clip-rule="evenodd" fill="#F89FB5" width="0.796" height="103.31"/>
			
				<rect x="87.884" y="32.27" transform="matrix(-0.6467 -0.7627 0.7627 -0.6467 81.3671 205.5359)" clip-path="url(#SVGID_2_)" fill-rule="evenodd" clip-rule="evenodd" fill="#F89FB5" width="0.796" height="103.31"/>
			
				<rect x="88.227" y="32.675" transform="matrix(-0.6467 -0.7627 0.7627 -0.6467 81.623 206.4635)" clip-path="url(#SVGID_2_)" fill-rule="evenodd" clip-rule="evenodd" fill="#F89FB5" width="0.796" height="103.31"/>
			
				<rect x="88.57" y="33.079" transform="matrix(-0.6467 -0.7627 0.7627 -0.6467 81.8799 207.3921)" clip-path="url(#SVGID_2_)" fill-rule="evenodd" clip-rule="evenodd" fill="#F89EB5" width="0.796" height="103.311"/>
			
				<rect x="88.913" y="33.483" transform="matrix(-0.6467 -0.7627 0.7627 -0.6467 82.1364 208.3195)" clip-path="url(#SVGID_2_)" fill-rule="evenodd" clip-rule="evenodd" fill="#F89EB5" width="0.796" height="103.31"/>
			
				<rect x="89.256" y="33.888" transform="matrix(-0.6467 -0.7627 0.7627 -0.6467 82.3923 209.2471)" clip-path="url(#SVGID_2_)" fill-rule="evenodd" clip-rule="evenodd" fill="#F89EB5" width="0.796" height="103.31"/>
			
				<rect x="89.6" y="34.293" transform="matrix(-0.646 -0.7633 0.7633 -0.646 82.5327 210.1692)" clip-path="url(#SVGID_2_)" fill-rule="evenodd" clip-rule="evenodd" fill="#F89EB4" width="0.795" height="103.31"/>
			
				<rect x="89.942" y="34.697" transform="matrix(-0.6467 -0.7627 0.7627 -0.6467 82.9052 211.1033)" clip-path="url(#SVGID_2_)" fill-rule="evenodd" clip-rule="evenodd" fill="#F89EB4" width="0.796" height="103.311"/>
			
				<rect x="90.285" y="35.102" transform="matrix(-0.6467 -0.7627 0.7627 -0.6467 83.1615 212.0311)" clip-path="url(#SVGID_2_)" fill-rule="evenodd" clip-rule="evenodd" fill="#F89EB4" width="0.796" height="103.31"/>
			
				<rect x="90.628" y="35.507" transform="matrix(-0.6467 -0.7627 0.7627 -0.6467 83.4174 212.9587)" clip-path="url(#SVGID_2_)" fill-rule="evenodd" clip-rule="evenodd" fill="#F89EB4" width="0.796" height="103.31"/>
			
				<rect x="90.971" y="35.911" transform="matrix(-0.6467 -0.7627 0.7627 -0.6467 83.6735 213.8869)" clip-path="url(#SVGID_2_)" fill-rule="evenodd" clip-rule="evenodd" fill="#F89EB4" width="0.796" height="103.31"/>
			
				<rect x="91.315" y="36.316" transform="matrix(-0.6467 -0.7627 0.7627 -0.6467 83.9302 214.8149)" clip-path="url(#SVGID_2_)" fill-rule="evenodd" clip-rule="evenodd" fill="#F89DB4" width="0.796" height="103.31"/>
			
				<rect x="91.657" y="36.72" transform="matrix(-0.6467 -0.7627 0.7627 -0.6467 84.1863 215.7421)" clip-path="url(#SVGID_2_)" fill-rule="evenodd" clip-rule="evenodd" fill="#F89DB4" width="0.796" height="103.31"/>
			
				<rect x="92" y="37.125" transform="matrix(-0.6467 -0.7627 0.7627 -0.6467 84.4423 216.6707)" clip-path="url(#SVGID_2_)" fill-rule="evenodd" clip-rule="evenodd" fill="#F89DB4" width="0.796" height="103.31"/>
			
				<rect x="92.343" y="37.529" transform="matrix(-0.6467 -0.7627 0.7627 -0.6467 84.6984 217.5979)" clip-path="url(#SVGID_2_)" fill-rule="evenodd" clip-rule="evenodd" fill="#F89DB4" width="0.796" height="103.31"/>
			
				<rect x="92.687" y="37.934" transform="matrix(-0.6467 -0.7627 0.7627 -0.6467 84.9555 218.5261)" clip-path="url(#SVGID_2_)" fill-rule="evenodd" clip-rule="evenodd" fill="#F89DB3" width="0.796" height="103.31"/>
			
				<rect x="93.03" y="38.339" transform="matrix(-0.647 -0.7625 0.7625 -0.647 85.2628 219.4579)" clip-path="url(#SVGID_2_)" fill-rule="evenodd" clip-rule="evenodd" fill="#F89DB3" width="0.795" height="103.311"/>
			
				<rect x="93.372" y="38.743" transform="matrix(-0.6467 -0.7627 0.7627 -0.6467 85.4675 220.3819)" clip-path="url(#SVGID_2_)" fill-rule="evenodd" clip-rule="evenodd" fill="#F79DB3" width="0.796" height="103.31"/>
			
				<rect x="93.716" y="39.148" transform="matrix(-0.646 -0.7633 0.7633 -0.646 85.6024 221.3021)" clip-path="url(#SVGID_2_)" fill-rule="evenodd" clip-rule="evenodd" fill="#F79CB3" width="0.795" height="103.31"/>
			
				<rect x="94.059" y="39.552" transform="matrix(-0.6467 -0.7627 0.7627 -0.6467 85.9807 222.2373)" clip-path="url(#SVGID_2_)" fill-rule="evenodd" clip-rule="evenodd" fill="#F79CB3" width="0.796" height="103.31"/>
			
				<rect x="94.402" y="39.957" transform="matrix(-0.6467 -0.7627 0.7627 -0.6467 86.2367 223.1659)" clip-path="url(#SVGID_2_)" fill-rule="evenodd" clip-rule="evenodd" fill="#F79CB3" width="0.796" height="103.31"/>
			
				<rect x="94.744" y="40.362" transform="matrix(-0.6467 -0.7627 0.7627 -0.6467 86.4926 224.0935)" clip-path="url(#SVGID_2_)" fill-rule="evenodd" clip-rule="evenodd" fill="#F79CB3" width="0.796" height="103.31"/>
			
				<rect x="95.087" y="40.766" transform="matrix(-0.6467 -0.7627 0.7627 -0.6467 86.7491 225.0209)" clip-path="url(#SVGID_2_)" fill-rule="evenodd" clip-rule="evenodd" fill="#F79CB3" width="0.796" height="103.31"/>
			
				<rect x="95.431" y="41.17" transform="matrix(-0.6467 -0.7627 0.7627 -0.6467 87.0056 225.9492)" clip-path="url(#SVGID_2_)" fill-rule="evenodd" clip-rule="evenodd" fill="#F79CB3" width="0.796" height="103.311"/>
			
				<rect x="95.774" y="41.575" transform="matrix(-0.6467 -0.7627 0.7627 -0.6467 87.2615 226.8769)" clip-path="url(#SVGID_2_)" fill-rule="evenodd" clip-rule="evenodd" fill="#F79CB3" width="0.796" height="103.311"/>
			
				<rect x="96.117" y="41.98" transform="matrix(-0.6467 -0.7627 0.7627 -0.6467 87.5178 227.8047)" clip-path="url(#SVGID_2_)" fill-rule="evenodd" clip-rule="evenodd" fill="#F79CB2" width="0.796" height="103.31"/>
			
				<rect x="96.459" y="42.384" transform="matrix(-0.6467 -0.7627 0.7627 -0.6467 87.7736 228.7327)" clip-path="url(#SVGID_2_)" fill-rule="evenodd" clip-rule="evenodd" fill="#F79BB2" width="0.796" height="103.311"/>
			
				<rect x="96.803" y="42.789" transform="matrix(-0.6467 -0.7627 0.7627 -0.6467 88.0307 229.6608)" clip-path="url(#SVGID_2_)" fill-rule="evenodd" clip-rule="evenodd" fill="#F79BB2" width="0.796" height="103.311"/>
			
				<rect x="97.146" y="43.194" transform="matrix(-0.6467 -0.7627 0.7627 -0.6467 88.287 230.5886)" clip-path="url(#SVGID_2_)" fill-rule="evenodd" clip-rule="evenodd" fill="#F79BB2" width="0.796" height="103.31"/>
			
				<rect x="97.489" y="43.598" transform="matrix(-0.6467 -0.7627 0.7627 -0.6467 88.5431 231.5159)" clip-path="url(#SVGID_2_)" fill-rule="evenodd" clip-rule="evenodd" fill="#F79BB2" width="0.796" height="103.31"/>
			
				<rect x="97.832" y="44.003" transform="matrix(-0.646 -0.7633 0.7633 -0.646 88.6717 232.4359)" clip-path="url(#SVGID_2_)" fill-rule="evenodd" clip-rule="evenodd" fill="#F79BB2" width="0.795" height="103.31"/>
			
				<rect x="98.175" y="44.407" transform="matrix(-0.647 -0.7625 0.7625 -0.647 89.1102 233.3762)" clip-path="url(#SVGID_2_)" fill-rule="evenodd" clip-rule="evenodd" fill="#F79BB2" width="0.795" height="103.311"/>
			
				<rect x="98.597" y="44.642" transform="matrix(-0.6462 -0.7632 0.7632 -0.6462 89.1059 233.9042)" clip-path="url(#SVGID_2_)" fill-rule="evenodd" clip-rule="evenodd" fill="#F79BB2" width="0.351" height="103.31"/>
		</g>
	</g>
	<path fill-rule="evenodd" clip-rule="evenodd" fill="#FCFAE6" d="M95.459,69.371c-0.458-0.631-1.133-1.047-1.903-1.168
		c-0.768-0.122-1.535,0.063-2.161,0.519c-0.879,0.637-1.838,1.236-2.858,1.799c0.143-0.822,0.059-1.698-0.29-2.518
		c-0.809-1.9-1.841-3.697-3.073-5.341c-0.007-0.009-0.017-0.018-0.022-0.027c-3.963-5.746-3.245-11.965-1.959-15.426
		c0.583,0.407,1.38,0.927,2.27,1.396c2.597,1.367,4.625,1.592,6.032,0.673c1.357-0.887,1.754-2.265,1.18-4.093
		c-0.438-1.387-1.398-2.963-2.419-4.634l-0.115-0.187c-1.861-3.048-1.599-6.252-1.513-7.307c0.009-0.118,0.016-0.209,0.021-0.272
		c0.036-0.847-0.665-1.018-0.743-1.036c-3.53-0.746-6.341-0.297-8.795,1.412c-0.507-0.423-1.155-0.678-1.864-0.678
		c-1.605,0-2.911,1.306-2.911,2.911c0,0.754,0.288,1.441,0.76,1.959c-0.218,0.292-0.437,0.585-0.647,0.874
		c-2.33,3.161-4.533,6.149-9.095,6.149H53.457c-0.002,0-0.004,0-0.007,0h-0.917c-0.502,0-0.979-0.117-1.385-0.335
		c-2.925-1.592-5.633-1.844-8.047-0.748c-5.19,2.356-6.982,10.119-7.056,10.45c-0.067,0.297,0.016,0.607,0.223,0.833
		c0.039,0.041,0.957,1.038,2.133,1.973c1.781,1.418,3.188,1.943,4.298,1.604c0.646-0.199,1.471-0.779,1.72-2.43
		c0.468-3.084,1.952-4.944,3.131-5.368c0.648-0.234,1.266-0.079,1.878,0.471c1.952,1.751-1.911,7.322-3.988,10.316
		c-0.372,0.536-0.725,1.045-1.02,1.491c-0.009,0.011-0.021,0.022-0.027,0.036c-1.263,1.688-2.319,3.538-3.137,5.496
		c-0.446,1.069-0.428,2.287,0.045,3.343c0.018,0.041,0.039,0.079,0.059,0.119c-1.493-0.688-2.88-1.452-4.143-2.285
		c-1.339-0.883-3.147-0.514-4.033,0.829c-0.885,1.339-0.513,3.15,0.826,4.034c7.398,4.88,18.276,7.678,29.843,7.678
		c12.26,0,23.542-3.078,30.956-8.443C96.108,72.494,96.399,70.671,95.459,69.371L95.459,69.371L95.459,69.371z M77.243,34.343
		c0.581,0,1.054,0.473,1.054,1.054c0,0.581-0.474,1.053-1.054,1.053c-0.582,0-1.054-0.473-1.054-1.053
		C76.189,34.816,76.661,34.343,77.243,34.343L77.243,34.343L77.243,34.343z M67.939,45.932l-1.962,3.377
		c-0.718,1.237-2.054,2.006-3.483,2.006h-2.798c-1.612,0-3.064-0.956-3.702-2.44l-1.13-2.639h10.483
		C66.29,46.239,67.149,46.128,67.939,45.932L67.939,45.932L67.939,45.932z M42.972,68.88c0.745-1.783,1.7-3.469,2.844-5.012
		c0.036-0.039,0.067-0.079,0.097-0.125c0.295-0.45,0.665-0.979,1.054-1.542c2.737-3.947,6.876-9.914,3.702-12.76
		c-1.122-1.004-2.45-1.301-3.747-0.837c-2.121,0.761-3.825,3.445-4.341,6.838c-0.079,0.526-0.238,0.874-0.425,0.932
		c-0.728,0.223-2.693-1.185-4.177-2.695c0.451-1.628,2.191-7.014,5.891-8.694c1.854-0.842,4.003-0.61,6.391,0.689
		c0.675,0.367,1.461,0.563,2.272,0.563l0.312,0.002l1.446,3.371c0.928,2.166,3.051,3.566,5.408,3.566h2.799
		c2.089,0,4.04-1.123,5.091-2.931l3.204-5.523c2.182-1.367,3.722-3.454,5.146-5.388c0.262-0.353,0.529-0.715,0.798-1.071
		c0.164,0.029,0.335,0.045,0.509,0.045c1.604,0,2.911-1.307,2.911-2.912c0-0.22-0.024-0.437-0.072-0.644
		c1.854-1.319,3.994-1.748,6.655-1.326c-0.16,3.01,0.448,5.668,1.815,7.908l0.115,0.188c0.956,1.567,1.861,3.05,2.23,4.221
		c0.41,1.304-0.002,1.708-0.423,1.981c-1.578,1.031-5.46-1.362-7.092-2.684c-0.221-0.178-0.509-0.245-0.785-0.185
		c-0.276,0.063-0.512,0.245-0.633,0.502c-0.509,1.047-1.687,3.916-1.652,7.885c0.031,3.828,1.164,7.37,3.364,10.529
		c0.021,0.032,0.047,0.063,0.073,0.092c1.115,1.502,2.054,3.138,2.79,4.871c0.481,1.133,0.117,2.44-0.847,3.039
		c-0.383,0.237-0.815,0.363-1.252,0.363c-0.95,0-1.802-0.565-2.166-1.443c-2.954-7.082-9.816-11.656-17.483-11.656
		c-7.579,0-14.41,4.501-17.405,11.465c-0.534,1.241-1.851,1.903-3.001,1.509c-0.624-0.213-1.115-0.661-1.383-1.258
		C42.728,70.148,42.719,69.486,42.972,68.88L42.972,68.88L42.972,68.88z M49.088,71.23c2.699-6.282,8.862-10.341,15.696-10.341
		c6.914,0,13.104,4.128,15.77,10.515c0.329,0.785,0.874,1.433,1.548,1.882c-5.384,1.784-11.707,2.774-18.249,2.774
		c-6.154,0-12.046-0.848-17.175-2.416C47.713,73.206,48.6,72.361,49.088,71.23L49.088,71.23L49.088,71.23z M93.718,71.931
		c-7.104,5.143-17.989,8.09-29.865,8.09c-11.213,0-21.719-2.686-28.821-7.369c-0.483-0.319-0.617-0.973-0.297-1.459
		c0.203-0.307,0.538-0.473,0.881-0.473c0.199,0,0.401,0.056,0.579,0.173c6.768,4.463,16.849,7.022,27.661,7.022
		c11.276,0,21.98-2.875,28.631-7.691c0.226-0.164,0.502-0.231,0.778-0.187c0.279,0.045,0.524,0.195,0.689,0.423
		C94.295,70.933,94.188,71.592,93.718,71.931z"/>
</g>
</svg>
