<?xml version="1.0" encoding="utf-8"?>
<!-- Generator: Adobe Illustrator 15.1.0, SVG Export Plug-In . SVG Version: 6.00 Build 0)  -->
<!DOCTYPE svg PUBLIC "-//W3C//DTD SVG 1.1//EN" "http://www.w3.org/Graphics/SVG/1.1/DTD/svg11.dtd">
<svg version="1.1" id="_x31_" xmlns="http://www.w3.org/2000/svg" xmlns:xlink="http://www.w3.org/1999/xlink" x="0px" y="0px"
	 width="130.961px" height="130.961px" viewBox="0 0 130.961 130.961" enable-background="new 0 0 130.961 130.961"
	 xml:space="preserve">
<g>
	<path fill-rule="evenodd" clip-rule="evenodd" fill="#10A110" d="M65.48,5.032c28.872,0,52.277,23.405,52.277,52.278
		c0,25.454-18.195,46.657-42.289,51.32l-3.587,6.212l-6.401,11.087l-6.401-11.087l-3.587-6.212
		c-24.095-4.663-42.29-25.866-42.29-51.32C13.203,28.438,36.607,5.032,65.48,5.032z"/>
	<g>
		<g>
			<defs>
				<path id="SVGID_1_" d="M65.48,103.197c25.425,0,46.165-20.737,46.165-46.166c0-25.427-20.737-46.165-46.165-46.165
					c-25.427,0-46.165,20.737-46.165,46.165C19.318,82.46,40.055,103.197,65.48,103.197z"/>
			</defs>
			<clipPath id="SVGID_2_">
				<use xlink:href="#SVGID_1_"  overflow="visible"/>
			</clipPath>
			
				<rect x="31.905" y="-34.104" transform="matrix(0.6457 0.7636 -0.7636 0.6457 24.7415 -18.2224)" clip-path="url(#SVGID_2_)" fill-rule="evenodd" clip-rule="evenodd" fill="#48E048" width="0.207" height="103.311"/>
			
				<rect x="31.629" y="-34.081" transform="matrix(-0.6467 -0.7627 0.7627 -0.6467 39.3364 53.3672)" clip-path="url(#SVGID_2_)" fill-rule="evenodd" clip-rule="evenodd" fill="#48E048" width="0.796" height="103.31"/>
			
				<rect x="31.973" y="-33.676" transform="matrix(-0.646 -0.7633 0.7633 -0.646 39.5595 54.3021)" clip-path="url(#SVGID_2_)" fill-rule="evenodd" clip-rule="evenodd" fill="#48E048" width="0.795" height="103.31"/>
			
				<rect x="32.315" y="-33.272" transform="matrix(-0.6467 -0.7627 0.7627 -0.6467 39.8495 55.223)" clip-path="url(#SVGID_2_)" fill-rule="evenodd" clip-rule="evenodd" fill="#48E048" width="0.796" height="103.311"/>
			
				<rect x="32.659" y="-32.867" transform="matrix(-0.647 -0.7625 0.7625 -0.647 40.1204 56.1484)" clip-path="url(#SVGID_2_)" fill-rule="evenodd" clip-rule="evenodd" fill="#48E048" width="0.795" height="103.311"/>
			
				<rect x="33.001" y="-32.463" transform="matrix(-0.6467 -0.7627 0.7627 -0.6467 40.3617 57.0784)" clip-path="url(#SVGID_2_)" fill-rule="evenodd" clip-rule="evenodd" fill="#48E048" width="0.796" height="103.31"/>
			
				<rect x="33.345" y="-32.058" transform="matrix(-0.6467 -0.7627 0.7627 -0.6467 40.6188 58.0065)" clip-path="url(#SVGID_2_)" fill-rule="evenodd" clip-rule="evenodd" fill="#48DF48" width="0.796" height="103.31"/>
			
				<rect x="33.688" y="-31.654" transform="matrix(-0.6467 -0.7627 0.7627 -0.6467 40.8747 58.9341)" clip-path="url(#SVGID_2_)" fill-rule="evenodd" clip-rule="evenodd" fill="#48DF48" width="0.796" height="103.311"/>
			
				<rect x="34.03" y="-31.249" transform="matrix(-0.6467 -0.7627 0.7627 -0.6467 41.1304 59.8622)" clip-path="url(#SVGID_2_)" fill-rule="evenodd" clip-rule="evenodd" fill="#47DF47" width="0.796" height="103.311"/>
			
				<rect x="34.373" y="-30.844" transform="matrix(-0.6467 -0.7627 0.7627 -0.6467 41.3867 60.79)" clip-path="url(#SVGID_2_)" fill-rule="evenodd" clip-rule="evenodd" fill="#47DF47" width="0.796" height="103.31"/>
			
				<rect x="34.717" y="-30.44" transform="matrix(-0.6467 -0.7627 0.7627 -0.6467 41.6435 61.7179)" clip-path="url(#SVGID_2_)" fill-rule="evenodd" clip-rule="evenodd" fill="#47DF47" width="0.796" height="103.311"/>
			
				<rect x="35.06" y="-30.036" transform="matrix(-0.647 -0.7625 0.7625 -0.647 41.9161 62.6432)" clip-path="url(#SVGID_2_)" fill-rule="evenodd" clip-rule="evenodd" fill="#47DF47" width="0.795" height="103.311"/>
			
				<rect x="35.402" y="-29.631" transform="matrix(-0.6467 -0.7627 0.7627 -0.6467 42.1555 63.5737)" clip-path="url(#SVGID_2_)" fill-rule="evenodd" clip-rule="evenodd" fill="#47DE47" width="0.796" height="103.31"/>
			
				<rect x="35.745" y="-29.226" transform="matrix(-0.6467 -0.7627 0.7627 -0.6467 42.4118 64.5015)" clip-path="url(#SVGID_2_)" fill-rule="evenodd" clip-rule="evenodd" fill="#47DE47" width="0.796" height="103.31"/>
			
				<rect x="36.089" y="-28.822" transform="matrix(-0.646 -0.7633 0.7633 -0.646 42.6292 65.4351)" clip-path="url(#SVGID_2_)" fill-rule="evenodd" clip-rule="evenodd" fill="#47DE47" width="0.795" height="103.31"/>
			
				<rect x="36.432" y="-28.417" transform="matrix(-0.6467 -0.7627 0.7627 -0.6467 42.9248 66.3573)" clip-path="url(#SVGID_2_)" fill-rule="evenodd" clip-rule="evenodd" fill="#47DE47" width="0.796" height="103.311"/>
			
				<rect x="36.775" y="-28.012" transform="matrix(-0.6467 -0.7627 0.7627 -0.6467 43.1811 67.2851)" clip-path="url(#SVGID_2_)" fill-rule="evenodd" clip-rule="evenodd" fill="#47DE47" width="0.796" height="103.31"/>
			
				<rect x="37.118" y="-27.608" transform="matrix(-0.6467 -0.7627 0.7627 -0.6467 43.4371 68.2127)" clip-path="url(#SVGID_2_)" fill-rule="evenodd" clip-rule="evenodd" fill="#47DE47" width="0.796" height="103.31"/>
			
				<rect x="37.46" y="-27.203" transform="matrix(-0.6475 -0.7621 0.7621 -0.6475 43.7352 69.1351)" clip-path="url(#SVGID_2_)" fill-rule="evenodd" clip-rule="evenodd" fill="#47DD47" width="0.796" height="103.31"/>
			
				<rect x="37.804" y="-26.799" transform="matrix(-0.647 -0.7625 0.7625 -0.647 43.9678 70.0666)" clip-path="url(#SVGID_2_)" fill-rule="evenodd" clip-rule="evenodd" fill="#47DD47" width="0.795" height="103.311"/>
			
				<rect x="38.147" y="-26.394" transform="matrix(-0.6467 -0.7627 0.7627 -0.6467 44.2058 70.9965)" clip-path="url(#SVGID_2_)" fill-rule="evenodd" clip-rule="evenodd" fill="#47DD47" width="0.796" height="103.311"/>
			
				<rect x="38.49" y="-25.99" transform="matrix(-0.647 -0.7625 0.7625 -0.647 44.4805 71.9221)" clip-path="url(#SVGID_2_)" fill-rule="evenodd" clip-rule="evenodd" fill="#47DD47" width="0.795" height="103.31"/>
			
				<rect x="38.833" y="-25.585" transform="matrix(-0.6467 -0.7627 0.7627 -0.6467 44.7188 72.8523)" clip-path="url(#SVGID_2_)" fill-rule="evenodd" clip-rule="evenodd" fill="#47DD47" width="0.796" height="103.311"/>
			
				<rect x="39.176" y="-25.18" transform="matrix(-0.6467 -0.7627 0.7627 -0.6467 44.975 73.7805)" clip-path="url(#SVGID_2_)" fill-rule="evenodd" clip-rule="evenodd" fill="#47DD47" width="0.796" height="103.311"/>
			
				<rect x="39.519" y="-24.776" transform="matrix(-0.6467 -0.7627 0.7627 -0.6467 45.2311 74.7077)" clip-path="url(#SVGID_2_)" fill-rule="evenodd" clip-rule="evenodd" fill="#46DC46" width="0.796" height="103.311"/>
			
				<rect x="39.862" y="-24.371" transform="matrix(-0.6467 -0.7627 0.7627 -0.6467 45.4874 75.6355)" clip-path="url(#SVGID_2_)" fill-rule="evenodd" clip-rule="evenodd" fill="#46DC46" width="0.796" height="103.31"/>
			
				<rect x="40.205" y="-23.967" transform="matrix(-0.646 -0.7633 0.7633 -0.646 45.6987 76.5685)" clip-path="url(#SVGID_2_)" fill-rule="evenodd" clip-rule="evenodd" fill="#46DC46" width="0.795" height="103.31"/>
			
				<rect x="40.548" y="-23.562" transform="matrix(-0.6467 -0.7627 0.7627 -0.6467 46.0002 77.4917)" clip-path="url(#SVGID_2_)" fill-rule="evenodd" clip-rule="evenodd" fill="#46DC46" width="0.796" height="103.311"/>
			
				<rect x="40.891" y="-23.157" transform="matrix(-0.6467 -0.7627 0.7627 -0.6467 46.2565 78.4195)" clip-path="url(#SVGID_2_)" fill-rule="evenodd" clip-rule="evenodd" fill="#46DC46" width="0.796" height="103.31"/>
			
				<rect x="41.234" y="-22.753" transform="matrix(-0.6467 -0.7627 0.7627 -0.6467 46.5124 79.3471)" clip-path="url(#SVGID_2_)" fill-rule="evenodd" clip-rule="evenodd" fill="#46DB46" width="0.796" height="103.31"/>
			
				<rect x="41.577" y="-22.349" transform="matrix(-0.6478 -0.7618 0.7618 -0.6478 46.8365 80.2689)" clip-path="url(#SVGID_2_)" fill-rule="evenodd" clip-rule="evenodd" fill="#46DB46" width="0.796" height="103.311"/>
			
				<rect x="41.92" y="-21.944" transform="matrix(-0.6467 -0.7627 0.7627 -0.6467 47.0255 81.2029)" clip-path="url(#SVGID_2_)" fill-rule="evenodd" clip-rule="evenodd" fill="#46DB46" width="0.796" height="103.311"/>
			
				<rect x="42.263" y="-21.539" transform="matrix(-0.6467 -0.7627 0.7627 -0.6467 47.2812 82.1309)" clip-path="url(#SVGID_2_)" fill-rule="evenodd" clip-rule="evenodd" fill="#46DB46" width="0.796" height="103.311"/>
			
				<rect x="42.606" y="-21.135" transform="matrix(-0.6467 -0.7627 0.7627 -0.6467 47.5377 83.0583)" clip-path="url(#SVGID_2_)" fill-rule="evenodd" clip-rule="evenodd" fill="#46DB46" width="0.796" height="103.31"/>
			
				<rect x="42.949" y="-20.73" transform="matrix(-0.646 -0.7633 0.7633 -0.646 47.7445 83.9908)" clip-path="url(#SVGID_2_)" fill-rule="evenodd" clip-rule="evenodd" fill="#46DB46" width="0.795" height="103.31"/>
			
				<rect x="43.292" y="-20.326" transform="matrix(-0.6467 -0.7627 0.7627 -0.6467 48.0505 84.9145)" clip-path="url(#SVGID_2_)" fill-rule="evenodd" clip-rule="evenodd" fill="#46DA46" width="0.796" height="103.31"/>
			
				<rect x="43.635" y="-19.921" transform="matrix(-0.6467 -0.7627 0.7627 -0.6467 48.3064 85.8421)" clip-path="url(#SVGID_2_)" fill-rule="evenodd" clip-rule="evenodd" fill="#46DA46" width="0.796" height="103.311"/>
			
				<rect x="43.978" y="-19.516" transform="matrix(-0.6467 -0.7627 0.7627 -0.6467 48.5628 86.7699)" clip-path="url(#SVGID_2_)" fill-rule="evenodd" clip-rule="evenodd" fill="#46DA46" width="0.796" height="103.31"/>
			
				<rect x="44.322" y="-19.112" transform="matrix(-0.646 -0.7633 0.7633 -0.646 48.768 87.7023)" clip-path="url(#SVGID_2_)" fill-rule="evenodd" clip-rule="evenodd" fill="#46DA46" width="0.795" height="103.31"/>
			
				<rect x="44.664" y="-18.707" transform="matrix(-0.6467 -0.7627 0.7627 -0.6467 49.0756 88.6261)" clip-path="url(#SVGID_2_)" fill-rule="evenodd" clip-rule="evenodd" fill="#46DA46" width="0.796" height="103.311"/>
			
				<rect x="45.007" y="-18.303" transform="matrix(-0.647 -0.7625 0.7625 -0.647 49.3542 89.5523)" clip-path="url(#SVGID_2_)" fill-rule="evenodd" clip-rule="evenodd" fill="#45DA45" width="0.795" height="103.31"/>
			
				<rect x="45.35" y="-17.898" transform="matrix(-0.6467 -0.7627 0.7627 -0.6467 49.5876 90.4819)" clip-path="url(#SVGID_2_)" fill-rule="evenodd" clip-rule="evenodd" fill="#45D945" width="0.796" height="103.311"/>
			
				<rect x="45.693" y="-17.493" transform="matrix(-0.6475 -0.7621 0.7621 -0.6475 49.8975 91.4061)" clip-path="url(#SVGID_2_)" fill-rule="evenodd" clip-rule="evenodd" fill="#45D945" width="0.796" height="103.311"/>
			
				<rect x="46.036" y="-17.089" transform="matrix(-0.6467 -0.7627 0.7627 -0.6467 50.1008 92.3372)" clip-path="url(#SVGID_2_)" fill-rule="evenodd" clip-rule="evenodd" fill="#45D945" width="0.796" height="103.311"/>
			
				<rect x="46.379" y="-16.684" transform="matrix(-0.6467 -0.7627 0.7627 -0.6467 50.3568 93.2649)" clip-path="url(#SVGID_2_)" fill-rule="evenodd" clip-rule="evenodd" fill="#45D945" width="0.796" height="103.31"/>
			
				<rect x="46.722" y="-16.28" transform="matrix(-0.647 -0.7625 0.7625 -0.647 50.636 94.1921)" clip-path="url(#SVGID_2_)" fill-rule="evenodd" clip-rule="evenodd" fill="#45D945" width="0.795" height="103.311"/>
			
				<rect x="47.066" y="-15.875" transform="matrix(-0.646 -0.7633 0.7633 -0.646 50.814 95.1242)" clip-path="url(#SVGID_2_)" fill-rule="evenodd" clip-rule="evenodd" fill="#45D945" width="0.795" height="103.31"/>
			
				<rect x="47.408" y="-15.471" transform="matrix(-0.6467 -0.7627 0.7627 -0.6467 51.1261 96.0484)" clip-path="url(#SVGID_2_)" fill-rule="evenodd" clip-rule="evenodd" fill="#45D845" width="0.796" height="103.311"/>
			
				<rect x="47.751" y="-15.066" transform="matrix(-0.6467 -0.7627 0.7627 -0.6467 51.382 96.976)" clip-path="url(#SVGID_2_)" fill-rule="evenodd" clip-rule="evenodd" fill="#45D845" width="0.796" height="103.31"/>
			
				<rect x="48.094" y="-14.661" transform="matrix(-0.6467 -0.7627 0.7627 -0.6467 51.638 97.9046)" clip-path="url(#SVGID_2_)" fill-rule="evenodd" clip-rule="evenodd" fill="#45D845" width="0.796" height="103.31"/>
			
				<rect x="48.437" y="-14.257" transform="matrix(-0.6467 -0.7627 0.7627 -0.6467 51.8945 98.832)" clip-path="url(#SVGID_2_)" fill-rule="evenodd" clip-rule="evenodd" fill="#45D845" width="0.796" height="103.31"/>
			
				<rect x="48.78" y="-13.852" transform="matrix(-0.6467 -0.7627 0.7627 -0.6467 52.1512 99.76)" clip-path="url(#SVGID_2_)" fill-rule="evenodd" clip-rule="evenodd" fill="#45D845" width="0.796" height="103.31"/>
			
				<rect x="49.123" y="-13.448" transform="matrix(-0.6467 -0.7627 0.7627 -0.6467 52.4077 100.6874)" clip-path="url(#SVGID_2_)" fill-rule="evenodd" clip-rule="evenodd" fill="#45D845" width="0.796" height="103.31"/>
			
				<rect x="49.466" y="-13.043" transform="matrix(-0.6467 -0.7627 0.7627 -0.6467 52.6632 101.6158)" clip-path="url(#SVGID_2_)" fill-rule="evenodd" clip-rule="evenodd" fill="#45D745" width="0.796" height="103.31"/>
			
				<rect x="49.809" y="-12.639" transform="matrix(-0.6475 -0.7621 0.7621 -0.6475 52.9785 102.5409)" clip-path="url(#SVGID_2_)" fill-rule="evenodd" clip-rule="evenodd" fill="#45D745" width="0.796" height="103.311"/>
			
				<rect x="50.152" y="-12.234" transform="matrix(-0.6467 -0.7627 0.7627 -0.6467 53.1764 103.4712)" clip-path="url(#SVGID_2_)" fill-rule="evenodd" clip-rule="evenodd" fill="#45D745" width="0.796" height="103.31"/>
			
				<rect x="50.495" y="-11.83" transform="matrix(-0.647 -0.7625 0.7625 -0.647 53.4576 104.3986)" clip-path="url(#SVGID_2_)" fill-rule="evenodd" clip-rule="evenodd" fill="#44D744" width="0.795" height="103.311"/>
			
				<rect x="50.838" y="-11.425" transform="matrix(-0.6467 -0.7627 0.7627 -0.6467 53.6885 105.327)" clip-path="url(#SVGID_2_)" fill-rule="evenodd" clip-rule="evenodd" fill="#44D744" width="0.796" height="103.31"/>
			
				<rect x="51.182" y="-11.02" transform="matrix(-0.646 -0.7633 0.7633 -0.646 53.8837 106.2572)" clip-path="url(#SVGID_2_)" fill-rule="evenodd" clip-rule="evenodd" fill="#44D644" width="0.795" height="103.31"/>
			
				<rect x="51.524" y="-10.616" transform="matrix(-0.6467 -0.7627 0.7627 -0.6467 54.2013 107.1832)" clip-path="url(#SVGID_2_)" fill-rule="evenodd" clip-rule="evenodd" fill="#44D644" width="0.796" height="103.311"/>
			
				<rect x="51.867" y="-10.211" transform="matrix(-0.6467 -0.7627 0.7627 -0.6467 54.4572 108.1108)" clip-path="url(#SVGID_2_)" fill-rule="evenodd" clip-rule="evenodd" fill="#44D644" width="0.796" height="103.311"/>
			
				<rect x="52.21" y="-9.806" transform="matrix(-0.6467 -0.7627 0.7627 -0.6467 54.7135 109.0386)" clip-path="url(#SVGID_2_)" fill-rule="evenodd" clip-rule="evenodd" fill="#44D644" width="0.796" height="103.31"/>
			
				<rect x="52.553" y="-9.402" transform="matrix(-0.6467 -0.7627 0.7627 -0.6467 54.97 109.966)" clip-path="url(#SVGID_2_)" fill-rule="evenodd" clip-rule="evenodd" fill="#44D644" width="0.796" height="103.31"/>
			
				<rect x="52.897" y="-8.997" transform="matrix(-0.6467 -0.7627 0.7627 -0.6467 55.2264 110.8948)" clip-path="url(#SVGID_2_)" fill-rule="evenodd" clip-rule="evenodd" fill="#44D644" width="0.796" height="103.311"/>
			
				<rect x="53.24" y="-8.592" transform="matrix(-0.6467 -0.7627 0.7627 -0.6467 55.4827 111.8226)" clip-path="url(#SVGID_2_)" fill-rule="evenodd" clip-rule="evenodd" fill="#44D544" width="0.796" height="103.31"/>
			
				<rect x="53.582" y="-8.188" transform="matrix(-0.6467 -0.7627 0.7627 -0.6467 55.7388 112.7498)" clip-path="url(#SVGID_2_)" fill-rule="evenodd" clip-rule="evenodd" fill="#44D544" width="0.796" height="103.31"/>
			
				<rect x="53.925" y="-7.784" transform="matrix(-0.6475 -0.7621 0.7621 -0.6475 56.0598 113.6762)" clip-path="url(#SVGID_2_)" fill-rule="evenodd" clip-rule="evenodd" fill="#44D544" width="0.796" height="103.311"/>
			
				<rect x="54.269" y="-7.379" transform="matrix(-0.6467 -0.7627 0.7627 -0.6467 56.2516 114.606)" clip-path="url(#SVGID_2_)" fill-rule="evenodd" clip-rule="evenodd" fill="#44D544" width="0.796" height="103.311"/>
			
				<rect x="54.611" y="-6.974" transform="matrix(-0.6467 -0.7627 0.7627 -0.6467 56.5075 115.5336)" clip-path="url(#SVGID_2_)" fill-rule="evenodd" clip-rule="evenodd" fill="#44D544" width="0.796" height="103.31"/>
			
				<rect x="54.954" y="-6.57" transform="matrix(-0.6467 -0.7627 0.7627 -0.6467 56.7636 116.4618)" clip-path="url(#SVGID_2_)" fill-rule="evenodd" clip-rule="evenodd" fill="#44D544" width="0.796" height="103.311"/>
			
				<rect x="55.298" y="-6.165" transform="matrix(-0.646 -0.7633 0.7633 -0.646 56.953 117.391)" clip-path="url(#SVGID_2_)" fill-rule="evenodd" clip-rule="evenodd" fill="#44D444" width="0.795" height="103.31"/>
			
				<rect x="55.641" y="-5.761" transform="matrix(-0.647 -0.7625 0.7625 -0.647 57.3054 118.3171)" clip-path="url(#SVGID_2_)" fill-rule="evenodd" clip-rule="evenodd" fill="#44D444" width="0.795" height="103.311"/>
			
				<rect x="55.983" y="-5.356" transform="matrix(-0.6467 -0.7627 0.7627 -0.6467 57.5328 119.2448)" clip-path="url(#SVGID_2_)" fill-rule="evenodd" clip-rule="evenodd" fill="#43D443" width="0.796" height="103.31"/>
			
				<rect x="56.326" y="-4.951" transform="matrix(-0.6467 -0.7627 0.7627 -0.6467 57.7887 120.1734)" clip-path="url(#SVGID_2_)" fill-rule="evenodd" clip-rule="evenodd" fill="#43D443" width="0.796" height="103.31"/>
			
				<rect x="56.67" y="-4.547" transform="matrix(-0.6467 -0.7627 0.7627 -0.6467 58.0452 121.1008)" clip-path="url(#SVGID_2_)" fill-rule="evenodd" clip-rule="evenodd" fill="#43D443" width="0.796" height="103.31"/>
			
				<rect x="57.013" y="-4.142" transform="matrix(-0.6467 -0.7627 0.7627 -0.6467 58.3019 122.0288)" clip-path="url(#SVGID_2_)" fill-rule="evenodd" clip-rule="evenodd" fill="#43D443" width="0.796" height="103.31"/>
			
				<rect x="57.356" y="-3.738" transform="matrix(-0.6467 -0.7627 0.7627 -0.6467 58.5581 122.957)" clip-path="url(#SVGID_2_)" fill-rule="evenodd" clip-rule="evenodd" fill="#43D343" width="0.796" height="103.311"/>
			
				<rect x="57.699" y="-3.333" transform="matrix(-0.6467 -0.7627 0.7627 -0.6467 58.814 123.8846)" clip-path="url(#SVGID_2_)" fill-rule="evenodd" clip-rule="evenodd" fill="#43D343" width="0.796" height="103.31"/>
			
				<rect x="58.041" y="-2.929" transform="matrix(-0.6467 -0.7627 0.7627 -0.6467 59.0701 124.8118)" clip-path="url(#SVGID_2_)" fill-rule="evenodd" clip-rule="evenodd" fill="#43D343" width="0.796" height="103.31"/>
			
				<rect x="58.385" y="-2.524" transform="matrix(-0.6467 -0.7627 0.7627 -0.6467 59.3268 125.7408)" clip-path="url(#SVGID_2_)" fill-rule="evenodd" clip-rule="evenodd" fill="#43D343" width="0.796" height="103.311"/>
			
				<rect x="58.728" y="-2.119" transform="matrix(-0.6467 -0.7627 0.7627 -0.6467 59.5827 126.6684)" clip-path="url(#SVGID_2_)" fill-rule="evenodd" clip-rule="evenodd" fill="#43D343" width="0.796" height="103.311"/>
			
				<rect x="59.071" y="-1.715" transform="matrix(-0.6467 -0.7627 0.7627 -0.6467 59.8392 127.5958)" clip-path="url(#SVGID_2_)" fill-rule="evenodd" clip-rule="evenodd" fill="#43D343" width="0.796" height="103.31"/>
			
				<rect x="59.414" y="-1.31" transform="matrix(-0.6463 -0.7631 0.7631 -0.6463 60.0537 128.5239)" clip-path="url(#SVGID_2_)" fill-rule="evenodd" clip-rule="evenodd" fill="#43D243" width="0.795" height="103.31"/>
			
				<rect x="59.757" y="-0.906" transform="matrix(-0.6467 -0.7627 0.7627 -0.6467 60.3519 129.4523)" clip-path="url(#SVGID_2_)" fill-rule="evenodd" clip-rule="evenodd" fill="#43D243" width="0.796" height="103.311"/>
			
				<rect x="60.1" y="-0.501" transform="matrix(-0.6467 -0.7627 0.7627 -0.6467 60.608 130.3795)" clip-path="url(#SVGID_2_)" fill-rule="evenodd" clip-rule="evenodd" fill="#43D243" width="0.796" height="103.311"/>
			
				<rect x="60.443" y="-0.097" transform="matrix(-0.6467 -0.7627 0.7627 -0.6467 60.8645 131.3069)" clip-path="url(#SVGID_2_)" fill-rule="evenodd" clip-rule="evenodd" fill="#43D243" width="0.796" height="103.31"/>
			
				<rect x="60.786" y="0.308" transform="matrix(-0.6467 -0.7627 0.7627 -0.6467 61.1204 132.2355)" clip-path="url(#SVGID_2_)" fill-rule="evenodd" clip-rule="evenodd" fill="#43D243" width="0.796" height="103.31"/>
			
				<rect x="61.129" y="0.713" transform="matrix(-0.6467 -0.7627 0.7627 -0.6467 61.3771 133.1635)" clip-path="url(#SVGID_2_)" fill-rule="evenodd" clip-rule="evenodd" fill="#43D143" width="0.796" height="103.311"/>
			
				<rect x="61.472" y="1.117" transform="matrix(-0.6467 -0.7627 0.7627 -0.6467 61.6332 134.0907)" clip-path="url(#SVGID_2_)" fill-rule="evenodd" clip-rule="evenodd" fill="#42D142" width="0.796" height="103.311"/>
			
				<rect x="61.815" y="1.522" transform="matrix(-0.6467 -0.7627 0.7627 -0.6467 61.8895 135.0185)" clip-path="url(#SVGID_2_)" fill-rule="evenodd" clip-rule="evenodd" fill="#42D142" width="0.796" height="103.31"/>
			
				<rect x="62.158" y="1.927" transform="matrix(-0.6467 -0.7627 0.7627 -0.6467 62.1451 135.947)" clip-path="url(#SVGID_2_)" fill-rule="evenodd" clip-rule="evenodd" fill="#42D142" width="0.796" height="103.31"/>
			
				<rect x="62.501" y="2.331" transform="matrix(-0.6467 -0.7627 0.7627 -0.6467 62.4024 136.8747)" clip-path="url(#SVGID_2_)" fill-rule="evenodd" clip-rule="evenodd" fill="#42D142" width="0.796" height="103.311"/>
			
				<rect x="62.844" y="2.735" transform="matrix(-0.647 -0.7625 0.7625 -0.647 62.6914 137.8026)" clip-path="url(#SVGID_2_)" fill-rule="evenodd" clip-rule="evenodd" fill="#42D142" width="0.795" height="103.311"/>
			
				<rect x="63.187" y="3.14" transform="matrix(-0.6467 -0.7627 0.7627 -0.6467 62.9148 138.7297)" clip-path="url(#SVGID_2_)" fill-rule="evenodd" clip-rule="evenodd" fill="#42D042" width="0.796" height="103.31"/>
			
				<rect x="63.53" y="3.545" transform="matrix(-0.6467 -0.7627 0.7627 -0.6467 63.1703 139.6581)" clip-path="url(#SVGID_2_)" fill-rule="evenodd" clip-rule="evenodd" fill="#42D042" width="0.796" height="103.31"/>
			
				<rect x="63.873" y="3.949" transform="matrix(-0.6467 -0.7627 0.7627 -0.6467 63.4276 140.5859)" clip-path="url(#SVGID_2_)" fill-rule="evenodd" clip-rule="evenodd" fill="#42D042" width="0.796" height="103.311"/>
			
				<rect x="64.216" y="4.354" transform="matrix(-0.6467 -0.7627 0.7627 -0.6467 63.6835 141.5135)" clip-path="url(#SVGID_2_)" fill-rule="evenodd" clip-rule="evenodd" fill="#42D042" width="0.796" height="103.31"/>
			
				<rect x="64.559" y="4.758" transform="matrix(-0.647 -0.7625 0.7625 -0.647 63.9732 142.4423)" clip-path="url(#SVGID_2_)" fill-rule="evenodd" clip-rule="evenodd" fill="#42D042" width="0.795" height="103.311"/>
			
				<rect x="64.902" y="5.163" transform="matrix(-0.6467 -0.7627 0.7627 -0.6467 64.196 143.3695)" clip-path="url(#SVGID_2_)" fill-rule="evenodd" clip-rule="evenodd" fill="#42D042" width="0.796" height="103.31"/>
			
				<rect x="65.245" y="5.568" transform="matrix(-0.6467 -0.7627 0.7627 -0.6467 64.4527 144.2975)" clip-path="url(#SVGID_2_)" fill-rule="evenodd" clip-rule="evenodd" fill="#42CF42" width="0.796" height="103.31"/>
			
				<rect x="65.588" y="5.972" transform="matrix(-0.6467 -0.7627 0.7627 -0.6467 64.7088 145.2247)" clip-path="url(#SVGID_2_)" fill-rule="evenodd" clip-rule="evenodd" fill="#42CF42" width="0.796" height="103.31"/>
			
				<rect x="65.931" y="6.377" transform="matrix(-0.6467 -0.7627 0.7627 -0.6467 64.9647 146.1533)" clip-path="url(#SVGID_2_)" fill-rule="evenodd" clip-rule="evenodd" fill="#42CF42" width="0.796" height="103.31"/>
			
				<rect x="66.274" y="6.781" transform="matrix(-0.647 -0.7625 0.7625 -0.647 65.2558 147.0815)" clip-path="url(#SVGID_2_)" fill-rule="evenodd" clip-rule="evenodd" fill="#42CF42" width="0.795" height="103.31"/>
			
				<rect x="66.617" y="7.186" transform="matrix(-0.6467 -0.7627 0.7627 -0.6467 65.4779 148.0087)" clip-path="url(#SVGID_2_)" fill-rule="evenodd" clip-rule="evenodd" fill="#42CF42" width="0.796" height="103.31"/>
			
				<rect x="66.96" y="7.59" transform="matrix(-0.6467 -0.7627 0.7627 -0.6467 65.7337 148.9367)" clip-path="url(#SVGID_2_)" fill-rule="evenodd" clip-rule="evenodd" fill="#41CF41" width="0.796" height="103.311"/>
			
				<rect x="67.303" y="7.995" transform="matrix(-0.6467 -0.7627 0.7627 -0.6467 65.99 149.8645)" clip-path="url(#SVGID_2_)" fill-rule="evenodd" clip-rule="evenodd" fill="#41CE41" width="0.796" height="103.31"/>
			
				<rect x="67.646" y="8.4" transform="matrix(-0.6467 -0.7627 0.7627 -0.6467 66.2459 150.7921)" clip-path="url(#SVGID_2_)" fill-rule="evenodd" clip-rule="evenodd" fill="#41CE41" width="0.796" height="103.31"/>
			
				<rect x="67.989" y="8.804" transform="matrix(-0.6467 -0.7627 0.7627 -0.6467 66.5028 151.7207)" clip-path="url(#SVGID_2_)" fill-rule="evenodd" clip-rule="evenodd" fill="#41CE41" width="0.796" height="103.311"/>
			
				<rect x="68.332" y="9.209" transform="matrix(-0.6467 -0.7627 0.7627 -0.6467 66.7587 152.6483)" clip-path="url(#SVGID_2_)" fill-rule="evenodd" clip-rule="evenodd" fill="#41CE41" width="0.796" height="103.311"/>
			
				<rect x="68.675" y="9.613" transform="matrix(-0.6467 -0.7627 0.7627 -0.6467 67.0146 153.5759)" clip-path="url(#SVGID_2_)" fill-rule="evenodd" clip-rule="evenodd" fill="#41CE41" width="0.796" height="103.31"/>
			
				<rect x="69.018" y="10.018" transform="matrix(-0.6467 -0.7627 0.7627 -0.6467 67.2715 154.5035)" clip-path="url(#SVGID_2_)" fill-rule="evenodd" clip-rule="evenodd" fill="#41CD41" width="0.796" height="103.31"/>
			
				<rect x="69.362" y="10.423" transform="matrix(-0.6463 -0.7631 0.7631 -0.6463 67.4775 155.431)" clip-path="url(#SVGID_2_)" fill-rule="evenodd" clip-rule="evenodd" fill="#41CD41" width="0.795" height="103.31"/>
			
				<rect x="69.704" y="10.827" transform="matrix(-0.647 -0.7625 0.7625 -0.647 67.8211 156.3608)" clip-path="url(#SVGID_2_)" fill-rule="evenodd" clip-rule="evenodd" fill="#41CD41" width="0.795" height="103.311"/>
			
				<rect x="70.047" y="11.232" transform="matrix(-0.6467 -0.7627 0.7627 -0.6467 68.0403 157.2873)" clip-path="url(#SVGID_2_)" fill-rule="evenodd" clip-rule="evenodd" fill="#41CD41" width="0.796" height="103.31"/>
			
				<rect x="70.39" y="11.636" transform="matrix(-0.6467 -0.7627 0.7627 -0.6467 68.296 158.2153)" clip-path="url(#SVGID_2_)" fill-rule="evenodd" clip-rule="evenodd" fill="#41CD41" width="0.796" height="103.311"/>
			
				<rect x="70.733" y="12.041" transform="matrix(-0.6467 -0.7627 0.7627 -0.6467 68.5531 159.1435)" clip-path="url(#SVGID_2_)" fill-rule="evenodd" clip-rule="evenodd" fill="#41CD41" width="0.796" height="103.311"/>
			
				<rect x="71.076" y="12.445" transform="matrix(-0.6467 -0.7627 0.7627 -0.6467 68.809 160.0711)" clip-path="url(#SVGID_2_)" fill-rule="evenodd" clip-rule="evenodd" fill="#41CC41" width="0.796" height="103.31"/>
			
				<rect x="71.419" y="12.85" transform="matrix(-0.6467 -0.7627 0.7627 -0.6467 69.0652 160.9993)" clip-path="url(#SVGID_2_)" fill-rule="evenodd" clip-rule="evenodd" fill="#41CC41" width="0.796" height="103.311"/>
			
				<rect x="71.762" y="13.255" transform="matrix(-0.6467 -0.7627 0.7627 -0.6467 69.3211 161.9269)" clip-path="url(#SVGID_2_)" fill-rule="evenodd" clip-rule="evenodd" fill="#41CC41" width="0.796" height="103.31"/>
			
				<rect x="72.105" y="13.659" transform="matrix(-0.6467 -0.7627 0.7627 -0.6467 69.578 162.8545)" clip-path="url(#SVGID_2_)" fill-rule="evenodd" clip-rule="evenodd" fill="#41CC41" width="0.796" height="103.311"/>
			
				<rect x="72.448" y="14.064" transform="matrix(-0.6467 -0.7627 0.7627 -0.6467 69.8343 163.7823)" clip-path="url(#SVGID_2_)" fill-rule="evenodd" clip-rule="evenodd" fill="#40CC40" width="0.796" height="103.31"/>
			
				<rect x="72.791" y="14.468" transform="matrix(-0.647 -0.7625 0.7625 -0.647 70.129 164.7119)" clip-path="url(#SVGID_2_)" fill-rule="evenodd" clip-rule="evenodd" fill="#40CC40" width="0.795" height="103.311"/>
			
				<rect x="73.134" y="14.873" transform="matrix(-0.6467 -0.7627 0.7627 -0.6467 70.3463 165.6381)" clip-path="url(#SVGID_2_)" fill-rule="evenodd" clip-rule="evenodd" fill="#40CB40" width="0.796" height="103.31"/>
			
				<rect x="73.478" y="15.278" transform="matrix(-0.6463 -0.7631 0.7631 -0.6463 70.5497 166.5645)" clip-path="url(#SVGID_2_)" fill-rule="evenodd" clip-rule="evenodd" fill="#40CB40" width="0.795" height="103.31"/>
			
				<rect x="73.82" y="15.682" transform="matrix(-0.6467 -0.7627 0.7627 -0.6467 70.8592 167.4942)" clip-path="url(#SVGID_2_)" fill-rule="evenodd" clip-rule="evenodd" fill="#40CB40" width="0.796" height="103.311"/>
			
				<rect x="74.163" y="16.087" transform="matrix(-0.6467 -0.7627 0.7627 -0.6467 71.1155 168.422)" clip-path="url(#SVGID_2_)" fill-rule="evenodd" clip-rule="evenodd" fill="#40CB40" width="0.796" height="103.31"/>
			
				<rect x="74.506" y="16.491" transform="matrix(-0.6467 -0.7627 0.7627 -0.6467 71.3716 169.3492)" clip-path="url(#SVGID_2_)" fill-rule="evenodd" clip-rule="evenodd" fill="#40CB40" width="0.796" height="103.31"/>
			
				<rect x="74.849" y="16.896" transform="matrix(-0.6475 -0.7621 0.7621 -0.6475 71.7227 170.2812)" clip-path="url(#SVGID_2_)" fill-rule="evenodd" clip-rule="evenodd" fill="#40CB40" width="0.796" height="103.311"/>
			
				<rect x="75.192" y="17.301" transform="matrix(-0.6467 -0.7627 0.7627 -0.6467 71.8842 171.2058)" clip-path="url(#SVGID_2_)" fill-rule="evenodd" clip-rule="evenodd" fill="#40CA40" width="0.796" height="103.311"/>
			
				<rect x="75.535" y="17.705" transform="matrix(-0.6467 -0.7627 0.7627 -0.6467 72.1407 172.1332)" clip-path="url(#SVGID_2_)" fill-rule="evenodd" clip-rule="evenodd" fill="#40CA40" width="0.796" height="103.31"/>
			
				<rect x="75.878" y="18.11" transform="matrix(-0.647 -0.7625 0.7625 -0.647 72.4377 173.0624)" clip-path="url(#SVGID_2_)" fill-rule="evenodd" clip-rule="evenodd" fill="#40CA40" width="0.795" height="103.31"/>
			
				<rect x="76.222" y="18.514" transform="matrix(-0.647 -0.7625 0.7625 -0.647 72.6942 173.9912)" clip-path="url(#SVGID_2_)" fill-rule="evenodd" clip-rule="evenodd" fill="#40CA40" width="0.795" height="103.311"/>
			
				<rect x="76.565" y="18.919" transform="matrix(-0.6467 -0.7627 0.7627 -0.6467 72.9095 174.917)" clip-path="url(#SVGID_2_)" fill-rule="evenodd" clip-rule="evenodd" fill="#40CA40" width="0.796" height="103.311"/>
			
				<rect x="76.907" y="19.323" transform="matrix(-0.6467 -0.7627 0.7627 -0.6467 73.1656 175.8442)" clip-path="url(#SVGID_2_)" fill-rule="evenodd" clip-rule="evenodd" fill="#40CA40" width="0.796" height="103.311"/>
			
				<rect x="77.25" y="19.728" transform="matrix(-0.6467 -0.7627 0.7627 -0.6467 73.4219 176.772)" clip-path="url(#SVGID_2_)" fill-rule="evenodd" clip-rule="evenodd" fill="#40C940" width="0.796" height="103.31"/>
			
				<rect x="77.594" y="20.133" transform="matrix(-0.646 -0.7633 0.7633 -0.646 73.5794 177.6969)" clip-path="url(#SVGID_2_)" fill-rule="evenodd" clip-rule="evenodd" fill="#40C940" width="0.795" height="103.31"/>
			
				<rect x="77.937" y="20.537" transform="matrix(-0.6467 -0.7627 0.7627 -0.6467 73.9347 178.6282)" clip-path="url(#SVGID_2_)" fill-rule="evenodd" clip-rule="evenodd" fill="#3FC93F" width="0.796" height="103.311"/>
			
				<rect x="78.28" y="20.942" transform="matrix(-0.6467 -0.7627 0.7627 -0.6467 74.1911 179.556)" clip-path="url(#SVGID_2_)" fill-rule="evenodd" clip-rule="evenodd" fill="#3FC93F" width="0.796" height="103.31"/>
			
				<rect x="78.623" y="21.346" transform="matrix(-0.647 -0.7625 0.7625 -0.647 74.4893 180.4862)" clip-path="url(#SVGID_2_)" fill-rule="evenodd" clip-rule="evenodd" fill="#3FC93F" width="0.795" height="103.311"/>
			
				<rect x="78.965" y="21.751" transform="matrix(-0.6475 -0.7621 0.7621 -0.6475 74.8041 181.4161)" clip-path="url(#SVGID_2_)" fill-rule="evenodd" clip-rule="evenodd" fill="#3FC83F" width="0.796" height="103.311"/>
			
				<rect x="79.309" y="22.155" transform="matrix(-0.647 -0.7625 0.7625 -0.647 75.0029 182.3417)" clip-path="url(#SVGID_2_)" fill-rule="evenodd" clip-rule="evenodd" fill="#3FC83F" width="0.795" height="103.311"/>
			
				<rect x="79.652" y="22.56" transform="matrix(-0.6467 -0.7627 0.7627 -0.6467 75.2163 183.2672)" clip-path="url(#SVGID_2_)" fill-rule="evenodd" clip-rule="evenodd" fill="#3FC83F" width="0.796" height="103.31"/>
			
				<rect x="79.994" y="22.965" transform="matrix(-0.6467 -0.7627 0.7627 -0.6467 75.4718 184.1956)" clip-path="url(#SVGID_2_)" fill-rule="evenodd" clip-rule="evenodd" fill="#3FC83F" width="0.796" height="103.31"/>
			
				<rect x="80.338" y="23.369" transform="matrix(-0.6467 -0.7627 0.7627 -0.6467 75.7287 185.1232)" clip-path="url(#SVGID_2_)" fill-rule="evenodd" clip-rule="evenodd" fill="#3FC83F" width="0.796" height="103.311"/>
			
				<rect x="80.681" y="23.774" transform="matrix(-0.6467 -0.7627 0.7627 -0.6467 75.9851 186.051)" clip-path="url(#SVGID_2_)" fill-rule="evenodd" clip-rule="evenodd" fill="#3FC83F" width="0.796" height="103.31"/>
			
				<rect x="81.024" y="24.178" transform="matrix(-0.6467 -0.7627 0.7627 -0.6467 76.2411 186.9782)" clip-path="url(#SVGID_2_)" fill-rule="evenodd" clip-rule="evenodd" fill="#3FC73F" width="0.796" height="103.31"/>
			
				<rect x="81.367" y="24.583" transform="matrix(-0.6467 -0.7627 0.7627 -0.6467 76.4971 187.9068)" clip-path="url(#SVGID_2_)" fill-rule="evenodd" clip-rule="evenodd" fill="#3FC73F" width="0.796" height="103.31"/>
			
				<rect x="81.71" y="24.988" transform="matrix(-0.646 -0.7633 0.7633 -0.646 76.6491 188.8299)" clip-path="url(#SVGID_2_)" fill-rule="evenodd" clip-rule="evenodd" fill="#3FC73F" width="0.795" height="103.31"/>
			
				<rect x="82.053" y="25.392" transform="matrix(-0.6467 -0.7627 0.7627 -0.6467 77.0103 189.7622)" clip-path="url(#SVGID_2_)" fill-rule="evenodd" clip-rule="evenodd" fill="#3FC73F" width="0.796" height="103.31"/>
			
				<rect x="82.396" y="25.797" transform="matrix(-0.647 -0.7625 0.7625 -0.647 77.3112 190.693)" clip-path="url(#SVGID_2_)" fill-rule="evenodd" clip-rule="evenodd" fill="#3FC73F" width="0.795" height="103.311"/>
			
				<rect x="82.739" y="26.201" transform="matrix(-0.647 -0.7625 0.7625 -0.647 77.5673 191.6206)" clip-path="url(#SVGID_2_)" fill-rule="evenodd" clip-rule="evenodd" fill="#3FC73F" width="0.795" height="103.31"/>
			
				<rect x="83.081" y="26.606" transform="matrix(-0.6475 -0.7621 0.7621 -0.6475 77.8856 192.5511)" clip-path="url(#SVGID_2_)" fill-rule="evenodd" clip-rule="evenodd" fill="#3FC63F" width="0.796" height="103.31"/>
			
				<rect x="83.425" y="27.01" transform="matrix(-0.6467 -0.7627 0.7627 -0.6467 78.0352 193.4742)" clip-path="url(#SVGID_2_)" fill-rule="evenodd" clip-rule="evenodd" fill="#3EC63E" width="0.796" height="103.311"/>
			
				<rect x="83.768" y="27.415" transform="matrix(-0.6467 -0.7627 0.7627 -0.6467 78.2911 194.4018)" clip-path="url(#SVGID_2_)" fill-rule="evenodd" clip-rule="evenodd" fill="#3EC63E" width="0.796" height="103.311"/>
			
				<rect x="84.111" y="27.82" transform="matrix(-0.6467 -0.7627 0.7627 -0.6467 78.5474 195.3296)" clip-path="url(#SVGID_2_)" fill-rule="evenodd" clip-rule="evenodd" fill="#3EC63E" width="0.796" height="103.31"/>
			
				<rect x="84.454" y="28.224" transform="matrix(-0.6467 -0.7627 0.7627 -0.6467 78.8043 196.2572)" clip-path="url(#SVGID_2_)" fill-rule="evenodd" clip-rule="evenodd" fill="#3EC63E" width="0.796" height="103.311"/>
			
				<rect x="84.797" y="28.629" transform="matrix(-0.6467 -0.7627 0.7627 -0.6467 79.0602 197.1858)" clip-path="url(#SVGID_2_)" fill-rule="evenodd" clip-rule="evenodd" fill="#3EC63E" width="0.796" height="103.311"/>
			
				<rect x="85.14" y="29.033" transform="matrix(-0.6467 -0.7627 0.7627 -0.6467 79.3162 198.1134)" clip-path="url(#SVGID_2_)" fill-rule="evenodd" clip-rule="evenodd" fill="#3EC53E" width="0.796" height="103.31"/>
			
				<rect x="85.483" y="29.438" transform="matrix(-0.6467 -0.7627 0.7627 -0.6467 79.5727 199.0408)" clip-path="url(#SVGID_2_)" fill-rule="evenodd" clip-rule="evenodd" fill="#3EC53E" width="0.796" height="103.31"/>
			
				<rect x="85.827" y="29.842" transform="matrix(-0.646 -0.7633 0.7633 -0.646 79.7186 199.9633)" clip-path="url(#SVGID_2_)" fill-rule="evenodd" clip-rule="evenodd" fill="#3EC53E" width="0.795" height="103.31"/>
			
				<rect x="86.169" y="30.247" transform="matrix(-0.6467 -0.7627 0.7627 -0.6467 80.0855 200.8969)" clip-path="url(#SVGID_2_)" fill-rule="evenodd" clip-rule="evenodd" fill="#3EC53E" width="0.796" height="103.311"/>
			
				<rect x="86.512" y="30.652" transform="matrix(-0.6467 -0.7627 0.7627 -0.6467 80.3418 201.8247)" clip-path="url(#SVGID_2_)" fill-rule="evenodd" clip-rule="evenodd" fill="#3EC53E" width="0.796" height="103.31"/>
			
				<rect x="86.855" y="31.056" transform="matrix(-0.6467 -0.7627 0.7627 -0.6467 80.5975 202.7527)" clip-path="url(#SVGID_2_)" fill-rule="evenodd" clip-rule="evenodd" fill="#3EC53E" width="0.796" height="103.311"/>
			
				<rect x="87.198" y="31.461" transform="matrix(-0.6475 -0.7621 0.7621 -0.6475 80.9666 203.6868)" clip-path="url(#SVGID_2_)" fill-rule="evenodd" clip-rule="evenodd" fill="#3EC43E" width="0.796" height="103.311"/>
			
				<rect x="87.541" y="31.865" transform="matrix(-0.647 -0.7625 0.7625 -0.647 81.1586 204.6112)" clip-path="url(#SVGID_2_)" fill-rule="evenodd" clip-rule="evenodd" fill="#3EC43E" width="0.795" height="103.311"/>
			
				<rect x="87.884" y="32.27" transform="matrix(-0.6467 -0.7627 0.7627 -0.6467 81.3667 205.5357)" clip-path="url(#SVGID_2_)" fill-rule="evenodd" clip-rule="evenodd" fill="#3EC43E" width="0.796" height="103.31"/>
			
				<rect x="88.227" y="32.675" transform="matrix(-0.6467 -0.7627 0.7627 -0.6467 81.6226 206.4643)" clip-path="url(#SVGID_2_)" fill-rule="evenodd" clip-rule="evenodd" fill="#3EC43E" width="0.796" height="103.31"/>
			
				<rect x="88.57" y="33.079" transform="matrix(-0.646 -0.7633 0.7633 -0.646 81.7646 207.3852)" clip-path="url(#SVGID_2_)" fill-rule="evenodd" clip-rule="evenodd" fill="#3EC43E" width="0.795" height="103.31"/>
			
				<rect x="88.913" y="33.484" transform="matrix(-0.6467 -0.7627 0.7627 -0.6467 82.1358 208.3197)" clip-path="url(#SVGID_2_)" fill-rule="evenodd" clip-rule="evenodd" fill="#3DC33D" width="0.796" height="103.31"/>
			
				<rect x="89.256" y="33.888" transform="matrix(-0.6467 -0.7627 0.7627 -0.6467 82.3915 209.2477)" clip-path="url(#SVGID_2_)" fill-rule="evenodd" clip-rule="evenodd" fill="#3DC33D" width="0.796" height="103.311"/>
			
				<rect x="89.599" y="34.293" transform="matrix(-0.6467 -0.7627 0.7627 -0.6467 82.6479 210.1755)" clip-path="url(#SVGID_2_)" fill-rule="evenodd" clip-rule="evenodd" fill="#3DC33D" width="0.796" height="103.31"/>
			
				<rect x="89.942" y="34.697" transform="matrix(-0.6467 -0.7627 0.7627 -0.6467 82.9044 211.1029)" clip-path="url(#SVGID_2_)" fill-rule="evenodd" clip-rule="evenodd" fill="#3DC33D" width="0.796" height="103.31"/>
			
				<rect x="90.285" y="35.102" transform="matrix(-0.6467 -0.7627 0.7627 -0.6467 83.1607 212.0317)" clip-path="url(#SVGID_2_)" fill-rule="evenodd" clip-rule="evenodd" fill="#3DC33D" width="0.796" height="103.311"/>
			
				<rect x="90.628" y="35.507" transform="matrix(-0.6467 -0.7627 0.7627 -0.6467 83.417 212.9595)" clip-path="url(#SVGID_2_)" fill-rule="evenodd" clip-rule="evenodd" fill="#3DC33D" width="0.796" height="103.31"/>
			
				<rect x="90.971" y="35.911" transform="matrix(-0.6467 -0.7627 0.7627 -0.6467 83.6731 213.8867)" clip-path="url(#SVGID_2_)" fill-rule="evenodd" clip-rule="evenodd" fill="#3DC23D" width="0.796" height="103.31"/>
			
				<rect x="91.314" y="36.316" transform="matrix(-0.6475 -0.7621 0.7621 -0.6475 84.0481 214.8217)" clip-path="url(#SVGID_2_)" fill-rule="evenodd" clip-rule="evenodd" fill="#3DC23D" width="0.796" height="103.31"/>
			
				<rect x="91.657" y="36.72" transform="matrix(-0.6467 -0.7627 0.7627 -0.6467 84.1858 215.7433)" clip-path="url(#SVGID_2_)" fill-rule="evenodd" clip-rule="evenodd" fill="#3DC23D" width="0.796" height="103.311"/>
			
				<rect x="92" y="37.125" transform="matrix(-0.6467 -0.7627 0.7627 -0.6467 84.4419 216.6705)" clip-path="url(#SVGID_2_)" fill-rule="evenodd" clip-rule="evenodd" fill="#3DC23D" width="0.796" height="103.311"/>
			
				<rect x="92.343" y="37.529" transform="matrix(-0.6467 -0.7627 0.7627 -0.6467 84.6984 217.5979)" clip-path="url(#SVGID_2_)" fill-rule="evenodd" clip-rule="evenodd" fill="#3DC23D" width="0.796" height="103.31"/>
			
				<rect x="92.687" y="37.934" transform="matrix(-0.646 -0.7633 0.7633 -0.646 84.8339 218.519)" clip-path="url(#SVGID_2_)" fill-rule="evenodd" clip-rule="evenodd" fill="#3DC23D" width="0.795" height="103.311"/>
			
				<rect x="93.029" y="38.339" transform="matrix(-0.6467 -0.7627 0.7627 -0.6467 85.211 219.4545)" clip-path="url(#SVGID_2_)" fill-rule="evenodd" clip-rule="evenodd" fill="#3DC13D" width="0.796" height="103.311"/>
			
				<rect x="93.372" y="38.743" transform="matrix(-0.6467 -0.7627 0.7627 -0.6467 85.4671 220.3817)" clip-path="url(#SVGID_2_)" fill-rule="evenodd" clip-rule="evenodd" fill="#3DC13D" width="0.796" height="103.311"/>
			
				<rect x="93.715" y="39.148" transform="matrix(-0.6467 -0.7627 0.7627 -0.6467 85.7234 221.3095)" clip-path="url(#SVGID_2_)" fill-rule="evenodd" clip-rule="evenodd" fill="#3DC13D" width="0.796" height="103.31"/>
			
				<rect x="94.058" y="39.553" transform="matrix(-0.6467 -0.7627 0.7627 -0.6467 85.9794 222.2381)" clip-path="url(#SVGID_2_)" fill-rule="evenodd" clip-rule="evenodd" fill="#3DC13D" width="0.796" height="103.31"/>
			
				<rect x="94.401" y="39.957" transform="matrix(-0.6467 -0.7627 0.7627 -0.6467 86.2363 223.1657)" clip-path="url(#SVGID_2_)" fill-rule="evenodd" clip-rule="evenodd" fill="#3CC13C" width="0.796" height="103.311"/>
			
				<rect x="94.744" y="40.362" transform="matrix(-0.6467 -0.7627 0.7627 -0.6467 86.4926 224.0935)" clip-path="url(#SVGID_2_)" fill-rule="evenodd" clip-rule="evenodd" fill="#3CC13C" width="0.796" height="103.31"/>
			
				<rect x="95.087" y="40.766" transform="matrix(-0.6467 -0.7627 0.7627 -0.6467 86.7487 225.0207)" clip-path="url(#SVGID_2_)" fill-rule="evenodd" clip-rule="evenodd" fill="#3CC03C" width="0.796" height="103.31"/>
			
				<rect x="95.43" y="41.17" transform="matrix(-0.6475 -0.7621 0.7621 -0.6475 87.1287 225.9573)" clip-path="url(#SVGID_2_)" fill-rule="evenodd" clip-rule="evenodd" fill="#3CC03C" width="0.796" height="103.311"/>
			
				<rect x="95.774" y="41.575" transform="matrix(-0.6467 -0.7627 0.7627 -0.6467 87.2615 226.8769)" clip-path="url(#SVGID_2_)" fill-rule="evenodd" clip-rule="evenodd" fill="#3CC03C" width="0.796" height="103.311"/>
			
				<rect x="96.116" y="41.98" transform="matrix(-0.6467 -0.7627 0.7627 -0.6467 87.5174 227.8045)" clip-path="url(#SVGID_2_)" fill-rule="evenodd" clip-rule="evenodd" fill="#3CC03C" width="0.796" height="103.31"/>
			
				<rect x="96.459" y="42.385" transform="matrix(-0.647 -0.7625 0.7625 -0.647 87.8268 228.7367)" clip-path="url(#SVGID_2_)" fill-rule="evenodd" clip-rule="evenodd" fill="#3CC03C" width="0.795" height="103.311"/>
			
				<rect x="96.803" y="42.789" transform="matrix(-0.646 -0.7633 0.7633 -0.646 87.9036 229.652)" clip-path="url(#SVGID_2_)" fill-rule="evenodd" clip-rule="evenodd" fill="#3CC03C" width="0.795" height="103.31"/>
			
				<rect x="97.146" y="43.193" transform="matrix(-0.6467 -0.7627 0.7627 -0.6467 88.2866 230.5885)" clip-path="url(#SVGID_2_)" fill-rule="evenodd" clip-rule="evenodd" fill="#3CBF3C" width="0.796" height="103.31"/>
			
				<rect x="97.488" y="43.598" transform="matrix(-0.6467 -0.7627 0.7627 -0.6467 88.5427 231.5157)" clip-path="url(#SVGID_2_)" fill-rule="evenodd" clip-rule="evenodd" fill="#3CBF3C" width="0.796" height="103.31"/>
			
				<rect x="97.831" y="44.003" transform="matrix(-0.6467 -0.7627 0.7627 -0.6467 88.7986 232.4443)" clip-path="url(#SVGID_2_)" fill-rule="evenodd" clip-rule="evenodd" fill="#3CBF3C" width="0.796" height="103.31"/>
			
				<rect x="98.174" y="44.408" transform="matrix(-0.6467 -0.7627 0.7627 -0.6467 89.0549 233.3721)" clip-path="url(#SVGID_2_)" fill-rule="evenodd" clip-rule="evenodd" fill="#3CBF3C" width="0.796" height="103.31"/>
			
				<rect x="98.596" y="44.642" transform="matrix(-0.6462 -0.7632 0.7632 -0.6462 89.1055 233.9041)" clip-path="url(#SVGID_2_)" fill-rule="evenodd" clip-rule="evenodd" fill="#3CBF3C" width="0.351" height="103.31"/>
		</g>
	</g>
	<path fill-rule="evenodd" clip-rule="evenodd" fill="#FCFAE6" d="M87.956,46.476c-0.41,0.049-0.812,0.072-1.191,0.072
		c-4.573,0.077-7.453-3.465-11.97-4.379c-0.443-0.083-0.902-0.113-1.355-0.113c-1.813,0.018-3.695,0.519-5.324,1.12
		c0.295-0.376,0.616-0.764,0.941-1.158c2.147-2.621,5.065-5.26,6.926-5.557c0.45-0.097,0.855-0.137,1.231-0.137
		c1.592,0,2.774,0.68,4.201,1.81c1.409,1.115,2.938,2.659,5.032,3.919c2.182,1.309,4.37,1.667,6.088,1.667
		c0.257,0,0.502-0.007,0.738-0.016C92.293,44.874,90.662,46.145,87.956,46.476L87.956,46.476L87.956,46.476z M70.023,63.434
		c0,0,0,0.029,0,0.067c-0.007,0.811-0.396,1.444-1.325,2.204c-0.777,0.624-1.883,1.187-3.069,1.761v-7.367
		c1.245,0.516,2.335,1.064,3.099,1.61C69.699,62.416,70.023,62.995,70.023,63.434L70.023,63.434L70.023,63.434z M67.74,74.206
		c-0.144,0.772-0.599,1.299-1.563,1.857c-0.174,0.092-0.355,0.189-0.55,0.271v-4.775c0.596,0.347,1.105,0.7,1.453,1.028
		c0.506,0.507,0.67,0.869,0.68,1.307C67.761,73.99,67.75,74.091,67.74,74.206L67.74,74.206L67.74,74.206z M64.219,76.77
		c-0.039-0.009-0.067-0.018-0.102-0.038h0.473c-0.072,0.029-0.149,0.06-0.232,0.086C64.316,76.798,64.267,76.788,64.219,76.77
		L64.219,76.77L64.219,76.77z M62.231,72.096c0.257-0.189,0.545-0.367,0.861-0.545v4.784c-1.263-0.574-1.986-1.254-2.12-2.154
		c-0.018-0.104-0.029-0.189-0.029-0.277C60.943,73.328,61.276,72.803,62.231,72.096L62.231,72.096L62.231,72.096z M58.692,63.504
		c0,0,0,0,0-0.049c-0.045-0.583,0.68-1.504,2.416-2.432c0.583-0.309,1.254-0.617,1.984-0.921v7.367
		c-0.482-0.228-0.959-0.46-1.395-0.696C59.705,65.697,58.643,64.65,58.692,63.504L58.692,63.504L58.692,63.504z M61.47,32.755
		c0.004-1.594,1.288-2.875,2.889-2.884c1.593,0.009,2.887,1.292,2.887,2.884c0,1.601-1.297,2.894-2.887,2.894
		C62.762,35.649,61.472,34.357,61.47,32.755L61.47,32.755L61.47,32.755z M55.28,42.057c-0.459,0-0.913,0.029-1.355,0.113
		c-4.515,0.917-7.401,4.456-11.975,4.379c-0.383,0-0.779-0.022-1.187-0.073c-2.677-0.333-4.26-1.554-5.264-2.715
		c-0.018-0.018-0.039-0.039-0.055-0.055c0.237,0.01,0.478,0.016,0.739,0.016c1.718,0,3.902-0.355,6.082-1.667
		c2.099-1.263,3.625-2.806,5.032-3.919c1.434-1.13,2.61-1.802,4.204-1.811c0.372,0,0.781,0.041,1.234,0.137
		c1.862,0.297,4.776,2.938,6.928,5.557c0.327,0.394,0.642,0.781,0.938,1.158C58.975,42.573,57.093,42.076,55.28,42.057L55.28,42.057
		L55.28,42.057z M95.298,40.783c0,0-0.223,0.086-0.718,0.189c-0.493,0.105-1.207,0.207-2.047,0.207c-1.38,0-3.078-0.272-4.779-1.299
		c-1.772-1.056-3.19-2.47-4.759-3.735c-1.547-1.246-3.382-2.364-5.784-2.356c-0.561,0-1.135,0.059-1.738,0.178
		c-3.17,0.701-6.017,3.677-8.36,6.417c-0.54,0.642-1.033,1.263-1.485,1.858v-4.22c2.377-0.574,4.149-2.706,4.149-5.268
		c0-2.997-2.428-5.42-5.42-5.42c-3.001,0-5.431,2.423-5.431,5.42c0,2.563,1.781,4.695,4.164,5.268v4.22
		c-0.453-0.595-0.951-1.216-1.486-1.858c-2.346-2.74-5.192-5.717-8.364-6.417c-0.599-0.119-1.173-0.178-1.736-0.178
		c-2.409-0.009-4.237,1.11-5.785,2.356c-1.563,1.263-2.983,2.677-4.752,3.735c-1.709,1.027-3.4,1.299-4.78,1.306
		c-0.844,0-1.561-0.111-2.049-0.216c-0.493-0.104-0.716-0.189-0.716-0.189l-2.416-0.878l0.772,2.452
		c0.029,0.153,1.876,5.793,8.682,6.642c0.518,0.056,1.011,0.087,1.493,0.087c5.86-0.087,9.215-4.005,12.401-4.42
		c0.295-0.048,0.599-0.077,0.928-0.077c1.713-0.009,3.922,0.709,5.631,1.453c0.9,0.394,1.66,0.781,2.18,1.056v9.355
		c-1.597-0.545-3.208-1.059-4.69-1.592c-1.684-0.595-3.18-1.216-4.173-1.819c-1.038-0.622-1.36-1.175-1.342-1.355
		c-0.009-0.095-0.014-0.14-0.014-0.219c0.049-0.771,0.223-0.93,0.781-1.263c0.561-0.29,1.529-0.435,2.465-0.435
		c1.423,0,2.691,0.286,2.698,0.274c0.684,0.151,1.355-0.283,1.504-0.97c0.155-0.689-0.284-1.355-0.97-1.509
		c-0.048-0.011-1.495-0.329-3.231-0.329c-1.148,0.009-2.438,0.122-3.609,0.698c-1.182,0.536-2.22,1.862-2.175,3.531
		c0,0.13,0.004,0.295,0.022,0.464c0.281,2.069,2.033,3.06,3.933,4.015c1.869,0.871,4.188,1.639,6.484,2.412
		c-0.824,0.385-1.587,0.811-2.258,1.288c-1.245,0.887-2.313,2.094-2.364,3.727c0-0.011-0.004,0.029-0.004,0.13
		c-0.009,1.82,1.056,3.231,2.297,4.191c0.921,0.721,1.998,1.313,3.074,1.837c-0.595,0.367-1.158,0.754-1.646,1.225
		c-0.819,0.772-1.471,1.859-1.461,3.146c0,0.219,0.014,0.473,0.067,0.729c0.221,1.404,1.074,2.461,2.099,3.194
		c-0.067,0.018-0.14,0.036-0.212,0.059c-1.033,0.279-2.008,0.583-2.866,1.09c-0.829,0.491-1.65,1.385-1.711,2.592
		c-0.004,0.095-0.014,0.207-0.014,0.352c-0.041,1.74,0.962,3.058,2.031,3.588c1.061,0.555,2.099,0.613,2.698,0.613
		c0.291,0,0.478-0.021,0.506-0.021c0.694-0.059,1.211-0.68,1.148-1.376c-0.063-0.698-0.675-1.216-1.376-1.153
		c-0.004,0-0.086,0.01-0.279,0.01c-0.383,0-1.067-0.072-1.491-0.309c-0.415-0.283-0.655-0.423-0.7-1.355
		c0-0.041,0.007-0.105,0.009-0.194c-0.004-0.168,0.117-0.428,1.067-0.854c1.153-0.502,3.074-0.857,4.974-1.404
		c1.165,0.326,2.322,0.583,3.326,0.861c0.955,0.258,1.757,0.541,2.21,0.822c0.473,0.313,0.479,0.415,0.502,0.565
		c0.007,0.048,0.007,0.114,0.007,0.193c-0.039,0.933-0.279,1.081-0.696,1.356c-0.43,0.247-1.124,0.319-1.5,0.319
		c-0.188,0-0.257-0.009-0.257-0.009c-0.704-0.063-1.328,0.454-1.389,1.152c-0.063,0.694,0.448,1.307,1.147,1.377
		c0.034,0,0.219,0.021,0.498,0.021c0.604,0,1.644-0.059,2.702-0.613c1.069-0.531,2.069-1.849,2.035-3.598
		c0-0.098,0-0.207-0.009-0.334c-0.117-1.671-1.433-2.571-2.61-3.047c-0.68-0.278-1.432-0.497-2.2-0.702
		c1.034-0.743,1.858-1.752,2.124-3.225c0.034-0.255,0.052-0.481,0.052-0.709c0-1.743-1.13-3.006-2.349-3.859
		c-0.241-0.181-0.52-0.333-0.785-0.493c0.355-0.168,0.714-0.346,1.06-0.536c2.095-1.132,4.299-2.704,4.341-5.502v-0.092
		c-0.117-2.248-1.837-3.578-3.748-4.619c-0.282-0.153-0.581-0.295-0.878-0.435c1.085-0.367,2.186-0.739,3.222-1.105
		c1.751-0.622,3.361-1.263,4.645-2.044c1.249-0.773,2.389-1.743,2.553-3.314c0.01-0.15,0.014-0.277,0.014-0.426
		c0.043-1.668-0.988-2.994-2.175-3.531c-1.173-0.581-2.457-0.689-3.609-0.698c-1.731,0-3.175,0.317-3.231,0.329
		c-0.68,0.153-1.114,0.819-0.966,1.509c0.15,0.684,0.826,1.119,1.511,0.97l0.005,0.002c0,0,1.269-0.275,2.687-0.275
		c0.94,0,1.911,0.144,2.472,0.435c0.554,0.333,0.728,0.493,0.777,1.263c0,0.049-0.005,0.14-0.01,0.266
		c0.092,0.187-0.691,1.108-2.49,1.921c-2.002,0.948-4.891,1.834-7.709,2.799v-9.357c0.52-0.273,1.279-0.66,2.175-1.054
		c1.712-0.743,3.918-1.461,5.634-1.453c0.328,0,0.632,0.029,0.921,0.077c3.19,0.414,6.545,4.333,12.404,4.42
		c0.484,0,0.979-0.029,1.491-0.097c6.817-0.842,8.659-6.48,8.688-6.633l0.768-2.452L95.298,40.783z"/>
</g>
</svg>
