<?xml version="1.0" encoding="utf-8"?>
<!-- Generator: Adobe Illustrator 15.1.0, SVG Export Plug-In . SVG Version: 6.00 Build 0)  -->
<!DOCTYPE svg PUBLIC "-//W3C//DTD SVG 1.1//EN" "http://www.w3.org/Graphics/SVG/1.1/DTD/svg11.dtd">
<svg version="1.1" id="_x31_" xmlns="http://www.w3.org/2000/svg" xmlns:xlink="http://www.w3.org/1999/xlink" x="0px" y="0px"
	 width="130.961px" height="130.961px" viewBox="0 0 130.961 130.961" enable-background="new 0 0 130.961 130.961"
	 xml:space="preserve">
<g>
	<path fill-rule="evenodd" clip-rule="evenodd" fill="#BFC21D" d="M65.48,5.032c28.872,0,52.277,23.405,52.277,52.277
		c0,25.455-18.195,46.658-42.289,51.321l-3.587,6.212l-6.401,11.087l-6.401-11.087l-3.587-6.212
		c-24.095-4.663-42.29-25.866-42.29-51.321C13.203,28.438,36.608,5.032,65.48,5.032z"/>
	<g>
		<g>
			<defs>
				<path id="SVGID_1_" d="M65.48,103.196c25.425,0,46.165-20.736,46.165-46.165c0-25.427-20.737-46.165-46.165-46.165
					c-25.428,0-46.163,20.741-46.163,46.166C19.318,82.46,40.055,103.196,65.48,103.196z"/>
			</defs>
			<clipPath id="SVGID_2_">
				<use xlink:href="#SVGID_1_"  overflow="visible"/>
			</clipPath>
			
				<rect x="31.905" y="-34.104" transform="matrix(0.6469 0.7626 -0.7626 0.6469 24.6868 -18.2115)" clip-path="url(#SVGID_2_)" fill-rule="evenodd" clip-rule="evenodd" fill="#E3E635" width="0.207" height="103.31"/>
			
				<rect x="31.629" y="-34.081" transform="matrix(-0.647 -0.7625 0.7625 -0.647 39.3508 53.3639)" clip-path="url(#SVGID_2_)" fill-rule="evenodd" clip-rule="evenodd" fill="#E3E635" width="0.795" height="103.31"/>
			
				<rect x="31.973" y="-33.677" transform="matrix(-0.6467 -0.7627 0.7627 -0.6467 39.5937 54.2949)" clip-path="url(#SVGID_2_)" fill-rule="evenodd" clip-rule="evenodd" fill="#E3E634" width="0.796" height="103.311"/>
			
				<rect x="32.316" y="-33.272" transform="matrix(-0.647 -0.7625 0.7625 -0.647 39.8641 55.2201)" clip-path="url(#SVGID_2_)" fill-rule="evenodd" clip-rule="evenodd" fill="#E2E534" width="0.795" height="103.311"/>
			
				<rect x="32.659" y="-32.868" transform="matrix(-0.6467 -0.7627 0.7627 -0.6467 40.106 56.1504)" clip-path="url(#SVGID_2_)" fill-rule="evenodd" clip-rule="evenodd" fill="#E2E534" width="0.796" height="103.31"/>
			
				<rect x="33.002" y="-32.463" transform="matrix(-0.646 -0.7633 0.7633 -0.646 40.327 57.0852)" clip-path="url(#SVGID_2_)" fill-rule="evenodd" clip-rule="evenodd" fill="#E2E534" width="0.795" height="103.31"/>
			
				<rect x="33.345" y="-32.059" transform="matrix(-0.6467 -0.7627 0.7627 -0.6467 40.619 58.0061)" clip-path="url(#SVGID_2_)" fill-rule="evenodd" clip-rule="evenodd" fill="#E2E534" width="0.796" height="103.311"/>
			
				<rect x="33.688" y="-31.654" transform="matrix(-0.6467 -0.7627 0.7627 -0.6467 40.8747 58.9341)" clip-path="url(#SVGID_2_)" fill-rule="evenodd" clip-rule="evenodd" fill="#E2E534" width="0.796" height="103.311"/>
			
				<rect x="34.03" y="-31.249" transform="matrix(-0.6467 -0.7627 0.7627 -0.6467 41.1306 59.8618)" clip-path="url(#SVGID_2_)" fill-rule="evenodd" clip-rule="evenodd" fill="#E2E534" width="0.796" height="103.31"/>
			
				<rect x="34.373" y="-30.845" transform="matrix(-0.6467 -0.7627 0.7627 -0.6467 41.3869 60.7896)" clip-path="url(#SVGID_2_)" fill-rule="evenodd" clip-rule="evenodd" fill="#E1E434" width="0.796" height="103.31"/>
			
				<rect x="34.717" y="-30.44" transform="matrix(-0.647 -0.7625 0.7625 -0.647 41.6601 61.7151)" clip-path="url(#SVGID_2_)" fill-rule="evenodd" clip-rule="evenodd" fill="#E1E434" width="0.795" height="103.311"/>
			
				<rect x="35.06" y="-30.035" transform="matrix(-0.647 -0.7625 0.7625 -0.647 41.9165 62.6434)" clip-path="url(#SVGID_2_)" fill-rule="evenodd" clip-rule="evenodd" fill="#E1E433" width="0.795" height="103.31"/>
			
				<rect x="35.403" y="-29.631" transform="matrix(-0.6467 -0.7627 0.7627 -0.6467 42.1561 63.5735)" clip-path="url(#SVGID_2_)" fill-rule="evenodd" clip-rule="evenodd" fill="#E1E433" width="0.796" height="103.31"/>
			
				<rect x="35.745" y="-29.227" transform="matrix(-0.6467 -0.7627 0.7627 -0.6467 42.4122 64.5007)" clip-path="url(#SVGID_2_)" fill-rule="evenodd" clip-rule="evenodd" fill="#E1E433" width="0.796" height="103.31"/>
			
				<rect x="36.089" y="-28.822" transform="matrix(-0.6467 -0.7627 0.7627 -0.6467 42.6691 65.4293)" clip-path="url(#SVGID_2_)" fill-rule="evenodd" clip-rule="evenodd" fill="#E1E433" width="0.796" height="103.311"/>
			
				<rect x="36.432" y="-28.417" transform="matrix(-0.6467 -0.7627 0.7627 -0.6467 42.925 66.3569)" clip-path="url(#SVGID_2_)" fill-rule="evenodd" clip-rule="evenodd" fill="#E0E333" width="0.796" height="103.31"/>
			
				<rect x="36.775" y="-28.013" transform="matrix(-0.6467 -0.7627 0.7627 -0.6467 43.1813 67.2847)" clip-path="url(#SVGID_2_)" fill-rule="evenodd" clip-rule="evenodd" fill="#E0E333" width="0.796" height="103.31"/>
			
				<rect x="37.118" y="-27.608" transform="matrix(-0.646 -0.7633 0.7633 -0.646 43.3967 68.2182)" clip-path="url(#SVGID_2_)" fill-rule="evenodd" clip-rule="evenodd" fill="#E0E333" width="0.795" height="103.31"/>
			
				<rect x="37.461" y="-27.204" transform="matrix(-0.647 -0.7625 0.7625 -0.647 43.7119 69.1386)" clip-path="url(#SVGID_2_)" fill-rule="evenodd" clip-rule="evenodd" fill="#E0E333" width="0.795" height="103.311"/>
			
				<rect x="37.804" y="-26.799" transform="matrix(-0.6467 -0.7627 0.7627 -0.6467 43.9501 70.0685)" clip-path="url(#SVGID_2_)" fill-rule="evenodd" clip-rule="evenodd" fill="#E0E333" width="0.796" height="103.311"/>
			
				<rect x="38.147" y="-26.395" transform="matrix(-0.647 -0.7625 0.7625 -0.647 44.2242 70.9939)" clip-path="url(#SVGID_2_)" fill-rule="evenodd" clip-rule="evenodd" fill="#E0E332" width="0.795" height="103.311"/>
			
				<rect x="38.49" y="-25.99" transform="matrix(-0.6467 -0.7627 0.7627 -0.6467 44.4623 71.9239)" clip-path="url(#SVGID_2_)" fill-rule="evenodd" clip-rule="evenodd" fill="#DFE232" width="0.796" height="103.31"/>
			
				<rect x="38.833" y="-25.585" transform="matrix(-0.6467 -0.7627 0.7627 -0.6467 44.7192 72.8525)" clip-path="url(#SVGID_2_)" fill-rule="evenodd" clip-rule="evenodd" fill="#DFE232" width="0.796" height="103.311"/>
			
				<rect x="39.176" y="-25.181" transform="matrix(-0.6467 -0.7627 0.7627 -0.6467 44.9753 73.7797)" clip-path="url(#SVGID_2_)" fill-rule="evenodd" clip-rule="evenodd" fill="#DFE232" width="0.796" height="103.311"/>
			
				<rect x="39.519" y="-24.776" transform="matrix(-0.6467 -0.7627 0.7627 -0.6467 45.2317 74.7075)" clip-path="url(#SVGID_2_)" fill-rule="evenodd" clip-rule="evenodd" fill="#DFE232" width="0.796" height="103.31"/>
			
				<rect x="39.862" y="-24.372" transform="matrix(-0.6467 -0.7627 0.7627 -0.6467 45.4876 75.6351)" clip-path="url(#SVGID_2_)" fill-rule="evenodd" clip-rule="evenodd" fill="#DFE232" width="0.796" height="103.31"/>
			
				<rect x="40.205" y="-23.967" transform="matrix(-0.6467 -0.7627 0.7627 -0.6467 45.7445 76.5637)" clip-path="url(#SVGID_2_)" fill-rule="evenodd" clip-rule="evenodd" fill="#DFE232" width="0.796" height="103.311"/>
			
				<rect x="40.548" y="-23.562" transform="matrix(-0.6467 -0.7627 0.7627 -0.6467 46.0004 77.4913)" clip-path="url(#SVGID_2_)" fill-rule="evenodd" clip-rule="evenodd" fill="#DFE232" width="0.796" height="103.31"/>
			
				<rect x="40.891" y="-23.158" transform="matrix(-0.6467 -0.7627 0.7627 -0.6467 46.2567 78.4191)" clip-path="url(#SVGID_2_)" fill-rule="evenodd" clip-rule="evenodd" fill="#DEE132" width="0.796" height="103.31"/>
			
				<rect x="41.234" y="-22.753" transform="matrix(-0.647 -0.7625 0.7625 -0.647 46.5325 79.3452)" clip-path="url(#SVGID_2_)" fill-rule="evenodd" clip-rule="evenodd" fill="#DEE132" width="0.795" height="103.311"/>
			
				<rect x="41.577" y="-22.349" transform="matrix(-0.647 -0.7625 0.7625 -0.647 46.7898 80.2734)" clip-path="url(#SVGID_2_)" fill-rule="evenodd" clip-rule="evenodd" fill="#DEE131" width="0.795" height="103.311"/>
			
				<rect x="41.92" y="-21.944" transform="matrix(-0.6467 -0.7627 0.7627 -0.6467 47.0255 81.2029)" clip-path="url(#SVGID_2_)" fill-rule="evenodd" clip-rule="evenodd" fill="#DEE131" width="0.796" height="103.311"/>
			
				<rect x="42.263" y="-21.54" transform="matrix(-0.6467 -0.7627 0.7627 -0.6467 47.2816 82.1301)" clip-path="url(#SVGID_2_)" fill-rule="evenodd" clip-rule="evenodd" fill="#DEE131" width="0.796" height="103.311"/>
			
				<rect x="42.606" y="-21.135" transform="matrix(-0.6467 -0.7627 0.7627 -0.6467 47.5377 83.0583)" clip-path="url(#SVGID_2_)" fill-rule="evenodd" clip-rule="evenodd" fill="#DEE131" width="0.796" height="103.31"/>
			
				<rect x="42.95" y="-20.73" transform="matrix(-0.646 -0.7633 0.7633 -0.646 47.7451 83.9906)" clip-path="url(#SVGID_2_)" fill-rule="evenodd" clip-rule="evenodd" fill="#DDE031" width="0.795" height="103.31"/>
			
				<rect x="43.292" y="-20.326" transform="matrix(-0.6467 -0.7627 0.7627 -0.6467 48.0507 84.9141)" clip-path="url(#SVGID_2_)" fill-rule="evenodd" clip-rule="evenodd" fill="#DDE031" width="0.796" height="103.311"/>
			
				<rect x="43.635" y="-19.921" transform="matrix(-0.6467 -0.7627 0.7627 -0.6467 48.307 85.8419)" clip-path="url(#SVGID_2_)" fill-rule="evenodd" clip-rule="evenodd" fill="#DDE031" width="0.796" height="103.31"/>
			
				<rect x="43.978" y="-19.516" transform="matrix(-0.6467 -0.7627 0.7627 -0.6467 48.5628 86.7699)" clip-path="url(#SVGID_2_)" fill-rule="evenodd" clip-rule="evenodd" fill="#DDE031" width="0.796" height="103.31"/>
			
				<rect x="44.321" y="-19.112" transform="matrix(-0.6467 -0.7627 0.7627 -0.6467 48.8201 87.6976)" clip-path="url(#SVGID_2_)" fill-rule="evenodd" clip-rule="evenodd" fill="#DDE031" width="0.796" height="103.31"/>
			
				<rect x="44.664" y="-18.708" transform="matrix(-0.6467 -0.7627 0.7627 -0.6467 49.0758 88.6257)" clip-path="url(#SVGID_2_)" fill-rule="evenodd" clip-rule="evenodd" fill="#DDE030" width="0.796" height="103.311"/>
			
				<rect x="45.007" y="-18.303" transform="matrix(-0.6467 -0.7627 0.7627 -0.6467 49.3321 89.5535)" clip-path="url(#SVGID_2_)" fill-rule="evenodd" clip-rule="evenodd" fill="#DCDF30" width="0.796" height="103.31"/>
			
				<rect x="45.35" y="-17.898" transform="matrix(-0.6467 -0.7627 0.7627 -0.6467 49.588 90.4811)" clip-path="url(#SVGID_2_)" fill-rule="evenodd" clip-rule="evenodd" fill="#DCDF30" width="0.796" height="103.31"/>
			
				<rect x="45.693" y="-17.494" transform="matrix(-0.6467 -0.7627 0.7627 -0.6467 49.8453 91.4088)" clip-path="url(#SVGID_2_)" fill-rule="evenodd" clip-rule="evenodd" fill="#DCDF30" width="0.796" height="103.31"/>
			
				<rect x="46.036" y="-17.089" transform="matrix(-0.6467 -0.7627 0.7627 -0.6467 50.1008 92.3372)" clip-path="url(#SVGID_2_)" fill-rule="evenodd" clip-rule="evenodd" fill="#DCDF30" width="0.796" height="103.311"/>
			
				<rect x="46.379" y="-16.685" transform="matrix(-0.647 -0.7625 0.7625 -0.647 50.3799 93.2634)" clip-path="url(#SVGID_2_)" fill-rule="evenodd" clip-rule="evenodd" fill="#DCDF30" width="0.795" height="103.311"/>
			
				<rect x="46.722" y="-16.28" transform="matrix(-0.6467 -0.7627 0.7627 -0.6467 50.6133 94.1923)" clip-path="url(#SVGID_2_)" fill-rule="evenodd" clip-rule="evenodd" fill="#DCDF30" width="0.796" height="103.31"/>
			
				<rect x="47.066" y="-15.875" transform="matrix(-0.646 -0.7633 0.7633 -0.646 50.8144 95.1244)" clip-path="url(#SVGID_2_)" fill-rule="evenodd" clip-rule="evenodd" fill="#DBDE30" width="0.795" height="103.31"/>
			
				<rect x="47.408" y="-15.471" transform="matrix(-0.6467 -0.7627 0.7627 -0.6467 51.1261 96.0484)" clip-path="url(#SVGID_2_)" fill-rule="evenodd" clip-rule="evenodd" fill="#DBDE30" width="0.796" height="103.311"/>
			
				<rect x="47.751" y="-15.066" transform="matrix(-0.6467 -0.7627 0.7627 -0.6467 51.3824 96.9762)" clip-path="url(#SVGID_2_)" fill-rule="evenodd" clip-rule="evenodd" fill="#DBDE30" width="0.796" height="103.31"/>
			
				<rect x="48.094" y="-14.662" transform="matrix(-0.6467 -0.7627 0.7627 -0.6467 51.6381 97.9042)" clip-path="url(#SVGID_2_)" fill-rule="evenodd" clip-rule="evenodd" fill="#DBDE2F" width="0.796" height="103.311"/>
			
				<rect x="48.437" y="-14.257" transform="matrix(-0.6475 -0.7621 0.7621 -0.6475 51.9519 98.8292)" clip-path="url(#SVGID_2_)" fill-rule="evenodd" clip-rule="evenodd" fill="#DBDE2F" width="0.796" height="103.311"/>
			
				<rect x="48.78" y="-13.853" transform="matrix(-0.6467 -0.7627 0.7627 -0.6467 52.1514 99.7596)" clip-path="url(#SVGID_2_)" fill-rule="evenodd" clip-rule="evenodd" fill="#DBDE2F" width="0.796" height="103.311"/>
			
				<rect x="49.123" y="-13.448" transform="matrix(-0.6467 -0.7627 0.7627 -0.6467 52.4077 100.6874)" clip-path="url(#SVGID_2_)" fill-rule="evenodd" clip-rule="evenodd" fill="#DADD2F" width="0.796" height="103.31"/>
			
				<rect x="49.466" y="-13.043" transform="matrix(-0.6467 -0.7627 0.7627 -0.6467 52.6632 101.6158)" clip-path="url(#SVGID_2_)" fill-rule="evenodd" clip-rule="evenodd" fill="#DADD2F" width="0.796" height="103.31"/>
			
				<rect x="49.809" y="-12.639" transform="matrix(-0.6467 -0.7627 0.7627 -0.6467 52.9201 102.5434)" clip-path="url(#SVGID_2_)" fill-rule="evenodd" clip-rule="evenodd" fill="#DADD2F" width="0.796" height="103.311"/>
			
				<rect x="50.152" y="-12.234" transform="matrix(-0.6467 -0.7627 0.7627 -0.6467 53.1764 103.4712)" clip-path="url(#SVGID_2_)" fill-rule="evenodd" clip-rule="evenodd" fill="#DADD2F" width="0.796" height="103.31"/>
			
				<rect x="50.495" y="-11.83" transform="matrix(-0.6467 -0.7627 0.7627 -0.6467 53.4321 104.3992)" clip-path="url(#SVGID_2_)" fill-rule="evenodd" clip-rule="evenodd" fill="#DADD2F" width="0.796" height="103.311"/>
			
				<rect x="50.838" y="-11.425" transform="matrix(-0.6467 -0.7627 0.7627 -0.6467 53.6885 105.327)" clip-path="url(#SVGID_2_)" fill-rule="evenodd" clip-rule="evenodd" fill="#DADD2F" width="0.796" height="103.31"/>
			
				<rect x="51.182" y="-11.02" transform="matrix(-0.646 -0.7633 0.7633 -0.646 53.8843 106.257)" clip-path="url(#SVGID_2_)" fill-rule="evenodd" clip-rule="evenodd" fill="#DADD2E" width="0.795" height="103.31"/>
			
				<rect x="51.524" y="-10.616" transform="matrix(-0.6467 -0.7627 0.7627 -0.6467 54.2013 107.1832)" clip-path="url(#SVGID_2_)" fill-rule="evenodd" clip-rule="evenodd" fill="#D9DC2E" width="0.796" height="103.311"/>
			
				<rect x="51.868" y="-10.211" transform="matrix(-0.6467 -0.7627 0.7627 -0.6467 54.4576 108.111)" clip-path="url(#SVGID_2_)" fill-rule="evenodd" clip-rule="evenodd" fill="#D9DC2E" width="0.796" height="103.31"/>
			
				<rect x="52.21" y="-9.807" transform="matrix(-0.6467 -0.7627 0.7627 -0.6467 54.7137 109.0382)" clip-path="url(#SVGID_2_)" fill-rule="evenodd" clip-rule="evenodd" fill="#D9DC2E" width="0.796" height="103.31"/>
			
				<rect x="52.553" y="-9.402" transform="matrix(-0.6475 -0.7621 0.7621 -0.6475 55.0333 109.9641)" clip-path="url(#SVGID_2_)" fill-rule="evenodd" clip-rule="evenodd" fill="#D9DC2E" width="0.796" height="103.31"/>
			
				<rect x="52.897" y="-8.997" transform="matrix(-0.6467 -0.7627 0.7627 -0.6467 55.2264 110.8948)" clip-path="url(#SVGID_2_)" fill-rule="evenodd" clip-rule="evenodd" fill="#D9DC2E" width="0.796" height="103.311"/>
			
				<rect x="53.24" y="-8.593" transform="matrix(-0.6467 -0.7627 0.7627 -0.6467 55.4829 111.8222)" clip-path="url(#SVGID_2_)" fill-rule="evenodd" clip-rule="evenodd" fill="#D9DC2E" width="0.796" height="103.31"/>
			
				<rect x="53.583" y="-8.188" transform="matrix(-0.647 -0.7625 0.7625 -0.647 55.7663 112.7491)" clip-path="url(#SVGID_2_)" fill-rule="evenodd" clip-rule="evenodd" fill="#D8DB2E" width="0.795" height="103.31"/>
			
				<rect x="53.926" y="-7.784" transform="matrix(-0.6467 -0.7627 0.7627 -0.6467 55.9953 113.6782)" clip-path="url(#SVGID_2_)" fill-rule="evenodd" clip-rule="evenodd" fill="#D8DB2E" width="0.796" height="103.311"/>
			
				<rect x="54.269" y="-7.379" transform="matrix(-0.6467 -0.7627 0.7627 -0.6467 56.2516 114.606)" clip-path="url(#SVGID_2_)" fill-rule="evenodd" clip-rule="evenodd" fill="#D8DB2E" width="0.796" height="103.311"/>
			
				<rect x="54.611" y="-6.975" transform="matrix(-0.6467 -0.7627 0.7627 -0.6467 56.5077 115.5332)" clip-path="url(#SVGID_2_)" fill-rule="evenodd" clip-rule="evenodd" fill="#D8DB2D" width="0.796" height="103.311"/>
			
				<rect x="54.954" y="-6.57" transform="matrix(-0.6467 -0.7627 0.7627 -0.6467 56.764 116.461)" clip-path="url(#SVGID_2_)" fill-rule="evenodd" clip-rule="evenodd" fill="#D8DB2D" width="0.796" height="103.31"/>
			
				<rect x="55.298" y="-6.165" transform="matrix(-0.6463 -0.7631 0.7631 -0.6463 56.982 117.3907)" clip-path="url(#SVGID_2_)" fill-rule="evenodd" clip-rule="evenodd" fill="#D8DB2D" width="0.795" height="103.31"/>
			
				<rect x="55.641" y="-5.761" transform="matrix(-0.6467 -0.7627 0.7627 -0.6467 57.2769 118.3172)" clip-path="url(#SVGID_2_)" fill-rule="evenodd" clip-rule="evenodd" fill="#D7DA2D" width="0.796" height="103.311"/>
			
				<rect x="55.984" y="-5.356" transform="matrix(-0.647 -0.7625 0.7625 -0.647 57.5621 119.2445)" clip-path="url(#SVGID_2_)" fill-rule="evenodd" clip-rule="evenodd" fill="#D7DA2D" width="0.795" height="103.31"/>
			
				<rect x="56.326" y="-4.952" transform="matrix(-0.6467 -0.7627 0.7627 -0.6467 57.7893 120.1722)" clip-path="url(#SVGID_2_)" fill-rule="evenodd" clip-rule="evenodd" fill="#D7DA2D" width="0.796" height="103.31"/>
			
				<rect x="56.669" y="-4.547" transform="matrix(-0.6475 -0.7621 0.7621 -0.6475 58.1144 121.0998)" clip-path="url(#SVGID_2_)" fill-rule="evenodd" clip-rule="evenodd" fill="#D7DA2D" width="0.796" height="103.311"/>
			
				<rect x="57.013" y="-4.143" transform="matrix(-0.6467 -0.7627 0.7627 -0.6467 58.3021 122.0284)" clip-path="url(#SVGID_2_)" fill-rule="evenodd" clip-rule="evenodd" fill="#D7DA2D" width="0.796" height="103.311"/>
			
				<rect x="57.356" y="-3.738" transform="matrix(-0.6467 -0.7627 0.7627 -0.6467 58.5584 122.9562)" clip-path="url(#SVGID_2_)" fill-rule="evenodd" clip-rule="evenodd" fill="#D7DA2D" width="0.796" height="103.31"/>
			
				<rect x="57.699" y="-3.333" transform="matrix(-0.6467 -0.7627 0.7627 -0.6467 58.8142 123.8842)" clip-path="url(#SVGID_2_)" fill-rule="evenodd" clip-rule="evenodd" fill="#D6D92C" width="0.796" height="103.311"/>
			
				<rect x="58.042" y="-2.929" transform="matrix(-0.6467 -0.7627 0.7627 -0.6467 59.0709 124.8121)" clip-path="url(#SVGID_2_)" fill-rule="evenodd" clip-rule="evenodd" fill="#D6D92C" width="0.796" height="103.311"/>
			
				<rect x="58.385" y="-2.524" transform="matrix(-0.6467 -0.7627 0.7627 -0.6467 59.3272 125.7399)" clip-path="url(#SVGID_2_)" fill-rule="evenodd" clip-rule="evenodd" fill="#D6D92C" width="0.796" height="103.31"/>
			
				<rect x="58.728" y="-2.12" transform="matrix(-0.6467 -0.7627 0.7627 -0.6467 59.5833 126.6672)" clip-path="url(#SVGID_2_)" fill-rule="evenodd" clip-rule="evenodd" fill="#D6D92C" width="0.796" height="103.31"/>
			
				<rect x="59.071" y="-1.715" transform="matrix(-0.647 -0.7625 0.7625 -0.647 59.87 127.5956)" clip-path="url(#SVGID_2_)" fill-rule="evenodd" clip-rule="evenodd" fill="#D6D92C" width="0.795" height="103.311"/>
			
				<rect x="59.415" y="-1.31" transform="matrix(-0.6463 -0.7631 0.7631 -0.6463 60.0541 128.5241)" clip-path="url(#SVGID_2_)" fill-rule="evenodd" clip-rule="evenodd" fill="#D6D92C" width="0.795" height="103.31"/>
			
				<rect x="59.757" y="-0.906" transform="matrix(-0.6467 -0.7627 0.7627 -0.6467 60.3524 129.4511)" clip-path="url(#SVGID_2_)" fill-rule="evenodd" clip-rule="evenodd" fill="#D6D92C" width="0.796" height="103.31"/>
			
				<rect x="60.1" y="-0.501" transform="matrix(-0.6467 -0.7627 0.7627 -0.6467 60.6086 130.3793)" clip-path="url(#SVGID_2_)" fill-rule="evenodd" clip-rule="evenodd" fill="#D5D82C" width="0.796" height="103.311"/>
			
				<rect x="60.443" y="-0.097" transform="matrix(-0.6467 -0.7627 0.7627 -0.6467 60.8645 131.3069)" clip-path="url(#SVGID_2_)" fill-rule="evenodd" clip-rule="evenodd" fill="#D5D82C" width="0.796" height="103.31"/>
			
				<rect x="60.785" y="0.308" transform="matrix(-0.6475 -0.7621 0.7621 -0.6475 61.1959 132.2348)" clip-path="url(#SVGID_2_)" fill-rule="evenodd" clip-rule="evenodd" fill="#D5D82C" width="0.796" height="103.31"/>
			
				<rect x="61.129" y="0.712" transform="matrix(-0.6467 -0.7627 0.7627 -0.6467 61.3773 133.1631)" clip-path="url(#SVGID_2_)" fill-rule="evenodd" clip-rule="evenodd" fill="#D5D82B" width="0.796" height="103.311"/>
			
				<rect x="61.472" y="1.117" transform="matrix(-0.6467 -0.7627 0.7627 -0.6467 61.6332 134.0907)" clip-path="url(#SVGID_2_)" fill-rule="evenodd" clip-rule="evenodd" fill="#D5D82B" width="0.796" height="103.311"/>
			
				<rect x="61.815" y="1.522" transform="matrix(-0.6467 -0.7627 0.7627 -0.6467 61.8895 135.0185)" clip-path="url(#SVGID_2_)" fill-rule="evenodd" clip-rule="evenodd" fill="#D5D82B" width="0.796" height="103.31"/>
			
				<rect x="62.158" y="1.926" transform="matrix(-0.6467 -0.7627 0.7627 -0.6467 62.1464 135.9461)" clip-path="url(#SVGID_2_)" fill-rule="evenodd" clip-rule="evenodd" fill="#D4D72B" width="0.796" height="103.311"/>
			
				<rect x="62.501" y="2.331" transform="matrix(-0.647 -0.7625 0.7625 -0.647 62.4353 136.8749)" clip-path="url(#SVGID_2_)" fill-rule="evenodd" clip-rule="evenodd" fill="#D4D72B" width="0.795" height="103.311"/>
			
				<rect x="62.844" y="2.735" transform="matrix(-0.6467 -0.7627 0.7627 -0.6467 62.6585 137.8019)" clip-path="url(#SVGID_2_)" fill-rule="evenodd" clip-rule="evenodd" fill="#D4D72B" width="0.796" height="103.311"/>
			
				<rect x="63.187" y="3.14" transform="matrix(-0.6467 -0.7627 0.7627 -0.6467 62.9148 138.7297)" clip-path="url(#SVGID_2_)" fill-rule="evenodd" clip-rule="evenodd" fill="#D4D72B" width="0.796" height="103.31"/>
			
				<rect x="63.53" y="3.545" transform="matrix(-0.6467 -0.7627 0.7627 -0.6467 63.1709 139.6579)" clip-path="url(#SVGID_2_)" fill-rule="evenodd" clip-rule="evenodd" fill="#D4D72B" width="0.796" height="103.31"/>
			
				<rect x="63.873" y="3.949" transform="matrix(-0.6467 -0.7627 0.7627 -0.6467 63.4276 140.5859)" clip-path="url(#SVGID_2_)" fill-rule="evenodd" clip-rule="evenodd" fill="#D4D72B" width="0.796" height="103.311"/>
			
				<rect x="64.216" y="4.353" transform="matrix(-0.6467 -0.7627 0.7627 -0.6467 63.6841 141.5133)" clip-path="url(#SVGID_2_)" fill-rule="evenodd" clip-rule="evenodd" fill="#D3D62A" width="0.796" height="103.31"/>
			
				<rect x="64.559" y="4.758" transform="matrix(-0.6467 -0.7627 0.7627 -0.6467 63.9397 142.4417)" clip-path="url(#SVGID_2_)" fill-rule="evenodd" clip-rule="evenodd" fill="#D3D62A" width="0.796" height="103.311"/>
			
				<rect x="64.902" y="5.163" transform="matrix(-0.6467 -0.7627 0.7627 -0.6467 64.196 143.3695)" clip-path="url(#SVGID_2_)" fill-rule="evenodd" clip-rule="evenodd" fill="#D3D62A" width="0.796" height="103.31"/>
			
				<rect x="65.245" y="5.567" transform="matrix(-0.6467 -0.7627 0.7627 -0.6467 64.4529 144.2971)" clip-path="url(#SVGID_2_)" fill-rule="evenodd" clip-rule="evenodd" fill="#D3D62A" width="0.796" height="103.311"/>
			
				<rect x="65.588" y="5.972" transform="matrix(-0.647 -0.7625 0.7625 -0.647 64.7436 145.2252)" clip-path="url(#SVGID_2_)" fill-rule="evenodd" clip-rule="evenodd" fill="#D3D62A" width="0.795" height="103.311"/>
			
				<rect x="65.931" y="6.377" transform="matrix(-0.647 -0.7625 0.7625 -0.647 64.9997 146.1538)" clip-path="url(#SVGID_2_)" fill-rule="evenodd" clip-rule="evenodd" fill="#D3D62A" width="0.795" height="103.311"/>
			
				<rect x="66.275" y="6.781" transform="matrix(-0.646 -0.7633 0.7633 -0.646 65.1386 147.0795)" clip-path="url(#SVGID_2_)" fill-rule="evenodd" clip-rule="evenodd" fill="#D2D52A" width="0.795" height="103.31"/>
			
				<rect x="66.617" y="7.185" transform="matrix(-0.6467 -0.7627 0.7627 -0.6467 65.4781 148.0083)" clip-path="url(#SVGID_2_)" fill-rule="evenodd" clip-rule="evenodd" fill="#D2D52A" width="0.796" height="103.311"/>
			
				<rect x="66.96" y="7.59" transform="matrix(-0.6467 -0.7627 0.7627 -0.6467 65.7337 148.9367)" clip-path="url(#SVGID_2_)" fill-rule="evenodd" clip-rule="evenodd" fill="#D2D52A" width="0.796" height="103.311"/>
			
				<rect x="67.303" y="7.995" transform="matrix(-0.6467 -0.7627 0.7627 -0.6467 65.99 149.8645)" clip-path="url(#SVGID_2_)" fill-rule="evenodd" clip-rule="evenodd" fill="#D2D529" width="0.796" height="103.31"/>
			
				<rect x="67.646" y="8.399" transform="matrix(-0.6467 -0.7627 0.7627 -0.6467 66.2461 150.7917)" clip-path="url(#SVGID_2_)" fill-rule="evenodd" clip-rule="evenodd" fill="#D2D529" width="0.796" height="103.31"/>
			
				<rect x="67.989" y="8.804" transform="matrix(-0.6467 -0.7627 0.7627 -0.6467 66.5028 151.7207)" clip-path="url(#SVGID_2_)" fill-rule="evenodd" clip-rule="evenodd" fill="#D2D529" width="0.796" height="103.311"/>
			
				<rect x="68.332" y="9.209" transform="matrix(-0.6467 -0.7627 0.7627 -0.6467 66.7591 152.6485)" clip-path="url(#SVGID_2_)" fill-rule="evenodd" clip-rule="evenodd" fill="#D1D429" width="0.796" height="103.31"/>
			
				<rect x="68.675" y="9.613" transform="matrix(-0.6467 -0.7627 0.7627 -0.6467 67.0152 153.5757)" clip-path="url(#SVGID_2_)" fill-rule="evenodd" clip-rule="evenodd" fill="#D1D429" width="0.796" height="103.31"/>
			
				<rect x="69.018" y="10.018" transform="matrix(-0.647 -0.7625 0.7625 -0.647 67.3084 154.5043)" clip-path="url(#SVGID_2_)" fill-rule="evenodd" clip-rule="evenodd" fill="#D1D429" width="0.795" height="103.31"/>
			
				<rect x="69.362" y="10.422" transform="matrix(-0.647 -0.7625 0.7625 -0.647 67.5649 155.4331)" clip-path="url(#SVGID_2_)" fill-rule="evenodd" clip-rule="evenodd" fill="#D1D429" width="0.795" height="103.311"/>
			
				<rect x="69.704" y="10.827" transform="matrix(-0.6467 -0.7627 0.7627 -0.6467 67.784 156.3595)" clip-path="url(#SVGID_2_)" fill-rule="evenodd" clip-rule="evenodd" fill="#D1D429" width="0.796" height="103.311"/>
			
				<rect x="70.047" y="11.231" transform="matrix(-0.6467 -0.7627 0.7627 -0.6467 68.0405 157.2869)" clip-path="url(#SVGID_2_)" fill-rule="evenodd" clip-rule="evenodd" fill="#D1D429" width="0.796" height="103.31"/>
			
				<rect x="70.391" y="11.636" transform="matrix(-0.646 -0.7633 0.7633 -0.646 68.2083 158.2125)" clip-path="url(#SVGID_2_)" fill-rule="evenodd" clip-rule="evenodd" fill="#D1D429" width="0.795" height="103.31"/>
			
				<rect x="70.733" y="12.041" transform="matrix(-0.6467 -0.7627 0.7627 -0.6467 68.5531 159.1435)" clip-path="url(#SVGID_2_)" fill-rule="evenodd" clip-rule="evenodd" fill="#D0D328" width="0.796" height="103.311"/>
			
				<rect x="71.076" y="12.445" transform="matrix(-0.6467 -0.7627 0.7627 -0.6467 68.8092 160.0707)" clip-path="url(#SVGID_2_)" fill-rule="evenodd" clip-rule="evenodd" fill="#D0D328" width="0.796" height="103.311"/>
			
				<rect x="71.419" y="12.85" transform="matrix(-0.6467 -0.7627 0.7627 -0.6467 69.0655 160.9985)" clip-path="url(#SVGID_2_)" fill-rule="evenodd" clip-rule="evenodd" fill="#D0D328" width="0.796" height="103.31"/>
			
				<rect x="71.762" y="13.254" transform="matrix(-0.6467 -0.7627 0.7627 -0.6467 69.3216 161.9257)" clip-path="url(#SVGID_2_)" fill-rule="evenodd" clip-rule="evenodd" fill="#D0D328" width="0.796" height="103.31"/>
			
				<rect x="72.106" y="13.659" transform="matrix(-0.6467 -0.7627 0.7627 -0.6467 69.5784 162.8546)" clip-path="url(#SVGID_2_)" fill-rule="evenodd" clip-rule="evenodd" fill="#D0D328" width="0.796" height="103.311"/>
			
				<rect x="72.449" y="14.064" transform="matrix(-0.647 -0.7625 0.7625 -0.647 69.8736 163.7836)" clip-path="url(#SVGID_2_)" fill-rule="evenodd" clip-rule="evenodd" fill="#D0D328" width="0.795" height="103.31"/>
			
				<rect x="72.791" y="14.468" transform="matrix(-0.6467 -0.7627 0.7627 -0.6467 70.0908 164.7097)" clip-path="url(#SVGID_2_)" fill-rule="evenodd" clip-rule="evenodd" fill="#CFD228" width="0.796" height="103.31"/>
			
				<rect x="73.134" y="14.873" transform="matrix(-0.6467 -0.7627 0.7627 -0.6467 70.3465 165.6377)" clip-path="url(#SVGID_2_)" fill-rule="evenodd" clip-rule="evenodd" fill="#CFD228" width="0.796" height="103.311"/>
			
				<rect x="73.478" y="15.277" transform="matrix(-0.6467 -0.7627 0.7627 -0.6467 70.6036 166.5658)" clip-path="url(#SVGID_2_)" fill-rule="evenodd" clip-rule="evenodd" fill="#CFD228" width="0.796" height="103.311"/>
			
				<rect x="73.82" y="15.682" transform="matrix(-0.6467 -0.7627 0.7627 -0.6467 70.8595 167.4934)" clip-path="url(#SVGID_2_)" fill-rule="evenodd" clip-rule="evenodd" fill="#CFD227" width="0.796" height="103.31"/>
			
				<rect x="74.163" y="16.086" transform="matrix(-0.6467 -0.7627 0.7627 -0.6467 71.116 168.4208)" clip-path="url(#SVGID_2_)" fill-rule="evenodd" clip-rule="evenodd" fill="#CFD227" width="0.796" height="103.31"/>
			
				<rect x="74.507" y="16.491" transform="matrix(-0.646 -0.7633 0.7633 -0.646 71.2776 169.3463)" clip-path="url(#SVGID_2_)" fill-rule="evenodd" clip-rule="evenodd" fill="#CFD227" width="0.795" height="103.31"/>
			
				<rect x="74.85" y="16.896" transform="matrix(-0.6467 -0.7627 0.7627 -0.6467 71.6287 170.2774)" clip-path="url(#SVGID_2_)" fill-rule="evenodd" clip-rule="evenodd" fill="#CED127" width="0.796" height="103.31"/>
			
				<rect x="75.192" y="17.3" transform="matrix(-0.6467 -0.7627 0.7627 -0.6467 71.8848 171.2046)" clip-path="url(#SVGID_2_)" fill-rule="evenodd" clip-rule="evenodd" fill="#CED127" width="0.796" height="103.31"/>
			
				<rect x="75.535" y="17.705" transform="matrix(-0.6467 -0.7627 0.7627 -0.6467 72.1409 172.1328)" clip-path="url(#SVGID_2_)" fill-rule="evenodd" clip-rule="evenodd" fill="#CED127" width="0.796" height="103.311"/>
			
				<rect x="75.878" y="18.11" transform="matrix(-0.647 -0.7625 0.7625 -0.647 72.4377 173.0624)" clip-path="url(#SVGID_2_)" fill-rule="evenodd" clip-rule="evenodd" fill="#CED127" width="0.795" height="103.31"/>
			
				<rect x="76.222" y="18.514" transform="matrix(-0.6467 -0.7627 0.7627 -0.6467 72.654 173.9886)" clip-path="url(#SVGID_2_)" fill-rule="evenodd" clip-rule="evenodd" fill="#CED127" width="0.796" height="103.31"/>
			
				<rect x="76.565" y="18.918" transform="matrix(-0.6467 -0.7627 0.7627 -0.6467 72.9101 174.9168)" clip-path="url(#SVGID_2_)" fill-rule="evenodd" clip-rule="evenodd" fill="#CED127" width="0.796" height="103.311"/>
			
				<rect x="76.908" y="19.323" transform="matrix(-0.6467 -0.7627 0.7627 -0.6467 73.166 175.8444)" clip-path="url(#SVGID_2_)" fill-rule="evenodd" clip-rule="evenodd" fill="#CDD027" width="0.796" height="103.31"/>
			
				<rect x="77.25" y="19.728" transform="matrix(-0.6467 -0.7627 0.7627 -0.6467 73.4219 176.772)" clip-path="url(#SVGID_2_)" fill-rule="evenodd" clip-rule="evenodd" fill="#CDD026" width="0.796" height="103.31"/>
			
				<rect x="77.594" y="20.132" transform="matrix(-0.6467 -0.7627 0.7627 -0.6467 73.6792 177.6998)" clip-path="url(#SVGID_2_)" fill-rule="evenodd" clip-rule="evenodd" fill="#CDD026" width="0.796" height="103.31"/>
			
				<rect x="77.937" y="20.537" transform="matrix(-0.6467 -0.7627 0.7627 -0.6467 73.9347 178.6282)" clip-path="url(#SVGID_2_)" fill-rule="evenodd" clip-rule="evenodd" fill="#CDD026" width="0.796" height="103.311"/>
			
				<rect x="78.28" y="20.942" transform="matrix(-0.647 -0.7625 0.7625 -0.647 74.2335 179.5578)" clip-path="url(#SVGID_2_)" fill-rule="evenodd" clip-rule="evenodd" fill="#CDD026" width="0.795" height="103.31"/>
			
				<rect x="78.623" y="21.346" transform="matrix(-0.646 -0.7633 0.7633 -0.646 74.3473 180.4792)" clip-path="url(#SVGID_2_)" fill-rule="evenodd" clip-rule="evenodd" fill="#CDD026" width="0.795" height="103.31"/>
			
				<rect x="78.966" y="21.75" transform="matrix(-0.6467 -0.7627 0.7627 -0.6467 74.7041 181.4118)" clip-path="url(#SVGID_2_)" fill-rule="evenodd" clip-rule="evenodd" fill="#CDD026" width="0.796" height="103.311"/>
			
				<rect x="79.309" y="22.155" transform="matrix(-0.6467 -0.7627 0.7627 -0.6467 74.96 182.3394)" clip-path="url(#SVGID_2_)" fill-rule="evenodd" clip-rule="evenodd" fill="#CCCF26" width="0.796" height="103.311"/>
			
				<rect x="79.652" y="22.56" transform="matrix(-0.647 -0.7625 0.7625 -0.647 75.2596 183.2691)" clip-path="url(#SVGID_2_)" fill-rule="evenodd" clip-rule="evenodd" fill="#CCCF26" width="0.795" height="103.31"/>
			
				<rect x="79.994" y="22.964" transform="matrix(-0.6467 -0.7627 0.7627 -0.6467 75.472 184.1952)" clip-path="url(#SVGID_2_)" fill-rule="evenodd" clip-rule="evenodd" fill="#CCCF26" width="0.796" height="103.311"/>
			
				<rect x="80.338" y="23.369" transform="matrix(-0.6467 -0.7627 0.7627 -0.6467 75.7291 185.1234)" clip-path="url(#SVGID_2_)" fill-rule="evenodd" clip-rule="evenodd" fill="#CCCF25" width="0.796" height="103.311"/>
			
				<rect x="80.681" y="23.773" transform="matrix(-0.6467 -0.7627 0.7627 -0.6467 75.9852 186.0506)" clip-path="url(#SVGID_2_)" fill-rule="evenodd" clip-rule="evenodd" fill="#CCCF25" width="0.796" height="103.311"/>
			
				<rect x="81.024" y="24.178" transform="matrix(-0.6467 -0.7627 0.7627 -0.6467 76.2416 186.9784)" clip-path="url(#SVGID_2_)" fill-rule="evenodd" clip-rule="evenodd" fill="#CCCF25" width="0.796" height="103.31"/>
			
				<rect x="81.367" y="24.583" transform="matrix(-0.6467 -0.7627 0.7627 -0.6467 76.4971 187.9068)" clip-path="url(#SVGID_2_)" fill-rule="evenodd" clip-rule="evenodd" fill="#CBCE25" width="0.796" height="103.31"/>
			
				<rect x="81.71" y="24.987" transform="matrix(-0.6467 -0.7627 0.7627 -0.6467 76.7544 188.8346)" clip-path="url(#SVGID_2_)" fill-rule="evenodd" clip-rule="evenodd" fill="#CBCE25" width="0.796" height="103.311"/>
			
				<rect x="82.053" y="25.391" transform="matrix(-0.6467 -0.7627 0.7627 -0.6467 77.0105 189.7618)" clip-path="url(#SVGID_2_)" fill-rule="evenodd" clip-rule="evenodd" fill="#CBCE25" width="0.796" height="103.311"/>
			
				<rect x="82.396" y="25.796" transform="matrix(-0.6467 -0.7627 0.7627 -0.6467 77.2664 190.6904)" clip-path="url(#SVGID_2_)" fill-rule="evenodd" clip-rule="evenodd" fill="#CBCE25" width="0.796" height="103.311"/>
			
				<rect x="82.739" y="26.201" transform="matrix(-0.646 -0.7633 0.7633 -0.646 77.4166 191.613)" clip-path="url(#SVGID_2_)" fill-rule="evenodd" clip-rule="evenodd" fill="#CBCE25" width="0.795" height="103.31"/>
			
				<rect x="83.082" y="26.605" transform="matrix(-0.6467 -0.7627 0.7627 -0.6467 77.7796 192.5457)" clip-path="url(#SVGID_2_)" fill-rule="evenodd" clip-rule="evenodd" fill="#CBCE25" width="0.796" height="103.311"/>
			
				<rect x="83.425" y="27.01" transform="matrix(-0.6467 -0.7627 0.7627 -0.6467 78.0352 193.4742)" clip-path="url(#SVGID_2_)" fill-rule="evenodd" clip-rule="evenodd" fill="#CACD25" width="0.796" height="103.311"/>
			
				<rect x="83.768" y="27.415" transform="matrix(-0.6467 -0.7627 0.7627 -0.6467 78.2911 194.4018)" clip-path="url(#SVGID_2_)" fill-rule="evenodd" clip-rule="evenodd" fill="#CACD24" width="0.796" height="103.311"/>
			
				<rect x="84.111" y="27.819" transform="matrix(-0.6467 -0.7627 0.7627 -0.6467 78.5476 195.3292)" clip-path="url(#SVGID_2_)" fill-rule="evenodd" clip-rule="evenodd" fill="#CACD24" width="0.796" height="103.31"/>
			
				<rect x="84.454" y="28.224" transform="matrix(-0.6467 -0.7627 0.7627 -0.6467 78.8047 196.2573)" clip-path="url(#SVGID_2_)" fill-rule="evenodd" clip-rule="evenodd" fill="#CACD24" width="0.796" height="103.31"/>
			
				<rect x="84.797" y="28.629" transform="matrix(-0.6467 -0.7627 0.7627 -0.6467 79.0602 197.1858)" clip-path="url(#SVGID_2_)" fill-rule="evenodd" clip-rule="evenodd" fill="#CACD24" width="0.796" height="103.311"/>
			
				<rect x="85.14" y="29.033" transform="matrix(-0.6467 -0.7627 0.7627 -0.6467 79.3167 198.1132)" clip-path="url(#SVGID_2_)" fill-rule="evenodd" clip-rule="evenodd" fill="#CACD24" width="0.796" height="103.31"/>
			
				<rect x="85.483" y="29.437" transform="matrix(-0.6467 -0.7627 0.7627 -0.6467 79.5728 199.0404)" clip-path="url(#SVGID_2_)" fill-rule="evenodd" clip-rule="evenodd" fill="#C9CC24" width="0.796" height="103.31"/>
			
				<rect x="85.826" y="29.842" transform="matrix(-0.6467 -0.7627 0.7627 -0.6467 79.8296 199.9693)" clip-path="url(#SVGID_2_)" fill-rule="evenodd" clip-rule="evenodd" fill="#C9CC24" width="0.796" height="103.311"/>
			
				<rect x="86.169" y="30.247" transform="matrix(-0.6467 -0.7627 0.7627 -0.6467 80.0855 200.8969)" clip-path="url(#SVGID_2_)" fill-rule="evenodd" clip-rule="evenodd" fill="#C9CC24" width="0.796" height="103.311"/>
			
				<rect x="86.512" y="30.651" transform="matrix(-0.6467 -0.7627 0.7627 -0.6467 80.342 201.8243)" clip-path="url(#SVGID_2_)" fill-rule="evenodd" clip-rule="evenodd" fill="#C9CC24" width="0.796" height="103.31"/>
			
				<rect x="86.856" y="31.056" transform="matrix(-0.646 -0.7633 0.7633 -0.646 80.4863 202.746)" clip-path="url(#SVGID_2_)" fill-rule="evenodd" clip-rule="evenodd" fill="#C9CC23" width="0.795" height="103.31"/>
			
				<rect x="87.198" y="31.46" transform="matrix(-0.6467 -0.7627 0.7627 -0.6467 80.8548 203.6805)" clip-path="url(#SVGID_2_)" fill-rule="evenodd" clip-rule="evenodd" fill="#C9CC23" width="0.796" height="103.311"/>
			
				<rect x="87.541" y="31.865" transform="matrix(-0.6467 -0.7627 0.7627 -0.6467 81.1108 204.6081)" clip-path="url(#SVGID_2_)" fill-rule="evenodd" clip-rule="evenodd" fill="#C8CB23" width="0.796" height="103.311"/>
			
				<rect x="87.884" y="32.27" transform="matrix(-0.6467 -0.7627 0.7627 -0.6467 81.3667 205.5357)" clip-path="url(#SVGID_2_)" fill-rule="evenodd" clip-rule="evenodd" fill="#C8CB23" width="0.796" height="103.31"/>
			
				<rect x="88.227" y="32.674" transform="matrix(-0.6467 -0.7627 0.7627 -0.6467 81.6232 206.4631)" clip-path="url(#SVGID_2_)" fill-rule="evenodd" clip-rule="evenodd" fill="#C8CB23" width="0.796" height="103.31"/>
			
				<rect x="88.571" y="33.079" transform="matrix(-0.6463 -0.7631 0.7631 -0.6463 81.8137 207.3883)" clip-path="url(#SVGID_2_)" fill-rule="evenodd" clip-rule="evenodd" fill="#C8CB23" width="0.795" height="103.31"/>
			
				<rect x="88.913" y="33.483" transform="matrix(-0.6467 -0.7627 0.7627 -0.6467 82.136 208.3193)" clip-path="url(#SVGID_2_)" fill-rule="evenodd" clip-rule="evenodd" fill="#C8CB23" width="0.796" height="103.311"/>
			
				<rect x="89.256" y="33.888" transform="matrix(-0.6467 -0.7627 0.7627 -0.6467 82.3923 209.2471)" clip-path="url(#SVGID_2_)" fill-rule="evenodd" clip-rule="evenodd" fill="#C8CB23" width="0.796" height="103.31"/>
			
				<rect x="89.599" y="34.292" transform="matrix(-0.6467 -0.7627 0.7627 -0.6467 82.648 210.1751)" clip-path="url(#SVGID_2_)" fill-rule="evenodd" clip-rule="evenodd" fill="#C8CB23" width="0.796" height="103.311"/>
			
				<rect x="89.942" y="34.697" transform="matrix(-0.6475 -0.7621 0.7621 -0.6475 83.021 211.1098)" clip-path="url(#SVGID_2_)" fill-rule="evenodd" clip-rule="evenodd" fill="#C7CA23" width="0.796" height="103.311"/>
			
				<rect x="90.285" y="35.102" transform="matrix(-0.6467 -0.7627 0.7627 -0.6467 83.1611 212.0309)" clip-path="url(#SVGID_2_)" fill-rule="evenodd" clip-rule="evenodd" fill="#C7CA22" width="0.796" height="103.31"/>
			
				<rect x="90.628" y="35.506" transform="matrix(-0.6467 -0.7627 0.7627 -0.6467 83.4176 212.9583)" clip-path="url(#SVGID_2_)" fill-rule="evenodd" clip-rule="evenodd" fill="#C7CA22" width="0.796" height="103.31"/>
			
				<rect x="90.971" y="35.911" transform="matrix(-0.6467 -0.7627 0.7627 -0.6467 83.6731 213.8867)" clip-path="url(#SVGID_2_)" fill-rule="evenodd" clip-rule="evenodd" fill="#C7CA22" width="0.796" height="103.31"/>
			
				<rect x="91.315" y="36.316" transform="matrix(-0.6467 -0.7627 0.7627 -0.6467 83.9302 214.8149)" clip-path="url(#SVGID_2_)" fill-rule="evenodd" clip-rule="evenodd" fill="#C7CA22" width="0.796" height="103.31"/>
			
				<rect x="91.657" y="36.72" transform="matrix(-0.6467 -0.7627 0.7627 -0.6467 84.1863 215.7421)" clip-path="url(#SVGID_2_)" fill-rule="evenodd" clip-rule="evenodd" fill="#C7CA22" width="0.796" height="103.31"/>
			
				<rect x="92" y="37.124" transform="matrix(-0.6467 -0.7627 0.7627 -0.6467 84.442 216.6701)" clip-path="url(#SVGID_2_)" fill-rule="evenodd" clip-rule="evenodd" fill="#C6C922" width="0.796" height="103.311"/>
			
				<rect x="92.343" y="37.529" transform="matrix(-0.6467 -0.7627 0.7627 -0.6467 84.6984 217.5979)" clip-path="url(#SVGID_2_)" fill-rule="evenodd" clip-rule="evenodd" fill="#C6C922" width="0.796" height="103.31"/>
			
				<rect x="92.687" y="37.934" transform="matrix(-0.646 -0.7633 0.7633 -0.646 84.8347 218.5184)" clip-path="url(#SVGID_2_)" fill-rule="evenodd" clip-rule="evenodd" fill="#C6C922" width="0.795" height="103.31"/>
			
				<rect x="93.029" y="38.338" transform="matrix(-0.6467 -0.7627 0.7627 -0.6467 85.2112 219.4541)" clip-path="url(#SVGID_2_)" fill-rule="evenodd" clip-rule="evenodd" fill="#C6C922" width="0.796" height="103.311"/>
			
				<rect x="93.372" y="38.743" transform="matrix(-0.6467 -0.7627 0.7627 -0.6467 85.4675 220.3819)" clip-path="url(#SVGID_2_)" fill-rule="evenodd" clip-rule="evenodd" fill="#C6C921" width="0.796" height="103.31"/>
			
				<rect x="93.715" y="39.148" transform="matrix(-0.6467 -0.7627 0.7627 -0.6467 85.7234 221.3095)" clip-path="url(#SVGID_2_)" fill-rule="evenodd" clip-rule="evenodd" fill="#C6C921" width="0.796" height="103.31"/>
			
				<rect x="94.058" y="39.552" transform="matrix(-0.6475 -0.7621 0.7621 -0.6475 86.1025 222.2448)" clip-path="url(#SVGID_2_)" fill-rule="evenodd" clip-rule="evenodd" fill="#C5C821" width="0.796" height="103.31"/>
			
				<rect x="94.401" y="39.957" transform="matrix(-0.6467 -0.7627 0.7627 -0.6467 86.2363 223.1657)" clip-path="url(#SVGID_2_)" fill-rule="evenodd" clip-rule="evenodd" fill="#C5C821" width="0.796" height="103.311"/>
			
				<rect x="94.744" y="40.361" transform="matrix(-0.6467 -0.7627 0.7627 -0.6467 86.4928 224.0931)" clip-path="url(#SVGID_2_)" fill-rule="evenodd" clip-rule="evenodd" fill="#C5C821" width="0.796" height="103.31"/>
			
				<rect x="95.087" y="40.766" transform="matrix(-0.6467 -0.7627 0.7627 -0.6467 86.7487 225.0207)" clip-path="url(#SVGID_2_)" fill-rule="evenodd" clip-rule="evenodd" fill="#C5C821" width="0.796" height="103.31"/>
			
				<rect x="95.43" y="41.17" transform="matrix(-0.6467 -0.7627 0.7627 -0.6467 87.0052 225.9491)" clip-path="url(#SVGID_2_)" fill-rule="evenodd" clip-rule="evenodd" fill="#C5C821" width="0.796" height="103.311"/>
			
				<rect x="95.774" y="41.575" transform="matrix(-0.6467 -0.7627 0.7627 -0.6467 87.2615 226.8769)" clip-path="url(#SVGID_2_)" fill-rule="evenodd" clip-rule="evenodd" fill="#C5C821" width="0.796" height="103.311"/>
			
				<rect x="96.116" y="41.979" transform="matrix(-0.6467 -0.7627 0.7627 -0.6467 87.5176 227.8041)" clip-path="url(#SVGID_2_)" fill-rule="evenodd" clip-rule="evenodd" fill="#C4C721" width="0.796" height="103.311"/>
			
				<rect x="96.459" y="42.384" transform="matrix(-0.6467 -0.7627 0.7627 -0.6467 87.7736 228.7327)" clip-path="url(#SVGID_2_)" fill-rule="evenodd" clip-rule="evenodd" fill="#C4C720" width="0.796" height="103.311"/>
			
				<rect x="96.803" y="42.789" transform="matrix(-0.646 -0.7633 0.7633 -0.646 87.904 229.6522)" clip-path="url(#SVGID_2_)" fill-rule="evenodd" clip-rule="evenodd" fill="#C4C720" width="0.795" height="103.31"/>
			
				<rect x="97.146" y="43.193" transform="matrix(-0.6467 -0.7627 0.7627 -0.6467 88.2868 230.5881)" clip-path="url(#SVGID_2_)" fill-rule="evenodd" clip-rule="evenodd" fill="#C4C720" width="0.796" height="103.311"/>
			
				<rect x="97.489" y="43.598" transform="matrix(-0.647 -0.7625 0.7625 -0.647 88.5972 231.5195)" clip-path="url(#SVGID_2_)" fill-rule="evenodd" clip-rule="evenodd" fill="#C4C720" width="0.795" height="103.31"/>
			
				<rect x="97.831" y="44.003" transform="matrix(-0.6467 -0.7627 0.7627 -0.6467 88.7986 232.4443)" clip-path="url(#SVGID_2_)" fill-rule="evenodd" clip-rule="evenodd" fill="#C4C720" width="0.796" height="103.31"/>
			
				<rect x="98.174" y="44.407" transform="matrix(-0.6475 -0.7621 0.7621 -0.6475 89.1835 233.3805)" clip-path="url(#SVGID_2_)" fill-rule="evenodd" clip-rule="evenodd" fill="#C4C720" width="0.796" height="103.311"/>
			
				<rect x="98.596" y="44.642" transform="matrix(-0.6455 -0.7638 0.7638 -0.6455 88.982 233.8949)" clip-path="url(#SVGID_2_)" fill-rule="evenodd" clip-rule="evenodd" fill="#C3C620" width="0.351" height="103.31"/>
		</g>
	</g>
	<path fill-rule="evenodd" clip-rule="evenodd" fill="#FCFAE6" d="M87.816,43.189H38.877v-1.124
		c0.004-1.387,1.148-2.531,2.545-2.531H85.29c1.389,0,2.526,1.14,2.526,2.531V43.189L87.816,43.189L87.816,43.189z M87.816,67.304
		c0,1.39-1.137,2.527-2.526,2.531H41.422c-1.396-0.004-2.541-1.144-2.545-2.531V51.291l48.938,0.004L87.816,67.304L87.816,67.304
		L87.816,67.304z M38.877,45.388h48.939v3.708l-48.939-0.001V45.388L38.877,45.388L38.877,45.388z M90.01,44.444v-2.378
		c0-2.607-2.108-4.73-4.722-4.733H41.422c-2.614,0.002-4.738,2.119-4.746,4.733v3.322h0.004v3.708v18.208
		c0.004,2.614,2.127,4.731,4.742,4.731l43.868-0.001c2.614,0,4.72-2.128,4.72-4.731V50.048h0.004v-5.606H90.01V44.444L90.01,44.444z
		 M85.076,56.412H63.888v2.193h21.188V56.412z"/>
</g>
</svg>
