<?xml version="1.0" encoding="utf-8"?>
<!-- Generator: Adobe Illustrator 15.1.0, SVG Export Plug-In . SVG Version: 6.00 Build 0)  -->
<!DOCTYPE svg PUBLIC "-//W3C//DTD SVG 1.1//EN" "http://www.w3.org/Graphics/SVG/1.1/DTD/svg11.dtd">
<svg version="1.1" id="_x31_" xmlns="http://www.w3.org/2000/svg" xmlns:xlink="http://www.w3.org/1999/xlink" x="0px" y="0px"
	 width="130.961px" height="130.961px" viewBox="0 0 130.961 130.961" enable-background="new 0 0 130.961 130.961"
	 xml:space="preserve">
<g>
	<path fill-rule="evenodd" clip-rule="evenodd" fill="#3B94AD" d="M65.48,5.032c28.873,0,52.278,23.405,52.278,52.278
		c0,25.454-18.195,46.657-42.29,51.32l-3.587,6.213l-6.401,11.086l-6.401-11.086l-3.587-6.213
		c-24.094-4.663-42.289-25.866-42.289-51.32C13.203,28.438,36.607,5.032,65.48,5.032z"/>
	<g>
		<g>
			<defs>
				<path id="SVGID_1_" d="M65.48,103.197c25.425,0,46.166-20.737,46.166-46.165c0-25.427-20.737-46.165-46.166-46.165
					c-25.425,0-46.165,20.737-46.165,46.165C19.318,82.46,40.055,103.197,65.48,103.197z"/>
			</defs>
			<clipPath id="SVGID_2_">
				<use xlink:href="#SVGID_1_"  overflow="visible"/>
			</clipPath>
			
				<rect x="31.905" y="-34.103" transform="matrix(0.6473 0.7622 -0.7622 0.6473 24.6682 -18.2077)" clip-path="url(#SVGID_2_)" fill-rule="evenodd" clip-rule="evenodd" fill="#65BDD5" width="0.208" height="103.31"/>
			
				<rect x="31.629" y="-34.081" transform="matrix(-0.6467 -0.7627 0.7627 -0.6467 39.3364 53.3672)" clip-path="url(#SVGID_2_)" fill-rule="evenodd" clip-rule="evenodd" fill="#65BDD5" width="0.796" height="103.31"/>
			
				<rect x="31.973" y="-33.676" transform="matrix(-0.646 -0.7633 0.7633 -0.646 39.5595 54.3021)" clip-path="url(#SVGID_2_)" fill-rule="evenodd" clip-rule="evenodd" fill="#65BDD5" width="0.795" height="103.31"/>
			
				<rect x="32.315" y="-33.272" transform="matrix(-0.6467 -0.7627 0.7627 -0.6467 39.8493 55.2234)" clip-path="url(#SVGID_2_)" fill-rule="evenodd" clip-rule="evenodd" fill="#64BDD5" width="0.796" height="103.31"/>
			
				<rect x="32.659" y="-32.867" transform="matrix(-0.6467 -0.7627 0.7627 -0.6467 40.1056 56.1512)" clip-path="url(#SVGID_2_)" fill-rule="evenodd" clip-rule="evenodd" fill="#64BCD5" width="0.796" height="103.31"/>
			
				<rect x="33.001" y="-32.463" transform="matrix(-0.6467 -0.7627 0.7627 -0.6467 40.3617 57.0784)" clip-path="url(#SVGID_2_)" fill-rule="evenodd" clip-rule="evenodd" fill="#64BCD4" width="0.796" height="103.31"/>
			
				<rect x="33.345" y="-32.058" transform="matrix(-0.646 -0.7633 0.7633 -0.646 40.5828 58.013)" clip-path="url(#SVGID_2_)" fill-rule="evenodd" clip-rule="evenodd" fill="#64BCD4" width="0.795" height="103.31"/>
			
				<rect x="33.688" y="-31.654" transform="matrix(-0.6467 -0.7627 0.7627 -0.6467 40.8745 58.9345)" clip-path="url(#SVGID_2_)" fill-rule="evenodd" clip-rule="evenodd" fill="#64BCD4" width="0.796" height="103.31"/>
			
				<rect x="34.03" y="-31.249" transform="matrix(-0.6467 -0.7627 0.7627 -0.6467 41.1304 59.8622)" clip-path="url(#SVGID_2_)" fill-rule="evenodd" clip-rule="evenodd" fill="#63BCD4" width="0.796" height="103.311"/>
			
				<rect x="34.373" y="-30.844" transform="matrix(-0.6467 -0.7627 0.7627 -0.6467 41.3867 60.79)" clip-path="url(#SVGID_2_)" fill-rule="evenodd" clip-rule="evenodd" fill="#63BBD4" width="0.796" height="103.31"/>
			
				<rect x="34.716" y="-30.44" transform="matrix(-0.6478 -0.7618 0.7618 -0.6478 41.6964 61.7092)" clip-path="url(#SVGID_2_)" fill-rule="evenodd" clip-rule="evenodd" fill="#63BBD3" width="0.796" height="103.311"/>
			
				<rect x="35.06" y="-30.035" transform="matrix(-0.6467 -0.7627 0.7627 -0.6467 41.9 62.6463)" clip-path="url(#SVGID_2_)" fill-rule="evenodd" clip-rule="evenodd" fill="#63BBD3" width="0.796" height="103.31"/>
			
				<rect x="35.403" y="-29.631" transform="matrix(-0.6467 -0.7627 0.7627 -0.6467 42.1559 63.5739)" clip-path="url(#SVGID_2_)" fill-rule="evenodd" clip-rule="evenodd" fill="#63BBD3" width="0.796" height="103.31"/>
			
				<rect x="35.745" y="-29.226" transform="matrix(-0.6467 -0.7627 0.7627 -0.6467 42.4118 64.5015)" clip-path="url(#SVGID_2_)" fill-rule="evenodd" clip-rule="evenodd" fill="#63BBD3" width="0.796" height="103.31"/>
			
				<rect x="36.089" y="-28.821" transform="matrix(-0.646 -0.7633 0.7633 -0.646 42.629 65.4355)" clip-path="url(#SVGID_2_)" fill-rule="evenodd" clip-rule="evenodd" fill="#62BBD3" width="0.795" height="103.31"/>
			
				<rect x="36.432" y="-28.417" transform="matrix(-0.6467 -0.7627 0.7627 -0.6467 42.9248 66.3573)" clip-path="url(#SVGID_2_)" fill-rule="evenodd" clip-rule="evenodd" fill="#62BAD3" width="0.796" height="103.311"/>
			
				<rect x="36.775" y="-28.012" transform="matrix(-0.6467 -0.7627 0.7627 -0.6467 43.1811 67.2851)" clip-path="url(#SVGID_2_)" fill-rule="evenodd" clip-rule="evenodd" fill="#62BAD2" width="0.796" height="103.31"/>
			
				<rect x="37.118" y="-27.608" transform="matrix(-0.6467 -0.7627 0.7627 -0.6467 43.4369 68.2131)" clip-path="url(#SVGID_2_)" fill-rule="evenodd" clip-rule="evenodd" fill="#62BAD2" width="0.796" height="103.31"/>
			
				<rect x="37.461" y="-27.203" transform="matrix(-0.6467 -0.7627 0.7627 -0.6467 43.6932 69.1409)" clip-path="url(#SVGID_2_)" fill-rule="evenodd" clip-rule="evenodd" fill="#62BAD2" width="0.796" height="103.31"/>
			
				<rect x="37.804" y="-26.799" transform="matrix(-0.647 -0.7625 0.7625 -0.647 43.9678 70.0666)" clip-path="url(#SVGID_2_)" fill-rule="evenodd" clip-rule="evenodd" fill="#61BAD2" width="0.795" height="103.311"/>
			
				<rect x="38.147" y="-26.394" transform="matrix(-0.6467 -0.7627 0.7627 -0.6467 44.2058 70.9965)" clip-path="url(#SVGID_2_)" fill-rule="evenodd" clip-rule="evenodd" fill="#61B9D2" width="0.796" height="103.311"/>
			
				<rect x="38.49" y="-25.989" transform="matrix(-0.6467 -0.7627 0.7627 -0.6467 44.4621 71.9243)" clip-path="url(#SVGID_2_)" fill-rule="evenodd" clip-rule="evenodd" fill="#61B9D1" width="0.796" height="103.31"/>
			
				<rect x="38.832" y="-25.585" transform="matrix(-0.6475 -0.7621 0.7621 -0.6475 44.7618 72.8468)" clip-path="url(#SVGID_2_)" fill-rule="evenodd" clip-rule="evenodd" fill="#61B9D1" width="0.796" height="103.311"/>
			
				<rect x="39.176" y="-25.18" transform="matrix(-0.6467 -0.7627 0.7627 -0.6467 44.975 73.7805)" clip-path="url(#SVGID_2_)" fill-rule="evenodd" clip-rule="evenodd" fill="#61B9D1" width="0.796" height="103.311"/>
			
				<rect x="39.519" y="-24.776" transform="matrix(-0.647 -0.7625 0.7625 -0.647 45.2503 74.7062)" clip-path="url(#SVGID_2_)" fill-rule="evenodd" clip-rule="evenodd" fill="#60B9D1" width="0.795" height="103.31"/>
			
				<rect x="39.862" y="-24.371" transform="matrix(-0.6467 -0.7627 0.7627 -0.6467 45.4874 75.6355)" clip-path="url(#SVGID_2_)" fill-rule="evenodd" clip-rule="evenodd" fill="#60B8D1" width="0.796" height="103.31"/>
			
				<rect x="40.205" y="-23.966" transform="matrix(-0.646 -0.7633 0.7633 -0.646 45.6985 76.5689)" clip-path="url(#SVGID_2_)" fill-rule="evenodd" clip-rule="evenodd" fill="#60B8D1" width="0.795" height="103.31"/>
			
				<rect x="40.548" y="-23.562" transform="matrix(-0.6467 -0.7627 0.7627 -0.6467 46.0002 77.4917)" clip-path="url(#SVGID_2_)" fill-rule="evenodd" clip-rule="evenodd" fill="#60B8D0" width="0.796" height="103.311"/>
			
				<rect x="40.891" y="-23.157" transform="matrix(-0.6467 -0.7627 0.7627 -0.6467 46.2565 78.4195)" clip-path="url(#SVGID_2_)" fill-rule="evenodd" clip-rule="evenodd" fill="#60B8D0" width="0.796" height="103.31"/>
			
				<rect x="41.234" y="-22.753" transform="matrix(-0.647 -0.7625 0.7625 -0.647 46.5323 79.3456)" clip-path="url(#SVGID_2_)" fill-rule="evenodd" clip-rule="evenodd" fill="#60B8D0" width="0.795" height="103.31"/>
			
				<rect x="41.577" y="-22.348" transform="matrix(-0.6467 -0.7627 0.7627 -0.6467 46.7686 80.2753)" clip-path="url(#SVGID_2_)" fill-rule="evenodd" clip-rule="evenodd" fill="#5FB8D0" width="0.796" height="103.31"/>
			
				<rect x="41.92" y="-21.944" transform="matrix(-0.646 -0.7633 0.7633 -0.646 46.9772 81.2073)" clip-path="url(#SVGID_2_)" fill-rule="evenodd" clip-rule="evenodd" fill="#5FB7D0" width="0.795" height="103.31"/>
			
				<rect x="42.263" y="-21.539" transform="matrix(-0.6467 -0.7627 0.7627 -0.6467 47.2812 82.1309)" clip-path="url(#SVGID_2_)" fill-rule="evenodd" clip-rule="evenodd" fill="#5FB7CF" width="0.796" height="103.311"/>
			
				<rect x="42.606" y="-21.134" transform="matrix(-0.6467 -0.7627 0.7627 -0.6467 47.5373 83.0591)" clip-path="url(#SVGID_2_)" fill-rule="evenodd" clip-rule="evenodd" fill="#5FB7CF" width="0.796" height="103.31"/>
			
				<rect x="42.949" y="-20.73" transform="matrix(-0.6467 -0.7627 0.7627 -0.6467 47.7934 83.9863)" clip-path="url(#SVGID_2_)" fill-rule="evenodd" clip-rule="evenodd" fill="#5FB7CF" width="0.796" height="103.31"/>
			
				<rect x="43.292" y="-20.326" transform="matrix(-0.6467 -0.7627 0.7627 -0.6467 48.0505 84.9145)" clip-path="url(#SVGID_2_)" fill-rule="evenodd" clip-rule="evenodd" fill="#5EB7CF" width="0.796" height="103.31"/>
			
				<rect x="43.635" y="-19.921" transform="matrix(-0.6467 -0.7627 0.7627 -0.6467 48.3067 85.8427)" clip-path="url(#SVGID_2_)" fill-rule="evenodd" clip-rule="evenodd" fill="#5EB6CF" width="0.796" height="103.31"/>
			
				<rect x="43.978" y="-19.516" transform="matrix(-0.6467 -0.7627 0.7627 -0.6467 48.5628 86.7699)" clip-path="url(#SVGID_2_)" fill-rule="evenodd" clip-rule="evenodd" fill="#5EB6CF" width="0.796" height="103.31"/>
			
				<rect x="44.322" y="-19.112" transform="matrix(-0.646 -0.7633 0.7633 -0.646 48.768 87.7023)" clip-path="url(#SVGID_2_)" fill-rule="evenodd" clip-rule="evenodd" fill="#5EB6CE" width="0.795" height="103.31"/>
			
				<rect x="44.664" y="-18.707" transform="matrix(-0.647 -0.7625 0.7625 -0.647 49.0975 88.6249)" clip-path="url(#SVGID_2_)" fill-rule="evenodd" clip-rule="evenodd" fill="#5EB6CE" width="0.795" height="103.311"/>
			
				<rect x="45.007" y="-18.302" transform="matrix(-0.6467 -0.7627 0.7627 -0.6467 49.3319 89.5539)" clip-path="url(#SVGID_2_)" fill-rule="evenodd" clip-rule="evenodd" fill="#5DB6CE" width="0.796" height="103.31"/>
			
				<rect x="45.35" y="-17.898" transform="matrix(-0.6467 -0.7627 0.7627 -0.6467 49.5876 90.4819)" clip-path="url(#SVGID_2_)" fill-rule="evenodd" clip-rule="evenodd" fill="#5DB6CE" width="0.796" height="103.311"/>
			
				<rect x="45.693" y="-17.493" transform="matrix(-0.6467 -0.7627 0.7627 -0.6467 49.8439 91.4097)" clip-path="url(#SVGID_2_)" fill-rule="evenodd" clip-rule="evenodd" fill="#5DB5CE" width="0.796" height="103.31"/>
			
				<rect x="46.037" y="-17.088" transform="matrix(-0.646 -0.7633 0.7633 -0.646 50.0465 92.3411)" clip-path="url(#SVGID_2_)" fill-rule="evenodd" clip-rule="evenodd" fill="#5DB5CD" width="0.795" height="103.31"/>
			
				<rect x="46.379" y="-16.684" transform="matrix(-0.6467 -0.7627 0.7627 -0.6467 50.3564 93.2657)" clip-path="url(#SVGID_2_)" fill-rule="evenodd" clip-rule="evenodd" fill="#5DB5CD" width="0.796" height="103.311"/>
			
				<rect x="46.722" y="-16.279" transform="matrix(-0.6467 -0.7627 0.7627 -0.6467 50.6127 94.1935)" clip-path="url(#SVGID_2_)" fill-rule="evenodd" clip-rule="evenodd" fill="#5DB5CD" width="0.796" height="103.31"/>
			
				<rect x="47.065" y="-15.875" transform="matrix(-0.6467 -0.7627 0.7627 -0.6467 50.8688 95.1207)" clip-path="url(#SVGID_2_)" fill-rule="evenodd" clip-rule="evenodd" fill="#5CB5CD" width="0.796" height="103.31"/>
			
				<rect x="47.408" y="-15.471" transform="matrix(-0.6467 -0.7627 0.7627 -0.6467 51.1259 96.0488)" clip-path="url(#SVGID_2_)" fill-rule="evenodd" clip-rule="evenodd" fill="#5CB4CD" width="0.796" height="103.31"/>
			
				<rect x="47.751" y="-15.066" transform="matrix(-0.6467 -0.7627 0.7627 -0.6467 51.382 96.977)" clip-path="url(#SVGID_2_)" fill-rule="evenodd" clip-rule="evenodd" fill="#5CB4CD" width="0.796" height="103.311"/>
			
				<rect x="48.094" y="-14.661" transform="matrix(-0.6467 -0.7627 0.7627 -0.6467 51.638 97.9046)" clip-path="url(#SVGID_2_)" fill-rule="evenodd" clip-rule="evenodd" fill="#5CB4CC" width="0.796" height="103.31"/>
			
				<rect x="48.437" y="-14.256" transform="matrix(-0.647 -0.7625 0.7625 -0.647 51.9187 98.8312)" clip-path="url(#SVGID_2_)" fill-rule="evenodd" clip-rule="evenodd" fill="#5CB4CC" width="0.795" height="103.31"/>
			
				<rect x="48.78" y="-13.852" transform="matrix(-0.6467 -0.7627 0.7627 -0.6467 52.1512 99.76)" clip-path="url(#SVGID_2_)" fill-rule="evenodd" clip-rule="evenodd" fill="#5BB4CC" width="0.796" height="103.31"/>
			
				<rect x="49.123" y="-13.447" transform="matrix(-0.6467 -0.7627 0.7627 -0.6467 52.4071 100.6886)" clip-path="url(#SVGID_2_)" fill-rule="evenodd" clip-rule="evenodd" fill="#5BB4CC" width="0.796" height="103.31"/>
			
				<rect x="49.466" y="-13.043" transform="matrix(-0.6467 -0.7627 0.7627 -0.6467 52.6632 101.6158)" clip-path="url(#SVGID_2_)" fill-rule="evenodd" clip-rule="evenodd" fill="#5BB3CC" width="0.796" height="103.31"/>
			
				<rect x="49.809" y="-12.638" transform="matrix(-0.6467 -0.7627 0.7627 -0.6467 52.9191 102.5434)" clip-path="url(#SVGID_2_)" fill-rule="evenodd" clip-rule="evenodd" fill="#5BB3CB" width="0.796" height="103.31"/>
			
				<rect x="50.153" y="-12.233" transform="matrix(-0.646 -0.7633 0.7633 -0.646 53.1162 103.474)" clip-path="url(#SVGID_2_)" fill-rule="evenodd" clip-rule="evenodd" fill="#5BB3CB" width="0.795" height="103.309"/>
			
				<rect x="50.495" y="-11.829" transform="matrix(-0.6467 -0.7627 0.7627 -0.6467 53.432 104.3996)" clip-path="url(#SVGID_2_)" fill-rule="evenodd" clip-rule="evenodd" fill="#5AB3CB" width="0.796" height="103.311"/>
			
				<rect x="50.838" y="-11.425" transform="matrix(-0.6467 -0.7627 0.7627 -0.6467 53.6885 105.327)" clip-path="url(#SVGID_2_)" fill-rule="evenodd" clip-rule="evenodd" fill="#5AB3CB" width="0.796" height="103.31"/>
			
				<rect x="51.181" y="-11.02" transform="matrix(-0.6467 -0.7627 0.7627 -0.6467 53.9444 106.2546)" clip-path="url(#SVGID_2_)" fill-rule="evenodd" clip-rule="evenodd" fill="#5AB2CB" width="0.796" height="103.31"/>
			
				<rect x="51.524" y="-10.616" transform="matrix(-0.6467 -0.7627 0.7627 -0.6467 54.2011 107.1836)" clip-path="url(#SVGID_2_)" fill-rule="evenodd" clip-rule="evenodd" fill="#5AB2CB" width="0.796" height="103.311"/>
			
				<rect x="51.868" y="-10.211" transform="matrix(-0.6467 -0.7627 0.7627 -0.6467 54.4576 108.111)" clip-path="url(#SVGID_2_)" fill-rule="evenodd" clip-rule="evenodd" fill="#5AB2CA" width="0.796" height="103.31"/>
			
				<rect x="52.21" y="-9.806" transform="matrix(-0.6467 -0.7627 0.7627 -0.6467 54.7135 109.0386)" clip-path="url(#SVGID_2_)" fill-rule="evenodd" clip-rule="evenodd" fill="#59B2CA" width="0.796" height="103.31"/>
			
				<rect x="52.553" y="-9.401" transform="matrix(-0.6467 -0.7627 0.7627 -0.6467 54.9698 109.9664)" clip-path="url(#SVGID_2_)" fill-rule="evenodd" clip-rule="evenodd" fill="#59B2CA" width="0.796" height="103.309"/>
			
				<rect x="52.897" y="-8.997" transform="matrix(-0.6467 -0.7627 0.7627 -0.6467 55.2264 110.8948)" clip-path="url(#SVGID_2_)" fill-rule="evenodd" clip-rule="evenodd" fill="#59B1CA" width="0.796" height="103.311"/>
			
				<rect x="53.24" y="-8.592" transform="matrix(-0.6467 -0.7627 0.7627 -0.6467 55.4827 111.8226)" clip-path="url(#SVGID_2_)" fill-rule="evenodd" clip-rule="evenodd" fill="#59B1CA" width="0.796" height="103.31"/>
			
				<rect x="53.583" y="-8.188" transform="matrix(-0.647 -0.7625 0.7625 -0.647 55.7661 112.7495)" clip-path="url(#SVGID_2_)" fill-rule="evenodd" clip-rule="evenodd" fill="#59B1CA" width="0.795" height="103.31"/>
			
				<rect x="53.925" y="-7.783" transform="matrix(-0.6467 -0.7627 0.7627 -0.6467 55.9943 113.6782)" clip-path="url(#SVGID_2_)" fill-rule="evenodd" clip-rule="evenodd" fill="#59B1C9" width="0.796" height="103.31"/>
			
				<rect x="54.269" y="-7.379" transform="matrix(-0.646 -0.7633 0.7633 -0.646 56.1857 114.6074)" clip-path="url(#SVGID_2_)" fill-rule="evenodd" clip-rule="evenodd" fill="#58B1C9" width="0.795" height="103.31"/>
			
				<rect x="54.611" y="-6.974" transform="matrix(-0.6467 -0.7627 0.7627 -0.6467 56.5075 115.5336)" clip-path="url(#SVGID_2_)" fill-rule="evenodd" clip-rule="evenodd" fill="#58B1C9" width="0.796" height="103.31"/>
			
				<rect x="54.954" y="-6.569" transform="matrix(-0.6467 -0.7627 0.7627 -0.6467 56.7635 116.4622)" clip-path="url(#SVGID_2_)" fill-rule="evenodd" clip-rule="evenodd" fill="#58B0C9" width="0.796" height="103.31"/>
			
				<rect x="55.297" y="-6.165" transform="matrix(-0.6467 -0.7627 0.7627 -0.6467 57.0196 117.3894)" clip-path="url(#SVGID_2_)" fill-rule="evenodd" clip-rule="evenodd" fill="#58B0C9" width="0.796" height="103.31"/>
			
				<rect x="55.641" y="-5.761" transform="matrix(-0.6467 -0.7627 0.7627 -0.6467 57.2767 118.3176)" clip-path="url(#SVGID_2_)" fill-rule="evenodd" clip-rule="evenodd" fill="#58B0C8" width="0.796" height="103.31"/>
			
				<rect x="55.984" y="-5.356" transform="matrix(-0.6467 -0.7627 0.7627 -0.6467 57.5332 119.245)" clip-path="url(#SVGID_2_)" fill-rule="evenodd" clip-rule="evenodd" fill="#57B0C8" width="0.796" height="103.31"/>
			
				<rect x="56.326" y="-4.951" transform="matrix(-0.6467 -0.7627 0.7627 -0.6467 57.7887 120.1734)" clip-path="url(#SVGID_2_)" fill-rule="evenodd" clip-rule="evenodd" fill="#57B0C8" width="0.796" height="103.31"/>
			
				<rect x="56.67" y="-4.546" transform="matrix(-0.6467 -0.7627 0.7627 -0.6467 58.045 121.1012)" clip-path="url(#SVGID_2_)" fill-rule="evenodd" clip-rule="evenodd" fill="#57AFC8" width="0.796" height="103.31"/>
			
				<rect x="57.013" y="-4.142" transform="matrix(-0.6467 -0.7627 0.7627 -0.6467 58.3019 122.0288)" clip-path="url(#SVGID_2_)" fill-rule="evenodd" clip-rule="evenodd" fill="#57AFC8" width="0.796" height="103.31"/>
			
				<rect x="57.356" y="-3.738" transform="matrix(-0.647 -0.7625 0.7625 -0.647 58.5877 122.957)" clip-path="url(#SVGID_2_)" fill-rule="evenodd" clip-rule="evenodd" fill="#57AFC8" width="0.795" height="103.311"/>
			
				<rect x="57.699" y="-3.333" transform="matrix(-0.6467 -0.7627 0.7627 -0.6467 58.814 123.8846)" clip-path="url(#SVGID_2_)" fill-rule="evenodd" clip-rule="evenodd" fill="#56AFC7" width="0.796" height="103.31"/>
			
				<rect x="58.041" y="-2.928" transform="matrix(-0.6467 -0.7627 0.7627 -0.6467 59.0699 124.8122)" clip-path="url(#SVGID_2_)" fill-rule="evenodd" clip-rule="evenodd" fill="#56AFC7" width="0.796" height="103.31"/>
			
				<rect x="58.385" y="-2.524" transform="matrix(-0.646 -0.7633 0.7633 -0.646 59.255 125.7412)" clip-path="url(#SVGID_2_)" fill-rule="evenodd" clip-rule="evenodd" fill="#56AFC7" width="0.795" height="103.31"/>
			
				<rect x="58.728" y="-2.119" transform="matrix(-0.6467 -0.7627 0.7627 -0.6467 59.5827 126.6684)" clip-path="url(#SVGID_2_)" fill-rule="evenodd" clip-rule="evenodd" fill="#56AEC7" width="0.796" height="103.311"/>
			
				<rect x="59.071" y="-1.715" transform="matrix(-0.6467 -0.7627 0.7627 -0.6467 59.839 127.5962)" clip-path="url(#SVGID_2_)" fill-rule="evenodd" clip-rule="evenodd" fill="#56AEC7" width="0.796" height="103.31"/>
			
				<rect x="59.413" y="-1.31" transform="matrix(-0.6467 -0.7627 0.7627 -0.6467 60.0951 128.5234)" clip-path="url(#SVGID_2_)" fill-rule="evenodd" clip-rule="evenodd" fill="#56AEC6" width="0.796" height="103.31"/>
			
				<rect x="59.757" y="-0.906" transform="matrix(-0.6467 -0.7627 0.7627 -0.6467 60.3519 129.4523)" clip-path="url(#SVGID_2_)" fill-rule="evenodd" clip-rule="evenodd" fill="#55AEC6" width="0.796" height="103.311"/>
			
				<rect x="60.1" y="-0.501" transform="matrix(-0.6467 -0.7627 0.7627 -0.6467 60.6082 130.3801)" clip-path="url(#SVGID_2_)" fill-rule="evenodd" clip-rule="evenodd" fill="#55AEC6" width="0.796" height="103.31"/>
			
				<rect x="60.443" y="-0.096" transform="matrix(-0.6467 -0.7627 0.7627 -0.6467 60.8643 131.3073)" clip-path="url(#SVGID_2_)" fill-rule="evenodd" clip-rule="evenodd" fill="#55ADC6" width="0.796" height="103.31"/>
			
				<rect x="60.786" y="0.308" transform="matrix(-0.6467 -0.7627 0.7627 -0.6467 61.1204 132.2355)" clip-path="url(#SVGID_2_)" fill-rule="evenodd" clip-rule="evenodd" fill="#55ADC6" width="0.796" height="103.31"/>
			
				<rect x="61.129" y="0.713" transform="matrix(-0.6467 -0.7627 0.7627 -0.6467 61.3771 133.1635)" clip-path="url(#SVGID_2_)" fill-rule="evenodd" clip-rule="evenodd" fill="#55ADC6" width="0.796" height="103.311"/>
			
				<rect x="61.472" y="1.117" transform="matrix(-0.6467 -0.7627 0.7627 -0.6467 61.633 134.0911)" clip-path="url(#SVGID_2_)" fill-rule="evenodd" clip-rule="evenodd" fill="#54ADC5" width="0.796" height="103.31"/>
			
				<rect x="61.815" y="1.522" transform="matrix(-0.6467 -0.7627 0.7627 -0.6467 61.8892 135.0193)" clip-path="url(#SVGID_2_)" fill-rule="evenodd" clip-rule="evenodd" fill="#54ADC5" width="0.796" height="103.311"/>
			
				<rect x="62.158" y="1.927" transform="matrix(-0.6467 -0.7627 0.7627 -0.6467 62.1451 135.947)" clip-path="url(#SVGID_2_)" fill-rule="evenodd" clip-rule="evenodd" fill="#54ADC5" width="0.796" height="103.31"/>
			
				<rect x="62.502" y="2.331" transform="matrix(-0.6463 -0.7631 0.7631 -0.6463 62.3574 136.8748)" clip-path="url(#SVGID_2_)" fill-rule="evenodd" clip-rule="evenodd" fill="#54ACC5" width="0.795" height="103.31"/>
			
				<rect x="62.844" y="2.735" transform="matrix(-0.6467 -0.7627 0.7627 -0.6467 62.6583 137.8023)" clip-path="url(#SVGID_2_)" fill-rule="evenodd" clip-rule="evenodd" fill="#54ACC5" width="0.796" height="103.31"/>
			
				<rect x="63.187" y="3.141" transform="matrix(-0.6467 -0.7627 0.7627 -0.6467 62.9142 138.7309)" clip-path="url(#SVGID_2_)" fill-rule="evenodd" clip-rule="evenodd" fill="#53ACC4" width="0.796" height="103.31"/>
			
				<rect x="63.53" y="3.545" transform="matrix(-0.6467 -0.7627 0.7627 -0.6467 63.1703 139.6581)" clip-path="url(#SVGID_2_)" fill-rule="evenodd" clip-rule="evenodd" fill="#53ACC4" width="0.796" height="103.31"/>
			
				<rect x="63.872" y="3.949" transform="matrix(-0.6475 -0.7621 0.7621 -0.6475 63.5061 140.5867)" clip-path="url(#SVGID_2_)" fill-rule="evenodd" clip-rule="evenodd" fill="#53ACC4" width="0.796" height="103.31"/>
			
				<rect x="64.216" y="4.354" transform="matrix(-0.6467 -0.7627 0.7627 -0.6467 63.6839 141.5137)" clip-path="url(#SVGID_2_)" fill-rule="evenodd" clip-rule="evenodd" fill="#53ABC4" width="0.796" height="103.31"/>
			
				<rect x="64.559" y="4.759" transform="matrix(-0.6467 -0.7627 0.7627 -0.6467 63.9395 142.4421)" clip-path="url(#SVGID_2_)" fill-rule="evenodd" clip-rule="evenodd" fill="#53ABC4" width="0.796" height="103.31"/>
			
				<rect x="64.902" y="5.163" transform="matrix(-0.6467 -0.7627 0.7627 -0.6467 64.196 143.3695)" clip-path="url(#SVGID_2_)" fill-rule="evenodd" clip-rule="evenodd" fill="#53ABC4" width="0.796" height="103.31"/>
			
				<rect x="65.245" y="5.568" transform="matrix(-0.6467 -0.7627 0.7627 -0.6467 64.4527 144.2975)" clip-path="url(#SVGID_2_)" fill-rule="evenodd" clip-rule="evenodd" fill="#52ABC3" width="0.796" height="103.31"/>
			
				<rect x="65.588" y="5.972" transform="matrix(-0.6467 -0.7627 0.7627 -0.6467 64.7082 145.2259)" clip-path="url(#SVGID_2_)" fill-rule="evenodd" clip-rule="evenodd" fill="#52ABC3" width="0.796" height="103.311"/>
			
				<rect x="65.931" y="6.377" transform="matrix(-0.6467 -0.7627 0.7627 -0.6467 64.9647 146.1533)" clip-path="url(#SVGID_2_)" fill-rule="evenodd" clip-rule="evenodd" fill="#52AAC3" width="0.796" height="103.31"/>
			
				<rect x="66.274" y="6.781" transform="matrix(-0.647 -0.7625 0.7625 -0.647 65.2558 147.0815)" clip-path="url(#SVGID_2_)" fill-rule="evenodd" clip-rule="evenodd" fill="#52AAC3" width="0.795" height="103.31"/>
			
				<rect x="66.618" y="7.186" transform="matrix(-0.646 -0.7633 0.7633 -0.646 65.3942 148.0076)" clip-path="url(#SVGID_2_)" fill-rule="evenodd" clip-rule="evenodd" fill="#52AAC3" width="0.795" height="103.309"/>
			
				<rect x="66.96" y="7.591" transform="matrix(-0.6467 -0.7627 0.7627 -0.6467 65.7335 148.9371)" clip-path="url(#SVGID_2_)" fill-rule="evenodd" clip-rule="evenodd" fill="#51AAC2" width="0.796" height="103.311"/>
			
				<rect x="67.303" y="7.995" transform="matrix(-0.6467 -0.7627 0.7627 -0.6467 65.99 149.8645)" clip-path="url(#SVGID_2_)" fill-rule="evenodd" clip-rule="evenodd" fill="#51AAC2" width="0.796" height="103.31"/>
			
				<rect x="67.646" y="8.4" transform="matrix(-0.6467 -0.7627 0.7627 -0.6467 66.2459 150.7921)" clip-path="url(#SVGID_2_)" fill-rule="evenodd" clip-rule="evenodd" fill="#51AAC2" width="0.796" height="103.31"/>
			
				<rect x="67.989" y="8.804" transform="matrix(-0.6475 -0.7621 0.7621 -0.6475 66.5872 151.7224)" clip-path="url(#SVGID_2_)" fill-rule="evenodd" clip-rule="evenodd" fill="#51A9C2" width="0.796" height="103.311"/>
			
				<rect x="68.332" y="9.209" transform="matrix(-0.6467 -0.7627 0.7627 -0.6467 66.7591 152.6485)" clip-path="url(#SVGID_2_)" fill-rule="evenodd" clip-rule="evenodd" fill="#51A9C2" width="0.796" height="103.31"/>
			
				<rect x="68.675" y="9.614" transform="matrix(-0.6467 -0.7627 0.7627 -0.6467 67.015 153.5761)" clip-path="url(#SVGID_2_)" fill-rule="evenodd" clip-rule="evenodd" fill="#50A9C2" width="0.796" height="103.31"/>
			
				<rect x="69.018" y="10.018" transform="matrix(-0.6467 -0.7627 0.7627 -0.6467 67.2714 154.5039)" clip-path="url(#SVGID_2_)" fill-rule="evenodd" clip-rule="evenodd" fill="#50A9C1" width="0.796" height="103.309"/>
			
				<rect x="69.362" y="10.423" transform="matrix(-0.646 -0.7633 0.7633 -0.646 67.4404 155.4301)" clip-path="url(#SVGID_2_)" fill-rule="evenodd" clip-rule="evenodd" fill="#50A9C1" width="0.795" height="103.31"/>
			
				<rect x="69.704" y="10.827" transform="matrix(-0.647 -0.7625 0.7625 -0.647 67.8211 156.3608)" clip-path="url(#SVGID_2_)" fill-rule="evenodd" clip-rule="evenodd" fill="#50A8C1" width="0.795" height="103.311"/>
			
				<rect x="70.047" y="11.232" transform="matrix(-0.6467 -0.7627 0.7627 -0.6467 68.0403 157.2873)" clip-path="url(#SVGID_2_)" fill-rule="evenodd" clip-rule="evenodd" fill="#50A8C1" width="0.796" height="103.31"/>
			
				<rect x="70.39" y="11.637" transform="matrix(-0.6467 -0.7627 0.7627 -0.6467 68.2958 158.2157)" clip-path="url(#SVGID_2_)" fill-rule="evenodd" clip-rule="evenodd" fill="#50A8C1" width="0.796" height="103.31"/>
			
				<rect x="70.734" y="12.041" transform="matrix(-0.646 -0.7633 0.7633 -0.646 68.4637 159.141)" clip-path="url(#SVGID_2_)" fill-rule="evenodd" clip-rule="evenodd" fill="#4FA8C0" width="0.795" height="103.31"/>
			
				<rect x="71.076" y="12.445" transform="matrix(-0.6467 -0.7627 0.7627 -0.6467 68.809 160.0711)" clip-path="url(#SVGID_2_)" fill-rule="evenodd" clip-rule="evenodd" fill="#4FA8C0" width="0.796" height="103.31"/>
			
				<rect x="71.419" y="12.85" transform="matrix(-0.647 -0.7625 0.7625 -0.647 69.1033 161.0007)" clip-path="url(#SVGID_2_)" fill-rule="evenodd" clip-rule="evenodd" fill="#4FA8C0" width="0.795" height="103.311"/>
			
				<rect x="71.762" y="13.255" transform="matrix(-0.6467 -0.7627 0.7627 -0.6467 69.3211 161.9269)" clip-path="url(#SVGID_2_)" fill-rule="evenodd" clip-rule="evenodd" fill="#4FA7C0" width="0.796" height="103.31"/>
			
				<rect x="72.104" y="13.659" transform="matrix(-0.6475 -0.7621 0.7621 -0.6475 69.6682 162.8572)" clip-path="url(#SVGID_2_)" fill-rule="evenodd" clip-rule="evenodd" fill="#4FA7C0" width="0.796" height="103.311"/>
			
				<rect x="72.449" y="14.064" transform="matrix(-0.6467 -0.7627 0.7627 -0.6467 69.8347 163.7824)" clip-path="url(#SVGID_2_)" fill-rule="evenodd" clip-rule="evenodd" fill="#4EA7C0" width="0.796" height="103.31"/>
			
				<rect x="72.791" y="14.469" transform="matrix(-0.6467 -0.7627 0.7627 -0.6467 70.0902 164.7108)" clip-path="url(#SVGID_2_)" fill-rule="evenodd" clip-rule="evenodd" fill="#4EA7BF" width="0.796" height="103.31"/>
			
				<rect x="73.134" y="14.873" transform="matrix(-0.647 -0.7625 0.7625 -0.647 70.3855 165.6397)" clip-path="url(#SVGID_2_)" fill-rule="evenodd" clip-rule="evenodd" fill="#4EA7BF" width="0.795" height="103.31"/>
			
				<rect x="73.478" y="15.278" transform="matrix(-0.646 -0.7633 0.7633 -0.646 70.5101 166.5631)" clip-path="url(#SVGID_2_)" fill-rule="evenodd" clip-rule="evenodd" fill="#4EA6BF" width="0.795" height="103.31"/>
			
				<rect x="73.82" y="15.682" transform="matrix(-0.6467 -0.7627 0.7627 -0.6467 70.8592 167.4942)" clip-path="url(#SVGID_2_)" fill-rule="evenodd" clip-rule="evenodd" fill="#4EA6BF" width="0.796" height="103.311"/>
			
				<rect x="74.163" y="16.087" transform="matrix(-0.6467 -0.7627 0.7627 -0.6467 71.1155 168.422)" clip-path="url(#SVGID_2_)" fill-rule="evenodd" clip-rule="evenodd" fill="#4DA6BF" width="0.796" height="103.31"/>
			
				<rect x="74.506" y="16.492" transform="matrix(-0.6467 -0.7627 0.7627 -0.6467 71.3714 169.3496)" clip-path="url(#SVGID_2_)" fill-rule="evenodd" clip-rule="evenodd" fill="#4DA6BE" width="0.796" height="103.31"/>
			
				<rect x="74.849" y="16.896" transform="matrix(-0.6467 -0.7627 0.7627 -0.6467 71.6275 170.2778)" clip-path="url(#SVGID_2_)" fill-rule="evenodd" clip-rule="evenodd" fill="#4DA6BE" width="0.796" height="103.31"/>
			
				<rect x="75.192" y="17.301" transform="matrix(-0.6467 -0.7627 0.7627 -0.6467 71.8842 171.2058)" clip-path="url(#SVGID_2_)" fill-rule="evenodd" clip-rule="evenodd" fill="#4DA6BE" width="0.796" height="103.311"/>
			
				<rect x="75.535" y="17.705" transform="matrix(-0.6467 -0.7627 0.7627 -0.6467 72.1405 172.1336)" clip-path="url(#SVGID_2_)" fill-rule="evenodd" clip-rule="evenodd" fill="#4DA5BE" width="0.796" height="103.31"/>
			
				<rect x="75.878" y="18.11" transform="matrix(-0.6467 -0.7627 0.7627 -0.6467 72.3966 173.0608)" clip-path="url(#SVGID_2_)" fill-rule="evenodd" clip-rule="evenodd" fill="#4DA5BE" width="0.796" height="103.31"/>
			
				<rect x="76.221" y="18.514" transform="matrix(-0.6478 -0.7618 0.7618 -0.6478 72.7905 173.9944)" clip-path="url(#SVGID_2_)" fill-rule="evenodd" clip-rule="evenodd" fill="#4CA5BE" width="0.796" height="103.311"/>
			
				<rect x="76.565" y="18.919" transform="matrix(-0.647 -0.7625 0.7625 -0.647 72.9511 174.9192)" clip-path="url(#SVGID_2_)" fill-rule="evenodd" clip-rule="evenodd" fill="#4CA5BD" width="0.795" height="103.31"/>
			
				<rect x="76.908" y="19.324" transform="matrix(-0.6467 -0.7627 0.7627 -0.6467 73.1658 175.8448)" clip-path="url(#SVGID_2_)" fill-rule="evenodd" clip-rule="evenodd" fill="#4CA5BD" width="0.796" height="103.31"/>
			
				<rect x="77.25" y="19.728" transform="matrix(-0.6467 -0.7627 0.7627 -0.6467 73.4215 176.7728)" clip-path="url(#SVGID_2_)" fill-rule="evenodd" clip-rule="evenodd" fill="#4CA4BD" width="0.796" height="103.311"/>
			
				<rect x="77.594" y="20.133" transform="matrix(-0.646 -0.7633 0.7633 -0.646 73.5794 177.6969)" clip-path="url(#SVGID_2_)" fill-rule="evenodd" clip-rule="evenodd" fill="#4CA4BD" width="0.795" height="103.31"/>
			
				<rect x="77.937" y="20.537" transform="matrix(-0.6467 -0.7627 0.7627 -0.6467 73.9346 178.6286)" clip-path="url(#SVGID_2_)" fill-rule="evenodd" clip-rule="evenodd" fill="#4BA4BD" width="0.796" height="103.31"/>
			
				<rect x="78.28" y="20.942" transform="matrix(-0.6467 -0.7627 0.7627 -0.6467 74.1911 179.556)" clip-path="url(#SVGID_2_)" fill-rule="evenodd" clip-rule="evenodd" fill="#4BA4BD" width="0.796" height="103.31"/>
			
				<rect x="78.622" y="21.347" transform="matrix(-0.6467 -0.7627 0.7627 -0.6467 74.4466 180.4844)" clip-path="url(#SVGID_2_)" fill-rule="evenodd" clip-rule="evenodd" fill="#4BA4BC" width="0.796" height="103.31"/>
			
				<rect x="78.965" y="21.751" transform="matrix(-0.6467 -0.7627 0.7627 -0.6467 74.7031 181.4118)" clip-path="url(#SVGID_2_)" fill-rule="evenodd" clip-rule="evenodd" fill="#4BA3BC" width="0.796" height="103.31"/>
			
				<rect x="79.309" y="22.155" transform="matrix(-0.6467 -0.7627 0.7627 -0.6467 74.9598 182.3398)" clip-path="url(#SVGID_2_)" fill-rule="evenodd" clip-rule="evenodd" fill="#4BA3BC" width="0.796" height="103.31"/>
			
				<rect x="79.652" y="22.56" transform="matrix(-0.647 -0.7625 0.7625 -0.647 75.259 183.2703)" clip-path="url(#SVGID_2_)" fill-rule="evenodd" clip-rule="evenodd" fill="#4AA3BC" width="0.795" height="103.311"/>
			
				<rect x="79.994" y="22.965" transform="matrix(-0.6467 -0.7627 0.7627 -0.6467 75.4718 184.1956)" clip-path="url(#SVGID_2_)" fill-rule="evenodd" clip-rule="evenodd" fill="#4AA3BC" width="0.796" height="103.31"/>
			
				<rect x="80.337" y="23.369" transform="matrix(-0.6478 -0.7618 0.7618 -0.6478 75.8745 185.1298)" clip-path="url(#SVGID_2_)" fill-rule="evenodd" clip-rule="evenodd" fill="#4AA3BB" width="0.796" height="103.311"/>
			
				<rect x="80.681" y="23.774" transform="matrix(-0.6467 -0.7627 0.7627 -0.6467 75.9851 186.051)" clip-path="url(#SVGID_2_)" fill-rule="evenodd" clip-rule="evenodd" fill="#4AA3BB" width="0.796" height="103.31"/>
			
				<rect x="81.024" y="24.179" transform="matrix(-0.6467 -0.7627 0.7627 -0.6467 76.241 186.9796)" clip-path="url(#SVGID_2_)" fill-rule="evenodd" clip-rule="evenodd" fill="#4AA2BB" width="0.796" height="103.31"/>
			
				<rect x="81.367" y="24.583" transform="matrix(-0.6467 -0.7627 0.7627 -0.6467 76.4971 187.9068)" clip-path="url(#SVGID_2_)" fill-rule="evenodd" clip-rule="evenodd" fill="#49A2BB" width="0.796" height="103.31"/>
			
				<rect x="81.71" y="24.988" transform="matrix(-0.646 -0.7633 0.7633 -0.646 76.6491 188.8299)" clip-path="url(#SVGID_2_)" fill-rule="evenodd" clip-rule="evenodd" fill="#49A2BB" width="0.795" height="103.31"/>
			
				<rect x="82.053" y="25.392" transform="matrix(-0.6467 -0.7627 0.7627 -0.6467 77.0101 189.7626)" clip-path="url(#SVGID_2_)" fill-rule="evenodd" clip-rule="evenodd" fill="#49A2BB" width="0.796" height="103.31"/>
			
				<rect x="82.396" y="25.797" transform="matrix(-0.6467 -0.7627 0.7627 -0.6467 77.2663 190.6908)" clip-path="url(#SVGID_2_)" fill-rule="evenodd" clip-rule="evenodd" fill="#49A2BA" width="0.796" height="103.31"/>
			
				<rect x="82.739" y="26.201" transform="matrix(-0.647 -0.7625 0.7625 -0.647 77.5673 191.6206)" clip-path="url(#SVGID_2_)" fill-rule="evenodd" clip-rule="evenodd" fill="#49A1BA" width="0.795" height="103.31"/>
			
				<rect x="83.082" y="26.606" transform="matrix(-0.647 -0.7625 0.7625 -0.647 77.8238 192.5484)" clip-path="url(#SVGID_2_)" fill-rule="evenodd" clip-rule="evenodd" fill="#49A1BA" width="0.795" height="103.31"/>
			
				<rect x="83.425" y="27.01" transform="matrix(-0.6467 -0.7627 0.7627 -0.6467 78.035 193.4746)" clip-path="url(#SVGID_2_)" fill-rule="evenodd" clip-rule="evenodd" fill="#48A1BA" width="0.796" height="103.311"/>
			
				<rect x="83.768" y="27.415" transform="matrix(-0.6467 -0.7627 0.7627 -0.6467 78.2911 194.4018)" clip-path="url(#SVGID_2_)" fill-rule="evenodd" clip-rule="evenodd" fill="#48A1BA" width="0.796" height="103.311"/>
			
				<rect x="84.111" y="27.82" transform="matrix(-0.6467 -0.7627 0.7627 -0.6467 78.5474 195.3296)" clip-path="url(#SVGID_2_)" fill-rule="evenodd" clip-rule="evenodd" fill="#48A1B9" width="0.796" height="103.31"/>
			
				<rect x="84.453" y="28.224" transform="matrix(-0.6475 -0.7621 0.7621 -0.6475 78.9122 196.2628)" clip-path="url(#SVGID_2_)" fill-rule="evenodd" clip-rule="evenodd" fill="#48A1B9" width="0.796" height="103.31"/>
			
				<rect x="84.797" y="28.629" transform="matrix(-0.6467 -0.7627 0.7627 -0.6467 79.0602 197.1858)" clip-path="url(#SVGID_2_)" fill-rule="evenodd" clip-rule="evenodd" fill="#48A0B9" width="0.796" height="103.311"/>
			
				<rect x="85.14" y="29.034" transform="matrix(-0.6467 -0.7627 0.7627 -0.6467 79.3166 198.1136)" clip-path="url(#SVGID_2_)" fill-rule="evenodd" clip-rule="evenodd" fill="#47A0B9" width="0.796" height="103.31"/>
			
				<rect x="85.483" y="29.438" transform="matrix(-0.647 -0.7625 0.7625 -0.647 79.6193 199.0437)" clip-path="url(#SVGID_2_)" fill-rule="evenodd" clip-rule="evenodd" fill="#47A0B9" width="0.795" height="103.31"/>
			
				<rect x="85.827" y="29.843" transform="matrix(-0.646 -0.7633 0.7633 -0.646 79.7184 199.9637)" clip-path="url(#SVGID_2_)" fill-rule="evenodd" clip-rule="evenodd" fill="#47A0B9" width="0.795" height="103.31"/>
			
				<rect x="86.169" y="30.247" transform="matrix(-0.647 -0.7625 0.7625 -0.647 80.1326 200.8999)" clip-path="url(#SVGID_2_)" fill-rule="evenodd" clip-rule="evenodd" fill="#47A0B8" width="0.795" height="103.311"/>
			
				<rect x="86.512" y="30.652" transform="matrix(-0.6467 -0.7627 0.7627 -0.6467 80.3418 201.8247)" clip-path="url(#SVGID_2_)" fill-rule="evenodd" clip-rule="evenodd" fill="#479FB8" width="0.796" height="103.31"/>
			
				<rect x="86.855" y="31.057" transform="matrix(-0.6467 -0.7627 0.7627 -0.6467 80.5974 202.7531)" clip-path="url(#SVGID_2_)" fill-rule="evenodd" clip-rule="evenodd" fill="#469FB8" width="0.796" height="103.31"/>
			
				<rect x="87.198" y="31.461" transform="matrix(-0.6467 -0.7627 0.7627 -0.6467 80.8539 203.6805)" clip-path="url(#SVGID_2_)" fill-rule="evenodd" clip-rule="evenodd" fill="#469FB8" width="0.796" height="103.31"/>
			
				<rect x="87.541" y="31.865" transform="matrix(-0.6467 -0.7627 0.7627 -0.6467 81.1106 204.6085)" clip-path="url(#SVGID_2_)" fill-rule="evenodd" clip-rule="evenodd" fill="#469FB8" width="0.796" height="103.31"/>
			
				<rect x="87.884" y="32.27" transform="matrix(-0.6467 -0.7627 0.7627 -0.6467 81.3667 205.5357)" clip-path="url(#SVGID_2_)" fill-rule="evenodd" clip-rule="evenodd" fill="#469FB7" width="0.796" height="103.31"/>
			
				<rect x="88.227" y="32.675" transform="matrix(-0.6467 -0.7627 0.7627 -0.6467 81.6226 206.4643)" clip-path="url(#SVGID_2_)" fill-rule="evenodd" clip-rule="evenodd" fill="#469FB7" width="0.796" height="103.31"/>
			
				<rect x="88.57" y="33.079" transform="matrix(-0.6467 -0.7627 0.7627 -0.6467 81.8785 207.392)" clip-path="url(#SVGID_2_)" fill-rule="evenodd" clip-rule="evenodd" fill="#469EB7" width="0.796" height="103.31"/>
			
				<rect x="88.913" y="33.484" transform="matrix(-0.6467 -0.7627 0.7627 -0.6467 82.1358 208.3197)" clip-path="url(#SVGID_2_)" fill-rule="evenodd" clip-rule="evenodd" fill="#459EB7" width="0.796" height="103.31"/>
			
				<rect x="89.256" y="33.888" transform="matrix(-0.647 -0.7625 0.7625 -0.647 82.4409 209.2512)" clip-path="url(#SVGID_2_)" fill-rule="evenodd" clip-rule="evenodd" fill="#459EB7" width="0.795" height="103.311"/>
			
				<rect x="89.599" y="34.293" transform="matrix(-0.647 -0.7625 0.7625 -0.647 82.697 210.1788)" clip-path="url(#SVGID_2_)" fill-rule="evenodd" clip-rule="evenodd" fill="#459EB7" width="0.795" height="103.31"/>
			
				<rect x="89.942" y="34.698" transform="matrix(-0.6467 -0.7627 0.7627 -0.6467 82.9042 211.1033)" clip-path="url(#SVGID_2_)" fill-rule="evenodd" clip-rule="evenodd" fill="#459EB6" width="0.796" height="103.31"/>
			
				<rect x="90.285" y="35.102" transform="matrix(-0.6467 -0.7627 0.7627 -0.6467 83.1607 212.0317)" clip-path="url(#SVGID_2_)" fill-rule="evenodd" clip-rule="evenodd" fill="#459DB6" width="0.796" height="103.311"/>
			
				<rect x="90.628" y="35.507" transform="matrix(-0.6467 -0.7627 0.7627 -0.6467 83.417 212.9595)" clip-path="url(#SVGID_2_)" fill-rule="evenodd" clip-rule="evenodd" fill="#449DB6" width="0.796" height="103.31"/>
			
				<rect x="90.971" y="35.911" transform="matrix(-0.6467 -0.7627 0.7627 -0.6467 83.6729 213.8871)" clip-path="url(#SVGID_2_)" fill-rule="evenodd" clip-rule="evenodd" fill="#449DB6" width="0.796" height="103.31"/>
			
				<rect x="91.314" y="36.316" transform="matrix(-0.6467 -0.7627 0.7627 -0.6467 83.9294 214.8145)" clip-path="url(#SVGID_2_)" fill-rule="evenodd" clip-rule="evenodd" fill="#449DB6" width="0.796" height="103.31"/>
			
				<rect x="91.657" y="36.72" transform="matrix(-0.6467 -0.7627 0.7627 -0.6467 84.1858 215.7433)" clip-path="url(#SVGID_2_)" fill-rule="evenodd" clip-rule="evenodd" fill="#449DB5" width="0.796" height="103.311"/>
			
				<rect x="92" y="37.125" transform="matrix(-0.6467 -0.7627 0.7627 -0.6467 84.4417 216.6709)" clip-path="url(#SVGID_2_)" fill-rule="evenodd" clip-rule="evenodd" fill="#449CB5" width="0.796" height="103.31"/>
			
				<rect x="92.343" y="37.53" transform="matrix(-0.6467 -0.7627 0.7627 -0.6467 84.6982 217.5983)" clip-path="url(#SVGID_2_)" fill-rule="evenodd" clip-rule="evenodd" fill="#439CB5" width="0.796" height="103.31"/>
			
				<rect x="92.686" y="37.934" transform="matrix(-0.6467 -0.7627 0.7627 -0.6467 84.9539 218.5263)" clip-path="url(#SVGID_2_)" fill-rule="evenodd" clip-rule="evenodd" fill="#439CB5" width="0.796" height="103.311"/>
			
				<rect x="93.029" y="38.339" transform="matrix(-0.6467 -0.7627 0.7627 -0.6467 85.211 219.4545)" clip-path="url(#SVGID_2_)" fill-rule="evenodd" clip-rule="evenodd" fill="#439CB5" width="0.796" height="103.311"/>
			
				<rect x="93.372" y="38.743" transform="matrix(-0.6467 -0.7627 0.7627 -0.6467 85.4673 220.3823)" clip-path="url(#SVGID_2_)" fill-rule="evenodd" clip-rule="evenodd" fill="#439CB5" width="0.796" height="103.31"/>
			
				<rect x="93.715" y="39.148" transform="matrix(-0.6467 -0.7627 0.7627 -0.6467 85.7234 221.3095)" clip-path="url(#SVGID_2_)" fill-rule="evenodd" clip-rule="evenodd" fill="#439CB4" width="0.796" height="103.31"/>
			
				<rect x="94.058" y="39.553" transform="matrix(-0.6467 -0.7627 0.7627 -0.6467 85.9794 222.2381)" clip-path="url(#SVGID_2_)" fill-rule="evenodd" clip-rule="evenodd" fill="#439BB4" width="0.796" height="103.31"/>
			
				<rect x="94.402" y="39.957" transform="matrix(-0.647 -0.7625 0.7625 -0.647 86.2883 223.1695)" clip-path="url(#SVGID_2_)" fill-rule="evenodd" clip-rule="evenodd" fill="#429BB4" width="0.795" height="103.311"/>
			
				<rect x="94.744" y="40.362" transform="matrix(-0.6467 -0.7627 0.7627 -0.6467 86.4926 224.0935)" clip-path="url(#SVGID_2_)" fill-rule="evenodd" clip-rule="evenodd" fill="#429BB4" width="0.796" height="103.31"/>
			
				<rect x="95.087" y="40.767" transform="matrix(-0.6467 -0.7627 0.7627 -0.6467 86.7481 225.0219)" clip-path="url(#SVGID_2_)" fill-rule="evenodd" clip-rule="evenodd" fill="#429BB4" width="0.796" height="103.31"/>
			
				<rect x="95.43" y="41.171" transform="matrix(-0.6467 -0.7627 0.7627 -0.6467 87.0042 225.9491)" clip-path="url(#SVGID_2_)" fill-rule="evenodd" clip-rule="evenodd" fill="#429BB3" width="0.796" height="103.31"/>
			
				<rect x="95.774" y="41.576" transform="matrix(-0.646 -0.7633 0.7633 -0.646 87.1361 226.8689)" clip-path="url(#SVGID_2_)" fill-rule="evenodd" clip-rule="evenodd" fill="#429AB3" width="0.795" height="103.31"/>
			
				<rect x="96.116" y="41.98" transform="matrix(-0.6467 -0.7627 0.7627 -0.6467 87.5174 227.8045)" clip-path="url(#SVGID_2_)" fill-rule="evenodd" clip-rule="evenodd" fill="#419AB3" width="0.796" height="103.31"/>
			
				<rect x="96.459" y="42.385" transform="matrix(-0.6467 -0.7627 0.7627 -0.6467 87.7734 228.7331)" clip-path="url(#SVGID_2_)" fill-rule="evenodd" clip-rule="evenodd" fill="#419AB3" width="0.796" height="103.31"/>
			
				<rect x="96.802" y="42.789" transform="matrix(-0.6467 -0.7627 0.7627 -0.6467 88.0295 229.6603)" clip-path="url(#SVGID_2_)" fill-rule="evenodd" clip-rule="evenodd" fill="#419AB3" width="0.796" height="103.31"/>
			
				<rect x="97.146" y="43.193" transform="matrix(-0.6467 -0.7627 0.7627 -0.6467 88.2866 230.5885)" clip-path="url(#SVGID_2_)" fill-rule="evenodd" clip-rule="evenodd" fill="#419AB3" width="0.796" height="103.31"/>
			
				<rect x="97.489" y="43.599" transform="matrix(-0.6467 -0.7627 0.7627 -0.6467 88.5425 231.5171)" clip-path="url(#SVGID_2_)" fill-rule="evenodd" clip-rule="evenodd" fill="#419AB2" width="0.796" height="103.31"/>
			
				<rect x="97.831" y="44.003" transform="matrix(-0.6467 -0.7627 0.7627 -0.6467 88.7986 232.4443)" clip-path="url(#SVGID_2_)" fill-rule="evenodd" clip-rule="evenodd" fill="#4099B2" width="0.796" height="103.31"/>
			
				<rect x="98.174" y="44.408" transform="matrix(-0.6467 -0.7627 0.7627 -0.6467 89.0549 233.3721)" clip-path="url(#SVGID_2_)" fill-rule="evenodd" clip-rule="evenodd" fill="#4099B2" width="0.796" height="103.31"/>
			
				<rect x="98.596" y="44.643" transform="matrix(-0.6462 -0.7632 0.7632 -0.6462 89.1053 233.9044)" clip-path="url(#SVGID_2_)" fill-rule="evenodd" clip-rule="evenodd" fill="#4099B2" width="0.351" height="103.31"/>
		</g>
	</g>
	<g>
		<polygon fill-rule="evenodd" clip-rule="evenodd" fill="#FCFAE6" points="38.188,42.261 39.677,40.38 64.354,60.022 89.034,40.38 
			89.038,40.38 90.526,42.261 64.354,63.083 		"/>
		<path fill-rule="evenodd" clip-rule="evenodd" fill="#FCFAE6" d="M40.184,70.937h48.349V42.521H40.184V70.937L40.184,70.937
			L40.184,70.937z M89.728,72.137v-1.2V72.137L89.728,72.137L89.728,72.137z M37.791,73.332V40.124h53.135v32.013v1.195H37.791z"/>
		
			<rect x="79.534" y="51.72" transform="matrix(0.6717 -0.7409 0.7409 0.6717 -20.8572 80.8009)" fill-rule="evenodd" clip-rule="evenodd" fill="#FCFAE6" width="2.392" height="24.422"/>
		
			<rect x="35.793" y="62.814" transform="matrix(0.7407 -0.6719 0.6719 0.7407 -30.5901 48.7701)" fill-rule="evenodd" clip-rule="evenodd" fill="#FCFAE6" width="24.181" height="2.397"/>
	</g>
</g>
</svg>
