<?xml version="1.0" encoding="utf-8"?>
<!-- Generator: Adobe Illustrator 15.1.0, SVG Export Plug-In . SVG Version: 6.00 Build 0)  -->
<!DOCTYPE svg PUBLIC "-//W3C//DTD SVG 1.1//EN" "http://www.w3.org/Graphics/SVG/1.1/DTD/svg11.dtd">
<svg version="1.1" id="_x31_" xmlns="http://www.w3.org/2000/svg" xmlns:xlink="http://www.w3.org/1999/xlink" x="0px" y="0px"
	 width="130.961px" height="130.961px" viewBox="0 0 130.961 130.961" enable-background="new 0 0 130.961 130.961"
	 xml:space="preserve">
<g>
	<path fill-rule="evenodd" clip-rule="evenodd" fill="#FFA300" d="M65.48,5.032c28.873,0,52.277,23.405,52.277,52.277
		c0,25.455-18.194,46.658-42.289,51.321l-3.587,6.212l-6.401,11.087l-6.401-11.087l-3.587-6.212
		c-24.094-4.663-42.29-25.866-42.29-51.321C13.203,28.438,36.608,5.032,65.48,5.032z"/>
	<g>
		<g>
			<defs>
				<path id="SVGID_1_" d="M65.48,103.196c25.425,0,46.165-20.736,46.165-46.165c0-25.427-20.737-46.165-46.165-46.165
					c-25.425,0-46.163,20.737-46.163,46.165S40.055,103.196,65.48,103.196z"/>
			</defs>
			<clipPath id="SVGID_2_">
				<use xlink:href="#SVGID_1_"  overflow="visible"/>
			</clipPath>
			
				<rect x="31.905" y="-34.104" transform="matrix(0.6473 0.7622 -0.7622 0.6473 24.6678 -18.2078)" clip-path="url(#SVGID_2_)" fill-rule="evenodd" clip-rule="evenodd" fill="#FBBB4A" width="0.208" height="103.311"/>
			
				<rect x="31.63" y="-34.082" transform="matrix(-0.647 -0.7625 0.7625 -0.647 39.3516 53.3642)" clip-path="url(#SVGID_2_)" fill-rule="evenodd" clip-rule="evenodd" fill="#FBBB4A" width="0.795" height="103.311"/>
			
				<rect x="31.973" y="-33.677" transform="matrix(-0.6467 -0.7627 0.7627 -0.6467 39.5937 54.2949)" clip-path="url(#SVGID_2_)" fill-rule="evenodd" clip-rule="evenodd" fill="#FBBA4A" width="0.796" height="103.311"/>
			
				<rect x="32.315" y="-33.273" transform="matrix(-0.6467 -0.7627 0.7627 -0.6467 39.8496 55.2226)" clip-path="url(#SVGID_2_)" fill-rule="evenodd" clip-rule="evenodd" fill="#FBBA49" width="0.796" height="103.311"/>
			
				<rect x="32.659" y="-32.868" transform="matrix(-0.6467 -0.7627 0.7627 -0.6467 40.106 56.1504)" clip-path="url(#SVGID_2_)" fill-rule="evenodd" clip-rule="evenodd" fill="#FBBA49" width="0.796" height="103.31"/>
			
				<rect x="33.002" y="-32.463" transform="matrix(-0.646 -0.7633 0.7633 -0.646 40.327 57.0852)" clip-path="url(#SVGID_2_)" fill-rule="evenodd" clip-rule="evenodd" fill="#FBBA49" width="0.795" height="103.31"/>
			
				<rect x="33.345" y="-32.059" transform="matrix(-0.6467 -0.7627 0.7627 -0.6467 40.619 58.0061)" clip-path="url(#SVGID_2_)" fill-rule="evenodd" clip-rule="evenodd" fill="#FBBA48" width="0.796" height="103.311"/>
			
				<rect x="33.688" y="-31.654" transform="matrix(-0.6467 -0.7627 0.7627 -0.6467 40.8747 58.9341)" clip-path="url(#SVGID_2_)" fill-rule="evenodd" clip-rule="evenodd" fill="#FBBA48" width="0.796" height="103.311"/>
			
				<rect x="34.031" y="-31.25" transform="matrix(-0.647 -0.7625 0.7625 -0.647 41.1463 59.8591)" clip-path="url(#SVGID_2_)" fill-rule="evenodd" clip-rule="evenodd" fill="#FBBA48" width="0.795" height="103.311"/>
			
				<rect x="34.374" y="-30.845" transform="matrix(-0.6467 -0.7627 0.7627 -0.6467 41.3881 60.7901)" clip-path="url(#SVGID_2_)" fill-rule="evenodd" clip-rule="evenodd" fill="#FBBA47" width="0.796" height="103.311"/>
			
				<rect x="34.717" y="-30.44" transform="matrix(-0.647 -0.7625 0.7625 -0.647 41.6599 61.7155)" clip-path="url(#SVGID_2_)" fill-rule="evenodd" clip-rule="evenodd" fill="#FBBA47" width="0.795" height="103.311"/>
			
				<rect x="35.06" y="-30.036" transform="matrix(-0.6467 -0.7627 0.7627 -0.6467 41.9004 62.6455)" clip-path="url(#SVGID_2_)" fill-rule="evenodd" clip-rule="evenodd" fill="#FBB947" width="0.796" height="103.31"/>
			
				<rect x="35.403" y="-29.631" transform="matrix(-0.647 -0.7625 0.7625 -0.647 42.1726 63.571)" clip-path="url(#SVGID_2_)" fill-rule="evenodd" clip-rule="evenodd" fill="#FBB946" width="0.795" height="103.311"/>
			
				<rect x="35.746" y="-29.227" transform="matrix(-0.6467 -0.7627 0.7627 -0.6467 42.413 64.5011)" clip-path="url(#SVGID_2_)" fill-rule="evenodd" clip-rule="evenodd" fill="#FBB946" width="0.796" height="103.311"/>
			
				<rect x="36.089" y="-28.822" transform="matrix(-0.6467 -0.7627 0.7627 -0.6467 42.6691 65.4293)" clip-path="url(#SVGID_2_)" fill-rule="evenodd" clip-rule="evenodd" fill="#FBB946" width="0.796" height="103.311"/>
			
				<rect x="36.432" y="-28.418" transform="matrix(-0.6467 -0.7627 0.7627 -0.6467 42.9252 66.3565)" clip-path="url(#SVGID_2_)" fill-rule="evenodd" clip-rule="evenodd" fill="#FBB945" width="0.796" height="103.311"/>
			
				<rect x="36.775" y="-28.013" transform="matrix(-0.6467 -0.7627 0.7627 -0.6467 43.1813 67.2847)" clip-path="url(#SVGID_2_)" fill-rule="evenodd" clip-rule="evenodd" fill="#FBB945" width="0.796" height="103.31"/>
			
				<rect x="37.118" y="-27.608" transform="matrix(-0.646 -0.7633 0.7633 -0.646 43.3967 68.2182)" clip-path="url(#SVGID_2_)" fill-rule="evenodd" clip-rule="evenodd" fill="#FBB945" width="0.795" height="103.31"/>
			
				<rect x="37.461" y="-27.204" transform="matrix(-0.6467 -0.7627 0.7627 -0.6467 43.6944 69.1405)" clip-path="url(#SVGID_2_)" fill-rule="evenodd" clip-rule="evenodd" fill="#FBB944" width="0.796" height="103.311"/>
			
				<rect x="37.804" y="-26.8" transform="matrix(-0.6467 -0.7627 0.7627 -0.6467 43.9503 70.0681)" clip-path="url(#SVGID_2_)" fill-rule="evenodd" clip-rule="evenodd" fill="#FBB944" width="0.796" height="103.311"/>
			
				<rect x="38.147" y="-26.395" transform="matrix(-0.647 -0.7625 0.7625 -0.647 44.2242 70.9939)" clip-path="url(#SVGID_2_)" fill-rule="evenodd" clip-rule="evenodd" fill="#FBB844" width="0.795" height="103.311"/>
			
				<rect x="38.49" y="-25.99" transform="matrix(-0.6467 -0.7627 0.7627 -0.6467 44.4635 71.9245)" clip-path="url(#SVGID_2_)" fill-rule="evenodd" clip-rule="evenodd" fill="#FBB843" width="0.796" height="103.311"/>
			
				<rect x="38.833" y="-25.586" transform="matrix(-0.6467 -0.7627 0.7627 -0.6467 44.7194 72.8521)" clip-path="url(#SVGID_2_)" fill-rule="evenodd" clip-rule="evenodd" fill="#FBB843" width="0.796" height="103.311"/>
			
				<rect x="39.176" y="-25.181" transform="matrix(-0.6467 -0.7627 0.7627 -0.6467 44.9753 73.7797)" clip-path="url(#SVGID_2_)" fill-rule="evenodd" clip-rule="evenodd" fill="#FBB843" width="0.796" height="103.311"/>
			
				<rect x="39.519" y="-24.776" transform="matrix(-0.6467 -0.7627 0.7627 -0.6467 45.2317 74.7075)" clip-path="url(#SVGID_2_)" fill-rule="evenodd" clip-rule="evenodd" fill="#FBB842" width="0.796" height="103.31"/>
			
				<rect x="39.862" y="-24.372" transform="matrix(-0.646 -0.7633 0.7633 -0.646 45.4431 75.6404)" clip-path="url(#SVGID_2_)" fill-rule="evenodd" clip-rule="evenodd" fill="#FBB842" width="0.795" height="103.31"/>
			
				<rect x="40.205" y="-23.967" transform="matrix(-0.6467 -0.7627 0.7627 -0.6467 45.7445 76.5637)" clip-path="url(#SVGID_2_)" fill-rule="evenodd" clip-rule="evenodd" fill="#FBB842" width="0.796" height="103.311"/>
			
				<rect x="40.548" y="-23.562" transform="matrix(-0.6467 -0.7627 0.7627 -0.6467 46.0004 77.4913)" clip-path="url(#SVGID_2_)" fill-rule="evenodd" clip-rule="evenodd" fill="#FBB841" width="0.796" height="103.31"/>
			
				<rect x="40.891" y="-23.158" transform="matrix(-0.6467 -0.7627 0.7627 -0.6467 46.2567 78.4191)" clip-path="url(#SVGID_2_)" fill-rule="evenodd" clip-rule="evenodd" fill="#FBB841" width="0.796" height="103.31"/>
			
				<rect x="41.234" y="-22.753" transform="matrix(-0.6467 -0.7627 0.7627 -0.6467 46.5126 79.3467)" clip-path="url(#SVGID_2_)" fill-rule="evenodd" clip-rule="evenodd" fill="#FBB841" width="0.796" height="103.311"/>
			
				<rect x="41.577" y="-22.349" transform="matrix(-0.6467 -0.7627 0.7627 -0.6467 46.7697 80.2749)" clip-path="url(#SVGID_2_)" fill-rule="evenodd" clip-rule="evenodd" fill="#FBB740" width="0.796" height="103.311"/>
			
				<rect x="41.92" y="-21.944" transform="matrix(-0.6467 -0.7627 0.7627 -0.6467 47.0255 81.2029)" clip-path="url(#SVGID_2_)" fill-rule="evenodd" clip-rule="evenodd" fill="#FBB740" width="0.796" height="103.311"/>
			
				<rect x="42.263" y="-21.54" transform="matrix(-0.6467 -0.7627 0.7627 -0.6467 47.2816 82.1301)" clip-path="url(#SVGID_2_)" fill-rule="evenodd" clip-rule="evenodd" fill="#FBB740" width="0.796" height="103.311"/>
			
				<rect x="42.607" y="-21.135" transform="matrix(-0.6467 -0.7627 0.7627 -0.6467 47.5389 83.0588)" clip-path="url(#SVGID_2_)" fill-rule="evenodd" clip-rule="evenodd" fill="#FBB73F" width="0.796" height="103.311"/>
			
				<rect x="42.949" y="-20.73" transform="matrix(-0.647 -0.7625 0.7625 -0.647 47.8159 83.9847)" clip-path="url(#SVGID_2_)" fill-rule="evenodd" clip-rule="evenodd" fill="#FBB73F" width="0.795" height="103.311"/>
			
				<rect x="43.292" y="-20.326" transform="matrix(-0.6467 -0.7627 0.7627 -0.6467 48.0507 84.9141)" clip-path="url(#SVGID_2_)" fill-rule="evenodd" clip-rule="evenodd" fill="#FBB73F" width="0.796" height="103.311"/>
			
				<rect x="43.635" y="-19.921" transform="matrix(-0.6467 -0.7627 0.7627 -0.6467 48.3068 85.8423)" clip-path="url(#SVGID_2_)" fill-rule="evenodd" clip-rule="evenodd" fill="#FBB73E" width="0.796" height="103.31"/>
			
				<rect x="43.979" y="-19.517" transform="matrix(-0.646 -0.7633 0.7633 -0.646 48.5126 86.7737)" clip-path="url(#SVGID_2_)" fill-rule="evenodd" clip-rule="evenodd" fill="#FBB73E" width="0.795" height="103.31"/>
			
				<rect x="44.322" y="-19.112" transform="matrix(-0.647 -0.7625 0.7625 -0.647 48.842 87.696)" clip-path="url(#SVGID_2_)" fill-rule="evenodd" clip-rule="evenodd" fill="#FBB73E" width="0.795" height="103.311"/>
			
				<rect x="44.664" y="-18.708" transform="matrix(-0.6467 -0.7627 0.7627 -0.6467 49.0758 88.6257)" clip-path="url(#SVGID_2_)" fill-rule="evenodd" clip-rule="evenodd" fill="#FBB63D" width="0.796" height="103.311"/>
			
				<rect x="45.007" y="-18.303" transform="matrix(-0.6467 -0.7627 0.7627 -0.6467 49.3321 89.5535)" clip-path="url(#SVGID_2_)" fill-rule="evenodd" clip-rule="evenodd" fill="#FBB63D" width="0.796" height="103.31"/>
			
				<rect x="45.35" y="-17.899" transform="matrix(-0.6467 -0.7627 0.7627 -0.6467 49.5882 90.4807)" clip-path="url(#SVGID_2_)" fill-rule="evenodd" clip-rule="evenodd" fill="#FBB63D" width="0.796" height="103.31"/>
			
				<rect x="45.693" y="-17.494" transform="matrix(-0.6467 -0.7627 0.7627 -0.6467 49.8453 91.4088)" clip-path="url(#SVGID_2_)" fill-rule="evenodd" clip-rule="evenodd" fill="#FBB63C" width="0.796" height="103.31"/>
			
				<rect x="46.036" y="-17.089" transform="matrix(-0.6467 -0.7627 0.7627 -0.6467 50.1008 92.3372)" clip-path="url(#SVGID_2_)" fill-rule="evenodd" clip-rule="evenodd" fill="#FBB63C" width="0.796" height="103.311"/>
			
				<rect x="46.379" y="-16.685" transform="matrix(-0.6467 -0.7627 0.7627 -0.6467 50.3569 93.2645)" clip-path="url(#SVGID_2_)" fill-rule="evenodd" clip-rule="evenodd" fill="#FBB63C" width="0.796" height="103.311"/>
			
				<rect x="46.722" y="-16.28" transform="matrix(-0.6467 -0.7627 0.7627 -0.6467 50.6141 94.1926)" clip-path="url(#SVGID_2_)" fill-rule="evenodd" clip-rule="evenodd" fill="#FCB63B" width="0.796" height="103.311"/>
			
				<rect x="47.065" y="-15.875" transform="matrix(-0.6467 -0.7627 0.7627 -0.6467 50.87 95.1212)" clip-path="url(#SVGID_2_)" fill-rule="evenodd" clip-rule="evenodd" fill="#FCB63B" width="0.796" height="103.311"/>
			
				<rect x="47.408" y="-15.471" transform="matrix(-0.6467 -0.7627 0.7627 -0.6467 51.1261 96.0484)" clip-path="url(#SVGID_2_)" fill-rule="evenodd" clip-rule="evenodd" fill="#FCB63B" width="0.796" height="103.311"/>
			
				<rect x="47.751" y="-15.066" transform="matrix(-0.6467 -0.7627 0.7627 -0.6467 51.3826 96.9758)" clip-path="url(#SVGID_2_)" fill-rule="evenodd" clip-rule="evenodd" fill="#FCB63A" width="0.796" height="103.31"/>
			
				<rect x="48.095" y="-14.662" transform="matrix(-0.646 -0.7633 0.7633 -0.646 51.5819 97.9075)" clip-path="url(#SVGID_2_)" fill-rule="evenodd" clip-rule="evenodd" fill="#FCB53A" width="0.795" height="103.311"/>
			
				<rect x="48.438" y="-14.257" transform="matrix(-0.6467 -0.7627 0.7627 -0.6467 51.8953 98.8324)" clip-path="url(#SVGID_2_)" fill-rule="evenodd" clip-rule="evenodd" fill="#FCB53A" width="0.796" height="103.311"/>
			
				<rect x="48.78" y="-13.853" transform="matrix(-0.6467 -0.7627 0.7627 -0.6467 52.1514 99.7596)" clip-path="url(#SVGID_2_)" fill-rule="evenodd" clip-rule="evenodd" fill="#FCB539" width="0.796" height="103.311"/>
			
				<rect x="49.123" y="-13.448" transform="matrix(-0.6467 -0.7627 0.7627 -0.6467 52.4077 100.6874)" clip-path="url(#SVGID_2_)" fill-rule="evenodd" clip-rule="evenodd" fill="#FCB539" width="0.796" height="103.31"/>
			
				<rect x="49.466" y="-13.043" transform="matrix(-0.6467 -0.7627 0.7627 -0.6467 52.6632 101.6158)" clip-path="url(#SVGID_2_)" fill-rule="evenodd" clip-rule="evenodd" fill="#FCB539" width="0.796" height="103.31"/>
			
				<rect x="49.809" y="-12.639" transform="matrix(-0.6467 -0.7627 0.7627 -0.6467 52.9201 102.5434)" clip-path="url(#SVGID_2_)" fill-rule="evenodd" clip-rule="evenodd" fill="#FCB538" width="0.796" height="103.311"/>
			
				<rect x="50.152" y="-12.234" transform="matrix(-0.6467 -0.7627 0.7627 -0.6467 53.1764 103.4712)" clip-path="url(#SVGID_2_)" fill-rule="evenodd" clip-rule="evenodd" fill="#FCB538" width="0.796" height="103.31"/>
			
				<rect x="50.495" y="-11.83" transform="matrix(-0.6467 -0.7627 0.7627 -0.6467 53.4321 104.3992)" clip-path="url(#SVGID_2_)" fill-rule="evenodd" clip-rule="evenodd" fill="#FCB538" width="0.796" height="103.311"/>
			
				<rect x="50.839" y="-11.425" transform="matrix(-0.646 -0.7633 0.7633 -0.646 53.6283 105.3297)" clip-path="url(#SVGID_2_)" fill-rule="evenodd" clip-rule="evenodd" fill="#FCB537" width="0.795" height="103.31"/>
			
				<rect x="51.182" y="-11.021" transform="matrix(-0.6467 -0.7627 0.7627 -0.6467 53.9458 106.2548)" clip-path="url(#SVGID_2_)" fill-rule="evenodd" clip-rule="evenodd" fill="#FCB437" width="0.796" height="103.311"/>
			
				<rect x="51.524" y="-10.616" transform="matrix(-0.6467 -0.7627 0.7627 -0.6467 54.2013 107.1832)" clip-path="url(#SVGID_2_)" fill-rule="evenodd" clip-rule="evenodd" fill="#FCB437" width="0.796" height="103.311"/>
			
				<rect x="51.868" y="-10.211" transform="matrix(-0.6467 -0.7627 0.7627 -0.6467 54.4578 108.1106)" clip-path="url(#SVGID_2_)" fill-rule="evenodd" clip-rule="evenodd" fill="#FCB436" width="0.796" height="103.311"/>
			
				<rect x="52.211" y="-9.807" transform="matrix(-0.646 -0.7633 0.7633 -0.646 54.6516 109.0405)" clip-path="url(#SVGID_2_)" fill-rule="evenodd" clip-rule="evenodd" fill="#FCB436" width="0.795" height="103.31"/>
			
				<rect x="52.554" y="-9.402" transform="matrix(-0.6467 -0.7627 0.7627 -0.6467 54.9708 109.9664)" clip-path="url(#SVGID_2_)" fill-rule="evenodd" clip-rule="evenodd" fill="#FCB436" width="0.796" height="103.31"/>
			
				<rect x="52.897" y="-8.998" transform="matrix(-0.6467 -0.7627 0.7627 -0.6467 55.2265 110.8944)" clip-path="url(#SVGID_2_)" fill-rule="evenodd" clip-rule="evenodd" fill="#FCB435" width="0.796" height="103.311"/>
			
				<rect x="53.24" y="-8.593" transform="matrix(-0.6467 -0.7627 0.7627 -0.6467 55.4829 111.8222)" clip-path="url(#SVGID_2_)" fill-rule="evenodd" clip-rule="evenodd" fill="#FCB435" width="0.796" height="103.31"/>
			
				<rect x="53.583" y="-8.188" transform="matrix(-0.647 -0.7625 0.7625 -0.647 55.7663 112.7491)" clip-path="url(#SVGID_2_)" fill-rule="evenodd" clip-rule="evenodd" fill="#FCB435" width="0.795" height="103.31"/>
			
				<rect x="53.926" y="-7.784" transform="matrix(-0.6467 -0.7627 0.7627 -0.6467 55.9953 113.6782)" clip-path="url(#SVGID_2_)" fill-rule="evenodd" clip-rule="evenodd" fill="#FCB434" width="0.796" height="103.311"/>
			
				<rect x="54.269" y="-7.38" transform="matrix(-0.6467 -0.7627 0.7627 -0.6467 56.2518 114.6056)" clip-path="url(#SVGID_2_)" fill-rule="evenodd" clip-rule="evenodd" fill="#FCB434" width="0.796" height="103.311"/>
			
				<rect x="54.611" y="-6.975" transform="matrix(-0.6467 -0.7627 0.7627 -0.6467 56.5077 115.5332)" clip-path="url(#SVGID_2_)" fill-rule="evenodd" clip-rule="evenodd" fill="#FCB334" width="0.796" height="103.311"/>
			
				<rect x="54.955" y="-6.57" transform="matrix(-0.646 -0.7633 0.7633 -0.646 56.698 116.4627)" clip-path="url(#SVGID_2_)" fill-rule="evenodd" clip-rule="evenodd" fill="#FCB333" width="0.795" height="103.31"/>
			
				<rect x="55.298" y="-6.166" transform="matrix(-0.6467 -0.7627 0.7627 -0.6467 57.021 117.3896)" clip-path="url(#SVGID_2_)" fill-rule="evenodd" clip-rule="evenodd" fill="#FCB333" width="0.796" height="103.311"/>
			
				<rect x="55.641" y="-5.761" transform="matrix(-0.6467 -0.7627 0.7627 -0.6467 57.2769 118.3172)" clip-path="url(#SVGID_2_)" fill-rule="evenodd" clip-rule="evenodd" fill="#FCB333" width="0.796" height="103.311"/>
			
				<rect x="55.984" y="-5.356" transform="matrix(-0.647 -0.7625 0.7625 -0.647 57.5621 119.2445)" clip-path="url(#SVGID_2_)" fill-rule="evenodd" clip-rule="evenodd" fill="#FCB332" width="0.795" height="103.31"/>
			
				<rect x="56.327" y="-4.952" transform="matrix(-0.646 -0.7633 0.7633 -0.646 57.7213 120.1735)" clip-path="url(#SVGID_2_)" fill-rule="evenodd" clip-rule="evenodd" fill="#FCB332" width="0.795" height="103.31"/>
			
				<rect x="56.67" y="-4.547" transform="matrix(-0.6467 -0.7627 0.7627 -0.6467 58.046 121.1012)" clip-path="url(#SVGID_2_)" fill-rule="evenodd" clip-rule="evenodd" fill="#FCB332" width="0.796" height="103.311"/>
			
				<rect x="57.013" y="-4.143" transform="matrix(-0.6467 -0.7627 0.7627 -0.6467 58.3021 122.0284)" clip-path="url(#SVGID_2_)" fill-rule="evenodd" clip-rule="evenodd" fill="#FCB331" width="0.796" height="103.311"/>
			
				<rect x="57.356" y="-3.738" transform="matrix(-0.6467 -0.7627 0.7627 -0.6467 58.5584 122.9562)" clip-path="url(#SVGID_2_)" fill-rule="evenodd" clip-rule="evenodd" fill="#FCB331" width="0.796" height="103.31"/>
			
				<rect x="57.699" y="-3.333" transform="matrix(-0.6467 -0.7627 0.7627 -0.6467 58.8142 123.8842)" clip-path="url(#SVGID_2_)" fill-rule="evenodd" clip-rule="evenodd" fill="#FCB231" width="0.796" height="103.311"/>
			
				<rect x="58.042" y="-2.929" transform="matrix(-0.6467 -0.7627 0.7627 -0.6467 59.0709 124.8121)" clip-path="url(#SVGID_2_)" fill-rule="evenodd" clip-rule="evenodd" fill="#FCB230" width="0.796" height="103.311"/>
			
				<rect x="58.385" y="-2.524" transform="matrix(-0.647 -0.7625 0.7625 -0.647 59.3576 125.7397)" clip-path="url(#SVGID_2_)" fill-rule="evenodd" clip-rule="evenodd" fill="#FCB230" width="0.795" height="103.311"/>
			
				<rect x="58.728" y="-2.12" transform="matrix(-0.6467 -0.7627 0.7627 -0.6467 59.5833 126.6672)" clip-path="url(#SVGID_2_)" fill-rule="evenodd" clip-rule="evenodd" fill="#FCB230" width="0.796" height="103.31"/>
			
				<rect x="59.072" y="-1.715" transform="matrix(-0.6463 -0.7631 0.7631 -0.6463 59.7981 127.5963)" clip-path="url(#SVGID_2_)" fill-rule="evenodd" clip-rule="evenodd" fill="#FCB22F" width="0.795" height="103.311"/>
			
				<rect x="59.414" y="-1.311" transform="matrix(-0.6467 -0.7627 0.7627 -0.6467 60.0965 128.5235)" clip-path="url(#SVGID_2_)" fill-rule="evenodd" clip-rule="evenodd" fill="#FCB22F" width="0.796" height="103.311"/>
			
				<rect x="59.757" y="-0.906" transform="matrix(-0.6467 -0.7627 0.7627 -0.6467 60.3524 129.4511)" clip-path="url(#SVGID_2_)" fill-rule="evenodd" clip-rule="evenodd" fill="#FCB22F" width="0.796" height="103.31"/>
			
				<rect x="60.1" y="-0.501" transform="matrix(-0.6467 -0.7627 0.7627 -0.6467 60.6086 130.3793)" clip-path="url(#SVGID_2_)" fill-rule="evenodd" clip-rule="evenodd" fill="#FCB22E" width="0.796" height="103.311"/>
			
				<rect x="60.444" y="-0.097" transform="matrix(-0.646 -0.7633 0.7633 -0.646 60.7906 131.3073)" clip-path="url(#SVGID_2_)" fill-rule="evenodd" clip-rule="evenodd" fill="#FCB22E" width="0.795" height="103.31"/>
			
				<rect x="60.786" y="0.307" transform="matrix(-0.6467 -0.7627 0.7627 -0.6467 61.1218 132.2347)" clip-path="url(#SVGID_2_)" fill-rule="evenodd" clip-rule="evenodd" fill="#FCB22E" width="0.796" height="103.311"/>
			
				<rect x="61.129" y="0.712" transform="matrix(-0.6467 -0.7627 0.7627 -0.6467 61.3773 133.1631)" clip-path="url(#SVGID_2_)" fill-rule="evenodd" clip-rule="evenodd" fill="#FCB12D" width="0.796" height="103.311"/>
			
				<rect x="61.472" y="1.117" transform="matrix(-0.6467 -0.7627 0.7627 -0.6467 61.6332 134.0907)" clip-path="url(#SVGID_2_)" fill-rule="evenodd" clip-rule="evenodd" fill="#FCB12D" width="0.796" height="103.311"/>
			
				<rect x="61.815" y="1.521" transform="matrix(-0.6467 -0.7627 0.7627 -0.6467 61.8897 135.0181)" clip-path="url(#SVGID_2_)" fill-rule="evenodd" clip-rule="evenodd" fill="#FCB12D" width="0.796" height="103.31"/>
			
				<rect x="62.158" y="1.926" transform="matrix(-0.647 -0.7625 0.7625 -0.647 62.1791 135.9463)" clip-path="url(#SVGID_2_)" fill-rule="evenodd" clip-rule="evenodd" fill="#FCB12C" width="0.795" height="103.311"/>
			
				<rect x="62.501" y="2.331" transform="matrix(-0.647 -0.7625 0.7625 -0.647 62.4353 136.8749)" clip-path="url(#SVGID_2_)" fill-rule="evenodd" clip-rule="evenodd" fill="#FCB12C" width="0.795" height="103.311"/>
			
				<rect x="62.844" y="2.735" transform="matrix(-0.6467 -0.7627 0.7627 -0.6467 62.6585 137.8019)" clip-path="url(#SVGID_2_)" fill-rule="evenodd" clip-rule="evenodd" fill="#FCB12C" width="0.796" height="103.311"/>
			
				<rect x="63.188" y="3.14" transform="matrix(-0.646 -0.7633 0.7633 -0.646 62.8372 138.729)" clip-path="url(#SVGID_2_)" fill-rule="evenodd" clip-rule="evenodd" fill="#FCB12B" width="0.795" height="103.31"/>
			
				<rect x="63.53" y="3.544" transform="matrix(-0.6467 -0.7627 0.7627 -0.6467 63.1717 139.6583)" clip-path="url(#SVGID_2_)" fill-rule="evenodd" clip-rule="evenodd" fill="#FCB12B" width="0.796" height="103.311"/>
			
				<rect x="63.873" y="3.949" transform="matrix(-0.6467 -0.7627 0.7627 -0.6467 63.4276 140.5859)" clip-path="url(#SVGID_2_)" fill-rule="evenodd" clip-rule="evenodd" fill="#FCB12B" width="0.796" height="103.311"/>
			
				<rect x="64.216" y="4.353" transform="matrix(-0.6467 -0.7627 0.7627 -0.6467 63.6841 141.5133)" clip-path="url(#SVGID_2_)" fill-rule="evenodd" clip-rule="evenodd" fill="#FDB02A" width="0.796" height="103.31"/>
			
				<rect x="64.559" y="4.758" transform="matrix(-0.6467 -0.7627 0.7627 -0.6467 63.9397 142.4417)" clip-path="url(#SVGID_2_)" fill-rule="evenodd" clip-rule="evenodd" fill="#FDB02A" width="0.796" height="103.311"/>
			
				<rect x="64.902" y="5.163" transform="matrix(-0.6467 -0.7627 0.7627 -0.6467 64.1968 143.3699)" clip-path="url(#SVGID_2_)" fill-rule="evenodd" clip-rule="evenodd" fill="#FDB02A" width="0.796" height="103.311"/>
			
				<rect x="65.245" y="5.567" transform="matrix(-0.6467 -0.7627 0.7627 -0.6467 64.4529 144.2971)" clip-path="url(#SVGID_2_)" fill-rule="evenodd" clip-rule="evenodd" fill="#FDB029" width="0.796" height="103.311"/>
			
				<rect x="65.588" y="5.971" transform="matrix(-0.6467 -0.7627 0.7627 -0.6467 64.709 145.2243)" clip-path="url(#SVGID_2_)" fill-rule="evenodd" clip-rule="evenodd" fill="#FDB029" width="0.796" height="103.311"/>
			
				<rect x="65.931" y="6.376" transform="matrix(-0.6467 -0.7627 0.7627 -0.6467 64.9649 146.1529)" clip-path="url(#SVGID_2_)" fill-rule="evenodd" clip-rule="evenodd" fill="#FDB029" width="0.796" height="103.311"/>
			
				<rect x="66.275" y="6.781" transform="matrix(-0.646 -0.7633 0.7633 -0.646 65.1386 147.0795)" clip-path="url(#SVGID_2_)" fill-rule="evenodd" clip-rule="evenodd" fill="#FDB028" width="0.795" height="103.31"/>
			
				<rect x="66.617" y="7.185" transform="matrix(-0.6467 -0.7627 0.7627 -0.6467 65.4781 148.0083)" clip-path="url(#SVGID_2_)" fill-rule="evenodd" clip-rule="evenodd" fill="#FDB028" width="0.796" height="103.311"/>
			
				<rect x="66.96" y="7.59" transform="matrix(-0.6467 -0.7627 0.7627 -0.6467 65.7337 148.9367)" clip-path="url(#SVGID_2_)" fill-rule="evenodd" clip-rule="evenodd" fill="#FDB028" width="0.796" height="103.311"/>
			
				<rect x="67.304" y="7.995" transform="matrix(-0.6463 -0.7631 0.7631 -0.6463 65.9421 149.8639)" clip-path="url(#SVGID_2_)" fill-rule="evenodd" clip-rule="evenodd" fill="#FDAF27" width="0.795" height="103.311"/>
			
				<rect x="67.647" y="8.399" transform="matrix(-0.6467 -0.7627 0.7627 -0.6467 66.2473 150.7923)" clip-path="url(#SVGID_2_)" fill-rule="evenodd" clip-rule="evenodd" fill="#FDAF27" width="0.796" height="103.311"/>
			
				<rect x="67.989" y="8.804" transform="matrix(-0.6467 -0.7627 0.7627 -0.6467 66.5028 151.7207)" clip-path="url(#SVGID_2_)" fill-rule="evenodd" clip-rule="evenodd" fill="#FDAF27" width="0.796" height="103.311"/>
			
				<rect x="68.332" y="9.208" transform="matrix(-0.6467 -0.7627 0.7627 -0.6467 66.7593 152.6481)" clip-path="url(#SVGID_2_)" fill-rule="evenodd" clip-rule="evenodd" fill="#FDAF26" width="0.796" height="103.311"/>
			
				<rect x="68.675" y="9.613" transform="matrix(-0.6467 -0.7627 0.7627 -0.6467 67.0152 153.5757)" clip-path="url(#SVGID_2_)" fill-rule="evenodd" clip-rule="evenodd" fill="#FDAF26" width="0.796" height="103.31"/>
			
				<rect x="69.019" y="10.018" transform="matrix(-0.647 -0.7625 0.7625 -0.647 67.3092 154.5047)" clip-path="url(#SVGID_2_)" fill-rule="evenodd" clip-rule="evenodd" fill="#FDAF26" width="0.795" height="103.311"/>
			
				<rect x="69.361" y="10.422" transform="matrix(-0.6467 -0.7627 0.7627 -0.6467 67.5281 155.4319)" clip-path="url(#SVGID_2_)" fill-rule="evenodd" clip-rule="evenodd" fill="#FDAF25" width="0.796" height="103.311"/>
			
				<rect x="69.704" y="10.826" transform="matrix(-0.6467 -0.7627 0.7627 -0.6467 67.7842 156.3591)" clip-path="url(#SVGID_2_)" fill-rule="evenodd" clip-rule="evenodd" fill="#FDAF25" width="0.796" height="103.311"/>
			
				<rect x="70.047" y="11.231" transform="matrix(-0.6467 -0.7627 0.7627 -0.6467 68.0405 157.2869)" clip-path="url(#SVGID_2_)" fill-rule="evenodd" clip-rule="evenodd" fill="#FDAF25" width="0.796" height="103.31"/>
			
				<rect x="70.391" y="11.636" transform="matrix(-0.646 -0.7633 0.7633 -0.646 68.2083 158.2125)" clip-path="url(#SVGID_2_)" fill-rule="evenodd" clip-rule="evenodd" fill="#FDAF24" width="0.795" height="103.31"/>
			
				<rect x="70.733" y="12.04" transform="matrix(-0.6467 -0.7627 0.7627 -0.6467 68.5533 159.1431)" clip-path="url(#SVGID_2_)" fill-rule="evenodd" clip-rule="evenodd" fill="#FDAE24" width="0.796" height="103.311"/>
			
				<rect x="71.076" y="12.445" transform="matrix(-0.6467 -0.7627 0.7627 -0.6467 68.8092 160.0707)" clip-path="url(#SVGID_2_)" fill-rule="evenodd" clip-rule="evenodd" fill="#FDAE24" width="0.796" height="103.311"/>
			
				<rect x="71.42" y="12.85" transform="matrix(-0.646 -0.7633 0.7633 -0.646 68.976 160.9962)" clip-path="url(#SVGID_2_)" fill-rule="evenodd" clip-rule="evenodd" fill="#FDAE23" width="0.795" height="103.31"/>
			
				<rect x="71.763" y="13.254" transform="matrix(-0.6467 -0.7627 0.7627 -0.6467 69.3225 161.927)" clip-path="url(#SVGID_2_)" fill-rule="evenodd" clip-rule="evenodd" fill="#FDAE23" width="0.796" height="103.311"/>
			
				<rect x="72.106" y="13.659" transform="matrix(-0.6467 -0.7627 0.7627 -0.6467 69.5786 162.8542)" clip-path="url(#SVGID_2_)" fill-rule="evenodd" clip-rule="evenodd" fill="#FDAE23" width="0.796" height="103.311"/>
			
				<rect x="72.449" y="14.064" transform="matrix(-0.647 -0.7625 0.7625 -0.647 69.8736 163.7836)" clip-path="url(#SVGID_2_)" fill-rule="evenodd" clip-rule="evenodd" fill="#FDAE22" width="0.795" height="103.31"/>
			
				<rect x="72.791" y="14.468" transform="matrix(-0.6467 -0.7627 0.7627 -0.6467 70.0908 164.7097)" clip-path="url(#SVGID_2_)" fill-rule="evenodd" clip-rule="evenodd" fill="#FDAE22" width="0.796" height="103.31"/>
			
				<rect x="73.135" y="14.872" transform="matrix(-0.6467 -0.7627 0.7627 -0.6467 70.3473 165.638)" clip-path="url(#SVGID_2_)" fill-rule="evenodd" clip-rule="evenodd" fill="#FDAE22" width="0.796" height="103.311"/>
			
				<rect x="73.478" y="15.277" transform="matrix(-0.6467 -0.7627 0.7627 -0.6467 70.6036 166.5658)" clip-path="url(#SVGID_2_)" fill-rule="evenodd" clip-rule="evenodd" fill="#FDAE21" width="0.796" height="103.311"/>
			
				<rect x="73.82" y="15.682" transform="matrix(-0.6467 -0.7627 0.7627 -0.6467 70.8595 167.4934)" clip-path="url(#SVGID_2_)" fill-rule="evenodd" clip-rule="evenodd" fill="#FDAD21" width="0.796" height="103.31"/>
			
				<rect x="74.163" y="16.086" transform="matrix(-0.6467 -0.7627 0.7627 -0.6467 71.116 168.4208)" clip-path="url(#SVGID_2_)" fill-rule="evenodd" clip-rule="evenodd" fill="#FDAD21" width="0.796" height="103.31"/>
			
				<rect x="74.507" y="16.491" transform="matrix(-0.646 -0.7633 0.7633 -0.646 71.2776 169.3463)" clip-path="url(#SVGID_2_)" fill-rule="evenodd" clip-rule="evenodd" fill="#FDAD20" width="0.795" height="103.31"/>
			
				<rect x="74.85" y="16.895" transform="matrix(-0.6467 -0.7627 0.7627 -0.6467 71.6289 170.277)" clip-path="url(#SVGID_2_)" fill-rule="evenodd" clip-rule="evenodd" fill="#FDAD20" width="0.796" height="103.311"/>
			
				<rect x="75.192" y="17.3" transform="matrix(-0.6467 -0.7627 0.7627 -0.6467 71.8848 171.2046)" clip-path="url(#SVGID_2_)" fill-rule="evenodd" clip-rule="evenodd" fill="#FDAD20" width="0.796" height="103.31"/>
			
				<rect x="75.536" y="17.705" transform="matrix(-0.646 -0.7633 0.7633 -0.646 72.0455 172.1296)" clip-path="url(#SVGID_2_)" fill-rule="evenodd" clip-rule="evenodd" fill="#FDAD1F" width="0.795" height="103.311"/>
			
				<rect x="75.879" y="18.109" transform="matrix(-0.6467 -0.7627 0.7627 -0.6467 72.398 173.061)" clip-path="url(#SVGID_2_)" fill-rule="evenodd" clip-rule="evenodd" fill="#FDAD1F" width="0.796" height="103.311"/>
			
				<rect x="76.222" y="18.514" transform="matrix(-0.647 -0.7625 0.7625 -0.647 72.6952 173.9902)" clip-path="url(#SVGID_2_)" fill-rule="evenodd" clip-rule="evenodd" fill="#FDAD1F" width="0.795" height="103.311"/>
			
				<rect x="76.565" y="18.918" transform="matrix(-0.6467 -0.7627 0.7627 -0.6467 72.9101 174.9168)" clip-path="url(#SVGID_2_)" fill-rule="evenodd" clip-rule="evenodd" fill="#FDAD1E" width="0.796" height="103.311"/>
			
				<rect x="76.908" y="19.323" transform="matrix(-0.6467 -0.7627 0.7627 -0.6467 73.166 175.8444)" clip-path="url(#SVGID_2_)" fill-rule="evenodd" clip-rule="evenodd" fill="#FDAD1E" width="0.796" height="103.31"/>
			
				<rect x="77.251" y="19.727" transform="matrix(-0.646 -0.7633 0.7633 -0.646 73.3242 176.768)" clip-path="url(#SVGID_2_)" fill-rule="evenodd" clip-rule="evenodd" fill="#FDAC1E" width="0.795" height="103.31"/>
			
				<rect x="77.594" y="20.132" transform="matrix(-0.6467 -0.7627 0.7627 -0.6467 73.6792 177.6998)" clip-path="url(#SVGID_2_)" fill-rule="evenodd" clip-rule="evenodd" fill="#FDAC1D" width="0.796" height="103.31"/>
			
				<rect x="77.937" y="20.537" transform="matrix(-0.6467 -0.7627 0.7627 -0.6467 73.9347 178.6282)" clip-path="url(#SVGID_2_)" fill-rule="evenodd" clip-rule="evenodd" fill="#FDAC1D" width="0.796" height="103.311"/>
			
				<rect x="78.28" y="20.941" transform="matrix(-0.6467 -0.7627 0.7627 -0.6467 74.1912 179.5556)" clip-path="url(#SVGID_2_)" fill-rule="evenodd" clip-rule="evenodd" fill="#FDAC1D" width="0.796" height="103.31"/>
			
				<rect x="78.623" y="21.346" transform="matrix(-0.646 -0.7633 0.7633 -0.646 74.3475 180.4789)" clip-path="url(#SVGID_2_)" fill-rule="evenodd" clip-rule="evenodd" fill="#FDAC1C" width="0.795" height="103.31"/>
			
				<rect x="78.966" y="21.75" transform="matrix(-0.6467 -0.7627 0.7627 -0.6467 74.7041 181.4118)" clip-path="url(#SVGID_2_)" fill-rule="evenodd" clip-rule="evenodd" fill="#FDAC1C" width="0.796" height="103.311"/>
			
				<rect x="79.309" y="22.155" transform="matrix(-0.6467 -0.7627 0.7627 -0.6467 74.96 182.3394)" clip-path="url(#SVGID_2_)" fill-rule="evenodd" clip-rule="evenodd" fill="#FDAC1C" width="0.796" height="103.311"/>
			
				<rect x="79.652" y="22.559" transform="matrix(-0.6467 -0.7627 0.7627 -0.6467 75.2165 183.2668)" clip-path="url(#SVGID_2_)" fill-rule="evenodd" clip-rule="evenodd" fill="#FDAC1B" width="0.796" height="103.31"/>
			
				<rect x="79.995" y="22.964" transform="matrix(-0.6467 -0.7627 0.7627 -0.6467 75.4732 184.1958)" clip-path="url(#SVGID_2_)" fill-rule="evenodd" clip-rule="evenodd" fill="#FDAC1B" width="0.796" height="103.311"/>
			
				<rect x="80.338" y="23.369" transform="matrix(-0.6467 -0.7627 0.7627 -0.6467 75.7291 185.1234)" clip-path="url(#SVGID_2_)" fill-rule="evenodd" clip-rule="evenodd" fill="#FDAB1B" width="0.796" height="103.311"/>
			
				<rect x="80.681" y="23.773" transform="matrix(-0.6467 -0.7627 0.7627 -0.6467 75.9852 186.0506)" clip-path="url(#SVGID_2_)" fill-rule="evenodd" clip-rule="evenodd" fill="#FDAB1A" width="0.796" height="103.311"/>
			
				<rect x="81.024" y="24.178" transform="matrix(-0.6467 -0.7627 0.7627 -0.6467 76.2416 186.9784)" clip-path="url(#SVGID_2_)" fill-rule="evenodd" clip-rule="evenodd" fill="#FDAB1A" width="0.796" height="103.31"/>
			
				<rect x="81.368" y="24.583" transform="matrix(-0.6463 -0.7631 0.7631 -0.6463 76.4376 187.9043)" clip-path="url(#SVGID_2_)" fill-rule="evenodd" clip-rule="evenodd" fill="#FDAB1A" width="0.795" height="103.311"/>
			
				<rect x="81.71" y="24.987" transform="matrix(-0.6467 -0.7627 0.7627 -0.6467 76.7544 188.8346)" clip-path="url(#SVGID_2_)" fill-rule="evenodd" clip-rule="evenodd" fill="#FEAB19" width="0.796" height="103.311"/>
			
				<rect x="82.053" y="25.391" transform="matrix(-0.6467 -0.7627 0.7627 -0.6467 77.0105 189.7618)" clip-path="url(#SVGID_2_)" fill-rule="evenodd" clip-rule="evenodd" fill="#FEAB19" width="0.796" height="103.311"/>
			
				<rect x="82.396" y="25.796" transform="matrix(-0.6467 -0.7627 0.7627 -0.6467 77.2664 190.6904)" clip-path="url(#SVGID_2_)" fill-rule="evenodd" clip-rule="evenodd" fill="#FEAB19" width="0.796" height="103.311"/>
			
				<rect x="82.739" y="26.201" transform="matrix(-0.646 -0.7633 0.7633 -0.646 77.4166 191.613)" clip-path="url(#SVGID_2_)" fill-rule="evenodd" clip-rule="evenodd" fill="#FEAB18" width="0.795" height="103.31"/>
			
				<rect x="83.082" y="26.605" transform="matrix(-0.6467 -0.7627 0.7627 -0.6467 77.7796 192.5457)" clip-path="url(#SVGID_2_)" fill-rule="evenodd" clip-rule="evenodd" fill="#FEAB18" width="0.796" height="103.311"/>
			
				<rect x="83.425" y="27.01" transform="matrix(-0.6467 -0.7627 0.7627 -0.6467 78.0352 193.4742)" clip-path="url(#SVGID_2_)" fill-rule="evenodd" clip-rule="evenodd" fill="#FEAB18" width="0.796" height="103.311"/>
			
				<rect x="83.768" y="27.414" transform="matrix(-0.6467 -0.7627 0.7627 -0.6467 78.2913 194.4014)" clip-path="url(#SVGID_2_)" fill-rule="evenodd" clip-rule="evenodd" fill="#FEAA17" width="0.796" height="103.311"/>
			
				<rect x="84.111" y="27.819" transform="matrix(-0.6467 -0.7627 0.7627 -0.6467 78.5488 195.3297)" clip-path="url(#SVGID_2_)" fill-rule="evenodd" clip-rule="evenodd" fill="#FEAA17" width="0.796" height="103.311"/>
			
				<rect x="84.454" y="28.224" transform="matrix(-0.6467 -0.7627 0.7627 -0.6467 78.8047 196.2573)" clip-path="url(#SVGID_2_)" fill-rule="evenodd" clip-rule="evenodd" fill="#FEAA17" width="0.796" height="103.31"/>
			
				<rect x="84.797" y="28.628" transform="matrix(-0.6467 -0.7627 0.7627 -0.6467 79.0604 197.1854)" clip-path="url(#SVGID_2_)" fill-rule="evenodd" clip-rule="evenodd" fill="#FEAA16" width="0.796" height="103.311"/>
			
				<rect x="85.14" y="29.033" transform="matrix(-0.647 -0.7625 0.7625 -0.647 79.3634 198.1156)" clip-path="url(#SVGID_2_)" fill-rule="evenodd" clip-rule="evenodd" fill="#FEAA16" width="0.795" height="103.311"/>
			
				<rect x="85.484" y="29.437" transform="matrix(-0.646 -0.7633 0.7633 -0.646 79.4632 199.0348)" clip-path="url(#SVGID_2_)" fill-rule="evenodd" clip-rule="evenodd" fill="#FEAA16" width="0.795" height="103.31"/>
			
				<rect x="85.826" y="29.842" transform="matrix(-0.6467 -0.7627 0.7627 -0.6467 79.8296 199.9693)" clip-path="url(#SVGID_2_)" fill-rule="evenodd" clip-rule="evenodd" fill="#FEAA15" width="0.796" height="103.311"/>
			
				<rect x="86.169" y="30.246" transform="matrix(-0.6467 -0.7627 0.7627 -0.6467 80.0857 200.8965)" clip-path="url(#SVGID_2_)" fill-rule="evenodd" clip-rule="evenodd" fill="#FEAA15" width="0.796" height="103.311"/>
			
				<rect x="86.512" y="30.651" transform="matrix(-0.6467 -0.7627 0.7627 -0.6467 80.342 201.8243)" clip-path="url(#SVGID_2_)" fill-rule="evenodd" clip-rule="evenodd" fill="#FEAA15" width="0.796" height="103.31"/>
			
				<rect x="86.856" y="31.056" transform="matrix(-0.646 -0.7633 0.7633 -0.646 80.4863 202.746)" clip-path="url(#SVGID_2_)" fill-rule="evenodd" clip-rule="evenodd" fill="#FEA914" width="0.795" height="103.31"/>
			
				<rect x="87.198" y="31.46" transform="matrix(-0.6467 -0.7627 0.7627 -0.6467 80.8548 203.6805)" clip-path="url(#SVGID_2_)" fill-rule="evenodd" clip-rule="evenodd" fill="#FEA914" width="0.796" height="103.311"/>
			
				<rect x="87.541" y="31.865" transform="matrix(-0.647 -0.7625 0.7625 -0.647 81.1588 204.6108)" clip-path="url(#SVGID_2_)" fill-rule="evenodd" clip-rule="evenodd" fill="#FEA914" width="0.795" height="103.311"/>
			
				<rect x="87.884" y="32.27" transform="matrix(-0.6467 -0.7627 0.7627 -0.6467 81.3667 205.5357)" clip-path="url(#SVGID_2_)" fill-rule="evenodd" clip-rule="evenodd" fill="#FEA913" width="0.796" height="103.31"/>
			
				<rect x="88.228" y="32.674" transform="matrix(-0.646 -0.7633 0.7633 -0.646 81.5096 206.4569)" clip-path="url(#SVGID_2_)" fill-rule="evenodd" clip-rule="evenodd" fill="#FEA913" width="0.795" height="103.31"/>
			
				<rect x="88.57" y="33.078" transform="matrix(-0.6467 -0.7627 0.7627 -0.6467 81.8801 207.3917)" clip-path="url(#SVGID_2_)" fill-rule="evenodd" clip-rule="evenodd" fill="#FEA913" width="0.796" height="103.311"/>
			
				<rect x="88.913" y="33.483" transform="matrix(-0.6467 -0.7627 0.7627 -0.6467 82.136 208.3193)" clip-path="url(#SVGID_2_)" fill-rule="evenodd" clip-rule="evenodd" fill="#FEA912" width="0.796" height="103.311"/>
			
				<rect x="89.256" y="33.888" transform="matrix(-0.6467 -0.7627 0.7627 -0.6467 82.3923 209.2471)" clip-path="url(#SVGID_2_)" fill-rule="evenodd" clip-rule="evenodd" fill="#FEA912" width="0.796" height="103.31"/>
			
				<rect x="89.6" y="34.292" transform="matrix(-0.646 -0.7633 0.7633 -0.646 82.5325 210.1686)" clip-path="url(#SVGID_2_)" fill-rule="evenodd" clip-rule="evenodd" fill="#FEA912" width="0.795" height="103.311"/>
			
				<rect x="89.942" y="34.697" transform="matrix(-0.6467 -0.7627 0.7627 -0.6467 82.9052 211.1033)" clip-path="url(#SVGID_2_)" fill-rule="evenodd" clip-rule="evenodd" fill="#FEA911" width="0.796" height="103.311"/>
			
				<rect x="90.285" y="35.102" transform="matrix(-0.647 -0.7625 0.7625 -0.647 83.2108 212.0339)" clip-path="url(#SVGID_2_)" fill-rule="evenodd" clip-rule="evenodd" fill="#FEA811" width="0.795" height="103.311"/>
			
				<rect x="90.628" y="35.506" transform="matrix(-0.6467 -0.7627 0.7627 -0.6467 83.4176 212.9583)" clip-path="url(#SVGID_2_)" fill-rule="evenodd" clip-rule="evenodd" fill="#FEA811" width="0.796" height="103.31"/>
			
				<rect x="90.971" y="35.911" transform="matrix(-0.6467 -0.7627 0.7627 -0.6467 83.6731 213.8867)" clip-path="url(#SVGID_2_)" fill-rule="evenodd" clip-rule="evenodd" fill="#FEA810" width="0.796" height="103.31"/>
			
				<rect x="91.315" y="36.315" transform="matrix(-0.6467 -0.7627 0.7627 -0.6467 83.9304 214.8145)" clip-path="url(#SVGID_2_)" fill-rule="evenodd" clip-rule="evenodd" fill="#FEA810" width="0.796" height="103.311"/>
			
				<rect x="91.657" y="36.72" transform="matrix(-0.6467 -0.7627 0.7627 -0.6467 84.1863 215.7421)" clip-path="url(#SVGID_2_)" fill-rule="evenodd" clip-rule="evenodd" fill="#FEA810" width="0.796" height="103.31"/>
			
				<rect x="92" y="37.124" transform="matrix(-0.6467 -0.7627 0.7627 -0.6467 84.442 216.6701)" clip-path="url(#SVGID_2_)" fill-rule="evenodd" clip-rule="evenodd" fill="#FEA80F" width="0.796" height="103.311"/>
			
				<rect x="92.344" y="37.529" transform="matrix(-0.646 -0.7633 0.7633 -0.646 84.5789 217.5907)" clip-path="url(#SVGID_2_)" fill-rule="evenodd" clip-rule="evenodd" fill="#FEA80F" width="0.795" height="103.31"/>
			
				<rect x="92.687" y="37.933" transform="matrix(-0.6467 -0.7627 0.7627 -0.6467 84.9557 218.5257)" clip-path="url(#SVGID_2_)" fill-rule="evenodd" clip-rule="evenodd" fill="#FEA80F" width="0.796" height="103.311"/>
			
				<rect x="93.029" y="38.338" transform="matrix(-0.6467 -0.7627 0.7627 -0.6467 85.2112 219.4541)" clip-path="url(#SVGID_2_)" fill-rule="evenodd" clip-rule="evenodd" fill="#FEA80E" width="0.796" height="103.311"/>
			
				<rect x="93.372" y="38.743" transform="matrix(-0.6467 -0.7627 0.7627 -0.6467 85.4675 220.3819)" clip-path="url(#SVGID_2_)" fill-rule="evenodd" clip-rule="evenodd" fill="#FEA70E" width="0.796" height="103.31"/>
			
				<rect x="93.716" y="39.147" transform="matrix(-0.646 -0.7633 0.7633 -0.646 85.6022 221.3015)" clip-path="url(#SVGID_2_)" fill-rule="evenodd" clip-rule="evenodd" fill="#FEA70E" width="0.795" height="103.31"/>
			
				<rect x="94.059" y="39.552" transform="matrix(-0.647 -0.7625 0.7625 -0.647 86.0327 222.2406)" clip-path="url(#SVGID_2_)" fill-rule="evenodd" clip-rule="evenodd" fill="#FEA70D" width="0.795" height="103.311"/>
			
				<rect x="94.401" y="39.957" transform="matrix(-0.6467 -0.7627 0.7627 -0.6467 86.2363 223.1657)" clip-path="url(#SVGID_2_)" fill-rule="evenodd" clip-rule="evenodd" fill="#FEA70D" width="0.796" height="103.311"/>
			
				<rect x="94.744" y="40.361" transform="matrix(-0.6467 -0.7627 0.7627 -0.6467 86.4928 224.0931)" clip-path="url(#SVGID_2_)" fill-rule="evenodd" clip-rule="evenodd" fill="#FEA70D" width="0.796" height="103.31"/>
			
				<rect x="95.087" y="40.766" transform="matrix(-0.6467 -0.7627 0.7627 -0.6467 86.7489 225.0203)" clip-path="url(#SVGID_2_)" fill-rule="evenodd" clip-rule="evenodd" fill="#FEA70C" width="0.796" height="103.31"/>
			
				<rect x="95.43" y="41.17" transform="matrix(-0.6467 -0.7627 0.7627 -0.6467 87.0052 225.9491)" clip-path="url(#SVGID_2_)" fill-rule="evenodd" clip-rule="evenodd" fill="#FEA70C" width="0.796" height="103.311"/>
			
				<rect x="95.774" y="41.575" transform="matrix(-0.6467 -0.7627 0.7627 -0.6467 87.2615 226.8769)" clip-path="url(#SVGID_2_)" fill-rule="evenodd" clip-rule="evenodd" fill="#FEA70C" width="0.796" height="103.311"/>
			
				<rect x="96.116" y="41.979" transform="matrix(-0.6467 -0.7627 0.7627 -0.6467 87.5176 227.8041)" clip-path="url(#SVGID_2_)" fill-rule="evenodd" clip-rule="evenodd" fill="#FEA70B" width="0.796" height="103.311"/>
			
				<rect x="96.46" y="42.384" transform="matrix(-0.646 -0.7633 0.7633 -0.646 87.6482 228.7245)" clip-path="url(#SVGID_2_)" fill-rule="evenodd" clip-rule="evenodd" fill="#FEA60B" width="0.795" height="103.311"/>
			
				<rect x="96.803" y="42.789" transform="matrix(-0.6467 -0.7627 0.7627 -0.6467 88.0307 229.6608)" clip-path="url(#SVGID_2_)" fill-rule="evenodd" clip-rule="evenodd" fill="#FEA60B" width="0.796" height="103.311"/>
			
				<rect x="97.146" y="43.193" transform="matrix(-0.6467 -0.7627 0.7627 -0.6467 88.2868 230.5881)" clip-path="url(#SVGID_2_)" fill-rule="evenodd" clip-rule="evenodd" fill="#FEA60A" width="0.796" height="103.311"/>
			
				<rect x="97.489" y="43.598" transform="matrix(-0.647 -0.7625 0.7625 -0.647 88.5972 231.5195)" clip-path="url(#SVGID_2_)" fill-rule="evenodd" clip-rule="evenodd" fill="#FEA60A" width="0.795" height="103.31"/>
			
				<rect x="97.832" y="44.002" transform="matrix(-0.646 -0.7633 0.7633 -0.646 88.6715 232.4353)" clip-path="url(#SVGID_2_)" fill-rule="evenodd" clip-rule="evenodd" fill="#FEA60A" width="0.795" height="103.311"/>
			
				<rect x="98.175" y="44.407" transform="matrix(-0.6467 -0.7627 0.7627 -0.6467 89.0559 233.372)" clip-path="url(#SVGID_2_)" fill-rule="evenodd" clip-rule="evenodd" fill="#FEA609" width="0.796" height="103.311"/>
			
				<rect x="98.596" y="44.642" transform="matrix(-0.6455 -0.7638 0.7638 -0.6455 88.982 233.8949)" clip-path="url(#SVGID_2_)" fill-rule="evenodd" clip-rule="evenodd" fill="#FEA609" width="0.351" height="103.31"/>
		</g>
	</g>
	<path fill-rule="evenodd" clip-rule="evenodd" fill="#FCFAE6" d="M86.715,55.547H42v-2.684h44.714V55.547L86.715,55.547
		L86.715,55.547z M81.971,71.175c-0.178,1.986-1.866,3.539-3.865,3.56l-27.508-0.003c-1.988-0.018-3.677-1.573-3.859-3.563
		l-1.103-13.6l37.446,0.001L81.971,71.175L81.971,71.175L81.971,71.175z M61.732,40.26c0.746,0.511,1.648,0.811,2.623,0.811
		c0.977,0,1.88-0.297,2.628-0.811l10.587,10.585H51.145L61.732,40.26L61.732,40.26L61.732,40.26z M64.357,33.72
		c1.479,0.004,2.667,1.193,2.673,2.67c-0.005,1.473-1.193,2.664-2.673,2.668c-1.472-0.002-2.661-1.195-2.666-2.668
		C61.693,34.913,62.882,33.724,64.357,33.72L64.357,33.72L64.357,33.72z M88.732,50.845h-8.45l0.072-0.065L68.365,38.785
		c0.421-0.703,0.678-1.52,0.678-2.398c0-2.591-2.095-4.686-4.688-4.686c-2.584,0-4.679,2.094-4.683,4.686
		c0.003,0.878,0.264,1.695,0.683,2.4L48.362,50.78l0.069,0.065h-8.446v1.008v5.714l3.623,0.001l1.126,13.773
		c0.279,3.04,2.817,5.373,5.856,5.407l27.533-0.001c3.046-0.034,5.579-2.367,5.858-5.4l1.123-13.78l3.628,0.001V50.845z"/>
</g>
</svg>
