<?xml version="1.0" encoding="utf-8"?>
<!-- Generator: Adobe Illustrator 15.1.0, SVG Export Plug-In . SVG Version: 6.00 Build 0)  -->
<!DOCTYPE svg PUBLIC "-//W3C//DTD SVG 1.1//EN" "http://www.w3.org/Graphics/SVG/1.1/DTD/svg11.dtd">
<svg version="1.1" id="_x31_" xmlns="http://www.w3.org/2000/svg" xmlns:xlink="http://www.w3.org/1999/xlink" x="0px" y="0px"
	 width="130.961px" height="130.961px" viewBox="0 0 130.961 130.961" enable-background="new 0 0 130.961 130.961"
	 xml:space="preserve">
<g>
	<path fill-rule="evenodd" clip-rule="evenodd" fill="#AD050B" d="M65.48,5.032c28.873,0,52.277,23.405,52.277,52.278
		c0,25.454-18.194,46.657-42.289,51.32l-3.587,6.212l-6.401,11.087l-6.401-11.087l-3.587-6.212
		c-24.094-4.663-42.289-25.866-42.289-51.32C13.203,28.438,36.608,5.032,65.48,5.032z"/>
	<g>
		<g>
			<defs>
				<path id="SVGID_1_" d="M65.48,103.197c25.425,0,46.165-20.737,46.165-46.166c0-25.427-20.737-46.165-46.165-46.165
					c-25.425,0-46.165,20.737-46.165,46.165C19.315,82.46,40.055,103.197,65.48,103.197z"/>
			</defs>
			<clipPath id="SVGID_2_">
				<use xlink:href="#SVGID_1_"  overflow="visible"/>
			</clipPath>
			
				<rect x="31.904" y="-34.103" transform="matrix(0.6473 0.7622 -0.7622 0.6473 24.6685 -18.2068)" clip-path="url(#SVGID_2_)" fill-rule="evenodd" clip-rule="evenodd" fill="#DA1D23" width="0.208" height="103.312"/>
			
				<rect x="31.629" y="-34.082" transform="matrix(-0.6467 -0.7627 0.7627 -0.6467 39.3361 53.368)" clip-path="url(#SVGID_2_)" fill-rule="evenodd" clip-rule="evenodd" fill="#D91D23" width="0.796" height="103.312"/>
			
				<rect x="31.972" y="-33.677" transform="matrix(-0.6467 -0.7627 0.7627 -0.6467 39.5918 54.296)" clip-path="url(#SVGID_2_)" fill-rule="evenodd" clip-rule="evenodd" fill="#D91C22" width="0.796" height="103.312"/>
			
				<rect x="32.315" y="-33.272" transform="matrix(-0.6467 -0.7627 0.7627 -0.6467 39.8479 55.2242)" clip-path="url(#SVGID_2_)" fill-rule="evenodd" clip-rule="evenodd" fill="#D91C22" width="0.796" height="103.312"/>
			
				<rect x="32.658" y="-32.868" transform="matrix(-0.6467 -0.7627 0.7627 -0.6467 40.104 56.1514)" clip-path="url(#SVGID_2_)" fill-rule="evenodd" clip-rule="evenodd" fill="#D91C22" width="0.796" height="103.312"/>
			
				<rect x="33.002" y="-32.463" transform="matrix(-0.646 -0.7633 0.7633 -0.646 40.3258 57.0857)" clip-path="url(#SVGID_2_)" fill-rule="evenodd" clip-rule="evenodd" fill="#D91C22" width="0.795" height="103.312"/>
			
				<rect x="33.344" y="-32.059" transform="matrix(-0.6467 -0.7627 0.7627 -0.6467 40.6168 58.0076)" clip-path="url(#SVGID_2_)" fill-rule="evenodd" clip-rule="evenodd" fill="#D81C22" width="0.796" height="103.313"/>
			
				<rect x="33.687" y="-31.654" transform="matrix(-0.6467 -0.7627 0.7627 -0.6467 40.8732 58.9354)" clip-path="url(#SVGID_2_)" fill-rule="evenodd" clip-rule="evenodd" fill="#D81C22" width="0.796" height="103.312"/>
			
				<rect x="34.03" y="-31.249" transform="matrix(-0.6467 -0.7627 0.7627 -0.6467 41.1293 59.8626)" clip-path="url(#SVGID_2_)" fill-rule="evenodd" clip-rule="evenodd" fill="#D81C22" width="0.796" height="103.312"/>
			
				<rect x="34.373" y="-30.845" transform="matrix(-0.6467 -0.7627 0.7627 -0.6467 41.3854 60.7908)" clip-path="url(#SVGID_2_)" fill-rule="evenodd" clip-rule="evenodd" fill="#D81C22" width="0.796" height="103.312"/>
			
				<rect x="34.716" y="-30.44" transform="matrix(-0.647 -0.7625 0.7625 -0.647 41.658 61.7166)" clip-path="url(#SVGID_2_)" fill-rule="evenodd" clip-rule="evenodd" fill="#D81C22" width="0.795" height="103.313"/>
			
				<rect x="35.059" y="-30.036" transform="matrix(-0.6467 -0.7627 0.7627 -0.6467 41.8984 62.6466)" clip-path="url(#SVGID_2_)" fill-rule="evenodd" clip-rule="evenodd" fill="#D71B21" width="0.796" height="103.312"/>
			
				<rect x="35.402" y="-29.631" transform="matrix(-0.6467 -0.7627 0.7627 -0.6467 42.1541 63.5746)" clip-path="url(#SVGID_2_)" fill-rule="evenodd" clip-rule="evenodd" fill="#D71B21" width="0.796" height="103.312"/>
			
				<rect x="35.745" y="-29.227" transform="matrix(-0.6467 -0.7627 0.7627 -0.6467 42.4109 64.5026)" clip-path="url(#SVGID_2_)" fill-rule="evenodd" clip-rule="evenodd" fill="#D71B21" width="0.796" height="103.313"/>
			
				<rect x="36.088" y="-28.822" transform="matrix(-0.6467 -0.7627 0.7627 -0.6467 42.6672 65.4304)" clip-path="url(#SVGID_2_)" fill-rule="evenodd" clip-rule="evenodd" fill="#D71B21" width="0.796" height="103.312"/>
			
				<rect x="36.431" y="-28.417" transform="matrix(-0.6467 -0.7627 0.7627 -0.6467 42.9237 66.3578)" clip-path="url(#SVGID_2_)" fill-rule="evenodd" clip-rule="evenodd" fill="#D71B21" width="0.796" height="103.312"/>
			
				<rect x="36.774" y="-28.013" transform="matrix(-0.6467 -0.7627 0.7627 -0.6467 43.1794 67.2858)" clip-path="url(#SVGID_2_)" fill-rule="evenodd" clip-rule="evenodd" fill="#D61B21" width="0.796" height="103.312"/>
			
				<rect x="37.118" y="-27.608" transform="matrix(-0.646 -0.7633 0.7633 -0.646 43.3949 68.2199)" clip-path="url(#SVGID_2_)" fill-rule="evenodd" clip-rule="evenodd" fill="#D61B21" width="0.795" height="103.312"/>
			
				<rect x="37.46" y="-27.204" transform="matrix(-0.6467 -0.7627 0.7627 -0.6467 43.6924 69.1415)" clip-path="url(#SVGID_2_)" fill-rule="evenodd" clip-rule="evenodd" fill="#D61B21" width="0.796" height="103.312"/>
			
				<rect x="37.803" y="-26.799" transform="matrix(-0.647 -0.7625 0.7625 -0.647 43.9665 70.0675)" clip-path="url(#SVGID_2_)" fill-rule="evenodd" clip-rule="evenodd" fill="#D61B21" width="0.795" height="103.312"/>
			
				<rect x="38.146" y="-26.395" transform="matrix(-0.6467 -0.7627 0.7627 -0.6467 44.2046 70.997)" clip-path="url(#SVGID_2_)" fill-rule="evenodd" clip-rule="evenodd" fill="#D61A20" width="0.796" height="103.312"/>
			
				<rect x="38.489" y="-25.99" transform="matrix(-0.6467 -0.7627 0.7627 -0.6467 44.4608 71.9252)" clip-path="url(#SVGID_2_)" fill-rule="evenodd" clip-rule="evenodd" fill="#D51A20" width="0.796" height="103.312"/>
			
				<rect x="38.832" y="-25.586" transform="matrix(-0.6467 -0.7627 0.7627 -0.6467 44.7175 72.8531)" clip-path="url(#SVGID_2_)" fill-rule="evenodd" clip-rule="evenodd" fill="#D51A20" width="0.796" height="103.313"/>
			
				<rect x="39.175" y="-25.181" transform="matrix(-0.6467 -0.7627 0.7627 -0.6467 44.9734 73.7807)" clip-path="url(#SVGID_2_)" fill-rule="evenodd" clip-rule="evenodd" fill="#D51A20" width="0.796" height="103.312"/>
			
				<rect x="39.518" y="-24.776" transform="matrix(-0.647 -0.7625 0.7625 -0.647 45.2485 74.7068)" clip-path="url(#SVGID_2_)" fill-rule="evenodd" clip-rule="evenodd" fill="#D51A20" width="0.795" height="103.312"/>
			
				<rect x="39.862" y="-24.372" transform="matrix(-0.646 -0.7633 0.7633 -0.646 45.4411 75.6414)" clip-path="url(#SVGID_2_)" fill-rule="evenodd" clip-rule="evenodd" fill="#D51A20" width="0.795" height="103.312"/>
			
				<rect x="40.204" y="-23.967" transform="matrix(-0.6467 -0.7627 0.7627 -0.6467 45.7425 76.5647)" clip-path="url(#SVGID_2_)" fill-rule="evenodd" clip-rule="evenodd" fill="#D41A20" width="0.796" height="103.312"/>
			
				<rect x="40.547" y="-23.562" transform="matrix(-0.6467 -0.7627 0.7627 -0.6467 45.999 77.4921)" clip-path="url(#SVGID_2_)" fill-rule="evenodd" clip-rule="evenodd" fill="#D41A20" width="0.796" height="103.312"/>
			
				<rect x="40.89" y="-23.158" transform="matrix(-0.6467 -0.7627 0.7627 -0.6467 46.2548 78.4201)" clip-path="url(#SVGID_2_)" fill-rule="evenodd" clip-rule="evenodd" fill="#D41A20" width="0.796" height="103.312"/>
			
				<rect x="41.233" y="-22.753" transform="matrix(-0.647 -0.7625 0.7625 -0.647 46.5309 79.3464)" clip-path="url(#SVGID_2_)" fill-rule="evenodd" clip-rule="evenodd" fill="#D41A20" width="0.795" height="103.312"/>
			
				<rect x="41.576" y="-22.349" transform="matrix(-0.6467 -0.7627 0.7627 -0.6467 46.7678 80.2759)" clip-path="url(#SVGID_2_)" fill-rule="evenodd" clip-rule="evenodd" fill="#D4191F" width="0.796" height="103.312"/>
			
				<rect x="41.92" y="-21.944" transform="matrix(-0.6467 -0.7627 0.7627 -0.6467 47.0241 81.2037)" clip-path="url(#SVGID_2_)" fill-rule="evenodd" clip-rule="evenodd" fill="#D3191F" width="0.796" height="103.312"/>
			
				<rect x="42.262" y="-21.54" transform="matrix(-0.6467 -0.7627 0.7627 -0.6467 47.28 82.1313)" clip-path="url(#SVGID_2_)" fill-rule="evenodd" clip-rule="evenodd" fill="#D3191F" width="0.796" height="103.312"/>
			
				<rect x="42.605" y="-21.135" transform="matrix(-0.6467 -0.7627 0.7627 -0.6467 47.5361 83.0595)" clip-path="url(#SVGID_2_)" fill-rule="evenodd" clip-rule="evenodd" fill="#D3191F" width="0.796" height="103.312"/>
			
				<rect x="42.949" y="-20.73" transform="matrix(-0.646 -0.7633 0.7633 -0.646 47.7433 83.9912)" clip-path="url(#SVGID_2_)" fill-rule="evenodd" clip-rule="evenodd" fill="#D3191F" width="0.795" height="103.312"/>
			
				<rect x="43.291" y="-20.326" transform="matrix(-0.6467 -0.7627 0.7627 -0.6467 48.0488 84.9151)" clip-path="url(#SVGID_2_)" fill-rule="evenodd" clip-rule="evenodd" fill="#D3191F" width="0.796" height="103.312"/>
			
				<rect x="43.634" y="-19.921" transform="matrix(-0.6467 -0.7627 0.7627 -0.6467 48.3049 85.8433)" clip-path="url(#SVGID_2_)" fill-rule="evenodd" clip-rule="evenodd" fill="#D2191F" width="0.796" height="103.312"/>
			
				<rect x="43.978" y="-19.517" transform="matrix(-0.646 -0.7633 0.7633 -0.646 48.5104 86.7752)" clip-path="url(#SVGID_2_)" fill-rule="evenodd" clip-rule="evenodd" fill="#D2191F" width="0.795" height="103.312"/>
			
				<rect x="44.321" y="-19.112" transform="matrix(-0.6467 -0.7627 0.7627 -0.6467 48.8181 87.6987)" clip-path="url(#SVGID_2_)" fill-rule="evenodd" clip-rule="evenodd" fill="#D2191F" width="0.796" height="103.313"/>
			
				<rect x="44.664" y="-18.707" transform="matrix(-0.647 -0.7625 0.7625 -0.647 49.0963 88.6253)" clip-path="url(#SVGID_2_)" fill-rule="evenodd" clip-rule="evenodd" fill="#D2181E" width="0.795" height="103.312"/>
			
				<rect x="45.006" y="-18.303" transform="matrix(-0.6467 -0.7627 0.7627 -0.6467 49.3303 89.5541)" clip-path="url(#SVGID_2_)" fill-rule="evenodd" clip-rule="evenodd" fill="#D2181E" width="0.796" height="103.312"/>
			
				<rect x="45.349" y="-17.898" transform="matrix(-0.6467 -0.7627 0.7627 -0.6467 49.5865 90.4823)" clip-path="url(#SVGID_2_)" fill-rule="evenodd" clip-rule="evenodd" fill="#D1181E" width="0.796" height="103.312"/>
			
				<rect x="45.693" y="-17.494" transform="matrix(-0.6467 -0.7627 0.7627 -0.6467 49.8432 91.4103)" clip-path="url(#SVGID_2_)" fill-rule="evenodd" clip-rule="evenodd" fill="#D1181E" width="0.796" height="103.312"/>
			
				<rect x="46.036" y="-17.089" transform="matrix(-0.6467 -0.7627 0.7627 -0.6467 50.0995 92.3381)" clip-path="url(#SVGID_2_)" fill-rule="evenodd" clip-rule="evenodd" fill="#D1181E" width="0.796" height="103.312"/>
			
				<rect x="46.378" y="-16.684" transform="matrix(-0.6467 -0.7627 0.7627 -0.6467 50.3552 93.2661)" clip-path="url(#SVGID_2_)" fill-rule="evenodd" clip-rule="evenodd" fill="#D1181E" width="0.796" height="103.312"/>
			
				<rect x="46.721" y="-16.28" transform="matrix(-0.6467 -0.7627 0.7627 -0.6467 50.6111 94.1937)" clip-path="url(#SVGID_2_)" fill-rule="evenodd" clip-rule="evenodd" fill="#D1181E" width="0.796" height="103.312"/>
			
				<rect x="47.065" y="-15.875" transform="matrix(-0.646 -0.7633 0.7633 -0.646 50.8128 95.1246)" clip-path="url(#SVGID_2_)" fill-rule="evenodd" clip-rule="evenodd" fill="#D0181E" width="0.795" height="103.312"/>
			
				<rect x="47.408" y="-15.471" transform="matrix(-0.6467 -0.7627 0.7627 -0.6467 51.124 96.0499)" clip-path="url(#SVGID_2_)" fill-rule="evenodd" clip-rule="evenodd" fill="#D0181E" width="0.796" height="103.313"/>
			
				<rect x="47.751" y="-15.066" transform="matrix(-0.6467 -0.7627 0.7627 -0.6467 51.3805 96.9773)" clip-path="url(#SVGID_2_)" fill-rule="evenodd" clip-rule="evenodd" fill="#D0181E" width="0.796" height="103.312"/>
			
				<rect x="48.094" y="-14.662" transform="matrix(-0.646 -0.7633 0.7633 -0.646 51.5801 97.9082)" clip-path="url(#SVGID_2_)" fill-rule="evenodd" clip-rule="evenodd" fill="#D0171D" width="0.795" height="103.312"/>
			
				<rect x="48.437" y="-14.257" transform="matrix(-0.647 -0.7625 0.7625 -0.647 51.9179 98.8318)" clip-path="url(#SVGID_2_)" fill-rule="evenodd" clip-rule="evenodd" fill="#D0171D" width="0.795" height="103.312"/>
			
				<rect x="48.78" y="-13.852" transform="matrix(-0.6467 -0.7627 0.7627 -0.6467 52.1496 99.7613)" clip-path="url(#SVGID_2_)" fill-rule="evenodd" clip-rule="evenodd" fill="#CF171D" width="0.796" height="103.312"/>
			
				<rect x="49.123" y="-13.448" transform="matrix(-0.6467 -0.7627 0.7627 -0.6467 52.4055 100.6889)" clip-path="url(#SVGID_2_)" fill-rule="evenodd" clip-rule="evenodd" fill="#CF171D" width="0.796" height="103.312"/>
			
				<rect x="49.466" y="-13.043" transform="matrix(-0.6467 -0.7627 0.7627 -0.6467 52.662 101.6163)" clip-path="url(#SVGID_2_)" fill-rule="evenodd" clip-rule="evenodd" fill="#CF171D" width="0.796" height="103.312"/>
			
				<rect x="49.809" y="-12.639" transform="matrix(-0.6467 -0.7627 0.7627 -0.6467 52.9184 102.5451)" clip-path="url(#SVGID_2_)" fill-rule="evenodd" clip-rule="evenodd" fill="#CF171D" width="0.796" height="103.313"/>
			
				<rect x="50.152" y="-12.234" transform="matrix(-0.6467 -0.7627 0.7627 -0.6467 53.1743 103.4727)" clip-path="url(#SVGID_2_)" fill-rule="evenodd" clip-rule="evenodd" fill="#CF171D" width="0.796" height="103.312"/>
			
				<rect x="50.495" y="-11.83" transform="matrix(-0.6467 -0.7627 0.7627 -0.6467 53.4308 104.4001)" clip-path="url(#SVGID_2_)" fill-rule="evenodd" clip-rule="evenodd" fill="#CE171D" width="0.796" height="103.312"/>
			
				<rect x="50.837" y="-11.425" transform="matrix(-0.6467 -0.7627 0.7627 -0.6467 53.6869 105.3273)" clip-path="url(#SVGID_2_)" fill-rule="evenodd" clip-rule="evenodd" fill="#CE171D" width="0.796" height="103.312"/>
			
				<rect x="51.181" y="-11.02" transform="matrix(-0.646 -0.7633 0.7633 -0.646 53.8822 106.2584)" clip-path="url(#SVGID_2_)" fill-rule="evenodd" clip-rule="evenodd" fill="#CE161C" width="0.795" height="103.312"/>
			
				<rect x="51.524" y="-10.616" transform="matrix(-0.6467 -0.7627 0.7627 -0.6467 54.1995 107.1839)" clip-path="url(#SVGID_2_)" fill-rule="evenodd" clip-rule="evenodd" fill="#CE161C" width="0.796" height="103.312"/>
			
				<rect x="51.867" y="-10.211" transform="matrix(-0.6467 -0.7627 0.7627 -0.6467 54.456 108.1112)" clip-path="url(#SVGID_2_)" fill-rule="evenodd" clip-rule="evenodd" fill="#CE161C" width="0.796" height="103.312"/>
			
				<rect x="52.21" y="-9.807" transform="matrix(-0.646 -0.7633 0.7633 -0.646 54.6498 109.0412)" clip-path="url(#SVGID_2_)" fill-rule="evenodd" clip-rule="evenodd" fill="#CD161C" width="0.795" height="103.312"/>
			
				<rect x="52.553" y="-9.402" transform="matrix(-0.6467 -0.7627 0.7627 -0.6467 54.9687 109.9678)" clip-path="url(#SVGID_2_)" fill-rule="evenodd" clip-rule="evenodd" fill="#CD161C" width="0.796" height="103.312"/>
			
				<rect x="52.896" y="-8.998" transform="matrix(-0.6467 -0.7627 0.7627 -0.6467 55.2252 110.8952)" clip-path="url(#SVGID_2_)" fill-rule="evenodd" clip-rule="evenodd" fill="#CD161C" width="0.796" height="103.312"/>
			
				<rect x="53.239" y="-8.593" transform="matrix(-0.6467 -0.7627 0.7627 -0.6467 55.4811 111.8228)" clip-path="url(#SVGID_2_)" fill-rule="evenodd" clip-rule="evenodd" fill="#CD161C" width="0.796" height="103.312"/>
			
				<rect x="53.582" y="-8.188" transform="matrix(-0.647 -0.7625 0.7625 -0.647 55.7645 112.7507)" clip-path="url(#SVGID_2_)" fill-rule="evenodd" clip-rule="evenodd" fill="#CD161C" width="0.795" height="103.312"/>
			
				<rect x="53.925" y="-7.784" transform="matrix(-0.6467 -0.7627 0.7627 -0.6467 55.9939 113.679)" clip-path="url(#SVGID_2_)" fill-rule="evenodd" clip-rule="evenodd" fill="#CC161C" width="0.796" height="103.312"/>
			
				<rect x="54.268" y="-7.38" transform="matrix(-0.6467 -0.7627 0.7627 -0.6467 56.25 114.6062)" clip-path="url(#SVGID_2_)" fill-rule="evenodd" clip-rule="evenodd" fill="#CC161C" width="0.796" height="103.312"/>
			
				<rect x="54.611" y="-6.975" transform="matrix(-0.6467 -0.7627 0.7627 -0.6467 56.5063 115.534)" clip-path="url(#SVGID_2_)" fill-rule="evenodd" clip-rule="evenodd" fill="#CC151B" width="0.796" height="103.312"/>
			
				<rect x="54.954" y="-6.57" transform="matrix(-0.6467 -0.7627 0.7627 -0.6467 56.7619 116.4624)" clip-path="url(#SVGID_2_)" fill-rule="evenodd" clip-rule="evenodd" fill="#CC151B" width="0.796" height="103.312"/>
			
				<rect x="55.298" y="-6.165" transform="matrix(-0.646 -0.7633 0.7633 -0.646 56.9518 117.3914)" clip-path="url(#SVGID_2_)" fill-rule="evenodd" clip-rule="evenodd" fill="#CC151B" width="0.795" height="103.312"/>
			
				<rect x="55.64" y="-5.761" transform="matrix(-0.6467 -0.7627 0.7627 -0.6467 57.2751 118.3178)" clip-path="url(#SVGID_2_)" fill-rule="evenodd" clip-rule="evenodd" fill="#CB151B" width="0.796" height="103.312"/>
			
				<rect x="55.983" y="-5.356" transform="matrix(-0.6467 -0.7627 0.7627 -0.6467 57.5312 119.246)" clip-path="url(#SVGID_2_)" fill-rule="evenodd" clip-rule="evenodd" fill="#CB151B" width="0.796" height="103.312"/>
			
				<rect x="56.327" y="-4.952" transform="matrix(-0.646 -0.7633 0.7633 -0.646 57.7191 120.175)" clip-path="url(#SVGID_2_)" fill-rule="evenodd" clip-rule="evenodd" fill="#CB151B" width="0.795" height="103.312"/>
			
				<rect x="56.669" y="-4.547" transform="matrix(-0.6467 -0.7627 0.7627 -0.6467 58.0443 121.1018)" clip-path="url(#SVGID_2_)" fill-rule="evenodd" clip-rule="evenodd" fill="#CB151B" width="0.796" height="103.312"/>
			
				<rect x="57.012" y="-4.142" transform="matrix(-0.6467 -0.7627 0.7627 -0.6467 58.3004 122.03)" clip-path="url(#SVGID_2_)" fill-rule="evenodd" clip-rule="evenodd" fill="#CB151B" width="0.796" height="103.312"/>
			
				<rect x="57.355" y="-3.738" transform="matrix(-0.6467 -0.7627 0.7627 -0.6467 58.5565 122.9572)" clip-path="url(#SVGID_2_)" fill-rule="evenodd" clip-rule="evenodd" fill="#CA151B" width="0.796" height="103.312"/>
			
				<rect x="57.698" y="-3.333" transform="matrix(-0.6467 -0.7627 0.7627 -0.6467 58.8128 123.885)" clip-path="url(#SVGID_2_)" fill-rule="evenodd" clip-rule="evenodd" fill="#CA141A" width="0.796" height="103.312"/>
			
				<rect x="58.041" y="-2.929" transform="matrix(-0.6467 -0.7627 0.7627 -0.6467 59.0695 124.813)" clip-path="url(#SVGID_2_)" fill-rule="evenodd" clip-rule="evenodd" fill="#CA141A" width="0.796" height="103.312"/>
			
				<rect x="58.384" y="-2.525" transform="matrix(-0.6467 -0.7627 0.7627 -0.6467 59.3252 125.741)" clip-path="url(#SVGID_2_)" fill-rule="evenodd" clip-rule="evenodd" fill="#CA141A" width="0.796" height="103.313"/>
			
				<rect x="58.727" y="-2.12" transform="matrix(-0.6467 -0.7627 0.7627 -0.6467 59.5815 126.6688)" clip-path="url(#SVGID_2_)" fill-rule="evenodd" clip-rule="evenodd" fill="#CA141A" width="0.796" height="103.312"/>
			
				<rect x="59.07" y="-1.715" transform="matrix(-0.6467 -0.7627 0.7627 -0.6467 59.8375 127.5964)" clip-path="url(#SVGID_2_)" fill-rule="evenodd" clip-rule="evenodd" fill="#C9141A" width="0.796" height="103.312"/>
			
				<rect x="59.414" y="-1.31" transform="matrix(-0.646 -0.7633 0.7633 -0.646 60.0211 128.5252)" clip-path="url(#SVGID_2_)" fill-rule="evenodd" clip-rule="evenodd" fill="#C9141A" width="0.795" height="103.312"/>
			
				<rect x="59.756" y="-0.906" transform="matrix(-0.6467 -0.7627 0.7627 -0.6467 60.3503 129.4526)" clip-path="url(#SVGID_2_)" fill-rule="evenodd" clip-rule="evenodd" fill="#C9141A" width="0.796" height="103.312"/>
			
				<rect x="60.099" y="-0.501" transform="matrix(-0.6467 -0.7627 0.7627 -0.6467 60.6066 130.3804)" clip-path="url(#SVGID_2_)" fill-rule="evenodd" clip-rule="evenodd" fill="#C9141A" width="0.796" height="103.312"/>
			
				<rect x="60.443" y="-0.097" transform="matrix(-0.646 -0.7633 0.7633 -0.646 60.7884 131.3087)" clip-path="url(#SVGID_2_)" fill-rule="evenodd" clip-rule="evenodd" fill="#C9141A" width="0.795" height="103.312"/>
			
				<rect x="60.785" y="0.308" transform="matrix(-0.6467 -0.7627 0.7627 -0.6467 61.1196 132.2362)" clip-path="url(#SVGID_2_)" fill-rule="evenodd" clip-rule="evenodd" fill="#C8141A" width="0.796" height="103.313"/>
			
				<rect x="61.128" y="0.712" transform="matrix(-0.6467 -0.7627 0.7627 -0.6467 61.3759 133.164)" clip-path="url(#SVGID_2_)" fill-rule="evenodd" clip-rule="evenodd" fill="#C81319" width="0.796" height="103.312"/>
			
				<rect x="61.471" y="1.117" transform="matrix(-0.6467 -0.7627 0.7627 -0.6467 61.6319 134.0916)" clip-path="url(#SVGID_2_)" fill-rule="evenodd" clip-rule="evenodd" fill="#C81319" width="0.796" height="103.312"/>
			
				<rect x="61.814" y="1.522" transform="matrix(-0.6467 -0.7627 0.7627 -0.6467 61.8876 135.0196)" clip-path="url(#SVGID_2_)" fill-rule="evenodd" clip-rule="evenodd" fill="#C81319" width="0.796" height="103.312"/>
			
				<rect x="62.158" y="1.926" transform="matrix(-0.6467 -0.7627 0.7627 -0.6467 62.1447 135.9478)" clip-path="url(#SVGID_2_)" fill-rule="evenodd" clip-rule="evenodd" fill="#C81319" width="0.796" height="103.312"/>
			
				<rect x="62.5" y="2.331" transform="matrix(-0.647 -0.7625 0.7625 -0.647 62.4335 136.8755)" clip-path="url(#SVGID_2_)" fill-rule="evenodd" clip-rule="evenodd" fill="#C71319" width="0.795" height="103.312"/>
			
				<rect x="62.843" y="2.735" transform="matrix(-0.6467 -0.7627 0.7627 -0.6467 62.6567 137.8036)" clip-path="url(#SVGID_2_)" fill-rule="evenodd" clip-rule="evenodd" fill="#C71319" width="0.796" height="103.312"/>
			
				<rect x="63.186" y="3.14" transform="matrix(-0.6467 -0.7627 0.7627 -0.6467 62.9126 138.7312)" clip-path="url(#SVGID_2_)" fill-rule="evenodd" clip-rule="evenodd" fill="#C71319" width="0.796" height="103.312"/>
			
				<rect x="63.529" y="3.545" transform="matrix(-0.6467 -0.7627 0.7627 -0.6467 63.1691 139.6586)" clip-path="url(#SVGID_2_)" fill-rule="evenodd" clip-rule="evenodd" fill="#C71319" width="0.796" height="103.312"/>
			
				<rect x="63.873" y="3.949" transform="matrix(-0.647 -0.7625 0.7625 -0.647 63.4592 140.5877)" clip-path="url(#SVGID_2_)" fill-rule="evenodd" clip-rule="evenodd" fill="#C71319" width="0.795" height="103.313"/>
			
				<rect x="64.215" y="4.354" transform="matrix(-0.6467 -0.7627 0.7627 -0.6467 63.682 141.5148)" clip-path="url(#SVGID_2_)" fill-rule="evenodd" clip-rule="evenodd" fill="#C61218" width="0.796" height="103.312"/>
			
				<rect x="64.558" y="4.758" transform="matrix(-0.6467 -0.7627 0.7627 -0.6467 63.9379 142.4424)" clip-path="url(#SVGID_2_)" fill-rule="evenodd" clip-rule="evenodd" fill="#C61218" width="0.796" height="103.312"/>
			
				<rect x="64.902" y="5.162" transform="matrix(-0.6467 -0.7627 0.7627 -0.6467 64.1952 143.3701)" clip-path="url(#SVGID_2_)" fill-rule="evenodd" clip-rule="evenodd" fill="#C61218" width="0.796" height="103.312"/>
			
				<rect x="65.245" y="5.567" transform="matrix(-0.6467 -0.7627 0.7627 -0.6467 64.4511 144.2987)" clip-path="url(#SVGID_2_)" fill-rule="evenodd" clip-rule="evenodd" fill="#C61218" width="0.796" height="103.312"/>
			
				<rect x="65.587" y="5.972" transform="matrix(-0.6467 -0.7627 0.7627 -0.6467 64.707 145.2263)" clip-path="url(#SVGID_2_)" fill-rule="evenodd" clip-rule="evenodd" fill="#C61218" width="0.796" height="103.312"/>
			
				<rect x="65.93" y="6.376" transform="matrix(-0.6467 -0.7627 0.7627 -0.6467 64.9632 146.1535)" clip-path="url(#SVGID_2_)" fill-rule="evenodd" clip-rule="evenodd" fill="#C51218" width="0.796" height="103.312"/>
			
				<rect x="66.274" y="6.781" transform="matrix(-0.6463 -0.7631 0.7631 -0.6463 65.172 147.0817)" clip-path="url(#SVGID_2_)" fill-rule="evenodd" clip-rule="evenodd" fill="#C51218" width="0.795" height="103.312"/>
			
				<rect x="66.617" y="7.186" transform="matrix(-0.6467 -0.7627 0.7627 -0.6467 65.4758 148.0101)" clip-path="url(#SVGID_2_)" fill-rule="evenodd" clip-rule="evenodd" fill="#C51218" width="0.796" height="103.312"/>
			
				<rect x="66.96" y="7.59" transform="matrix(-0.6467 -0.7627 0.7627 -0.6467 65.7323 148.9375)" clip-path="url(#SVGID_2_)" fill-rule="evenodd" clip-rule="evenodd" fill="#C51218" width="0.796" height="103.312"/>
			
				<rect x="67.302" y="7.995" transform="matrix(-0.6467 -0.7627 0.7627 -0.6467 65.9884 149.8647)" clip-path="url(#SVGID_2_)" fill-rule="evenodd" clip-rule="evenodd" fill="#C51117" width="0.796" height="103.312"/>
			
				<rect x="67.645" y="8.4" transform="matrix(-0.6467 -0.7627 0.7627 -0.6467 66.2443 150.7933)" clip-path="url(#SVGID_2_)" fill-rule="evenodd" clip-rule="evenodd" fill="#C41117" width="0.796" height="103.312"/>
			
				<rect x="67.989" y="8.804" transform="matrix(-0.6467 -0.7627 0.7627 -0.6467 66.5011 151.7213)" clip-path="url(#SVGID_2_)" fill-rule="evenodd" clip-rule="evenodd" fill="#C41117" width="0.796" height="103.312"/>
			
				<rect x="68.332" y="9.209" transform="matrix(-0.6467 -0.7627 0.7627 -0.6467 66.7576 152.6487)" clip-path="url(#SVGID_2_)" fill-rule="evenodd" clip-rule="evenodd" fill="#C41117" width="0.796" height="103.312"/>
			
				<rect x="68.674" y="9.613" transform="matrix(-0.6467 -0.7627 0.7627 -0.6467 67.0135 153.5763)" clip-path="url(#SVGID_2_)" fill-rule="evenodd" clip-rule="evenodd" fill="#C41117" width="0.796" height="103.312"/>
			
				<rect x="69.018" y="10.018" transform="matrix(-0.6467 -0.7627 0.7627 -0.6467 67.2698 154.5051)" clip-path="url(#SVGID_2_)" fill-rule="evenodd" clip-rule="evenodd" fill="#C41117" width="0.796" height="103.313"/>
			
				<rect x="69.361" y="10.422" transform="matrix(-0.6467 -0.7627 0.7627 -0.6467 67.5267 155.4327)" clip-path="url(#SVGID_2_)" fill-rule="evenodd" clip-rule="evenodd" fill="#C31117" width="0.796" height="103.312"/>
			
				<rect x="69.704" y="10.827" transform="matrix(-0.647 -0.7625 0.7625 -0.647 67.8199 156.3612)" clip-path="url(#SVGID_2_)" fill-rule="evenodd" clip-rule="evenodd" fill="#C31117" width="0.795" height="103.312"/>
			
				<rect x="70.046" y="11.232" transform="matrix(-0.6467 -0.7627 0.7627 -0.6467 68.0383 157.2883)" clip-path="url(#SVGID_2_)" fill-rule="evenodd" clip-rule="evenodd" fill="#C31117" width="0.796" height="103.312"/>
			
				<rect x="70.39" y="11.636" transform="matrix(-0.646 -0.7633 0.7633 -0.646 68.2065 158.2141)" clip-path="url(#SVGID_2_)" fill-rule="evenodd" clip-rule="evenodd" fill="#C31117" width="0.795" height="103.312"/>
			
				<rect x="70.733" y="12.04" transform="matrix(-0.6467 -0.7627 0.7627 -0.6467 68.5516 159.1437)" clip-path="url(#SVGID_2_)" fill-rule="evenodd" clip-rule="evenodd" fill="#C31016" width="0.796" height="103.312"/>
			
				<rect x="71.076" y="12.445" transform="matrix(-0.6467 -0.7627 0.7627 -0.6467 68.8079 160.0715)" clip-path="url(#SVGID_2_)" fill-rule="evenodd" clip-rule="evenodd" fill="#C21016" width="0.796" height="103.312"/>
			
				<rect x="71.419" y="12.85" transform="matrix(-0.647 -0.7625 0.7625 -0.647 69.1017 161.001)" clip-path="url(#SVGID_2_)" fill-rule="evenodd" clip-rule="evenodd" fill="#C21016" width="0.795" height="103.312"/>
			
				<rect x="71.762" y="13.255" transform="matrix(-0.6467 -0.7627 0.7627 -0.6467 69.3199 161.9273)" clip-path="url(#SVGID_2_)" fill-rule="evenodd" clip-rule="evenodd" fill="#C21016" width="0.796" height="103.312"/>
			
				<rect x="72.105" y="13.659" transform="matrix(-0.6467 -0.7627 0.7627 -0.6467 69.5766 162.8553)" clip-path="url(#SVGID_2_)" fill-rule="evenodd" clip-rule="evenodd" fill="#C21016" width="0.796" height="103.312"/>
			
				<rect x="72.448" y="14.064" transform="matrix(-0.6467 -0.7627 0.7627 -0.6467 69.8327 163.7835)" clip-path="url(#SVGID_2_)" fill-rule="evenodd" clip-rule="evenodd" fill="#C21016" width="0.796" height="103.312"/>
			
				<rect x="72.791" y="14.468" transform="matrix(-0.647 -0.7625 0.7625 -0.647 70.1278 164.7123)" clip-path="url(#SVGID_2_)" fill-rule="evenodd" clip-rule="evenodd" fill="#C11016" width="0.795" height="103.312"/>
			
				<rect x="73.134" y="14.872" transform="matrix(-0.647 -0.7625 0.7625 -0.647 70.3847 165.6404)" clip-path="url(#SVGID_2_)" fill-rule="evenodd" clip-rule="evenodd" fill="#C11016" width="0.795" height="103.313"/>
			
				<rect x="73.477" y="15.277" transform="matrix(-0.6467 -0.7627 0.7627 -0.6467 70.6015 166.5673)" clip-path="url(#SVGID_2_)" fill-rule="evenodd" clip-rule="evenodd" fill="#C11016" width="0.796" height="103.313"/>
			
				<rect x="73.82" y="15.682" transform="matrix(-0.6467 -0.7627 0.7627 -0.6467 70.858 167.4947)" clip-path="url(#SVGID_2_)" fill-rule="evenodd" clip-rule="evenodd" fill="#C10F15" width="0.796" height="103.312"/>
			
				<rect x="74.163" y="16.086" transform="matrix(-0.6467 -0.7627 0.7627 -0.6467 71.1139 168.4223)" clip-path="url(#SVGID_2_)" fill-rule="evenodd" clip-rule="evenodd" fill="#C10F15" width="0.796" height="103.312"/>
			
				<rect x="74.506" y="16.491" transform="matrix(-0.646 -0.7633 0.7633 -0.646 71.2762 169.3471)" clip-path="url(#SVGID_2_)" fill-rule="evenodd" clip-rule="evenodd" fill="#C00F15" width="0.795" height="103.311"/>
			
				<rect x="74.849" y="16.895" transform="matrix(-0.6467 -0.7627 0.7627 -0.6467 71.6267 170.2785)" clip-path="url(#SVGID_2_)" fill-rule="evenodd" clip-rule="evenodd" fill="#C00F15" width="0.796" height="103.313"/>
			
				<rect x="75.192" y="17.3" transform="matrix(-0.6467 -0.7627 0.7627 -0.6467 71.8831 171.2063)" clip-path="url(#SVGID_2_)" fill-rule="evenodd" clip-rule="evenodd" fill="#C00F15" width="0.796" height="103.312"/>
			
				<rect x="75.535" y="17.705" transform="matrix(-0.6467 -0.7627 0.7627 -0.6467 72.139 172.1339)" clip-path="url(#SVGID_2_)" fill-rule="evenodd" clip-rule="evenodd" fill="#C00F15" width="0.796" height="103.312"/>
			
				<rect x="75.878" y="18.11" transform="matrix(-0.6467 -0.7627 0.7627 -0.6467 72.3951 173.0621)" clip-path="url(#SVGID_2_)" fill-rule="evenodd" clip-rule="evenodd" fill="#C00F15" width="0.796" height="103.312"/>
			
				<rect x="76.221" y="18.514" transform="matrix(-0.647 -0.7625 0.7625 -0.647 72.693 173.9916)" clip-path="url(#SVGID_2_)" fill-rule="evenodd" clip-rule="evenodd" fill="#BF0F15" width="0.795" height="103.313"/>
			
				<rect x="76.564" y="18.919" transform="matrix(-0.647 -0.7625 0.7625 -0.647 72.9491 174.9193)" clip-path="url(#SVGID_2_)" fill-rule="evenodd" clip-rule="evenodd" fill="#BF0F15" width="0.795" height="103.312"/>
			
				<rect x="76.907" y="19.323" transform="matrix(-0.6467 -0.7627 0.7627 -0.6467 73.1638 175.8459)" clip-path="url(#SVGID_2_)" fill-rule="evenodd" clip-rule="evenodd" fill="#BF0F15" width="0.796" height="103.312"/>
			
				<rect x="77.25" y="19.728" transform="matrix(-0.646 -0.7633 0.7633 -0.646 73.322 176.7694)" clip-path="url(#SVGID_2_)" fill-rule="evenodd" clip-rule="evenodd" fill="#BF0E14" width="0.795" height="103.312"/>
			
				<rect x="77.593" y="20.132" transform="matrix(-0.6467 -0.7627 0.7627 -0.6467 73.6771 177.7012)" clip-path="url(#SVGID_2_)" fill-rule="evenodd" clip-rule="evenodd" fill="#BF0E14" width="0.796" height="103.312"/>
			
				<rect x="77.936" y="20.537" transform="matrix(-0.6467 -0.7627 0.7627 -0.6467 73.9334 178.629)" clip-path="url(#SVGID_2_)" fill-rule="evenodd" clip-rule="evenodd" fill="#BE0E14" width="0.796" height="103.312"/>
			
				<rect x="78.279" y="20.942" transform="matrix(-0.6467 -0.7627 0.7627 -0.6467 74.1891 179.5571)" clip-path="url(#SVGID_2_)" fill-rule="evenodd" clip-rule="evenodd" fill="#BE0E14" width="0.796" height="103.312"/>
			
				<rect x="78.623" y="21.346" transform="matrix(-0.646 -0.7633 0.7633 -0.646 74.3455 180.4809)" clip-path="url(#SVGID_2_)" fill-rule="evenodd" clip-rule="evenodd" fill="#BE0E14" width="0.795" height="103.312"/>
			
				<rect x="78.965" y="21.75" transform="matrix(-0.6467 -0.7627 0.7627 -0.6467 74.7023 181.4124)" clip-path="url(#SVGID_2_)" fill-rule="evenodd" clip-rule="evenodd" fill="#BE0E14" width="0.796" height="103.312"/>
			
				<rect x="79.308" y="22.155" transform="matrix(-0.6467 -0.7627 0.7627 -0.6467 74.9583 182.341)" clip-path="url(#SVGID_2_)" fill-rule="evenodd" clip-rule="evenodd" fill="#BE0E14" width="0.796" height="103.312"/>
			
				<rect x="79.651" y="22.56" transform="matrix(-0.647 -0.7625 0.7625 -0.647 75.2575 183.2706)" clip-path="url(#SVGID_2_)" fill-rule="evenodd" clip-rule="evenodd" fill="#BD0E14" width="0.795" height="103.312"/>
			
				<rect x="79.994" y="22.965" transform="matrix(-0.6467 -0.7627 0.7627 -0.6467 75.4707 184.196)" clip-path="url(#SVGID_2_)" fill-rule="evenodd" clip-rule="evenodd" fill="#BD0E14" width="0.796" height="103.312"/>
			
				<rect x="80.337" y="23.369" transform="matrix(-0.6467 -0.7627 0.7627 -0.6467 75.7272 185.1244)" clip-path="url(#SVGID_2_)" fill-rule="evenodd" clip-rule="evenodd" fill="#BD0D13" width="0.796" height="103.313"/>
			
				<rect x="80.68" y="23.773" transform="matrix(-0.6467 -0.7627 0.7627 -0.6467 75.9831 186.052)" clip-path="url(#SVGID_2_)" fill-rule="evenodd" clip-rule="evenodd" fill="#BD0D13" width="0.796" height="103.313"/>
			
				<rect x="81.023" y="24.178" transform="matrix(-0.6467 -0.7627 0.7627 -0.6467 76.2394 186.9798)" clip-path="url(#SVGID_2_)" fill-rule="evenodd" clip-rule="evenodd" fill="#BD0D13" width="0.796" height="103.312"/>
			
				<rect x="81.367" y="24.583" transform="matrix(-0.646 -0.7633 0.7633 -0.646 76.3917 187.9024)" clip-path="url(#SVGID_2_)" fill-rule="evenodd" clip-rule="evenodd" fill="#BC0D13" width="0.795" height="103.312"/>
			
				<rect x="81.709" y="24.987" transform="matrix(-0.6467 -0.7627 0.7627 -0.6467 76.7523 188.836)" clip-path="url(#SVGID_2_)" fill-rule="evenodd" clip-rule="evenodd" fill="#BC0D13" width="0.796" height="103.313"/>
			
				<rect x="82.052" y="25.392" transform="matrix(-0.6467 -0.7627 0.7627 -0.6467 77.0086 189.7638)" clip-path="url(#SVGID_2_)" fill-rule="evenodd" clip-rule="evenodd" fill="#BC0D13" width="0.796" height="103.312"/>
			
				<rect x="82.395" y="25.796" transform="matrix(-0.6467 -0.7627 0.7627 -0.6467 77.2647 190.691)" clip-path="url(#SVGID_2_)" fill-rule="evenodd" clip-rule="evenodd" fill="#BC0D13" width="0.796" height="103.312"/>
			
				<rect x="82.739" y="26.201" transform="matrix(-0.6463 -0.7631 0.7631 -0.6463 77.4604 191.6161)" clip-path="url(#SVGID_2_)" fill-rule="evenodd" clip-rule="evenodd" fill="#BC0D13" width="0.795" height="103.312"/>
			
				<rect x="83.082" y="26.606" transform="matrix(-0.647 -0.7625 0.7625 -0.647 77.8227 192.5499)" clip-path="url(#SVGID_2_)" fill-rule="evenodd" clip-rule="evenodd" fill="#BB0D13" width="0.795" height="103.313"/>
			
				<rect x="83.424" y="27.01" transform="matrix(-0.6467 -0.7627 0.7627 -0.6467 78.0338 193.475)" clip-path="url(#SVGID_2_)" fill-rule="evenodd" clip-rule="evenodd" fill="#BB0D13" width="0.796" height="103.312"/>
			
				<rect x="83.767" y="27.415" transform="matrix(-0.6467 -0.7627 0.7627 -0.6467 78.2899 194.4022)" clip-path="url(#SVGID_2_)" fill-rule="evenodd" clip-rule="evenodd" fill="#BB0C12" width="0.796" height="103.312"/>
			
				<rect x="84.11" y="27.819" transform="matrix(-0.6467 -0.7627 0.7627 -0.6467 78.5458 195.3298)" clip-path="url(#SVGID_2_)" fill-rule="evenodd" clip-rule="evenodd" fill="#BB0C12" width="0.796" height="103.312"/>
			
				<rect x="84.453" y="28.224" transform="matrix(-0.6467 -0.7627 0.7627 -0.6467 78.8026 196.2588)" clip-path="url(#SVGID_2_)" fill-rule="evenodd" clip-rule="evenodd" fill="#BB0C12" width="0.796" height="103.312"/>
			
				<rect x="84.796" y="28.628" transform="matrix(-0.6467 -0.7627 0.7627 -0.6467 79.0587 197.186)" clip-path="url(#SVGID_2_)" fill-rule="evenodd" clip-rule="evenodd" fill="#BA0C12" width="0.796" height="103.312"/>
			
				<rect x="85.139" y="29.033" transform="matrix(-0.6467 -0.7627 0.7627 -0.6467 79.315 198.1138)" clip-path="url(#SVGID_2_)" fill-rule="evenodd" clip-rule="evenodd" fill="#BA0C12" width="0.796" height="103.312"/>
			
				<rect x="85.483" y="29.438" transform="matrix(-0.6463 -0.7631 0.7631 -0.6463 79.5077 199.0392)" clip-path="url(#SVGID_2_)" fill-rule="evenodd" clip-rule="evenodd" fill="#BA0C12" width="0.795" height="103.312"/>
			
				<rect x="85.826" y="29.842" transform="matrix(-0.6467 -0.7627 0.7627 -0.6467 79.8278 199.97)" clip-path="url(#SVGID_2_)" fill-rule="evenodd" clip-rule="evenodd" fill="#BA0C12" width="0.796" height="103.312"/>
			
				<rect x="86.169" y="30.247" transform="matrix(-0.647 -0.7625 0.7625 -0.647 80.1314 200.9003)" clip-path="url(#SVGID_2_)" fill-rule="evenodd" clip-rule="evenodd" fill="#BA0C12" width="0.795" height="103.312"/>
			
				<rect x="86.511" y="30.651" transform="matrix(-0.6467 -0.7627 0.7627 -0.6467 80.3402 201.825)" clip-path="url(#SVGID_2_)" fill-rule="evenodd" clip-rule="evenodd" fill="#B90C12" width="0.796" height="103.312"/>
			
				<rect x="86.855" y="31.056" transform="matrix(-0.6463 -0.7631 0.7631 -0.6463 80.5322 202.7503)" clip-path="url(#SVGID_2_)" fill-rule="evenodd" clip-rule="evenodd" fill="#B90B11" width="0.795" height="103.312"/>
			
				<rect x="87.198" y="31.46" transform="matrix(-0.6467 -0.7627 0.7627 -0.6467 80.8531 203.6812)" clip-path="url(#SVGID_2_)" fill-rule="evenodd" clip-rule="evenodd" fill="#B90B11" width="0.796" height="103.312"/>
			
				<rect x="87.541" y="31.865" transform="matrix(-0.6467 -0.7627 0.7627 -0.6467 81.1094 204.609)" clip-path="url(#SVGID_2_)" fill-rule="evenodd" clip-rule="evenodd" fill="#B90B11" width="0.796" height="103.312"/>
			
				<rect x="87.883" y="32.27" transform="matrix(-0.6467 -0.7627 0.7627 -0.6467 81.3651 205.537)" clip-path="url(#SVGID_2_)" fill-rule="evenodd" clip-rule="evenodd" fill="#B90B11" width="0.796" height="103.312"/>
			
				<rect x="88.226" y="32.674" transform="matrix(-0.6467 -0.7627 0.7627 -0.6467 81.621 206.4646)" clip-path="url(#SVGID_2_)" fill-rule="evenodd" clip-rule="evenodd" fill="#B80B11" width="0.796" height="103.312"/>
			
				<rect x="88.57" y="33.079" transform="matrix(-0.6467 -0.7627 0.7627 -0.6467 81.8781 207.3928)" clip-path="url(#SVGID_2_)" fill-rule="evenodd" clip-rule="evenodd" fill="#B80B11" width="0.796" height="103.312"/>
			
				<rect x="88.912" y="33.483" transform="matrix(-0.6467 -0.7627 0.7627 -0.6467 82.1339 208.3208)" clip-path="url(#SVGID_2_)" fill-rule="evenodd" clip-rule="evenodd" fill="#B80B11" width="0.796" height="103.313"/>
			
				<rect x="89.255" y="33.888" transform="matrix(-0.6467 -0.7627 0.7627 -0.6467 82.3904 209.2482)" clip-path="url(#SVGID_2_)" fill-rule="evenodd" clip-rule="evenodd" fill="#B80B11" width="0.796" height="103.312"/>
			
				<rect x="89.599" y="34.293" transform="matrix(-0.6463 -0.7631 0.7631 -0.6463 82.5798 210.1726)" clip-path="url(#SVGID_2_)" fill-rule="evenodd" clip-rule="evenodd" fill="#B80B11" width="0.795" height="103.312"/>
			
				<rect x="89.942" y="34.697" transform="matrix(-0.6467 -0.7627 0.7627 -0.6467 82.9034 211.1039)" clip-path="url(#SVGID_2_)" fill-rule="evenodd" clip-rule="evenodd" fill="#B70B11" width="0.796" height="103.312"/>
			
				<rect x="90.285" y="35.102" transform="matrix(-0.6467 -0.7627 0.7627 -0.6467 83.1595 212.0321)" clip-path="url(#SVGID_2_)" fill-rule="evenodd" clip-rule="evenodd" fill="#B70A10" width="0.796" height="103.312"/>
			
				<rect x="90.628" y="35.506" transform="matrix(-0.6467 -0.7627 0.7627 -0.6467 83.4154 212.9597)" clip-path="url(#SVGID_2_)" fill-rule="evenodd" clip-rule="evenodd" fill="#B70A10" width="0.796" height="103.312"/>
			
				<rect x="90.971" y="35.911" transform="matrix(-0.6467 -0.7627 0.7627 -0.6467 83.6717 213.8875)" clip-path="url(#SVGID_2_)" fill-rule="evenodd" clip-rule="evenodd" fill="#B70A10" width="0.796" height="103.311"/>
			
				<rect x="91.314" y="36.315" transform="matrix(-0.6467 -0.7627 0.7627 -0.6467 83.9283 214.8159)" clip-path="url(#SVGID_2_)" fill-rule="evenodd" clip-rule="evenodd" fill="#B70A10" width="0.796" height="103.313"/>
			
				<rect x="91.657" y="36.72" transform="matrix(-0.6467 -0.7627 0.7627 -0.6467 84.1846 215.7437)" clip-path="url(#SVGID_2_)" fill-rule="evenodd" clip-rule="evenodd" fill="#B60A10" width="0.796" height="103.312"/>
			
				<rect x="92" y="37.125" transform="matrix(-0.6467 -0.7627 0.7627 -0.6467 84.4405 216.6713)" clip-path="url(#SVGID_2_)" fill-rule="evenodd" clip-rule="evenodd" fill="#B60A10" width="0.796" height="103.312"/>
			
				<rect x="92.342" y="37.529" transform="matrix(-0.6467 -0.7627 0.7627 -0.6467 84.6962 217.5993)" clip-path="url(#SVGID_2_)" fill-rule="evenodd" clip-rule="evenodd" fill="#B60A10" width="0.796" height="103.312"/>
			
				<rect x="92.686" y="37.934" transform="matrix(-0.6467 -0.7627 0.7627 -0.6467 84.9535 218.5271)" clip-path="url(#SVGID_2_)" fill-rule="evenodd" clip-rule="evenodd" fill="#B60A10" width="0.796" height="103.313"/>
			
				<rect x="93.029" y="38.338" transform="matrix(-0.6467 -0.7627 0.7627 -0.6467 85.2094 219.4547)" clip-path="url(#SVGID_2_)" fill-rule="evenodd" clip-rule="evenodd" fill="#B60A10" width="0.796" height="103.312"/>
			
				<rect x="93.372" y="38.743" transform="matrix(-0.6467 -0.7627 0.7627 -0.6467 85.4657 220.3825)" clip-path="url(#SVGID_2_)" fill-rule="evenodd" clip-rule="evenodd" fill="#B5090F" width="0.796" height="103.312"/>
			
				<rect x="93.715" y="39.148" transform="matrix(-0.646 -0.7633 0.7633 -0.646 85.6 221.303)" clip-path="url(#SVGID_2_)" fill-rule="evenodd" clip-rule="evenodd" fill="#B5090F" width="0.795" height="103.312"/>
			
				<rect x="94.058" y="39.552" transform="matrix(-0.6467 -0.7627 0.7627 -0.6467 85.9786 222.2387)" clip-path="url(#SVGID_2_)" fill-rule="evenodd" clip-rule="evenodd" fill="#B5090F" width="0.796" height="103.312"/>
			
				<rect x="94.401" y="39.957" transform="matrix(-0.647 -0.7625 0.7625 -0.647 86.2871 223.1699)" clip-path="url(#SVGID_2_)" fill-rule="evenodd" clip-rule="evenodd" fill="#B5090F" width="0.795" height="103.312"/>
			
				<rect x="94.744" y="40.361" transform="matrix(-0.6467 -0.7627 0.7627 -0.6467 86.4906 224.0945)" clip-path="url(#SVGID_2_)" fill-rule="evenodd" clip-rule="evenodd" fill="#B5090F" width="0.796" height="103.312"/>
			
				<rect x="95.087" y="40.766" transform="matrix(-0.6467 -0.7627 0.7627 -0.6467 86.7469 225.0223)" clip-path="url(#SVGID_2_)" fill-rule="evenodd" clip-rule="evenodd" fill="#B4090F" width="0.796" height="103.312"/>
			
				<rect x="95.43" y="41.17" transform="matrix(-0.6467 -0.7627 0.7627 -0.6467 87.0038 225.9499)" clip-path="url(#SVGID_2_)" fill-rule="evenodd" clip-rule="evenodd" fill="#B4090F" width="0.796" height="103.312"/>
			
				<rect x="95.773" y="41.575" transform="matrix(-0.647 -0.7625 0.7625 -0.647 87.3128 226.882)" clip-path="url(#SVGID_2_)" fill-rule="evenodd" clip-rule="evenodd" fill="#B4090F" width="0.795" height="103.313"/>
			
				<rect x="96.116" y="41.98" transform="matrix(-0.6467 -0.7627 0.7627 -0.6467 87.5159 227.8057)" clip-path="url(#SVGID_2_)" fill-rule="evenodd" clip-rule="evenodd" fill="#B4090F" width="0.796" height="103.312"/>
			
				<rect x="96.459" y="42.384" transform="matrix(-0.6467 -0.7627 0.7627 -0.6467 87.7718 228.7333)" clip-path="url(#SVGID_2_)" fill-rule="evenodd" clip-rule="evenodd" fill="#B4080E" width="0.796" height="103.312"/>
			
				<rect x="96.802" y="42.788" transform="matrix(-0.6467 -0.7627 0.7627 -0.6467 88.0291 229.6611)" clip-path="url(#SVGID_2_)" fill-rule="evenodd" clip-rule="evenodd" fill="#B3080E" width="0.796" height="103.312"/>
			
				<rect x="97.145" y="43.193" transform="matrix(-0.6467 -0.7627 0.7627 -0.6467 88.2846 230.5895)" clip-path="url(#SVGID_2_)" fill-rule="evenodd" clip-rule="evenodd" fill="#B3080E" width="0.796" height="103.313"/>
			
				<rect x="97.488" y="43.598" transform="matrix(-0.6467 -0.7627 0.7627 -0.6467 88.5409 231.5173)" clip-path="url(#SVGID_2_)" fill-rule="evenodd" clip-rule="evenodd" fill="#B3080E" width="0.796" height="103.312"/>
			
				<rect x="97.831" y="44.002" transform="matrix(-0.646 -0.7633 0.7633 -0.646 88.6697 232.436)" clip-path="url(#SVGID_2_)" fill-rule="evenodd" clip-rule="evenodd" fill="#B3080E" width="0.795" height="103.312"/>
			
				<rect x="98.174" y="44.407" transform="matrix(-0.6467 -0.7627 0.7627 -0.6467 89.0542 233.3727)" clip-path="url(#SVGID_2_)" fill-rule="evenodd" clip-rule="evenodd" fill="#B3080E" width="0.796" height="103.312"/>
			
				<rect x="98.596" y="44.643" transform="matrix(-0.6462 -0.7632 0.7632 -0.6462 89.1037 233.9057)" clip-path="url(#SVGID_2_)" fill-rule="evenodd" clip-rule="evenodd" fill="#B2080E" width="0.351" height="103.312"/>
		</g>
	</g>
	<path fill-rule="evenodd" clip-rule="evenodd" fill="#FCFAE6" d="M81.205,70.763c-1.095,0.876-2.652,1.446-4.391,1.446
		s-3.294-0.569-4.39-1.446c-1.092-0.878-1.705-2.018-1.707-3.244c0.002-1.225,0.614-2.365,1.707-3.246
		c1.097-0.875,2.652-1.447,4.39-1.447c1.739,0,3.297,0.569,4.391,1.447c1.09,0.881,1.702,2.02,1.707,3.246
		C82.91,68.745,82.295,69.885,81.205,70.763L81.205,70.763L81.205,70.763z M59.881,43.113v-1.866h23.031v1.866H59.881L59.881,43.113
		L59.881,43.113z M56.287,70.766c-1.092,0.874-2.65,1.443-4.386,1.443c-1.743,0-3.299-0.569-4.391-1.44
		c-1.09-0.883-1.707-2.02-1.707-3.247c0-1.225,0.614-2.364,1.707-3.245c1.092-0.875,2.65-1.447,4.391-1.443
		c1.738-0.004,3.296,0.567,4.386,1.443c1.097,0.881,1.707,2.02,1.707,3.245C57.994,68.745,57.381,69.885,56.287,70.766
		L56.287,70.766L56.287,70.766z M84.778,67.286h0.019V39.362H57.994v23.907c-1.484-1.443-3.699-2.322-6.095-2.326
		c-4.263,0.007-7.941,2.771-7.981,6.575c0.042,3.805,3.72,6.565,7.981,6.571c4.257-0.006,7.938-2.767,7.981-6.571
		c-0.002-0.081-0.014-0.156-0.018-0.232h0.018V45.002h23.031v18.271c-1.485-1.447-3.703-2.321-6.1-2.326
		c-4.263,0.002-7.938,2.768-7.981,6.57c0.048,3.805,3.72,6.565,7.981,6.572c4.263-0.007,7.938-2.769,7.981-6.572
		C84.797,67.439,84.784,67.365,84.778,67.286z"/>
</g>
</svg>
