<?xml version="1.0" encoding="utf-8"?>
<!-- Generator: Adobe Illustrator 15.1.0, SVG Export Plug-In . SVG Version: 6.00 Build 0)  -->
<!DOCTYPE svg PUBLIC "-//W3C//DTD SVG 1.1//EN" "http://www.w3.org/Graphics/SVG/1.1/DTD/svg11.dtd">
<svg version="1.1" id="_x31_" xmlns="http://www.w3.org/2000/svg" xmlns:xlink="http://www.w3.org/1999/xlink" x="0px" y="0px"
	 width="130.961px" height="130.961px" viewBox="0 0 130.961 130.961" enable-background="new 0 0 130.961 130.961"
	 xml:space="preserve">
<g>
	<path fill-rule="evenodd" clip-rule="evenodd" fill="#030436" d="M65.48,5.032c28.873,0,52.277,23.405,52.277,52.278
		c0,25.454-18.194,46.657-42.289,51.32l-3.587,6.212l-6.401,11.087l-6.401-11.087l-3.587-6.212
		c-24.094-4.663-42.29-25.866-42.29-51.32C13.203,28.438,36.608,5.032,65.48,5.032z"/>
	<g>
		<g>
			<defs>
				<path id="SVGID_1_" d="M65.48,103.197c25.425,0,46.165-20.737,46.165-46.166c0-25.427-20.737-46.165-46.165-46.165
					c-25.425,0-46.165,20.737-46.165,46.165C19.315,82.46,40.055,103.197,65.48,103.197z"/>
			</defs>
			<clipPath id="SVGID_2_">
				<use xlink:href="#SVGID_1_"  overflow="visible"/>
			</clipPath>
			
				<rect x="31.904" y="-34.103" transform="matrix(0.6462 0.7632 -0.7632 0.6462 24.7227 -18.2179)" clip-path="url(#SVGID_2_)" fill-rule="evenodd" clip-rule="evenodd" fill="#111364" width="0.209" height="103.312"/>
			
				<rect x="31.629" y="-34.082" transform="matrix(-0.647 -0.7625 0.7625 -0.647 39.3503 53.3651)" clip-path="url(#SVGID_2_)" fill-rule="evenodd" clip-rule="evenodd" fill="#111364" width="0.795" height="103.313"/>
			
				<rect x="31.972" y="-33.677" transform="matrix(-0.6467 -0.7627 0.7627 -0.6467 39.5918 54.296)" clip-path="url(#SVGID_2_)" fill-rule="evenodd" clip-rule="evenodd" fill="#111364" width="0.796" height="103.312"/>
			
				<rect x="32.315" y="-33.273" transform="matrix(-0.6467 -0.7627 0.7627 -0.6467 39.8477 55.2236)" clip-path="url(#SVGID_2_)" fill-rule="evenodd" clip-rule="evenodd" fill="#111364" width="0.796" height="103.313"/>
			
				<rect x="32.658" y="-32.868" transform="matrix(-0.6467 -0.7627 0.7627 -0.6467 40.1042 56.151)" clip-path="url(#SVGID_2_)" fill-rule="evenodd" clip-rule="evenodd" fill="#111364" width="0.796" height="103.312"/>
			
				<rect x="33.001" y="-32.463" transform="matrix(-0.646 -0.7633 0.7633 -0.646 40.3254 57.0855)" clip-path="url(#SVGID_2_)" fill-rule="evenodd" clip-rule="evenodd" fill="#111363" width="0.795" height="103.312"/>
			
				<rect x="33.344" y="-32.059" transform="matrix(-0.6467 -0.7627 0.7627 -0.6467 40.617 58.0072)" clip-path="url(#SVGID_2_)" fill-rule="evenodd" clip-rule="evenodd" fill="#111263" width="0.796" height="103.312"/>
			
				<rect x="33.687" y="-31.654" transform="matrix(-0.6467 -0.7627 0.7627 -0.6467 40.8733 58.935)" clip-path="url(#SVGID_2_)" fill-rule="evenodd" clip-rule="evenodd" fill="#111263" width="0.796" height="103.312"/>
			
				<rect x="34.03" y="-31.249" transform="matrix(-0.6467 -0.7627 0.7627 -0.6467 41.1293 59.8626)" clip-path="url(#SVGID_2_)" fill-rule="evenodd" clip-rule="evenodd" fill="#101263" width="0.796" height="103.312"/>
			
				<rect x="34.373" y="-30.845" transform="matrix(-0.6475 -0.7621 0.7621 -0.6475 41.4228 60.7846)" clip-path="url(#SVGID_2_)" fill-rule="evenodd" clip-rule="evenodd" fill="#101262" width="0.796" height="103.312"/>
			
				<rect x="34.716" y="-30.441" transform="matrix(-0.6467 -0.7627 0.7627 -0.6467 41.6423 61.7184)" clip-path="url(#SVGID_2_)" fill-rule="evenodd" clip-rule="evenodd" fill="#101262" width="0.796" height="103.312"/>
			
				<rect x="35.059" y="-30.036" transform="matrix(-0.647 -0.7625 0.7625 -0.647 41.9147 62.644)" clip-path="url(#SVGID_2_)" fill-rule="evenodd" clip-rule="evenodd" fill="#101262" width="0.795" height="103.312"/>
			
				<rect x="35.402" y="-29.631" transform="matrix(-0.647 -0.7625 0.7625 -0.647 42.1706 63.5721)" clip-path="url(#SVGID_2_)" fill-rule="evenodd" clip-rule="evenodd" fill="#101262" width="0.795" height="103.312"/>
			
				<rect x="35.745" y="-29.227" transform="matrix(-0.6467 -0.7627 0.7627 -0.6467 42.411 64.5022)" clip-path="url(#SVGID_2_)" fill-rule="evenodd" clip-rule="evenodd" fill="#101262" width="0.796" height="103.313"/>
			
				<rect x="36.088" y="-28.822" transform="matrix(-0.6467 -0.7627 0.7627 -0.6467 42.6675 65.4296)" clip-path="url(#SVGID_2_)" fill-rule="evenodd" clip-rule="evenodd" fill="#101261" width="0.796" height="103.312"/>
			
				<rect x="36.431" y="-28.418" transform="matrix(-0.6467 -0.7627 0.7627 -0.6467 42.9233 66.3576)" clip-path="url(#SVGID_2_)" fill-rule="evenodd" clip-rule="evenodd" fill="#101261" width="0.796" height="103.312"/>
			
				<rect x="36.774" y="-28.013" transform="matrix(-0.647 -0.7625 0.7625 -0.647 43.1967 67.2834)" clip-path="url(#SVGID_2_)" fill-rule="evenodd" clip-rule="evenodd" fill="#101261" width="0.795" height="103.312"/>
			
				<rect x="37.118" y="-27.608" transform="matrix(-0.646 -0.7633 0.7633 -0.646 43.3949 68.2189)" clip-path="url(#SVGID_2_)" fill-rule="evenodd" clip-rule="evenodd" fill="#101261" width="0.795" height="103.312"/>
			
				<rect x="37.46" y="-27.204" transform="matrix(-0.6467 -0.7627 0.7627 -0.6467 43.6924 69.1415)" clip-path="url(#SVGID_2_)" fill-rule="evenodd" clip-rule="evenodd" fill="#101261" width="0.796" height="103.312"/>
			
				<rect x="37.803" y="-26.799" transform="matrix(-0.6467 -0.7627 0.7627 -0.6467 43.9487 70.0694)" clip-path="url(#SVGID_2_)" fill-rule="evenodd" clip-rule="evenodd" fill="#101260" width="0.796" height="103.312"/>
			
				<rect x="38.146" y="-26.395" transform="matrix(-0.6467 -0.7627 0.7627 -0.6467 44.2046 70.997)" clip-path="url(#SVGID_2_)" fill-rule="evenodd" clip-rule="evenodd" fill="#101260" width="0.796" height="103.312"/>
			
				<rect x="38.489" y="-25.99" transform="matrix(-0.6478 -0.7618 0.7618 -0.6478 44.5224 71.9177)" clip-path="url(#SVGID_2_)" fill-rule="evenodd" clip-rule="evenodd" fill="#101160" width="0.796" height="103.313"/>
			
				<rect x="38.832" y="-25.586" transform="matrix(-0.6467 -0.7627 0.7627 -0.6467 44.7175 72.8531)" clip-path="url(#SVGID_2_)" fill-rule="evenodd" clip-rule="evenodd" fill="#101160" width="0.796" height="103.313"/>
			
				<rect x="39.175" y="-25.181" transform="matrix(-0.6467 -0.7627 0.7627 -0.6467 44.9736 73.7803)" clip-path="url(#SVGID_2_)" fill-rule="evenodd" clip-rule="evenodd" fill="#101160" width="0.796" height="103.313"/>
			
				<rect x="39.518" y="-24.776" transform="matrix(-0.6467 -0.7627 0.7627 -0.6467 45.2299 74.7081)" clip-path="url(#SVGID_2_)" fill-rule="evenodd" clip-rule="evenodd" fill="#0F115F" width="0.796" height="103.312"/>
			
				<rect x="39.862" y="-24.372" transform="matrix(-0.646 -0.7633 0.7633 -0.646 45.4411 75.6414)" clip-path="url(#SVGID_2_)" fill-rule="evenodd" clip-rule="evenodd" fill="#0F115F" width="0.795" height="103.312"/>
			
				<rect x="40.204" y="-23.967" transform="matrix(-0.6467 -0.7627 0.7627 -0.6467 45.7427 76.5643)" clip-path="url(#SVGID_2_)" fill-rule="evenodd" clip-rule="evenodd" fill="#0F115F" width="0.796" height="103.313"/>
			
				<rect x="40.547" y="-23.563" transform="matrix(-0.6467 -0.7627 0.7627 -0.6467 45.9986 77.4919)" clip-path="url(#SVGID_2_)" fill-rule="evenodd" clip-rule="evenodd" fill="#0F115F" width="0.796" height="103.312"/>
			
				<rect x="40.89" y="-23.158" transform="matrix(-0.6467 -0.7627 0.7627 -0.6467 46.2548 78.4201)" clip-path="url(#SVGID_2_)" fill-rule="evenodd" clip-rule="evenodd" fill="#0F115F" width="0.796" height="103.312"/>
			
				<rect x="41.233" y="-22.753" transform="matrix(-0.6467 -0.7627 0.7627 -0.6467 46.5107 79.3477)" clip-path="url(#SVGID_2_)" fill-rule="evenodd" clip-rule="evenodd" fill="#0F115E" width="0.796" height="103.312"/>
			
				<rect x="41.577" y="-22.349" transform="matrix(-0.647 -0.7625 0.7625 -0.647 46.788 80.274)" clip-path="url(#SVGID_2_)" fill-rule="evenodd" clip-rule="evenodd" fill="#0F115E" width="0.795" height="103.313"/>
			
				<rect x="41.92" y="-21.944" transform="matrix(-0.6467 -0.7627 0.7627 -0.6467 47.0241 81.2037)" clip-path="url(#SVGID_2_)" fill-rule="evenodd" clip-rule="evenodd" fill="#0F115E" width="0.796" height="103.312"/>
			
				<rect x="42.262" y="-21.54" transform="matrix(-0.6467 -0.7627 0.7627 -0.6467 47.28 82.1313)" clip-path="url(#SVGID_2_)" fill-rule="evenodd" clip-rule="evenodd" fill="#0F115E" width="0.796" height="103.312"/>
			
				<rect x="42.605" y="-21.135" transform="matrix(-0.6475 -0.7621 0.7621 -0.6475 47.5855 83.0549)" clip-path="url(#SVGID_2_)" fill-rule="evenodd" clip-rule="evenodd" fill="#0F115D" width="0.796" height="103.313"/>
			
				<rect x="42.949" y="-20.731" transform="matrix(-0.6467 -0.7627 0.7627 -0.6467 47.793 83.9871)" clip-path="url(#SVGID_2_)" fill-rule="evenodd" clip-rule="evenodd" fill="#0F115D" width="0.796" height="103.312"/>
			
				<rect x="43.291" y="-20.326" transform="matrix(-0.6467 -0.7627 0.7627 -0.6467 48.0488 84.9151)" clip-path="url(#SVGID_2_)" fill-rule="evenodd" clip-rule="evenodd" fill="#0F115D" width="0.796" height="103.312"/>
			
				<rect x="43.634" y="-19.921" transform="matrix(-0.6467 -0.7627 0.7627 -0.6467 48.3053 85.8425)" clip-path="url(#SVGID_2_)" fill-rule="evenodd" clip-rule="evenodd" fill="#0F105D" width="0.796" height="103.312"/>
			
				<rect x="43.978" y="-19.517" transform="matrix(-0.646 -0.7633 0.7633 -0.646 48.5104 86.7752)" clip-path="url(#SVGID_2_)" fill-rule="evenodd" clip-rule="evenodd" fill="#0F105D" width="0.795" height="103.312"/>
			
				<rect x="44.321" y="-19.112" transform="matrix(-0.6467 -0.7627 0.7627 -0.6467 48.8181 87.6987)" clip-path="url(#SVGID_2_)" fill-rule="evenodd" clip-rule="evenodd" fill="#0F105C" width="0.796" height="103.313"/>
			
				<rect x="44.663" y="-18.708" transform="matrix(-0.6467 -0.7627 0.7627 -0.6467 49.074 88.6263)" clip-path="url(#SVGID_2_)" fill-rule="evenodd" clip-rule="evenodd" fill="#0F105C" width="0.796" height="103.312"/>
			
				<rect x="45.007" y="-18.303" transform="matrix(-0.647 -0.7625 0.7625 -0.647 49.3526 89.5525)" clip-path="url(#SVGID_2_)" fill-rule="evenodd" clip-rule="evenodd" fill="#0E105C" width="0.795" height="103.312"/>
			
				<rect x="45.349" y="-17.898" transform="matrix(-0.6467 -0.7627 0.7627 -0.6467 49.5861 90.4821)" clip-path="url(#SVGID_2_)" fill-rule="evenodd" clip-rule="evenodd" fill="#0E105C" width="0.796" height="103.312"/>
			
				<rect x="45.693" y="-17.494" transform="matrix(-0.647 -0.7625 0.7625 -0.647 49.8659 91.4088)" clip-path="url(#SVGID_2_)" fill-rule="evenodd" clip-rule="evenodd" fill="#0E105C" width="0.795" height="103.313"/>
			
				<rect x="46.036" y="-17.089" transform="matrix(-0.6467 -0.7627 0.7627 -0.6467 50.0997 92.3377)" clip-path="url(#SVGID_2_)" fill-rule="evenodd" clip-rule="evenodd" fill="#0E105B" width="0.796" height="103.312"/>
			
				<rect x="46.378" y="-16.684" transform="matrix(-0.6467 -0.7627 0.7627 -0.6467 50.3552 93.2661)" clip-path="url(#SVGID_2_)" fill-rule="evenodd" clip-rule="evenodd" fill="#0E105B" width="0.796" height="103.312"/>
			
				<rect x="46.721" y="-16.281" transform="matrix(-0.6475 -0.7621 0.7621 -0.6475 50.6663 94.19)" clip-path="url(#SVGID_2_)" fill-rule="evenodd" clip-rule="evenodd" fill="#0E105B" width="0.796" height="103.313"/>
			
				<rect x="47.065" y="-15.876" transform="matrix(-0.6467 -0.7627 0.7627 -0.6467 50.8684 95.1215)" clip-path="url(#SVGID_2_)" fill-rule="evenodd" clip-rule="evenodd" fill="#0E105B" width="0.796" height="103.312"/>
			
				<rect x="47.408" y="-15.471" transform="matrix(-0.6467 -0.7627 0.7627 -0.6467 51.1245 96.0487)" clip-path="url(#SVGID_2_)" fill-rule="evenodd" clip-rule="evenodd" fill="#0E105B" width="0.796" height="103.312"/>
			
				<rect x="47.751" y="-15.066" transform="matrix(-0.6467 -0.7627 0.7627 -0.6467 51.3805 96.9773)" clip-path="url(#SVGID_2_)" fill-rule="evenodd" clip-rule="evenodd" fill="#0E105A" width="0.796" height="103.312"/>
			
				<rect x="48.094" y="-14.662" transform="matrix(-0.646 -0.7633 0.7633 -0.646 51.5803 97.9078)" clip-path="url(#SVGID_2_)" fill-rule="evenodd" clip-rule="evenodd" fill="#0E105A" width="0.795" height="103.312"/>
			
				<rect x="48.437" y="-14.257" transform="matrix(-0.6467 -0.7627 0.7627 -0.6467 51.8937 98.8327)" clip-path="url(#SVGID_2_)" fill-rule="evenodd" clip-rule="evenodd" fill="#0E105A" width="0.796" height="103.312"/>
			
				<rect x="48.78" y="-13.853" transform="matrix(-0.6467 -0.7627 0.7627 -0.6467 52.1496 99.7603)" clip-path="url(#SVGID_2_)" fill-rule="evenodd" clip-rule="evenodd" fill="#0E0F5A" width="0.796" height="103.312"/>
			
				<rect x="49.123" y="-13.448" transform="matrix(-0.6467 -0.7627 0.7627 -0.6467 52.4057 100.6885)" clip-path="url(#SVGID_2_)" fill-rule="evenodd" clip-rule="evenodd" fill="#0E0F5A" width="0.796" height="103.312"/>
			
				<rect x="49.465" y="-13.043" transform="matrix(-0.6467 -0.7627 0.7627 -0.6467 52.6616 101.6161)" clip-path="url(#SVGID_2_)" fill-rule="evenodd" clip-rule="evenodd" fill="#0E0F59" width="0.796" height="103.312"/>
			
				<rect x="49.809" y="-12.639" transform="matrix(-0.6467 -0.7627 0.7627 -0.6467 52.9187 102.5443)" clip-path="url(#SVGID_2_)" fill-rule="evenodd" clip-rule="evenodd" fill="#0E0F59" width="0.796" height="103.312"/>
			
				<rect x="50.152" y="-12.234" transform="matrix(-0.6467 -0.7627 0.7627 -0.6467 53.1745 103.4723)" clip-path="url(#SVGID_2_)" fill-rule="evenodd" clip-rule="evenodd" fill="#0E0F59" width="0.796" height="103.313"/>
			
				<rect x="50.495" y="-11.83" transform="matrix(-0.6467 -0.7627 0.7627 -0.6467 53.431 104.3997)" clip-path="url(#SVGID_2_)" fill-rule="evenodd" clip-rule="evenodd" fill="#0D0F59" width="0.796" height="103.312"/>
			
				<rect x="50.837" y="-11.425" transform="matrix(-0.6467 -0.7627 0.7627 -0.6467 53.6869 105.3273)" clip-path="url(#SVGID_2_)" fill-rule="evenodd" clip-rule="evenodd" fill="#0D0F59" width="0.796" height="103.312"/>
			
				<rect x="51.181" y="-11.021" transform="matrix(-0.6467 -0.7627 0.7627 -0.6467 53.9436 106.2562)" clip-path="url(#SVGID_2_)" fill-rule="evenodd" clip-rule="evenodd" fill="#0D0F58" width="0.796" height="103.313"/>
			
				<rect x="51.524" y="-10.616" transform="matrix(-0.6467 -0.7627 0.7627 -0.6467 54.1997 107.1834)" clip-path="url(#SVGID_2_)" fill-rule="evenodd" clip-rule="evenodd" fill="#0D0F58" width="0.796" height="103.313"/>
			
				<rect x="51.867" y="-10.211" transform="matrix(-0.6467 -0.7627 0.7627 -0.6467 54.456 108.1112)" clip-path="url(#SVGID_2_)" fill-rule="evenodd" clip-rule="evenodd" fill="#0D0F58" width="0.796" height="103.312"/>
			
				<rect x="52.21" y="-9.807" transform="matrix(-0.646 -0.7633 0.7633 -0.646 54.6498 109.0412)" clip-path="url(#SVGID_2_)" fill-rule="evenodd" clip-rule="evenodd" fill="#0D0F58" width="0.795" height="103.312"/>
			
				<rect x="52.553" y="-9.402" transform="matrix(-0.6467 -0.7627 0.7627 -0.6467 54.9689 109.9674)" clip-path="url(#SVGID_2_)" fill-rule="evenodd" clip-rule="evenodd" fill="#0D0F57" width="0.796" height="103.313"/>
			
				<rect x="52.896" y="-8.998" transform="matrix(-0.6467 -0.7627 0.7627 -0.6467 55.2248 110.895)" clip-path="url(#SVGID_2_)" fill-rule="evenodd" clip-rule="evenodd" fill="#0D0F57" width="0.796" height="103.312"/>
			
				<rect x="53.239" y="-8.593" transform="matrix(-0.6467 -0.7627 0.7627 -0.6467 55.4813 111.8224)" clip-path="url(#SVGID_2_)" fill-rule="evenodd" clip-rule="evenodd" fill="#0D0F57" width="0.796" height="103.312"/>
			
				<rect x="53.582" y="-8.188" transform="matrix(-0.6467 -0.7627 0.7627 -0.6467 55.7368 112.7508)" clip-path="url(#SVGID_2_)" fill-rule="evenodd" clip-rule="evenodd" fill="#0D0F57" width="0.796" height="103.312"/>
			
				<rect x="53.925" y="-7.784" transform="matrix(-0.6467 -0.7627 0.7627 -0.6467 55.9941 113.6786)" clip-path="url(#SVGID_2_)" fill-rule="evenodd" clip-rule="evenodd" fill="#0D0E57" width="0.796" height="103.313"/>
			
				<rect x="54.268" y="-7.38" transform="matrix(-0.6467 -0.7627 0.7627 -0.6467 56.25 114.6062)" clip-path="url(#SVGID_2_)" fill-rule="evenodd" clip-rule="evenodd" fill="#0D0E56" width="0.796" height="103.312"/>
			
				<rect x="54.611" y="-6.975" transform="matrix(-0.647 -0.7625 0.7625 -0.647 56.5345 115.5334)" clip-path="url(#SVGID_2_)" fill-rule="evenodd" clip-rule="evenodd" fill="#0D0E56" width="0.795" height="103.312"/>
			
				<rect x="54.954" y="-6.57" transform="matrix(-0.6467 -0.7627 0.7627 -0.6467 56.7621 116.462)" clip-path="url(#SVGID_2_)" fill-rule="evenodd" clip-rule="evenodd" fill="#0D0E56" width="0.796" height="103.312"/>
			
				<rect x="55.297" y="-6.166" transform="matrix(-0.6467 -0.7627 0.7627 -0.6467 57.0192 117.3902)" clip-path="url(#SVGID_2_)" fill-rule="evenodd" clip-rule="evenodd" fill="#0D0E56" width="0.796" height="103.312"/>
			
				<rect x="55.64" y="-5.761" transform="matrix(-0.6467 -0.7627 0.7627 -0.6467 57.2753 118.3174)" clip-path="url(#SVGID_2_)" fill-rule="evenodd" clip-rule="evenodd" fill="#0D0E56" width="0.796" height="103.312"/>
			
				<rect x="55.983" y="-5.356" transform="matrix(-0.6467 -0.7627 0.7627 -0.6467 57.5312 119.246)" clip-path="url(#SVGID_2_)" fill-rule="evenodd" clip-rule="evenodd" fill="#0C0E55" width="0.796" height="103.312"/>
			
				<rect x="56.327" y="-4.952" transform="matrix(-0.646 -0.7633 0.7633 -0.646 57.7191 120.175)" clip-path="url(#SVGID_2_)" fill-rule="evenodd" clip-rule="evenodd" fill="#0C0E55" width="0.795" height="103.312"/>
			
				<rect x="56.669" y="-4.548" transform="matrix(-0.6467 -0.7627 0.7627 -0.6467 58.0444 121.1014)" clip-path="url(#SVGID_2_)" fill-rule="evenodd" clip-rule="evenodd" fill="#0C0E55" width="0.796" height="103.312"/>
			
				<rect x="57.012" y="-4.143" transform="matrix(-0.6467 -0.7627 0.7627 -0.6467 58.3002 122.0294)" clip-path="url(#SVGID_2_)" fill-rule="evenodd" clip-rule="evenodd" fill="#0C0E55" width="0.796" height="103.313"/>
			
				<rect x="57.355" y="-3.738" transform="matrix(-0.6467 -0.7627 0.7627 -0.6467 58.5565 122.9572)" clip-path="url(#SVGID_2_)" fill-rule="evenodd" clip-rule="evenodd" fill="#0C0E55" width="0.796" height="103.312"/>
			
				<rect x="57.698" y="-3.333" transform="matrix(-0.6467 -0.7627 0.7627 -0.6467 58.8124 123.8848)" clip-path="url(#SVGID_2_)" fill-rule="evenodd" clip-rule="evenodd" fill="#0C0E54" width="0.796" height="103.312"/>
			
				<rect x="58.041" y="-2.929" transform="matrix(-0.6467 -0.7627 0.7627 -0.6467 59.0697 124.8126)" clip-path="url(#SVGID_2_)" fill-rule="evenodd" clip-rule="evenodd" fill="#0C0E54" width="0.796" height="103.312"/>
			
				<rect x="58.384" y="-2.525" transform="matrix(-0.6467 -0.7627 0.7627 -0.6467 59.3252 125.741)" clip-path="url(#SVGID_2_)" fill-rule="evenodd" clip-rule="evenodd" fill="#0C0E54" width="0.796" height="103.313"/>
			
				<rect x="58.727" y="-2.12" transform="matrix(-0.6467 -0.7627 0.7627 -0.6467 59.5815 126.6688)" clip-path="url(#SVGID_2_)" fill-rule="evenodd" clip-rule="evenodd" fill="#0C0E54" width="0.796" height="103.312"/>
			
				<rect x="59.07" y="-1.715" transform="matrix(-0.6467 -0.7627 0.7627 -0.6467 59.8376 127.596)" clip-path="url(#SVGID_2_)" fill-rule="evenodd" clip-rule="evenodd" fill="#0C0D54" width="0.796" height="103.312"/>
			
				<rect x="59.414" y="-1.311" transform="matrix(-0.647 -0.7625 0.7625 -0.647 60.1254 128.5249)" clip-path="url(#SVGID_2_)" fill-rule="evenodd" clip-rule="evenodd" fill="#0C0D53" width="0.795" height="103.313"/>
			
				<rect x="59.756" y="-0.906" transform="matrix(-0.647 -0.7625 0.7625 -0.647 60.3815 129.4525)" clip-path="url(#SVGID_2_)" fill-rule="evenodd" clip-rule="evenodd" fill="#0C0D53" width="0.795" height="103.313"/>
			
				<rect x="60.099" y="-0.501" transform="matrix(-0.6467 -0.7627 0.7627 -0.6467 60.6068 130.38)" clip-path="url(#SVGID_2_)" fill-rule="evenodd" clip-rule="evenodd" fill="#0C0D53" width="0.796" height="103.312"/>
			
				<rect x="60.443" y="-0.097" transform="matrix(-0.646 -0.7633 0.7633 -0.646 60.7886 131.3083)" clip-path="url(#SVGID_2_)" fill-rule="evenodd" clip-rule="evenodd" fill="#0C0D53" width="0.795" height="103.313"/>
			
				<rect x="60.785" y="0.308" transform="matrix(-0.6467 -0.7627 0.7627 -0.6467 61.1196 132.2362)" clip-path="url(#SVGID_2_)" fill-rule="evenodd" clip-rule="evenodd" fill="#0C0D52" width="0.796" height="103.313"/>
			
				<rect x="61.128" y="0.712" transform="matrix(-0.6467 -0.7627 0.7627 -0.6467 61.3755 133.1638)" clip-path="url(#SVGID_2_)" fill-rule="evenodd" clip-rule="evenodd" fill="#0C0D52" width="0.796" height="103.312"/>
			
				<rect x="61.471" y="1.117" transform="matrix(-0.6467 -0.7627 0.7627 -0.6467 61.632 134.0912)" clip-path="url(#SVGID_2_)" fill-rule="evenodd" clip-rule="evenodd" fill="#0B0D52" width="0.796" height="103.312"/>
			
				<rect x="61.814" y="1.522" transform="matrix(-0.6467 -0.7627 0.7627 -0.6467 61.8876 135.0196)" clip-path="url(#SVGID_2_)" fill-rule="evenodd" clip-rule="evenodd" fill="#0B0D52" width="0.796" height="103.312"/>
			
				<rect x="62.158" y="1.926" transform="matrix(-0.6467 -0.7627 0.7627 -0.6467 62.1449 135.9474)" clip-path="url(#SVGID_2_)" fill-rule="evenodd" clip-rule="evenodd" fill="#0B0D52" width="0.796" height="103.313"/>
			
				<rect x="62.5" y="2.33" transform="matrix(-0.6467 -0.7627 0.7627 -0.6467 62.4008 136.875)" clip-path="url(#SVGID_2_)" fill-rule="evenodd" clip-rule="evenodd" fill="#0B0D51" width="0.796" height="103.312"/>
			
				<rect x="62.844" y="2.735" transform="matrix(-0.647 -0.7625 0.7625 -0.647 62.6902 137.803)" clip-path="url(#SVGID_2_)" fill-rule="evenodd" clip-rule="evenodd" fill="#0B0D51" width="0.795" height="103.312"/>
			
				<rect x="63.186" y="3.14" transform="matrix(-0.6467 -0.7627 0.7627 -0.6467 62.9128 138.7308)" clip-path="url(#SVGID_2_)" fill-rule="evenodd" clip-rule="evenodd" fill="#0B0D51" width="0.796" height="103.312"/>
			
				<rect x="63.53" y="3.544" transform="matrix(-0.647 -0.7625 0.7625 -0.647 63.2035 139.6592)" clip-path="url(#SVGID_2_)" fill-rule="evenodd" clip-rule="evenodd" fill="#0B0D51" width="0.795" height="103.313"/>
			
				<rect x="63.872" y="3.949" transform="matrix(-0.6467 -0.7627 0.7627 -0.6467 63.426 140.5862)" clip-path="url(#SVGID_2_)" fill-rule="evenodd" clip-rule="evenodd" fill="#0B0D51" width="0.796" height="103.312"/>
			
				<rect x="64.215" y="4.354" transform="matrix(-0.6467 -0.7627 0.7627 -0.6467 63.682 141.5148)" clip-path="url(#SVGID_2_)" fill-rule="evenodd" clip-rule="evenodd" fill="#0B0C50" width="0.796" height="103.312"/>
			
				<rect x="64.558" y="4.758" transform="matrix(-0.6467 -0.7627 0.7627 -0.6467 63.9381 142.442)" clip-path="url(#SVGID_2_)" fill-rule="evenodd" clip-rule="evenodd" fill="#0B0C50" width="0.796" height="103.312"/>
			
				<rect x="64.902" y="5.162" transform="matrix(-0.6467 -0.7627 0.7627 -0.6467 64.1952 143.3701)" clip-path="url(#SVGID_2_)" fill-rule="evenodd" clip-rule="evenodd" fill="#0B0C50" width="0.796" height="103.312"/>
			
				<rect x="65.244" y="5.567" transform="matrix(-0.6467 -0.7627 0.7627 -0.6467 64.4511 144.2977)" clip-path="url(#SVGID_2_)" fill-rule="evenodd" clip-rule="evenodd" fill="#0B0C50" width="0.796" height="103.312"/>
			
				<rect x="65.587" y="5.972" transform="matrix(-0.6467 -0.7627 0.7627 -0.6467 64.7068 145.2258)" clip-path="url(#SVGID_2_)" fill-rule="evenodd" clip-rule="evenodd" fill="#0B0C50" width="0.796" height="103.313"/>
			
				<rect x="65.93" y="6.376" transform="matrix(-0.647 -0.7625 0.7625 -0.647 64.9981 146.1541)" clip-path="url(#SVGID_2_)" fill-rule="evenodd" clip-rule="evenodd" fill="#0B0C4F" width="0.795" height="103.312"/>
			
				<rect x="66.274" y="6.781" transform="matrix(-0.6463 -0.7631 0.7631 -0.6463 65.1724 147.0809)" clip-path="url(#SVGID_2_)" fill-rule="evenodd" clip-rule="evenodd" fill="#0B0C4F" width="0.795" height="103.312"/>
			
				<rect x="66.617" y="7.185" transform="matrix(-0.6467 -0.7627 0.7627 -0.6467 65.476 148.0097)" clip-path="url(#SVGID_2_)" fill-rule="evenodd" clip-rule="evenodd" fill="#0B0C4F" width="0.796" height="103.313"/>
			
				<rect x="66.96" y="7.59" transform="matrix(-0.6467 -0.7627 0.7627 -0.6467 65.7325 148.9371)" clip-path="url(#SVGID_2_)" fill-rule="evenodd" clip-rule="evenodd" fill="#0A0C4F" width="0.796" height="103.312"/>
			
				<rect x="67.302" y="7.995" transform="matrix(-0.6467 -0.7627 0.7627 -0.6467 65.9884 149.8647)" clip-path="url(#SVGID_2_)" fill-rule="evenodd" clip-rule="evenodd" fill="#0A0C4F" width="0.796" height="103.312"/>
			
				<rect x="67.646" y="8.399" transform="matrix(-0.6467 -0.7627 0.7627 -0.6467 66.2455 150.7929)" clip-path="url(#SVGID_2_)" fill-rule="evenodd" clip-rule="evenodd" fill="#0A0C4E" width="0.796" height="103.312"/>
			
				<rect x="67.989" y="8.804" transform="matrix(-0.6467 -0.7627 0.7627 -0.6467 66.5012 151.7209)" clip-path="url(#SVGID_2_)" fill-rule="evenodd" clip-rule="evenodd" fill="#0A0C4E" width="0.796" height="103.313"/>
			
				<rect x="68.332" y="9.209" transform="matrix(-0.6467 -0.7627 0.7627 -0.6467 66.7576 152.6487)" clip-path="url(#SVGID_2_)" fill-rule="evenodd" clip-rule="evenodd" fill="#0A0C4E" width="0.796" height="103.312"/>
			
				<rect x="68.675" y="9.613" transform="matrix(-0.647 -0.7625 0.7625 -0.647 67.0501 153.5771)" clip-path="url(#SVGID_2_)" fill-rule="evenodd" clip-rule="evenodd" fill="#0A0C4E" width="0.795" height="103.312"/>
			
				<rect x="69.018" y="10.017" transform="matrix(-0.6467 -0.7627 0.7627 -0.6467 67.27 154.5047)" clip-path="url(#SVGID_2_)" fill-rule="evenodd" clip-rule="evenodd" fill="#0A0C4D" width="0.796" height="103.313"/>
			
				<rect x="69.361" y="10.422" transform="matrix(-0.647 -0.7625 0.7625 -0.647 67.5634 155.4334)" clip-path="url(#SVGID_2_)" fill-rule="evenodd" clip-rule="evenodd" fill="#0A0B4D" width="0.795" height="103.313"/>
			
				<rect x="69.703" y="10.826" transform="matrix(-0.6467 -0.7627 0.7627 -0.6467 67.7824 156.3597)" clip-path="url(#SVGID_2_)" fill-rule="evenodd" clip-rule="evenodd" fill="#0A0B4D" width="0.796" height="103.312"/>
			
				<rect x="70.046" y="11.232" transform="matrix(-0.6467 -0.7627 0.7627 -0.6467 68.0383 157.2883)" clip-path="url(#SVGID_2_)" fill-rule="evenodd" clip-rule="evenodd" fill="#0A0B4D" width="0.796" height="103.312"/>
			
				<rect x="70.39" y="11.636" transform="matrix(-0.646 -0.7633 0.7633 -0.646 68.2067 158.2137)" clip-path="url(#SVGID_2_)" fill-rule="evenodd" clip-rule="evenodd" fill="#0A0B4D" width="0.795" height="103.312"/>
			
				<rect x="70.733" y="12.04" transform="matrix(-0.6467 -0.7627 0.7627 -0.6467 68.5516 159.1437)" clip-path="url(#SVGID_2_)" fill-rule="evenodd" clip-rule="evenodd" fill="#0A0B4C" width="0.796" height="103.312"/>
			
				<rect x="71.076" y="12.445" transform="matrix(-0.6467 -0.7627 0.7627 -0.6467 68.8081 160.0711)" clip-path="url(#SVGID_2_)" fill-rule="evenodd" clip-rule="evenodd" fill="#0A0B4C" width="0.796" height="103.312"/>
			
				<rect x="71.419" y="12.85" transform="matrix(-0.6467 -0.7627 0.7627 -0.6467 69.0636 160.9995)" clip-path="url(#SVGID_2_)" fill-rule="evenodd" clip-rule="evenodd" fill="#0A0B4C" width="0.796" height="103.312"/>
			
				<rect x="71.762" y="13.254" transform="matrix(-0.6467 -0.7627 0.7627 -0.6467 69.3207 161.9277)" clip-path="url(#SVGID_2_)" fill-rule="evenodd" clip-rule="evenodd" fill="#0A0B4C" width="0.796" height="103.312"/>
			
				<rect x="72.105" y="13.659" transform="matrix(-0.6467 -0.7627 0.7627 -0.6467 69.5768 162.8549)" clip-path="url(#SVGID_2_)" fill-rule="evenodd" clip-rule="evenodd" fill="#0A0B4C" width="0.796" height="103.312"/>
			
				<rect x="72.448" y="14.063" transform="matrix(-0.647 -0.7625 0.7625 -0.647 69.8717 163.7847)" clip-path="url(#SVGID_2_)" fill-rule="evenodd" clip-rule="evenodd" fill="#090B4B" width="0.795" height="103.313"/>
			
				<rect x="72.791" y="14.468" transform="matrix(-0.647 -0.7625 0.7625 -0.647 70.1278 164.7123)" clip-path="url(#SVGID_2_)" fill-rule="evenodd" clip-rule="evenodd" fill="#090B4B" width="0.795" height="103.312"/>
			
				<rect x="73.134" y="14.872" transform="matrix(-0.6467 -0.7627 0.7627 -0.6467 70.3456 165.6387)" clip-path="url(#SVGID_2_)" fill-rule="evenodd" clip-rule="evenodd" fill="#090B4B" width="0.796" height="103.313"/>
			
				<rect x="73.477" y="15.277" transform="matrix(-0.6467 -0.7627 0.7627 -0.6467 70.6017 166.5669)" clip-path="url(#SVGID_2_)" fill-rule="evenodd" clip-rule="evenodd" fill="#090B4B" width="0.796" height="103.313"/>
			
				<rect x="73.82" y="15.682" transform="matrix(-0.6467 -0.7627 0.7627 -0.6467 70.8576 167.4945)" clip-path="url(#SVGID_2_)" fill-rule="evenodd" clip-rule="evenodd" fill="#090B4B" width="0.796" height="103.313"/>
			
				<rect x="74.163" y="16.086" transform="matrix(-0.6467 -0.7627 0.7627 -0.6467 71.1139 168.4223)" clip-path="url(#SVGID_2_)" fill-rule="evenodd" clip-rule="evenodd" fill="#090B4A" width="0.796" height="103.312"/>
			
				<rect x="74.506" y="16.491" transform="matrix(-0.646 -0.7633 0.7633 -0.646 71.276 169.3465)" clip-path="url(#SVGID_2_)" fill-rule="evenodd" clip-rule="evenodd" fill="#090A4A" width="0.795" height="103.312"/>
			
				<rect x="74.849" y="16.895" transform="matrix(-0.6467 -0.7627 0.7627 -0.6467 71.6267 170.2785)" clip-path="url(#SVGID_2_)" fill-rule="evenodd" clip-rule="evenodd" fill="#090A4A" width="0.796" height="103.313"/>
			
				<rect x="75.192" y="17.3" transform="matrix(-0.6467 -0.7627 0.7627 -0.6467 71.8831 171.2063)" clip-path="url(#SVGID_2_)" fill-rule="evenodd" clip-rule="evenodd" fill="#090A4A" width="0.796" height="103.312"/>
			
				<rect x="75.535" y="17.705" transform="matrix(-0.6467 -0.7627 0.7627 -0.6467 72.1392 172.1335)" clip-path="url(#SVGID_2_)" fill-rule="evenodd" clip-rule="evenodd" fill="#090A4A" width="0.796" height="103.312"/>
			
				<rect x="75.878" y="18.109" transform="matrix(-0.647 -0.7625 0.7625 -0.647 72.4369 173.064)" clip-path="url(#SVGID_2_)" fill-rule="evenodd" clip-rule="evenodd" fill="#090A49" width="0.795" height="103.313"/>
			
				<rect x="76.221" y="18.514" transform="matrix(-0.6467 -0.7627 0.7627 -0.6467 72.652 173.9897)" clip-path="url(#SVGID_2_)" fill-rule="evenodd" clip-rule="evenodd" fill="#090A49" width="0.796" height="103.313"/>
			
				<rect x="76.564" y="18.918" transform="matrix(-0.6467 -0.7627 0.7627 -0.6467 72.9079 174.9173)" clip-path="url(#SVGID_2_)" fill-rule="evenodd" clip-rule="evenodd" fill="#090A49" width="0.796" height="103.312"/>
			
				<rect x="76.907" y="19.323" transform="matrix(-0.6467 -0.7627 0.7627 -0.6467 73.1644 175.8447)" clip-path="url(#SVGID_2_)" fill-rule="evenodd" clip-rule="evenodd" fill="#090A49" width="0.796" height="103.312"/>
			
				<rect x="77.25" y="19.728" transform="matrix(-0.646 -0.7633 0.7633 -0.646 73.322 176.7694)" clip-path="url(#SVGID_2_)" fill-rule="evenodd" clip-rule="evenodd" fill="#090A48" width="0.795" height="103.312"/>
			
				<rect x="77.593" y="20.132" transform="matrix(-0.647 -0.7625 0.7625 -0.647 73.7191 177.7029)" clip-path="url(#SVGID_2_)" fill-rule="evenodd" clip-rule="evenodd" fill="#090A48" width="0.795" height="103.313"/>
			
				<rect x="77.936" y="20.536" transform="matrix(-0.6467 -0.7627 0.7627 -0.6467 73.9332 178.6284)" clip-path="url(#SVGID_2_)" fill-rule="evenodd" clip-rule="evenodd" fill="#080A48" width="0.796" height="103.312"/>
			
				<rect x="78.279" y="20.942" transform="matrix(-0.6467 -0.7627 0.7627 -0.6467 74.1891 179.5571)" clip-path="url(#SVGID_2_)" fill-rule="evenodd" clip-rule="evenodd" fill="#080A48" width="0.796" height="103.312"/>
			
				<rect x="78.622" y="21.346" transform="matrix(-0.646 -0.7633 0.7633 -0.646 74.3453 180.4803)" clip-path="url(#SVGID_2_)" fill-rule="evenodd" clip-rule="evenodd" fill="#080A48" width="0.795" height="103.312"/>
			
				<rect x="78.965" y="21.75" transform="matrix(-0.6467 -0.7627 0.7627 -0.6467 74.7023 181.4124)" clip-path="url(#SVGID_2_)" fill-rule="evenodd" clip-rule="evenodd" fill="#080A47" width="0.796" height="103.312"/>
			
				<rect x="79.308" y="22.155" transform="matrix(-0.647 -0.7625 0.7625 -0.647 75.0017 182.3421)" clip-path="url(#SVGID_2_)" fill-rule="evenodd" clip-rule="evenodd" fill="#080A47" width="0.795" height="103.312"/>
			
				<rect x="79.651" y="22.56" transform="matrix(-0.6467 -0.7627 0.7627 -0.6467 75.2144 183.2682)" clip-path="url(#SVGID_2_)" fill-rule="evenodd" clip-rule="evenodd" fill="#080947" width="0.796" height="103.312"/>
			
				<rect x="79.994" y="22.964" transform="matrix(-0.6467 -0.7627 0.7627 -0.6467 75.4717 184.196)" clip-path="url(#SVGID_2_)" fill-rule="evenodd" clip-rule="evenodd" fill="#080947" width="0.796" height="103.313"/>
			
				<rect x="80.337" y="23.368" transform="matrix(-0.6467 -0.7627 0.7627 -0.6467 75.7276 185.1236)" clip-path="url(#SVGID_2_)" fill-rule="evenodd" clip-rule="evenodd" fill="#080947" width="0.796" height="103.312"/>
			
				<rect x="80.68" y="23.773" transform="matrix(-0.6467 -0.7627 0.7627 -0.6467 75.9835 186.0512)" clip-path="url(#SVGID_2_)" fill-rule="evenodd" clip-rule="evenodd" fill="#080946" width="0.796" height="103.312"/>
			
				<rect x="81.023" y="24.178" transform="matrix(-0.6467 -0.7627 0.7627 -0.6467 76.2396 186.9794)" clip-path="url(#SVGID_2_)" fill-rule="evenodd" clip-rule="evenodd" fill="#080946" width="0.796" height="103.312"/>
			
				<rect x="81.367" y="24.583" transform="matrix(-0.646 -0.7633 0.7633 -0.646 76.3917 187.9024)" clip-path="url(#SVGID_2_)" fill-rule="evenodd" clip-rule="evenodd" fill="#080946" width="0.795" height="103.312"/>
			
				<rect x="81.709" y="24.987" transform="matrix(-0.6467 -0.7627 0.7627 -0.6467 76.7526 188.8352)" clip-path="url(#SVGID_2_)" fill-rule="evenodd" clip-rule="evenodd" fill="#080946" width="0.796" height="103.312"/>
			
				<rect x="82.052" y="25.392" transform="matrix(-0.6467 -0.7627 0.7627 -0.6467 77.0084 189.7632)" clip-path="url(#SVGID_2_)" fill-rule="evenodd" clip-rule="evenodd" fill="#080946" width="0.796" height="103.313"/>
			
				<rect x="82.395" y="25.796" transform="matrix(-0.6467 -0.7627 0.7627 -0.6467 77.2649 190.6906)" clip-path="url(#SVGID_2_)" fill-rule="evenodd" clip-rule="evenodd" fill="#080945" width="0.796" height="103.312"/>
			
				<rect x="82.739" y="26.201" transform="matrix(-0.6463 -0.7631 0.7631 -0.6463 77.46 191.616)" clip-path="url(#SVGID_2_)" fill-rule="evenodd" clip-rule="evenodd" fill="#080945" width="0.795" height="103.312"/>
			
				<rect x="83.081" y="26.605" transform="matrix(-0.6467 -0.7627 0.7627 -0.6467 77.7779 192.5464)" clip-path="url(#SVGID_2_)" fill-rule="evenodd" clip-rule="evenodd" fill="#080945" width="0.796" height="103.312"/>
			
				<rect x="83.424" y="27.01" transform="matrix(-0.6467 -0.7627 0.7627 -0.6467 78.034 193.4746)" clip-path="url(#SVGID_2_)" fill-rule="evenodd" clip-rule="evenodd" fill="#070945" width="0.796" height="103.312"/>
			
				<rect x="83.767" y="27.415" transform="matrix(-0.6467 -0.7627 0.7627 -0.6467 78.2899 194.4022)" clip-path="url(#SVGID_2_)" fill-rule="evenodd" clip-rule="evenodd" fill="#070945" width="0.796" height="103.312"/>
			
				<rect x="84.11" y="27.819" transform="matrix(-0.6467 -0.7627 0.7627 -0.6467 78.5466 195.3302)" clip-path="url(#SVGID_2_)" fill-rule="evenodd" clip-rule="evenodd" fill="#070944" width="0.796" height="103.312"/>
			
				<rect x="84.453" y="28.224" transform="matrix(-0.6467 -0.7627 0.7627 -0.6467 78.8028 196.2584)" clip-path="url(#SVGID_2_)" fill-rule="evenodd" clip-rule="evenodd" fill="#070944" width="0.796" height="103.313"/>
			
				<rect x="84.796" y="28.628" transform="matrix(-0.6467 -0.7627 0.7627 -0.6467 79.0587 197.186)" clip-path="url(#SVGID_2_)" fill-rule="evenodd" clip-rule="evenodd" fill="#070844" width="0.796" height="103.312"/>
			
				<rect x="85.139" y="29.033" transform="matrix(-0.6467 -0.7627 0.7627 -0.6467 79.3152 198.1134)" clip-path="url(#SVGID_2_)" fill-rule="evenodd" clip-rule="evenodd" fill="#070844" width="0.796" height="103.312"/>
			
				<rect x="85.483" y="29.438" transform="matrix(-0.646 -0.7633 0.7633 -0.646 79.461 199.0362)" clip-path="url(#SVGID_2_)" fill-rule="evenodd" clip-rule="evenodd" fill="#070844" width="0.795" height="103.312"/>
			
				<rect x="85.826" y="29.842" transform="matrix(-0.6467 -0.7627 0.7627 -0.6467 79.828 199.9696)" clip-path="url(#SVGID_2_)" fill-rule="evenodd" clip-rule="evenodd" fill="#070843" width="0.796" height="103.313"/>
			
				<rect x="86.168" y="30.246" transform="matrix(-0.6467 -0.7627 0.7627 -0.6467 80.0839 200.8972)" clip-path="url(#SVGID_2_)" fill-rule="evenodd" clip-rule="evenodd" fill="#070843" width="0.796" height="103.312"/>
			
				<rect x="86.511" y="30.651" transform="matrix(-0.647 -0.7625 0.7625 -0.647 80.3877 201.8276)" clip-path="url(#SVGID_2_)" fill-rule="evenodd" clip-rule="evenodd" fill="#070843" width="0.795" height="103.312"/>
			
				<rect x="86.855" y="31.056" transform="matrix(-0.646 -0.7633 0.7633 -0.646 80.4843 202.7471)" clip-path="url(#SVGID_2_)" fill-rule="evenodd" clip-rule="evenodd" fill="#070843" width="0.795" height="103.312"/>
			
				<rect x="87.198" y="31.46" transform="matrix(-0.6467 -0.7627 0.7627 -0.6467 80.8531 203.6812)" clip-path="url(#SVGID_2_)" fill-rule="evenodd" clip-rule="evenodd" fill="#070842" width="0.796" height="103.312"/>
			
				<rect x="87.541" y="31.865" transform="matrix(-0.6467 -0.7627 0.7627 -0.6467 81.1096 204.6086)" clip-path="url(#SVGID_2_)" fill-rule="evenodd" clip-rule="evenodd" fill="#070842" width="0.796" height="103.312"/>
			
				<rect x="87.883" y="32.27" transform="matrix(-0.6467 -0.7627 0.7627 -0.6467 81.3651 205.537)" clip-path="url(#SVGID_2_)" fill-rule="evenodd" clip-rule="evenodd" fill="#070842" width="0.796" height="103.312"/>
			
				<rect x="88.227" y="32.674" transform="matrix(-0.646 -0.7633 0.7633 -0.646 81.5074 206.4583)" clip-path="url(#SVGID_2_)" fill-rule="evenodd" clip-rule="evenodd" fill="#070842" width="0.795" height="103.312"/>
			
				<rect x="88.57" y="33.078" transform="matrix(-0.6467 -0.7627 0.7627 -0.6467 81.8783 207.3924)" clip-path="url(#SVGID_2_)" fill-rule="evenodd" clip-rule="evenodd" fill="#070842" width="0.796" height="103.312"/>
			
				<rect x="88.912" y="33.483" transform="matrix(-0.6467 -0.7627 0.7627 -0.6467 82.1341 208.3204)" clip-path="url(#SVGID_2_)" fill-rule="evenodd" clip-rule="evenodd" fill="#060841" width="0.796" height="103.313"/>
			
				<rect x="89.255" y="33.888" transform="matrix(-0.6467 -0.7627 0.7627 -0.6467 82.3904 209.2482)" clip-path="url(#SVGID_2_)" fill-rule="evenodd" clip-rule="evenodd" fill="#060841" width="0.796" height="103.312"/>
			
				<rect x="89.599" y="34.292" transform="matrix(-0.646 -0.7633 0.7633 -0.646 82.5307 210.1692)" clip-path="url(#SVGID_2_)" fill-rule="evenodd" clip-rule="evenodd" fill="#060841" width="0.795" height="103.312"/>
			
				<rect x="89.942" y="34.697" transform="matrix(-0.6467 -0.7627 0.7627 -0.6467 82.9036 211.1035)" clip-path="url(#SVGID_2_)" fill-rule="evenodd" clip-rule="evenodd" fill="#060741" width="0.796" height="103.312"/>
			
				<rect x="90.284" y="35.101" transform="matrix(-0.6467 -0.7627 0.7627 -0.6467 83.1591 212.032)" clip-path="url(#SVGID_2_)" fill-rule="evenodd" clip-rule="evenodd" fill="#060741" width="0.796" height="103.313"/>
			
				<rect x="90.628" y="35.506" transform="matrix(-0.6467 -0.7627 0.7627 -0.6467 83.4154 212.9597)" clip-path="url(#SVGID_2_)" fill-rule="evenodd" clip-rule="evenodd" fill="#060740" width="0.796" height="103.312"/>
			
				<rect x="90.97" y="35.911" transform="matrix(-0.6467 -0.7627 0.7627 -0.6467 83.6715 213.887)" clip-path="url(#SVGID_2_)" fill-rule="evenodd" clip-rule="evenodd" fill="#060740" width="0.796" height="103.312"/>
			
				<rect x="91.314" y="36.315" transform="matrix(-0.6467 -0.7627 0.7627 -0.6467 83.9283 214.8159)" clip-path="url(#SVGID_2_)" fill-rule="evenodd" clip-rule="evenodd" fill="#060740" width="0.796" height="103.313"/>
			
				<rect x="91.657" y="36.72" transform="matrix(-0.647 -0.7625 0.7625 -0.647 84.2351 215.7469)" clip-path="url(#SVGID_2_)" fill-rule="evenodd" clip-rule="evenodd" fill="#060740" width="0.795" height="103.312"/>
			
				<rect x="92" y="37.125" transform="matrix(-0.6467 -0.7627 0.7627 -0.6467 84.4407 216.6709)" clip-path="url(#SVGID_2_)" fill-rule="evenodd" clip-rule="evenodd" fill="#060740" width="0.796" height="103.312"/>
			
				<rect x="92.342" y="37.529" transform="matrix(-0.6467 -0.7627 0.7627 -0.6467 84.6964 217.599)" clip-path="url(#SVGID_2_)" fill-rule="evenodd" clip-rule="evenodd" fill="#06073F" width="0.796" height="103.313"/>
			
				<rect x="92.686" y="37.934" transform="matrix(-0.6467 -0.7627 0.7627 -0.6467 84.9535 218.5271)" clip-path="url(#SVGID_2_)" fill-rule="evenodd" clip-rule="evenodd" fill="#06073F" width="0.796" height="103.313"/>
			
				<rect x="93.029" y="38.338" transform="matrix(-0.6467 -0.7627 0.7627 -0.6467 85.2094 219.4547)" clip-path="url(#SVGID_2_)" fill-rule="evenodd" clip-rule="evenodd" fill="#06073F" width="0.796" height="103.312"/>
			
				<rect x="93.372" y="38.743" transform="matrix(-0.6467 -0.7627 0.7627 -0.6467 85.4659 220.3821)" clip-path="url(#SVGID_2_)" fill-rule="evenodd" clip-rule="evenodd" fill="#06073F" width="0.796" height="103.312"/>
			
				<rect x="93.715" y="39.148" transform="matrix(-0.646 -0.7633 0.7633 -0.646 85.6 221.303)" clip-path="url(#SVGID_2_)" fill-rule="evenodd" clip-rule="evenodd" fill="#06073F" width="0.795" height="103.312"/>
			
				<rect x="94.058" y="39.552" transform="matrix(-0.6467 -0.7627 0.7627 -0.6467 85.9788 222.2383)" clip-path="url(#SVGID_2_)" fill-rule="evenodd" clip-rule="evenodd" fill="#06073E" width="0.796" height="103.313"/>
			
				<rect x="94.401" y="39.956" transform="matrix(-0.6467 -0.7627 0.7627 -0.6467 86.2347 223.1659)" clip-path="url(#SVGID_2_)" fill-rule="evenodd" clip-rule="evenodd" fill="#05073E" width="0.796" height="103.312"/>
			
				<rect x="94.744" y="40.361" transform="matrix(-0.6467 -0.7627 0.7627 -0.6467 86.491 224.0937)" clip-path="url(#SVGID_2_)" fill-rule="evenodd" clip-rule="evenodd" fill="#05073E" width="0.796" height="103.312"/>
			
				<rect x="95.086" y="40.766" transform="matrix(-0.6467 -0.7627 0.7627 -0.6467 86.7467 225.0217)" clip-path="url(#SVGID_2_)" fill-rule="evenodd" clip-rule="evenodd" fill="#05063E" width="0.796" height="103.312"/>
			
				<rect x="95.43" y="41.17" transform="matrix(-0.647 -0.7625 0.7625 -0.647 87.0567 225.9534)" clip-path="url(#SVGID_2_)" fill-rule="evenodd" clip-rule="evenodd" fill="#05063D" width="0.795" height="103.313"/>
			
				<rect x="95.773" y="41.575" transform="matrix(-0.6467 -0.7627 0.7627 -0.6467 87.2603 226.8773)" clip-path="url(#SVGID_2_)" fill-rule="evenodd" clip-rule="evenodd" fill="#05063D" width="0.796" height="103.312"/>
			
				<rect x="96.116" y="41.98" transform="matrix(-0.6467 -0.7627 0.7627 -0.6467 87.5159 227.8057)" clip-path="url(#SVGID_2_)" fill-rule="evenodd" clip-rule="evenodd" fill="#05063D" width="0.796" height="103.312"/>
			
				<rect x="96.459" y="42.384" transform="matrix(-0.6467 -0.7627 0.7627 -0.6467 87.772 228.7329)" clip-path="url(#SVGID_2_)" fill-rule="evenodd" clip-rule="evenodd" fill="#05063D" width="0.796" height="103.312"/>
			
				<rect x="96.802" y="42.788" transform="matrix(-0.6467 -0.7627 0.7627 -0.6467 88.0291 229.6611)" clip-path="url(#SVGID_2_)" fill-rule="evenodd" clip-rule="evenodd" fill="#05063D" width="0.796" height="103.312"/>
			
				<rect x="97.145" y="43.193" transform="matrix(-0.6467 -0.7627 0.7627 -0.6467 88.285 230.5887)" clip-path="url(#SVGID_2_)" fill-rule="evenodd" clip-rule="evenodd" fill="#05063C" width="0.796" height="103.312"/>
			
				<rect x="97.488" y="43.598" transform="matrix(-0.6467 -0.7627 0.7627 -0.6467 88.5411 231.5169)" clip-path="url(#SVGID_2_)" fill-rule="evenodd" clip-rule="evenodd" fill="#05063C" width="0.796" height="103.312"/>
			
				<rect x="97.831" y="44.002" transform="matrix(-0.646 -0.7633 0.7633 -0.646 88.6697 232.436)" clip-path="url(#SVGID_2_)" fill-rule="evenodd" clip-rule="evenodd" fill="#05063C" width="0.795" height="103.312"/>
			
				<rect x="98.174" y="44.407" transform="matrix(-0.6467 -0.7627 0.7627 -0.6467 89.0542 233.3727)" clip-path="url(#SVGID_2_)" fill-rule="evenodd" clip-rule="evenodd" fill="#05063C" width="0.796" height="103.312"/>
			
				<rect x="98.596" y="44.642" transform="matrix(-0.6462 -0.7632 0.7632 -0.6462 89.1039 233.9053)" clip-path="url(#SVGID_2_)" fill-rule="evenodd" clip-rule="evenodd" fill="#05063C" width="0.351" height="103.312"/>
		</g>
	</g>
	<g>
		<path fill-rule="evenodd" clip-rule="evenodd" fill="#FCFAE6" d="M40.918,70.378V43.075h-5.422v27.302L40.918,70.378
			L40.918,70.378L40.918,70.378z M34.246,72.889h-1.268V40.563h10.454v32.326H34.246z"/>
		<path fill-rule="evenodd" clip-rule="evenodd" fill="#FCFAE6" d="M48.853,72.598V40.861h-5.418v31.736H48.853L48.853,72.598
			L48.853,72.598z M42.17,75.115h-1.257V38.344h10.452v36.77L42.17,75.115z"/>
		<path fill-rule="evenodd" clip-rule="evenodd" fill="#FCFAE6" d="M87.798,70.378l5.415-0.009l0.001-27.299h-5.416V70.378
			L87.798,70.378L87.798,70.378z M86.535,72.889h-1.261V40.563H95.73v32.326H86.535z"/>
		<path fill-rule="evenodd" clip-rule="evenodd" fill="#FCFAE6" d="M79.858,72.6l5.415-0.009l0.001-31.734h-5.416V72.6L79.858,72.6
			L79.858,72.6z M78.599,75.11h-1.257V38.349h10.456v36.762L78.599,75.11z"/>
		<path fill-rule="evenodd" clip-rule="evenodd" fill="#FCFAE6" d="M51.361,59.442l25.981-0.011v-5.408l-25.981,0V59.442
			L51.361,59.442L51.361,59.442z M50.113,61.948h-1.26V51.507h31.011v10.441H50.113z"/>
	</g>
</g>
</svg>
