<?xml version="1.0" encoding="utf-8"?>
<!-- Generator: Adobe Illustrator 15.1.0, SVG Export Plug-In . SVG Version: 6.00 Build 0)  -->
<!DOCTYPE svg PUBLIC "-//W3C//DTD SVG 1.1//EN" "http://www.w3.org/Graphics/SVG/1.1/DTD/svg11.dtd">
<svg version="1.1" id="_x31_" xmlns="http://www.w3.org/2000/svg" xmlns:xlink="http://www.w3.org/1999/xlink" x="0px" y="0px"
	 width="130.961px" height="130.961px" viewBox="0 0 130.961 130.961" enable-background="new 0 0 130.961 130.961"
	 xml:space="preserve">
<g>
	<path fill-rule="evenodd" clip-rule="evenodd" fill="#017A01" d="M65.48,5.032c28.873,0,52.277,23.405,52.277,52.278
		c0,25.454-18.194,46.657-42.289,51.32l-3.587,6.212l-6.401,11.087l-6.401-11.087l-3.587-6.212
		c-24.094-4.663-42.29-25.866-42.29-51.32C13.203,28.438,36.608,5.032,65.48,5.032z"/>
	<g>
		<g>
			<defs>
				<path id="SVGID_1_" d="M65.48,103.197c25.427,0,46.165-20.737,46.165-46.166c0-25.427-20.737-46.165-46.165-46.165
					c-25.425,0-46.165,20.737-46.165,46.165C19.315,82.46,40.055,103.197,65.48,103.197z"/>
			</defs>
			<clipPath id="SVGID_2_">
				<use xlink:href="#SVGID_1_"  overflow="visible"/>
			</clipPath>
			
				<rect x="31.904" y="-34.103" transform="matrix(0.6462 0.7632 -0.7632 0.6462 24.7227 -18.2179)" clip-path="url(#SVGID_2_)" fill-rule="evenodd" clip-rule="evenodd" fill="#1AA21A" width="0.209" height="103.312"/>
			
				<rect x="31.629" y="-34.082" transform="matrix(-0.6467 -0.7627 0.7627 -0.6467 39.3361 53.368)" clip-path="url(#SVGID_2_)" fill-rule="evenodd" clip-rule="evenodd" fill="#1AA21A" width="0.796" height="103.312"/>
			
				<rect x="31.972" y="-33.677" transform="matrix(-0.6467 -0.7627 0.7627 -0.6467 39.5918 54.296)" clip-path="url(#SVGID_2_)" fill-rule="evenodd" clip-rule="evenodd" fill="#1AA21A" width="0.796" height="103.312"/>
			
				<rect x="32.315" y="-33.273" transform="matrix(-0.6467 -0.7627 0.7627 -0.6467 39.8477 55.2236)" clip-path="url(#SVGID_2_)" fill-rule="evenodd" clip-rule="evenodd" fill="#1AA21A" width="0.796" height="103.313"/>
			
				<rect x="32.658" y="-32.868" transform="matrix(-0.6467 -0.7627 0.7627 -0.6467 40.1042 56.151)" clip-path="url(#SVGID_2_)" fill-rule="evenodd" clip-rule="evenodd" fill="#1AA21A" width="0.796" height="103.312"/>
			
				<rect x="33.002" y="-32.463" transform="matrix(-0.646 -0.7633 0.7633 -0.646 40.3258 57.0857)" clip-path="url(#SVGID_2_)" fill-rule="evenodd" clip-rule="evenodd" fill="#1AA11A" width="0.795" height="103.312"/>
			
				<rect x="33.344" y="-32.059" transform="matrix(-0.6467 -0.7627 0.7627 -0.6467 40.617 58.0072)" clip-path="url(#SVGID_2_)" fill-rule="evenodd" clip-rule="evenodd" fill="#1AA11A" width="0.796" height="103.312"/>
			
				<rect x="33.687" y="-31.654" transform="matrix(-0.6467 -0.7627 0.7627 -0.6467 40.8733 58.935)" clip-path="url(#SVGID_2_)" fill-rule="evenodd" clip-rule="evenodd" fill="#1AA11A" width="0.796" height="103.312"/>
			
				<rect x="34.03" y="-31.249" transform="matrix(-0.6467 -0.7627 0.7627 -0.6467 41.1293 59.8626)" clip-path="url(#SVGID_2_)" fill-rule="evenodd" clip-rule="evenodd" fill="#19A119" width="0.796" height="103.312"/>
			
				<rect x="34.373" y="-30.845" transform="matrix(-0.6467 -0.7627 0.7627 -0.6467 41.3862 60.7912)" clip-path="url(#SVGID_2_)" fill-rule="evenodd" clip-rule="evenodd" fill="#19A119" width="0.796" height="103.312"/>
			
				<rect x="34.716" y="-30.441" transform="matrix(-0.6467 -0.7627 0.7627 -0.6467 41.6423 61.7184)" clip-path="url(#SVGID_2_)" fill-rule="evenodd" clip-rule="evenodd" fill="#19A019" width="0.796" height="103.312"/>
			
				<rect x="35.059" y="-30.036" transform="matrix(-0.647 -0.7625 0.7625 -0.647 41.9147 62.644)" clip-path="url(#SVGID_2_)" fill-rule="evenodd" clip-rule="evenodd" fill="#19A019" width="0.795" height="103.312"/>
			
				<rect x="35.402" y="-29.631" transform="matrix(-0.647 -0.7625 0.7625 -0.647 42.1706 63.5721)" clip-path="url(#SVGID_2_)" fill-rule="evenodd" clip-rule="evenodd" fill="#19A019" width="0.795" height="103.312"/>
			
				<rect x="35.745" y="-29.227" transform="matrix(-0.6467 -0.7627 0.7627 -0.6467 42.411 64.5022)" clip-path="url(#SVGID_2_)" fill-rule="evenodd" clip-rule="evenodd" fill="#19A019" width="0.796" height="103.313"/>
			
				<rect x="36.088" y="-28.822" transform="matrix(-0.6467 -0.7627 0.7627 -0.6467 42.6673 65.43)" clip-path="url(#SVGID_2_)" fill-rule="evenodd" clip-rule="evenodd" fill="#19A019" width="0.796" height="103.313"/>
			
				<rect x="36.431" y="-28.418" transform="matrix(-0.6467 -0.7627 0.7627 -0.6467 42.9233 66.3576)" clip-path="url(#SVGID_2_)" fill-rule="evenodd" clip-rule="evenodd" fill="#19A019" width="0.796" height="103.312"/>
			
				<rect x="36.774" y="-28.013" transform="matrix(-0.6467 -0.7627 0.7627 -0.6467 43.1794 67.2858)" clip-path="url(#SVGID_2_)" fill-rule="evenodd" clip-rule="evenodd" fill="#199F19" width="0.796" height="103.312"/>
			
				<rect x="37.118" y="-27.608" transform="matrix(-0.646 -0.7633 0.7633 -0.646 43.3953 68.2191)" clip-path="url(#SVGID_2_)" fill-rule="evenodd" clip-rule="evenodd" fill="#189F18" width="0.795" height="103.312"/>
			
				<rect x="37.46" y="-27.204" transform="matrix(-0.6467 -0.7627 0.7627 -0.6467 43.6924 69.1415)" clip-path="url(#SVGID_2_)" fill-rule="evenodd" clip-rule="evenodd" fill="#189F18" width="0.796" height="103.312"/>
			
				<rect x="37.803" y="-26.799" transform="matrix(-0.6467 -0.7627 0.7627 -0.6467 43.9487 70.0694)" clip-path="url(#SVGID_2_)" fill-rule="evenodd" clip-rule="evenodd" fill="#189F18" width="0.796" height="103.312"/>
			
				<rect x="38.146" y="-26.395" transform="matrix(-0.6467 -0.7627 0.7627 -0.6467 44.2046 70.997)" clip-path="url(#SVGID_2_)" fill-rule="evenodd" clip-rule="evenodd" fill="#189F18" width="0.796" height="103.312"/>
			
				<rect x="38.49" y="-25.99" transform="matrix(-0.647 -0.7625 0.7625 -0.647 44.4799 71.9233)" clip-path="url(#SVGID_2_)" fill-rule="evenodd" clip-rule="evenodd" fill="#189E18" width="0.795" height="103.313"/>
			
				<rect x="38.832" y="-25.586" transform="matrix(-0.6467 -0.7627 0.7627 -0.6467 44.7175 72.8531)" clip-path="url(#SVGID_2_)" fill-rule="evenodd" clip-rule="evenodd" fill="#189E18" width="0.796" height="103.313"/>
			
				<rect x="39.175" y="-25.181" transform="matrix(-0.647 -0.7625 0.7625 -0.647 44.9922 73.7786)" clip-path="url(#SVGID_2_)" fill-rule="evenodd" clip-rule="evenodd" fill="#189E18" width="0.795" height="103.313"/>
			
				<rect x="39.518" y="-24.776" transform="matrix(-0.6467 -0.7627 0.7627 -0.6467 45.2299 74.7081)" clip-path="url(#SVGID_2_)" fill-rule="evenodd" clip-rule="evenodd" fill="#189E18" width="0.796" height="103.312"/>
			
				<rect x="39.862" y="-24.372" transform="matrix(-0.646 -0.7633 0.7633 -0.646 45.4411 75.6414)" clip-path="url(#SVGID_2_)" fill-rule="evenodd" clip-rule="evenodd" fill="#189E18" width="0.795" height="103.312"/>
			
				<rect x="40.204" y="-23.967" transform="matrix(-0.6467 -0.7627 0.7627 -0.6467 45.7427 76.5643)" clip-path="url(#SVGID_2_)" fill-rule="evenodd" clip-rule="evenodd" fill="#179E17" width="0.796" height="103.313"/>
			
				<rect x="40.547" y="-23.563" transform="matrix(-0.6467 -0.7627 0.7627 -0.6467 45.9986 77.4919)" clip-path="url(#SVGID_2_)" fill-rule="evenodd" clip-rule="evenodd" fill="#179D17" width="0.796" height="103.312"/>
			
				<rect x="40.89" y="-23.158" transform="matrix(-0.6467 -0.7627 0.7627 -0.6467 46.2548 78.4201)" clip-path="url(#SVGID_2_)" fill-rule="evenodd" clip-rule="evenodd" fill="#179D17" width="0.796" height="103.312"/>
			
				<rect x="41.233" y="-22.753" transform="matrix(-0.6467 -0.7627 0.7627 -0.6467 46.5111 79.3479)" clip-path="url(#SVGID_2_)" fill-rule="evenodd" clip-rule="evenodd" fill="#179D17" width="0.796" height="103.312"/>
			
				<rect x="41.577" y="-22.349" transform="matrix(-0.647 -0.7625 0.7625 -0.647 46.788 80.274)" clip-path="url(#SVGID_2_)" fill-rule="evenodd" clip-rule="evenodd" fill="#179D17" width="0.795" height="103.313"/>
			
				<rect x="41.92" y="-21.944" transform="matrix(-0.6467 -0.7627 0.7627 -0.6467 47.0241 81.2037)" clip-path="url(#SVGID_2_)" fill-rule="evenodd" clip-rule="evenodd" fill="#179D17" width="0.796" height="103.312"/>
			
				<rect x="42.262" y="-21.54" transform="matrix(-0.6467 -0.7627 0.7627 -0.6467 47.28 82.1313)" clip-path="url(#SVGID_2_)" fill-rule="evenodd" clip-rule="evenodd" fill="#179C17" width="0.796" height="103.312"/>
			
				<rect x="42.606" y="-21.135" transform="matrix(-0.6467 -0.7627 0.7627 -0.6467 47.5371 83.0595)" clip-path="url(#SVGID_2_)" fill-rule="evenodd" clip-rule="evenodd" fill="#179C17" width="0.796" height="103.313"/>
			
				<rect x="42.949" y="-20.731" transform="matrix(-0.6467 -0.7627 0.7627 -0.6467 47.793 83.9871)" clip-path="url(#SVGID_2_)" fill-rule="evenodd" clip-rule="evenodd" fill="#169C16" width="0.796" height="103.312"/>
			
				<rect x="43.291" y="-20.326" transform="matrix(-0.6467 -0.7627 0.7627 -0.6467 48.0488 84.9151)" clip-path="url(#SVGID_2_)" fill-rule="evenodd" clip-rule="evenodd" fill="#169C16" width="0.796" height="103.312"/>
			
				<rect x="43.634" y="-19.921" transform="matrix(-0.6467 -0.7627 0.7627 -0.6467 48.3053 85.8425)" clip-path="url(#SVGID_2_)" fill-rule="evenodd" clip-rule="evenodd" fill="#169C16" width="0.796" height="103.312"/>
			
				<rect x="43.978" y="-19.517" transform="matrix(-0.646 -0.7633 0.7633 -0.646 48.5104 86.7752)" clip-path="url(#SVGID_2_)" fill-rule="evenodd" clip-rule="evenodd" fill="#169C16" width="0.795" height="103.312"/>
			
				<rect x="44.321" y="-19.112" transform="matrix(-0.6467 -0.7627 0.7627 -0.6467 48.8181 87.6987)" clip-path="url(#SVGID_2_)" fill-rule="evenodd" clip-rule="evenodd" fill="#169B16" width="0.796" height="103.313"/>
			
				<rect x="44.663" y="-18.708" transform="matrix(-0.6467 -0.7627 0.7627 -0.6467 49.074 88.6263)" clip-path="url(#SVGID_2_)" fill-rule="evenodd" clip-rule="evenodd" fill="#169B16" width="0.796" height="103.312"/>
			
				<rect x="45.007" y="-18.303" transform="matrix(-0.647 -0.7625 0.7625 -0.647 49.3526 89.5525)" clip-path="url(#SVGID_2_)" fill-rule="evenodd" clip-rule="evenodd" fill="#169B16" width="0.795" height="103.312"/>
			
				<rect x="45.349" y="-17.898" transform="matrix(-0.6467 -0.7627 0.7627 -0.6467 49.5865 90.4823)" clip-path="url(#SVGID_2_)" fill-rule="evenodd" clip-rule="evenodd" fill="#169B16" width="0.796" height="103.312"/>
			
				<rect x="45.693" y="-17.494" transform="matrix(-0.6467 -0.7627 0.7627 -0.6467 49.8432 91.4103)" clip-path="url(#SVGID_2_)" fill-rule="evenodd" clip-rule="evenodd" fill="#169B16" width="0.796" height="103.312"/>
			
				<rect x="46.036" y="-17.089" transform="matrix(-0.6467 -0.7627 0.7627 -0.6467 50.0997 92.3377)" clip-path="url(#SVGID_2_)" fill-rule="evenodd" clip-rule="evenodd" fill="#159A15" width="0.796" height="103.312"/>
			
				<rect x="46.378" y="-16.684" transform="matrix(-0.6467 -0.7627 0.7627 -0.6467 50.3552 93.2661)" clip-path="url(#SVGID_2_)" fill-rule="evenodd" clip-rule="evenodd" fill="#159A15" width="0.796" height="103.312"/>
			
				<rect x="46.722" y="-16.281" transform="matrix(-0.6467 -0.7627 0.7627 -0.6467 50.6121 94.1937)" clip-path="url(#SVGID_2_)" fill-rule="evenodd" clip-rule="evenodd" fill="#159A15" width="0.796" height="103.313"/>
			
				<rect x="47.065" y="-15.876" transform="matrix(-0.6467 -0.7627 0.7627 -0.6467 50.8684 95.1215)" clip-path="url(#SVGID_2_)" fill-rule="evenodd" clip-rule="evenodd" fill="#159A15" width="0.796" height="103.312"/>
			
				<rect x="47.408" y="-15.471" transform="matrix(-0.6467 -0.7627 0.7627 -0.6467 51.1245 96.0487)" clip-path="url(#SVGID_2_)" fill-rule="evenodd" clip-rule="evenodd" fill="#159A15" width="0.796" height="103.312"/>
			
				<rect x="47.751" y="-15.066" transform="matrix(-0.6467 -0.7627 0.7627 -0.6467 51.3805 96.9773)" clip-path="url(#SVGID_2_)" fill-rule="evenodd" clip-rule="evenodd" fill="#159A15" width="0.796" height="103.312"/>
			
				<rect x="48.094" y="-14.662" transform="matrix(-0.6463 -0.7631 0.7631 -0.6463 51.6043 97.907)" clip-path="url(#SVGID_2_)" fill-rule="evenodd" clip-rule="evenodd" fill="#159915" width="0.795" height="103.312"/>
			
				<rect x="48.437" y="-14.257" transform="matrix(-0.6467 -0.7627 0.7627 -0.6467 51.8937 98.8327)" clip-path="url(#SVGID_2_)" fill-rule="evenodd" clip-rule="evenodd" fill="#159915" width="0.796" height="103.312"/>
			
				<rect x="48.78" y="-13.853" transform="matrix(-0.6467 -0.7627 0.7627 -0.6467 52.1492 99.7611)" clip-path="url(#SVGID_2_)" fill-rule="evenodd" clip-rule="evenodd" fill="#159915" width="0.796" height="103.313"/>
			
				<rect x="49.123" y="-13.448" transform="matrix(-0.6467 -0.7627 0.7627 -0.6467 52.4057 100.6885)" clip-path="url(#SVGID_2_)" fill-rule="evenodd" clip-rule="evenodd" fill="#149914" width="0.796" height="103.312"/>
			
				<rect x="49.465" y="-13.043" transform="matrix(-0.6467 -0.7627 0.7627 -0.6467 52.6616 101.6161)" clip-path="url(#SVGID_2_)" fill-rule="evenodd" clip-rule="evenodd" fill="#149914" width="0.796" height="103.312"/>
			
				<rect x="49.809" y="-12.639" transform="matrix(-0.6467 -0.7627 0.7627 -0.6467 52.9187 102.5443)" clip-path="url(#SVGID_2_)" fill-rule="evenodd" clip-rule="evenodd" fill="#149814" width="0.796" height="103.312"/>
			
				<rect x="50.152" y="-12.234" transform="matrix(-0.6467 -0.7627 0.7627 -0.6467 53.1745 103.4723)" clip-path="url(#SVGID_2_)" fill-rule="evenodd" clip-rule="evenodd" fill="#149814" width="0.796" height="103.313"/>
			
				<rect x="50.495" y="-11.83" transform="matrix(-0.6467 -0.7627 0.7627 -0.6467 53.431 104.3997)" clip-path="url(#SVGID_2_)" fill-rule="evenodd" clip-rule="evenodd" fill="#149814" width="0.796" height="103.312"/>
			
				<rect x="50.838" y="-11.425" transform="matrix(-0.646 -0.7633 0.7633 -0.646 53.6267 105.3299)" clip-path="url(#SVGID_2_)" fill-rule="evenodd" clip-rule="evenodd" fill="#149814" width="0.795" height="103.312"/>
			
				<rect x="51.181" y="-11.021" transform="matrix(-0.6467 -0.7627 0.7627 -0.6467 53.9436 106.2562)" clip-path="url(#SVGID_2_)" fill-rule="evenodd" clip-rule="evenodd" fill="#149814" width="0.796" height="103.313"/>
			
				<rect x="51.524" y="-10.616" transform="matrix(-0.6467 -0.7627 0.7627 -0.6467 54.1997 107.1834)" clip-path="url(#SVGID_2_)" fill-rule="evenodd" clip-rule="evenodd" fill="#149814" width="0.796" height="103.313"/>
			
				<rect x="51.867" y="-10.211" transform="matrix(-0.6467 -0.7627 0.7627 -0.6467 54.456 108.1112)" clip-path="url(#SVGID_2_)" fill-rule="evenodd" clip-rule="evenodd" fill="#149714" width="0.796" height="103.312"/>
			
				<rect x="52.21" y="-9.807" transform="matrix(-0.646 -0.7633 0.7633 -0.646 54.6498 109.0412)" clip-path="url(#SVGID_2_)" fill-rule="evenodd" clip-rule="evenodd" fill="#139713" width="0.795" height="103.312"/>
			
				<rect x="52.553" y="-9.402" transform="matrix(-0.6467 -0.7627 0.7627 -0.6467 54.9689 109.9674)" clip-path="url(#SVGID_2_)" fill-rule="evenodd" clip-rule="evenodd" fill="#139713" width="0.796" height="103.313"/>
			
				<rect x="52.896" y="-8.998" transform="matrix(-0.6467 -0.7627 0.7627 -0.6467 55.2248 110.895)" clip-path="url(#SVGID_2_)" fill-rule="evenodd" clip-rule="evenodd" fill="#139713" width="0.796" height="103.312"/>
			
				<rect x="53.239" y="-8.593" transform="matrix(-0.647 -0.7625 0.7625 -0.647 55.5084 111.8221)" clip-path="url(#SVGID_2_)" fill-rule="evenodd" clip-rule="evenodd" fill="#139713" width="0.795" height="103.312"/>
			
				<rect x="53.582" y="-8.188" transform="matrix(-0.6467 -0.7627 0.7627 -0.6467 55.7368 112.7508)" clip-path="url(#SVGID_2_)" fill-rule="evenodd" clip-rule="evenodd" fill="#139713" width="0.796" height="103.312"/>
			
				<rect x="53.925" y="-7.784" transform="matrix(-0.6467 -0.7627 0.7627 -0.6467 55.9941 113.6786)" clip-path="url(#SVGID_2_)" fill-rule="evenodd" clip-rule="evenodd" fill="#139613" width="0.796" height="103.313"/>
			
				<rect x="54.268" y="-7.38" transform="matrix(-0.6467 -0.7627 0.7627 -0.6467 56.25 114.6062)" clip-path="url(#SVGID_2_)" fill-rule="evenodd" clip-rule="evenodd" fill="#139613" width="0.796" height="103.312"/>
			
				<rect x="54.611" y="-6.975" transform="matrix(-0.6467 -0.7627 0.7627 -0.6467 56.5063 115.534)" clip-path="url(#SVGID_2_)" fill-rule="evenodd" clip-rule="evenodd" fill="#139613" width="0.796" height="103.312"/>
			
				<rect x="54.954" y="-6.57" transform="matrix(-0.646 -0.7633 0.7633 -0.646 56.696 116.4637)" clip-path="url(#SVGID_2_)" fill-rule="evenodd" clip-rule="evenodd" fill="#139613" width="0.795" height="103.312"/>
			
				<rect x="55.297" y="-6.166" transform="matrix(-0.6467 -0.7627 0.7627 -0.6467 57.0192 117.3902)" clip-path="url(#SVGID_2_)" fill-rule="evenodd" clip-rule="evenodd" fill="#129612" width="0.796" height="103.312"/>
			
				<rect x="55.64" y="-5.761" transform="matrix(-0.6467 -0.7627 0.7627 -0.6467 57.2753 118.3174)" clip-path="url(#SVGID_2_)" fill-rule="evenodd" clip-rule="evenodd" fill="#129512" width="0.796" height="103.312"/>
			
				<rect x="55.983" y="-5.356" transform="matrix(-0.6467 -0.7627 0.7627 -0.6467 57.5312 119.246)" clip-path="url(#SVGID_2_)" fill-rule="evenodd" clip-rule="evenodd" fill="#129512" width="0.796" height="103.312"/>
			
				<rect x="56.327" y="-4.952" transform="matrix(-0.646 -0.7633 0.7633 -0.646 57.7191 120.175)" clip-path="url(#SVGID_2_)" fill-rule="evenodd" clip-rule="evenodd" fill="#129512" width="0.795" height="103.312"/>
			
				<rect x="56.669" y="-4.548" transform="matrix(-0.6467 -0.7627 0.7627 -0.6467 58.0444 121.1014)" clip-path="url(#SVGID_2_)" fill-rule="evenodd" clip-rule="evenodd" fill="#129512" width="0.796" height="103.312"/>
			
				<rect x="57.012" y="-4.143" transform="matrix(-0.647 -0.7625 0.7625 -0.647 58.3296 122.0294)" clip-path="url(#SVGID_2_)" fill-rule="evenodd" clip-rule="evenodd" fill="#129512" width="0.795" height="103.313"/>
			
				<rect x="57.355" y="-3.738" transform="matrix(-0.6467 -0.7627 0.7627 -0.6467 58.5565 122.9572)" clip-path="url(#SVGID_2_)" fill-rule="evenodd" clip-rule="evenodd" fill="#129512" width="0.796" height="103.312"/>
			
				<rect x="57.698" y="-3.333" transform="matrix(-0.6467 -0.7627 0.7627 -0.6467 58.8124 123.8848)" clip-path="url(#SVGID_2_)" fill-rule="evenodd" clip-rule="evenodd" fill="#129412" width="0.796" height="103.312"/>
			
				<rect x="58.041" y="-2.929" transform="matrix(-0.6467 -0.7627 0.7627 -0.6467 59.0697 124.8126)" clip-path="url(#SVGID_2_)" fill-rule="evenodd" clip-rule="evenodd" fill="#119411" width="0.796" height="103.312"/>
			
				<rect x="58.384" y="-2.525" transform="matrix(-0.6467 -0.7627 0.7627 -0.6467 59.3252 125.741)" clip-path="url(#SVGID_2_)" fill-rule="evenodd" clip-rule="evenodd" fill="#119411" width="0.796" height="103.313"/>
			
				<rect x="58.727" y="-2.12" transform="matrix(-0.6467 -0.7627 0.7627 -0.6467 59.5815 126.6688)" clip-path="url(#SVGID_2_)" fill-rule="evenodd" clip-rule="evenodd" fill="#119411" width="0.796" height="103.312"/>
			
				<rect x="59.071" y="-1.715" transform="matrix(-0.646 -0.7633 0.7633 -0.646 59.7657 127.5967)" clip-path="url(#SVGID_2_)" fill-rule="evenodd" clip-rule="evenodd" fill="#119411" width="0.795" height="103.312"/>
			
				<rect x="59.414" y="-1.311" transform="matrix(-0.647 -0.7625 0.7625 -0.647 60.1254 128.5249)" clip-path="url(#SVGID_2_)" fill-rule="evenodd" clip-rule="evenodd" fill="#119311" width="0.795" height="103.313"/>
			
				<rect x="59.756" y="-0.906" transform="matrix(-0.6467 -0.7627 0.7627 -0.6467 60.3503 129.4526)" clip-path="url(#SVGID_2_)" fill-rule="evenodd" clip-rule="evenodd" fill="#119311" width="0.796" height="103.312"/>
			
				<rect x="60.099" y="-0.501" transform="matrix(-0.6467 -0.7627 0.7627 -0.6467 60.6068 130.38)" clip-path="url(#SVGID_2_)" fill-rule="evenodd" clip-rule="evenodd" fill="#119311" width="0.796" height="103.312"/>
			
				<rect x="60.443" y="-0.097" transform="matrix(-0.646 -0.7633 0.7633 -0.646 60.7886 131.3083)" clip-path="url(#SVGID_2_)" fill-rule="evenodd" clip-rule="evenodd" fill="#119311" width="0.795" height="103.313"/>
			
				<rect x="60.785" y="0.308" transform="matrix(-0.6467 -0.7627 0.7627 -0.6467 61.1196 132.2362)" clip-path="url(#SVGID_2_)" fill-rule="evenodd" clip-rule="evenodd" fill="#119311" width="0.796" height="103.313"/>
			
				<rect x="61.128" y="0.712" transform="matrix(-0.6467 -0.7627 0.7627 -0.6467 61.3755 133.1638)" clip-path="url(#SVGID_2_)" fill-rule="evenodd" clip-rule="evenodd" fill="#109310" width="0.796" height="103.312"/>
			
				<rect x="61.471" y="1.117" transform="matrix(-0.6467 -0.7627 0.7627 -0.6467 61.632 134.0912)" clip-path="url(#SVGID_2_)" fill-rule="evenodd" clip-rule="evenodd" fill="#109210" width="0.796" height="103.312"/>
			
				<rect x="61.814" y="1.522" transform="matrix(-0.6467 -0.7627 0.7627 -0.6467 61.8876 135.0196)" clip-path="url(#SVGID_2_)" fill-rule="evenodd" clip-rule="evenodd" fill="#109210" width="0.796" height="103.312"/>
			
				<rect x="62.158" y="1.926" transform="matrix(-0.647 -0.7625 0.7625 -0.647 62.1774 135.9479)" clip-path="url(#SVGID_2_)" fill-rule="evenodd" clip-rule="evenodd" fill="#109210" width="0.795" height="103.313"/>
			
				<rect x="62.5" y="2.33" transform="matrix(-0.6467 -0.7627 0.7627 -0.6467 62.4008 136.875)" clip-path="url(#SVGID_2_)" fill-rule="evenodd" clip-rule="evenodd" fill="#109210" width="0.796" height="103.312"/>
			
				<rect x="62.844" y="2.735" transform="matrix(-0.647 -0.7625 0.7625 -0.647 62.6898 137.8038)" clip-path="url(#SVGID_2_)" fill-rule="evenodd" clip-rule="evenodd" fill="#109210" width="0.795" height="103.313"/>
			
				<rect x="63.187" y="3.14" transform="matrix(-0.646 -0.7633 0.7633 -0.646 62.835 138.7305)" clip-path="url(#SVGID_2_)" fill-rule="evenodd" clip-rule="evenodd" fill="#109110" width="0.795" height="103.312"/>
			
				<rect x="63.53" y="3.544" transform="matrix(-0.6467 -0.7627 0.7627 -0.6467 63.1699 139.6589)" clip-path="url(#SVGID_2_)" fill-rule="evenodd" clip-rule="evenodd" fill="#109110" width="0.796" height="103.312"/>
			
				<rect x="63.872" y="3.949" transform="matrix(-0.6467 -0.7627 0.7627 -0.6467 63.426 140.5862)" clip-path="url(#SVGID_2_)" fill-rule="evenodd" clip-rule="evenodd" fill="#109110" width="0.796" height="103.312"/>
			
				<rect x="64.215" y="4.354" transform="matrix(-0.6467 -0.7627 0.7627 -0.6467 63.682 141.5148)" clip-path="url(#SVGID_2_)" fill-rule="evenodd" clip-rule="evenodd" fill="#0F910F" width="0.796" height="103.312"/>
			
				<rect x="64.558" y="4.758" transform="matrix(-0.6467 -0.7627 0.7627 -0.6467 63.9381 142.442)" clip-path="url(#SVGID_2_)" fill-rule="evenodd" clip-rule="evenodd" fill="#0F910F" width="0.796" height="103.312"/>
			
				<rect x="64.902" y="5.162" transform="matrix(-0.6467 -0.7627 0.7627 -0.6467 64.1952 143.3701)" clip-path="url(#SVGID_2_)" fill-rule="evenodd" clip-rule="evenodd" fill="#0F910F" width="0.796" height="103.312"/>
			
				<rect x="65.244" y="5.567" transform="matrix(-0.6467 -0.7627 0.7627 -0.6467 64.4511 144.2977)" clip-path="url(#SVGID_2_)" fill-rule="evenodd" clip-rule="evenodd" fill="#0F900F" width="0.796" height="103.312"/>
			
				<rect x="65.587" y="5.972" transform="matrix(-0.6467 -0.7627 0.7627 -0.6467 64.7068 145.2258)" clip-path="url(#SVGID_2_)" fill-rule="evenodd" clip-rule="evenodd" fill="#0F900F" width="0.796" height="103.313"/>
			
				<rect x="65.93" y="6.376" transform="matrix(-0.647 -0.7625 0.7625 -0.647 64.9981 146.1541)" clip-path="url(#SVGID_2_)" fill-rule="evenodd" clip-rule="evenodd" fill="#0F900F" width="0.795" height="103.312"/>
			
				<rect x="66.274" y="6.781" transform="matrix(-0.6463 -0.7631 0.7631 -0.6463 65.1724 147.0809)" clip-path="url(#SVGID_2_)" fill-rule="evenodd" clip-rule="evenodd" fill="#0F900F" width="0.795" height="103.312"/>
			
				<rect x="66.617" y="7.185" transform="matrix(-0.6467 -0.7627 0.7627 -0.6467 65.476 148.0097)" clip-path="url(#SVGID_2_)" fill-rule="evenodd" clip-rule="evenodd" fill="#0F900F" width="0.796" height="103.313"/>
			
				<rect x="66.96" y="7.59" transform="matrix(-0.6467 -0.7627 0.7627 -0.6467 65.7325 148.9371)" clip-path="url(#SVGID_2_)" fill-rule="evenodd" clip-rule="evenodd" fill="#0F8F0F" width="0.796" height="103.312"/>
			
				<rect x="67.303" y="7.995" transform="matrix(-0.646 -0.7633 0.7633 -0.646 65.9047 149.8635)" clip-path="url(#SVGID_2_)" fill-rule="evenodd" clip-rule="evenodd" fill="#0E8F0E" width="0.795" height="103.312"/>
			
				<rect x="67.646" y="8.399" transform="matrix(-0.6467 -0.7627 0.7627 -0.6467 66.2455 150.7929)" clip-path="url(#SVGID_2_)" fill-rule="evenodd" clip-rule="evenodd" fill="#0E8F0E" width="0.796" height="103.312"/>
			
				<rect x="67.989" y="8.804" transform="matrix(-0.6467 -0.7627 0.7627 -0.6467 66.5012 151.7209)" clip-path="url(#SVGID_2_)" fill-rule="evenodd" clip-rule="evenodd" fill="#0E8F0E" width="0.796" height="103.313"/>
			
				<rect x="68.332" y="9.209" transform="matrix(-0.6467 -0.7627 0.7627 -0.6467 66.7576 152.6487)" clip-path="url(#SVGID_2_)" fill-rule="evenodd" clip-rule="evenodd" fill="#0E8F0E" width="0.796" height="103.312"/>
			
				<rect x="68.674" y="9.613" transform="matrix(-0.6467 -0.7627 0.7627 -0.6467 67.0135 153.5763)" clip-path="url(#SVGID_2_)" fill-rule="evenodd" clip-rule="evenodd" fill="#0E8F0E" width="0.796" height="103.312"/>
			
				<rect x="69.018" y="10.017" transform="matrix(-0.6467 -0.7627 0.7627 -0.6467 67.27 154.5047)" clip-path="url(#SVGID_2_)" fill-rule="evenodd" clip-rule="evenodd" fill="#0E8E0E" width="0.796" height="103.313"/>
			
				<rect x="69.361" y="10.422" transform="matrix(-0.647 -0.7625 0.7625 -0.647 67.5634 155.4334)" clip-path="url(#SVGID_2_)" fill-rule="evenodd" clip-rule="evenodd" fill="#0E8E0E" width="0.795" height="103.313"/>
			
				<rect x="69.703" y="10.826" transform="matrix(-0.6467 -0.7627 0.7627 -0.6467 67.7824 156.3597)" clip-path="url(#SVGID_2_)" fill-rule="evenodd" clip-rule="evenodd" fill="#0E8E0E" width="0.796" height="103.312"/>
			
				<rect x="70.046" y="11.232" transform="matrix(-0.6467 -0.7627 0.7627 -0.6467 68.0383 157.2883)" clip-path="url(#SVGID_2_)" fill-rule="evenodd" clip-rule="evenodd" fill="#0E8E0E" width="0.796" height="103.312"/>
			
				<rect x="70.39" y="11.636" transform="matrix(-0.646 -0.7633 0.7633 -0.646 68.2067 158.2137)" clip-path="url(#SVGID_2_)" fill-rule="evenodd" clip-rule="evenodd" fill="#0D8E0D" width="0.795" height="103.312"/>
			
				<rect x="70.733" y="12.04" transform="matrix(-0.6467 -0.7627 0.7627 -0.6467 68.5516 159.1437)" clip-path="url(#SVGID_2_)" fill-rule="evenodd" clip-rule="evenodd" fill="#0D8D0D" width="0.796" height="103.312"/>
			
				<rect x="71.076" y="12.445" transform="matrix(-0.647 -0.7625 0.7625 -0.647 68.846 160.0725)" clip-path="url(#SVGID_2_)" fill-rule="evenodd" clip-rule="evenodd" fill="#0D8D0D" width="0.795" height="103.312"/>
			
				<rect x="71.419" y="12.85" transform="matrix(-0.6467 -0.7627 0.7627 -0.6467 69.0636 160.9995)" clip-path="url(#SVGID_2_)" fill-rule="evenodd" clip-rule="evenodd" fill="#0D8D0D" width="0.796" height="103.312"/>
			
				<rect x="71.762" y="13.254" transform="matrix(-0.6467 -0.7627 0.7627 -0.6467 69.3207 161.9277)" clip-path="url(#SVGID_2_)" fill-rule="evenodd" clip-rule="evenodd" fill="#0D8D0D" width="0.796" height="103.312"/>
			
				<rect x="72.105" y="13.659" transform="matrix(-0.6467 -0.7627 0.7627 -0.6467 69.5768 162.8549)" clip-path="url(#SVGID_2_)" fill-rule="evenodd" clip-rule="evenodd" fill="#0D8D0D" width="0.796" height="103.312"/>
			
				<rect x="72.448" y="14.063" transform="matrix(-0.647 -0.7625 0.7625 -0.647 69.8717 163.7847)" clip-path="url(#SVGID_2_)" fill-rule="evenodd" clip-rule="evenodd" fill="#0D8D0D" width="0.795" height="103.313"/>
			
				<rect x="72.791" y="14.468" transform="matrix(-0.647 -0.7625 0.7625 -0.647 70.1278 164.7123)" clip-path="url(#SVGID_2_)" fill-rule="evenodd" clip-rule="evenodd" fill="#0D8C0D" width="0.795" height="103.312"/>
			
				<rect x="73.134" y="14.872" transform="matrix(-0.6467 -0.7627 0.7627 -0.6467 70.3456 165.6387)" clip-path="url(#SVGID_2_)" fill-rule="evenodd" clip-rule="evenodd" fill="#0C8C0C" width="0.796" height="103.313"/>
			
				<rect x="73.477" y="15.277" transform="matrix(-0.6467 -0.7627 0.7627 -0.6467 70.6017 166.5669)" clip-path="url(#SVGID_2_)" fill-rule="evenodd" clip-rule="evenodd" fill="#0C8C0C" width="0.796" height="103.313"/>
			
				<rect x="73.82" y="15.682" transform="matrix(-0.6467 -0.7627 0.7627 -0.6467 70.8576 167.4945)" clip-path="url(#SVGID_2_)" fill-rule="evenodd" clip-rule="evenodd" fill="#0C8C0C" width="0.796" height="103.313"/>
			
				<rect x="74.163" y="16.086" transform="matrix(-0.6467 -0.7627 0.7627 -0.6467 71.1139 168.4223)" clip-path="url(#SVGID_2_)" fill-rule="evenodd" clip-rule="evenodd" fill="#0C8C0C" width="0.796" height="103.312"/>
			
				<rect x="74.506" y="16.491" transform="matrix(-0.646 -0.7633 0.7633 -0.646 71.2764 169.3467)" clip-path="url(#SVGID_2_)" fill-rule="evenodd" clip-rule="evenodd" fill="#0C8B0C" width="0.795" height="103.312"/>
			
				<rect x="74.849" y="16.895" transform="matrix(-0.6467 -0.7627 0.7627 -0.6467 71.6267 170.2785)" clip-path="url(#SVGID_2_)" fill-rule="evenodd" clip-rule="evenodd" fill="#0C8B0C" width="0.796" height="103.313"/>
			
				<rect x="75.192" y="17.3" transform="matrix(-0.6467 -0.7627 0.7627 -0.6467 71.8831 171.2063)" clip-path="url(#SVGID_2_)" fill-rule="evenodd" clip-rule="evenodd" fill="#0C8B0C" width="0.796" height="103.312"/>
			
				<rect x="75.535" y="17.705" transform="matrix(-0.6467 -0.7627 0.7627 -0.6467 72.1392 172.1335)" clip-path="url(#SVGID_2_)" fill-rule="evenodd" clip-rule="evenodd" fill="#0C8B0C" width="0.796" height="103.312"/>
			
				<rect x="75.878" y="18.109" transform="matrix(-0.647 -0.7625 0.7625 -0.647 72.4369 173.064)" clip-path="url(#SVGID_2_)" fill-rule="evenodd" clip-rule="evenodd" fill="#0C8B0C" width="0.795" height="103.313"/>
			
				<rect x="76.221" y="18.514" transform="matrix(-0.647 -0.7625 0.7625 -0.647 72.693 173.9916)" clip-path="url(#SVGID_2_)" fill-rule="evenodd" clip-rule="evenodd" fill="#0B8B0B" width="0.795" height="103.313"/>
			
				<rect x="76.564" y="18.918" transform="matrix(-0.6467 -0.7627 0.7627 -0.6467 72.9079 174.9173)" clip-path="url(#SVGID_2_)" fill-rule="evenodd" clip-rule="evenodd" fill="#0B8A0B" width="0.796" height="103.312"/>
			
				<rect x="76.907" y="19.323" transform="matrix(-0.6467 -0.7627 0.7627 -0.6467 73.164 175.8455)" clip-path="url(#SVGID_2_)" fill-rule="evenodd" clip-rule="evenodd" fill="#0B8A0B" width="0.796" height="103.313"/>
			
				<rect x="77.25" y="19.728" transform="matrix(-0.646 -0.7633 0.7633 -0.646 73.322 176.7694)" clip-path="url(#SVGID_2_)" fill-rule="evenodd" clip-rule="evenodd" fill="#0B8A0B" width="0.795" height="103.312"/>
			
				<rect x="77.593" y="20.132" transform="matrix(-0.6467 -0.7627 0.7627 -0.6467 73.6771 177.7012)" clip-path="url(#SVGID_2_)" fill-rule="evenodd" clip-rule="evenodd" fill="#0B8A0B" width="0.796" height="103.312"/>
			
				<rect x="77.936" y="20.536" transform="matrix(-0.6467 -0.7627 0.7627 -0.6467 73.9332 178.6284)" clip-path="url(#SVGID_2_)" fill-rule="evenodd" clip-rule="evenodd" fill="#0B8A0B" width="0.796" height="103.312"/>
			
				<rect x="78.279" y="20.942" transform="matrix(-0.6467 -0.7627 0.7627 -0.6467 74.1891 179.5571)" clip-path="url(#SVGID_2_)" fill-rule="evenodd" clip-rule="evenodd" fill="#0B8A0B" width="0.796" height="103.312"/>
			
				<rect x="78.623" y="21.346" transform="matrix(-0.646 -0.7633 0.7633 -0.646 74.3457 180.4805)" clip-path="url(#SVGID_2_)" fill-rule="evenodd" clip-rule="evenodd" fill="#0B890B" width="0.795" height="103.312"/>
			
				<rect x="78.965" y="21.75" transform="matrix(-0.6467 -0.7627 0.7627 -0.6467 74.7023 181.4124)" clip-path="url(#SVGID_2_)" fill-rule="evenodd" clip-rule="evenodd" fill="#0B890B" width="0.796" height="103.312"/>
			
				<rect x="79.308" y="22.155" transform="matrix(-0.647 -0.7625 0.7625 -0.647 75.0017 182.3421)" clip-path="url(#SVGID_2_)" fill-rule="evenodd" clip-rule="evenodd" fill="#0A890A" width="0.795" height="103.312"/>
			
				<rect x="79.651" y="22.56" transform="matrix(-0.6467 -0.7627 0.7627 -0.6467 75.2144 183.2682)" clip-path="url(#SVGID_2_)" fill-rule="evenodd" clip-rule="evenodd" fill="#0A890A" width="0.796" height="103.312"/>
			
				<rect x="79.994" y="22.964" transform="matrix(-0.6467 -0.7627 0.7627 -0.6467 75.4717 184.196)" clip-path="url(#SVGID_2_)" fill-rule="evenodd" clip-rule="evenodd" fill="#0A890A" width="0.796" height="103.313"/>
			
				<rect x="80.337" y="23.368" transform="matrix(-0.6467 -0.7627 0.7627 -0.6467 75.7276 185.1236)" clip-path="url(#SVGID_2_)" fill-rule="evenodd" clip-rule="evenodd" fill="#0A880A" width="0.796" height="103.312"/>
			
				<rect x="80.68" y="23.773" transform="matrix(-0.6467 -0.7627 0.7627 -0.6467 75.9835 186.0512)" clip-path="url(#SVGID_2_)" fill-rule="evenodd" clip-rule="evenodd" fill="#0A880A" width="0.796" height="103.312"/>
			
				<rect x="81.023" y="24.178" transform="matrix(-0.6467 -0.7627 0.7627 -0.6467 76.2396 186.9794)" clip-path="url(#SVGID_2_)" fill-rule="evenodd" clip-rule="evenodd" fill="#0A880A" width="0.796" height="103.312"/>
			
				<rect x="81.367" y="24.583" transform="matrix(-0.646 -0.7633 0.7633 -0.646 76.3917 187.9024)" clip-path="url(#SVGID_2_)" fill-rule="evenodd" clip-rule="evenodd" fill="#0A880A" width="0.795" height="103.312"/>
			
				<rect x="81.709" y="24.987" transform="matrix(-0.6467 -0.7627 0.7627 -0.6467 76.7526 188.8352)" clip-path="url(#SVGID_2_)" fill-rule="evenodd" clip-rule="evenodd" fill="#0A880A" width="0.796" height="103.312"/>
			
				<rect x="82.052" y="25.392" transform="matrix(-0.6467 -0.7627 0.7627 -0.6467 77.0084 189.7632)" clip-path="url(#SVGID_2_)" fill-rule="evenodd" clip-rule="evenodd" fill="#0A880A" width="0.796" height="103.313"/>
			
				<rect x="82.395" y="25.796" transform="matrix(-0.6467 -0.7627 0.7627 -0.6467 77.2649 190.6906)" clip-path="url(#SVGID_2_)" fill-rule="evenodd" clip-rule="evenodd" fill="#098709" width="0.796" height="103.312"/>
			
				<rect x="82.739" y="26.201" transform="matrix(-0.6463 -0.7631 0.7631 -0.6463 77.4604 191.6161)" clip-path="url(#SVGID_2_)" fill-rule="evenodd" clip-rule="evenodd" fill="#098709" width="0.795" height="103.312"/>
			
				<rect x="83.081" y="26.605" transform="matrix(-0.6467 -0.7627 0.7627 -0.6467 77.7779 192.5464)" clip-path="url(#SVGID_2_)" fill-rule="evenodd" clip-rule="evenodd" fill="#098709" width="0.796" height="103.312"/>
			
				<rect x="83.424" y="27.01" transform="matrix(-0.6467 -0.7627 0.7627 -0.6467 78.034 193.4746)" clip-path="url(#SVGID_2_)" fill-rule="evenodd" clip-rule="evenodd" fill="#098709" width="0.796" height="103.312"/>
			
				<rect x="83.767" y="27.415" transform="matrix(-0.6467 -0.7627 0.7627 -0.6467 78.2899 194.4022)" clip-path="url(#SVGID_2_)" fill-rule="evenodd" clip-rule="evenodd" fill="#098709" width="0.796" height="103.312"/>
			
				<rect x="84.11" y="27.819" transform="matrix(-0.6467 -0.7627 0.7627 -0.6467 78.5466 195.3302)" clip-path="url(#SVGID_2_)" fill-rule="evenodd" clip-rule="evenodd" fill="#098609" width="0.796" height="103.312"/>
			
				<rect x="84.453" y="28.224" transform="matrix(-0.6467 -0.7627 0.7627 -0.6467 78.8028 196.2584)" clip-path="url(#SVGID_2_)" fill-rule="evenodd" clip-rule="evenodd" fill="#098609" width="0.796" height="103.313"/>
			
				<rect x="84.796" y="28.628" transform="matrix(-0.6467 -0.7627 0.7627 -0.6467 79.0587 197.186)" clip-path="url(#SVGID_2_)" fill-rule="evenodd" clip-rule="evenodd" fill="#098609" width="0.796" height="103.312"/>
			
				<rect x="85.139" y="29.033" transform="matrix(-0.647 -0.7625 0.7625 -0.647 79.3616 198.1163)" clip-path="url(#SVGID_2_)" fill-rule="evenodd" clip-rule="evenodd" fill="#098609" width="0.795" height="103.312"/>
			
				<rect x="85.483" y="29.438" transform="matrix(-0.646 -0.7633 0.7633 -0.646 79.461 199.0362)" clip-path="url(#SVGID_2_)" fill-rule="evenodd" clip-rule="evenodd" fill="#088608" width="0.795" height="103.312"/>
			
				<rect x="85.826" y="29.842" transform="matrix(-0.6467 -0.7627 0.7627 -0.6467 79.828 199.9696)" clip-path="url(#SVGID_2_)" fill-rule="evenodd" clip-rule="evenodd" fill="#088608" width="0.796" height="103.313"/>
			
				<rect x="86.168" y="30.246" transform="matrix(-0.6467 -0.7627 0.7627 -0.6467 80.0839 200.8972)" clip-path="url(#SVGID_2_)" fill-rule="evenodd" clip-rule="evenodd" fill="#088508" width="0.796" height="103.312"/>
			
				<rect x="86.511" y="30.651" transform="matrix(-0.6467 -0.7627 0.7627 -0.6467 80.3402 201.825)" clip-path="url(#SVGID_2_)" fill-rule="evenodd" clip-rule="evenodd" fill="#088508" width="0.796" height="103.312"/>
			
				<rect x="86.855" y="31.056" transform="matrix(-0.646 -0.7633 0.7633 -0.646 80.4847 202.7473)" clip-path="url(#SVGID_2_)" fill-rule="evenodd" clip-rule="evenodd" fill="#088508" width="0.795" height="103.312"/>
			
				<rect x="87.198" y="31.46" transform="matrix(-0.6467 -0.7627 0.7627 -0.6467 80.8531 203.6812)" clip-path="url(#SVGID_2_)" fill-rule="evenodd" clip-rule="evenodd" fill="#088508" width="0.796" height="103.312"/>
			
				<rect x="87.541" y="31.865" transform="matrix(-0.6467 -0.7627 0.7627 -0.6467 81.1096 204.6086)" clip-path="url(#SVGID_2_)" fill-rule="evenodd" clip-rule="evenodd" fill="#088508" width="0.796" height="103.312"/>
			
				<rect x="87.883" y="32.27" transform="matrix(-0.6467 -0.7627 0.7627 -0.6467 81.3651 205.537)" clip-path="url(#SVGID_2_)" fill-rule="evenodd" clip-rule="evenodd" fill="#088408" width="0.796" height="103.312"/>
			
				<rect x="88.227" y="32.674" transform="matrix(-0.646 -0.7633 0.7633 -0.646 81.5074 206.4583)" clip-path="url(#SVGID_2_)" fill-rule="evenodd" clip-rule="evenodd" fill="#078407" width="0.795" height="103.312"/>
			
				<rect x="88.57" y="33.078" transform="matrix(-0.6467 -0.7627 0.7627 -0.6467 81.8783 207.3924)" clip-path="url(#SVGID_2_)" fill-rule="evenodd" clip-rule="evenodd" fill="#078407" width="0.796" height="103.312"/>
			
				<rect x="88.912" y="33.483" transform="matrix(-0.6467 -0.7627 0.7627 -0.6467 82.1341 208.3204)" clip-path="url(#SVGID_2_)" fill-rule="evenodd" clip-rule="evenodd" fill="#078407" width="0.796" height="103.313"/>
			
				<rect x="89.255" y="33.888" transform="matrix(-0.6467 -0.7627 0.7627 -0.6467 82.3904 209.2482)" clip-path="url(#SVGID_2_)" fill-rule="evenodd" clip-rule="evenodd" fill="#078407" width="0.796" height="103.312"/>
			
				<rect x="89.599" y="34.292" transform="matrix(-0.646 -0.7633 0.7633 -0.646 82.5307 210.1692)" clip-path="url(#SVGID_2_)" fill-rule="evenodd" clip-rule="evenodd" fill="#078407" width="0.795" height="103.312"/>
			
				<rect x="89.942" y="34.697" transform="matrix(-0.6467 -0.7627 0.7627 -0.6467 82.9036 211.1035)" clip-path="url(#SVGID_2_)" fill-rule="evenodd" clip-rule="evenodd" fill="#078307" width="0.796" height="103.312"/>
			
				<rect x="90.284" y="35.101" transform="matrix(-0.6467 -0.7627 0.7627 -0.6467 83.1591 212.032)" clip-path="url(#SVGID_2_)" fill-rule="evenodd" clip-rule="evenodd" fill="#078307" width="0.796" height="103.313"/>
			
				<rect x="90.628" y="35.506" transform="matrix(-0.6467 -0.7627 0.7627 -0.6467 83.4154 212.9597)" clip-path="url(#SVGID_2_)" fill-rule="evenodd" clip-rule="evenodd" fill="#078307" width="0.796" height="103.312"/>
			
				<rect x="90.971" y="35.911" transform="matrix(-0.6467 -0.7627 0.7627 -0.6467 83.6719 213.8871)" clip-path="url(#SVGID_2_)" fill-rule="evenodd" clip-rule="evenodd" fill="#078307" width="0.796" height="103.312"/>
			
				<rect x="91.314" y="36.315" transform="matrix(-0.6467 -0.7627 0.7627 -0.6467 83.9283 214.8159)" clip-path="url(#SVGID_2_)" fill-rule="evenodd" clip-rule="evenodd" fill="#068306" width="0.796" height="103.313"/>
			
				<rect x="91.657" y="36.72" transform="matrix(-0.6467 -0.7627 0.7627 -0.6467 84.1846 215.7437)" clip-path="url(#SVGID_2_)" fill-rule="evenodd" clip-rule="evenodd" fill="#068206" width="0.796" height="103.312"/>
			
				<rect x="92" y="37.125" transform="matrix(-0.6467 -0.7627 0.7627 -0.6467 84.4407 216.6709)" clip-path="url(#SVGID_2_)" fill-rule="evenodd" clip-rule="evenodd" fill="#068206" width="0.796" height="103.312"/>
			
				<rect x="92.343" y="37.529" transform="matrix(-0.646 -0.7633 0.7633 -0.646 84.5769 217.5917)" clip-path="url(#SVGID_2_)" fill-rule="evenodd" clip-rule="evenodd" fill="#068206" width="0.795" height="103.313"/>
			
				<rect x="92.686" y="37.934" transform="matrix(-0.6467 -0.7627 0.7627 -0.6467 84.9535 218.5271)" clip-path="url(#SVGID_2_)" fill-rule="evenodd" clip-rule="evenodd" fill="#068206" width="0.796" height="103.313"/>
			
				<rect x="93.029" y="38.338" transform="matrix(-0.6467 -0.7627 0.7627 -0.6467 85.2094 219.4547)" clip-path="url(#SVGID_2_)" fill-rule="evenodd" clip-rule="evenodd" fill="#068206" width="0.796" height="103.312"/>
			
				<rect x="93.372" y="38.743" transform="matrix(-0.6467 -0.7627 0.7627 -0.6467 85.4659 220.3821)" clip-path="url(#SVGID_2_)" fill-rule="evenodd" clip-rule="evenodd" fill="#068206" width="0.796" height="103.312"/>
			
				<rect x="93.715" y="39.148" transform="matrix(-0.646 -0.7633 0.7633 -0.646 85.6 221.303)" clip-path="url(#SVGID_2_)" fill-rule="evenodd" clip-rule="evenodd" fill="#068106" width="0.795" height="103.312"/>
			
				<rect x="94.058" y="39.552" transform="matrix(-0.647 -0.7625 0.7625 -0.647 86.0306 222.2421)" clip-path="url(#SVGID_2_)" fill-rule="evenodd" clip-rule="evenodd" fill="#068106" width="0.795" height="103.313"/>
			
				<rect x="94.401" y="39.956" transform="matrix(-0.6467 -0.7627 0.7627 -0.6467 86.2347 223.1659)" clip-path="url(#SVGID_2_)" fill-rule="evenodd" clip-rule="evenodd" fill="#058105" width="0.796" height="103.312"/>
			
				<rect x="94.744" y="40.361" transform="matrix(-0.6467 -0.7627 0.7627 -0.6467 86.491 224.0937)" clip-path="url(#SVGID_2_)" fill-rule="evenodd" clip-rule="evenodd" fill="#058105" width="0.796" height="103.312"/>
			
				<rect x="95.087" y="40.766" transform="matrix(-0.6467 -0.7627 0.7627 -0.6467 86.7471 225.0219)" clip-path="url(#SVGID_2_)" fill-rule="evenodd" clip-rule="evenodd" fill="#058105" width="0.796" height="103.312"/>
			
				<rect x="95.43" y="41.17" transform="matrix(-0.647 -0.7625 0.7625 -0.647 87.0567 225.9534)" clip-path="url(#SVGID_2_)" fill-rule="evenodd" clip-rule="evenodd" fill="#058005" width="0.795" height="103.313"/>
			
				<rect x="95.773" y="41.575" transform="matrix(-0.6467 -0.7627 0.7627 -0.6467 87.2603 226.8773)" clip-path="url(#SVGID_2_)" fill-rule="evenodd" clip-rule="evenodd" fill="#058005" width="0.796" height="103.312"/>
			
				<rect x="96.116" y="41.98" transform="matrix(-0.6467 -0.7627 0.7627 -0.6467 87.5159 227.8057)" clip-path="url(#SVGID_2_)" fill-rule="evenodd" clip-rule="evenodd" fill="#058005" width="0.796" height="103.312"/>
			
				<rect x="96.459" y="42.384" transform="matrix(-0.646 -0.7633 0.7633 -0.646 87.6466 228.7247)" clip-path="url(#SVGID_2_)" fill-rule="evenodd" clip-rule="evenodd" fill="#058005" width="0.795" height="103.312"/>
			
				<rect x="96.802" y="42.788" transform="matrix(-0.6467 -0.7627 0.7627 -0.6467 88.0291 229.6611)" clip-path="url(#SVGID_2_)" fill-rule="evenodd" clip-rule="evenodd" fill="#058005" width="0.796" height="103.312"/>
			
				<rect x="97.145" y="43.193" transform="matrix(-0.6467 -0.7627 0.7627 -0.6467 88.285 230.5887)" clip-path="url(#SVGID_2_)" fill-rule="evenodd" clip-rule="evenodd" fill="#058005" width="0.796" height="103.312"/>
			
				<rect x="97.488" y="43.598" transform="matrix(-0.6467 -0.7627 0.7627 -0.6467 88.5411 231.5169)" clip-path="url(#SVGID_2_)" fill-rule="evenodd" clip-rule="evenodd" fill="#047F04" width="0.796" height="103.312"/>
			
				<rect x="97.831" y="44.002" transform="matrix(-0.646 -0.7633 0.7633 -0.646 88.6697 232.436)" clip-path="url(#SVGID_2_)" fill-rule="evenodd" clip-rule="evenodd" fill="#047F04" width="0.795" height="103.312"/>
			
				<rect x="98.174" y="44.407" transform="matrix(-0.6467 -0.7627 0.7627 -0.6467 89.0542 233.3727)" clip-path="url(#SVGID_2_)" fill-rule="evenodd" clip-rule="evenodd" fill="#047F04" width="0.796" height="103.312"/>
			
				<rect x="98.595" y="44.643" transform="matrix(-0.6464 -0.763 0.763 -0.6464 89.1486 233.9094)" clip-path="url(#SVGID_2_)" fill-rule="evenodd" clip-rule="evenodd" fill="#047F04" width="0.352" height="103.313"/>
		</g>
	</g>
	<path fill-rule="evenodd" clip-rule="evenodd" fill="#FCFAE6" d="M75.388,67.422c-4.201,4.822-8.019,6.367-11.125,6.374
		c-2.155,0.014-4.062-0.768-5.593-1.887c1.272-0.662,2.515-1.387,3.666-2.2c4.555-3.26,11.212-9.866,13.817-14.842
		c0.305-0.601,0.067-1.326-0.526-1.637c-0.588-0.304-1.319-0.07-1.628,0.523l0,0c-2.195,4.327-8.849,11.026-13.063,13.987
		c-1.25,0.894-2.695,1.7-4.156,2.405c-0.401-0.469-0.759-0.96-1.04-1.45c-0.032-0.059-0.059-0.105-0.101-0.156
		c0-0.004-0.009-0.014-0.009-0.018c0-0.01-0.045-0.092-0.13-0.322c-0.252-0.677-0.792-2.399-0.792-4.606
		c0.01-2.981,0.923-6.812,4.897-10.563c2.954-2.806,8.849-5.82,13.946-8.022c3.285-1.437,6.234-2.56,7.926-3.182
		c0.054,0.847,0.099,2.008,0.099,3.391C81.595,51.271,80.595,61.457,75.388,67.422L75.388,67.422L75.388,67.422z M83.759,40.022
		l-0.164-1.502l-1.433,0.496c-0.066,0.049-17.404,5.906-24.225,12.257c-4.479,4.188-5.666,8.831-5.656,12.318
		c0.011,3.475,1.105,5.843,1.151,5.944c0.045,0.088,0.092,0.169,0.146,0.241c0.018,0.041,0.036,0.076,0.063,0.108v-0.003
		c0.241,0.428,0.522,0.864,0.842,1.29c-2.074,0.843-4.042,1.45-5.429,1.719c-2.819,0.564-4.947,0.714-6.417,0.714
		c-0.657,0-1.205,0.544-1.205,1.211c0,0.669,0.544,1.209,1.205,1.209c1.638-0.003,3.92-0.168,6.89-0.763
		c1.785-0.363,4.206-1.124,6.701-2.205c2.019,1.813,4.765,3.146,8.034,3.152h0.019c3.96,0,8.455-2.042,12.924-7.207
		c5.924-6.899,6.761-17.511,6.784-23.791C83.99,42.104,83.766,40.058,83.759,40.022z"/>
</g>
</svg>
