<?xml version="1.0" encoding="utf-8"?>
<!-- Generator: Adobe Illustrator 17.0.0, SVG Export Plug-In . SVG Version: 6.00 Build 0)  -->
<!DOCTYPE svg PUBLIC "-//W3C//DTD SVG 1.1//EN" "http://www.w3.org/Graphics/SVG/1.1/DTD/svg11.dtd">
<svg version="1.1" id="Слой_1" xmlns="http://www.w3.org/2000/svg" xmlns:xlink="http://www.w3.org/1999/xlink" x="0px" y="0px"
	 width="18.378px" height="21.251px" viewBox="0 0 18.378 21.251" enable-background="new 0 0 18.378 21.251" xml:space="preserve">
<path fill-rule="evenodd" clip-rule="evenodd" fill="#FCFAE6" d="M9.189,0c5.075,0,9.189,4.114,9.189,9.189
	c0,4.474-3.198,8.201-7.433,9.021l-0.631,1.092l-1.125,1.948l-1.125-1.948L7.433,18.21C3.198,17.39,0,13.663,0,9.189
	C0,4.114,4.114,0,9.189,0L9.189,0z M9.189,5.743c-2.084,0-3.774,1.69-3.774,3.774c0,2.084,1.69,3.774,3.774,3.774
	s3.774-1.69,3.774-3.774C12.963,7.432,11.273,5.743,9.189,5.743z"/>
</svg>
