<?xml version="1.0" encoding="utf-8"?>
<!-- Generator: Adobe Illustrator 17.0.0, SVG Export Plug-In . SVG Version: 6.00 Build 0)  -->
<!DOCTYPE svg PUBLIC "-//W3C//DTD SVG 1.1//EN" "http://www.w3.org/Graphics/SVG/1.1/DTD/svg11.dtd">
<svg version="1.1" id="Слой_1" xmlns="http://www.w3.org/2000/svg" xmlns:xlink="http://www.w3.org/1999/xlink" x="0px" y="0px"
	 width="18.25px" height="18.25px" viewBox="0 0 18.25 18.25" enable-background="new 0 0 18.25 18.25" xml:space="preserve">
<path fill-rule="evenodd" clip-rule="evenodd" fill="none" stroke="#fcfae5" stroke-width="1.0001" stroke-miterlimit="22.9256" d="
	M9.125,17.75c4.751,0,8.625-3.874,8.625-8.625c0-4.75-3.874-8.625-8.625-8.625S0.5,4.374,0.5,9.125
	C0.5,13.876,4.374,17.75,9.125,17.75z"/>
<path fill-rule="evenodd" clip-rule="evenodd" fill="#fcfae5" d="M6.714,3.89c0.59-0.111,0.977,0.554,1.271,1.013
	c0.286,0.446,0.639,0.969,0.497,1.549C8.403,6.778,8.109,6.955,7.886,7.147c-0.219,0.19-0.554,0.364-0.635,0.655
	C7.119,8.275,7.409,8.771,7.588,9.054c0.408,0.638,0.901,1.214,1.53,1.727c0.304,0.249,0.727,0.582,1.151,0.497
	c0.633-0.128,0.8-0.909,1.49-1.013c0.656-0.099,1.1,0.376,1.471,0.695c0.357,0.308,0.933,0.703,0.894,1.232
	c-0.023,0.304-0.266,0.492-0.477,0.675c-0.215,0.187-0.403,0.397-0.615,0.536c-0.514,0.335-1.144,0.5-1.867,0.477
	c-0.709-0.022-1.274-0.263-1.787-0.536c-1.003-0.535-1.795-1.287-2.542-2.125C6.1,10.394,5.422,9.418,5.047,8.34
	c-0.468-1.347-0.22-2.731,0.537-3.595c0.128-0.147,0.331-0.3,0.516-0.457C6.284,4.13,6.455,3.939,6.714,3.89z"/>
</svg>
