<?xml version="1.0" encoding="utf-8"?>
<!-- Generator: Adobe Illustrator 17.0.0, SVG Export Plug-In . SVG Version: 6.00 Build 0)  -->
<!DOCTYPE svg PUBLIC "-//W3C//DTD SVG 1.1//EN" "http://www.w3.org/Graphics/SVG/1.1/DTD/svg11.dtd">
<svg version="1.1" id="Слой_1" xmlns="http://www.w3.org/2000/svg" xmlns:xlink="http://www.w3.org/1999/xlink" x="0px" y="0px"
	 width="113.061px" height="110.259px" viewBox="0 0 113.061 110.259" enable-background="new 0 0 113.061 110.259"
	 xml:space="preserve">
<path fill-rule="evenodd" clip-rule="evenodd" fill="#fcfae5" d="M90.82,18.233l4.345-5.442c0,0,0.128,0.103,0.32,0.258
	c0.192,0.155,0.449,0.359,0.698,0.574c0.251,0.212,0.502,0.425,0.69,0.584c0.094,0.079,0.171,0.147,0.225,0.195
	c0.054,0.048,0.085,0.076,0.085,0.076l0,0c0,0,0.108,0.095,0.296,0.262c0.094,0.083,0.208,0.185,0.339,0.301
	c0.065,0.059,0.136,0.12,0.208,0.185c0.072,0.067,0.148,0.137,0.227,0.211c0.158,0.147,0.329,0.306,0.509,0.474
	c0.09,0.085,0.183,0.171,0.279,0.26c0.093,0.091,0.188,0.183,0.285,0.277c0.193,0.189,0.392,0.383,0.595,0.581
	c0.05,0.049,0.101,0.1,0.152,0.149c0.05,0.051,0.1,0.102,0.149,0.153c0.101,0.103,0.201,0.206,0.302,0.308
	c0.2,0.207,0.404,0.41,0.597,0.617c0.193,0.207,0.383,0.411,0.567,0.608c0.091,0.098,0.181,0.196,0.27,0.291
	c0.089,0.095,0.172,0.191,0.254,0.284c0.164,0.185,0.32,0.359,0.462,0.52c0.289,0.321,0.517,0.599,0.681,0.79
	c0.163,0.192,0.255,0.302,0.255,0.302l-4.453,3.721c0,0-0.095-0.113-0.239-0.283c-0.072-0.084-0.155-0.183-0.245-0.289
	c-0.045-0.053-0.091-0.109-0.139-0.164c-0.048-0.054-0.097-0.11-0.147-0.166c-0.197-0.221-0.393-0.443-0.54-0.609
	c-0.074-0.083-0.135-0.154-0.18-0.2c-0.044-0.047-0.069-0.075-0.069-0.075l-0.857,0.783c0,0,0.037,0.04,0.102,0.109
	c0.063,0.071,0.153,0.174,0.261,0.295c0.109,0.122,0.234,0.264,0.37,0.416c0.067,0.076,0.137,0.156,0.208,0.235
	c0.069,0.082,0.139,0.165,0.209,0.248c0.141,0.166,0.281,0.332,0.412,0.488c0.065,0.078,0.13,0.152,0.189,0.225
	c0.059,0.073,0.115,0.142,0.165,0.205c0.204,0.254,0.342,0.424,0.342,0.424l5.442-4.345c0,0,0.103,0.128,0.257,0.32
	c0.151,0.194,0.351,0.456,0.551,0.717c0.101,0.131,0.2,0.261,0.294,0.384c0.094,0.123,0.177,0.24,0.249,0.339
	c0.146,0.199,0.243,0.332,0.243,0.332l0,0c0,0,0.085,0.116,0.233,0.32c0.151,0.202,0.352,0.5,0.599,0.853
	c0.122,0.178,0.258,0.369,0.395,0.574c0.136,0.206,0.279,0.424,0.428,0.649c0.3,0.448,0.6,0.939,0.906,1.427
	c0.155,0.243,0.298,0.492,0.443,0.736c0.144,0.244,0.285,0.484,0.423,0.716c0.263,0.471,0.511,0.909,0.719,1.288
	c0.201,0.382,0.37,0.7,0.486,0.923c0.06,0.111,0.105,0.199,0.137,0.259c0.031,0.06,0.046,0.092,0.046,0.092l-5.168,2.639
	c0,0-0.016-0.034-0.047-0.091c-0.029-0.058-0.073-0.139-0.125-0.238c-0.103-0.196-0.242-0.458-0.38-0.721
	c-0.068-0.132-0.141-0.26-0.209-0.382c-0.068-0.122-0.132-0.234-0.186-0.331c-0.108-0.194-0.18-0.324-0.18-0.324l-1.008,0.573
	c0,0,0.106,0.19,0.264,0.474c0.04,0.071,0.083,0.149,0.128,0.23c0.046,0.082,0.095,0.166,0.142,0.257
	c0.095,0.18,0.197,0.372,0.298,0.564c0.05,0.097,0.101,0.192,0.151,0.287c0.05,0.095,0.099,0.187,0.143,0.279
	c0.09,0.183,0.175,0.353,0.248,0.499c0.145,0.291,0.242,0.486,0.242,0.486l6.272-3.025c0,0,0.018,0.037,0.049,0.102
	c0.03,0.065,0.074,0.158,0.126,0.27c0.105,0.224,0.243,0.522,0.383,0.819c0.071,0.149,0.134,0.301,0.197,0.441
	c0.062,0.142,0.12,0.273,0.169,0.386c0.099,0.226,0.165,0.377,0.165,0.377v0c0,0,0.014,0.033,0.042,0.095
	c0.027,0.062,0.067,0.153,0.113,0.269l0.38,0.93h-1.253l-0.217-0.532c-0.04-0.098-0.074-0.174-0.097-0.226
	c-0.023-0.052-0.035-0.08-0.035-0.08l0,0c0,0-0.129-0.296-0.259-0.591c-0.065-0.147-0.129-0.295-0.177-0.406
	c-0.024-0.056-0.045-0.101-0.06-0.134c-0.015-0.032-0.023-0.05-0.023-0.05l-4.437,2.018h-2.307l-0.058-0.124
	c-0.031-0.064-0.064-0.13-0.098-0.199c-0.067-0.136-0.138-0.279-0.212-0.429c-0.074-0.148-0.151-0.302-0.228-0.458
	c-0.081-0.154-0.163-0.311-0.246-0.467c-0.324-0.631-0.677-1.244-0.935-1.709c-0.27-0.457-0.45-0.761-0.45-0.761l1.991-1.193
	c0,0-0.038-0.064-0.094-0.159c-0.028-0.048-0.061-0.104-0.096-0.163c-0.037-0.059-0.076-0.122-0.116-0.185
	c-0.157-0.251-0.314-0.503-0.314-0.503l-2.947,1.855c0,0,0.064,0.103,0.176,0.283c0.057,0.09,0.125,0.199,0.203,0.324
	c0.079,0.125,0.16,0.27,0.254,0.426c0.184,0.313,0.404,0.675,0.621,1.074c0.11,0.199,0.225,0.403,0.341,0.611
	c0.112,0.211,0.224,0.425,0.338,0.639c0.206,0.38,0.396,0.768,0.578,1.137h-1.295l-0.005-0.011
	c-0.029-0.059-0.059-0.117-0.088-0.176c-0.031-0.058-0.062-0.117-0.093-0.175c-0.124-0.235-0.25-0.475-0.376-0.713
	c-0.517-0.949-1.058-1.886-1.492-2.57c-0.107-0.172-0.205-0.33-0.293-0.469c-0.043-0.071-0.085-0.135-0.124-0.195
	c-0.04-0.059-0.076-0.114-0.108-0.163c-0.13-0.198-0.204-0.311-0.204-0.311l4.84-3.201c0,0,0.083,0.126,0.208,0.316
	c0.063,0.095,0.136,0.206,0.214,0.324c0.075,0.12,0.155,0.249,0.235,0.377c0.16,0.257,0.321,0.514,0.441,0.707
	c0.116,0.195,0.193,0.325,0.193,0.325l0.996-0.596c0,0-0.03-0.05-0.081-0.137c-0.027-0.043-0.057-0.097-0.094-0.157
	c-0.038-0.06-0.079-0.128-0.125-0.202c-0.092-0.148-0.2-0.32-0.315-0.504c-0.058-0.092-0.117-0.187-0.178-0.285
	c-0.03-0.048-0.061-0.097-0.091-0.146c-0.032-0.049-0.064-0.097-0.095-0.145c-0.127-0.194-0.255-0.388-0.375-0.569
	c-0.06-0.091-0.117-0.179-0.173-0.262c-0.054-0.083-0.106-0.162-0.156-0.233c-0.198-0.286-0.331-0.477-0.331-0.477l-5.721,3.971
	c0,0-0.153-0.222-0.308-0.444c-0.159-0.218-0.318-0.437-0.318-0.437s-0.08-0.109-0.219-0.301c-0.136-0.194-0.345-0.459-0.592-0.781
	c-0.242-0.325-0.544-0.69-0.861-1.086c-0.039-0.049-0.079-0.099-0.12-0.149c-0.041-0.049-0.083-0.099-0.125-0.148
	c-0.084-0.1-0.169-0.2-0.255-0.302c-0.086-0.102-0.173-0.204-0.259-0.307c-0.044-0.051-0.086-0.104-0.131-0.154l-0.135-0.151
	c-0.179-0.202-0.359-0.405-0.536-0.604c-0.087-0.101-0.179-0.196-0.268-0.292c-0.089-0.095-0.176-0.19-0.263-0.282
	c-0.342-0.375-0.677-0.709-0.96-1.001c-0.07-0.072-0.139-0.142-0.203-0.208c-0.066-0.064-0.129-0.126-0.189-0.183
	c-0.118-0.115-0.22-0.216-0.305-0.298c-0.17-0.166-0.266-0.26-0.266-0.26l4.012-4.194c0,0,0.433,0.423,0.867,0.846
	c0.423,0.434,0.846,0.867,0.846,0.867l0.839-0.802c0,0-0.163-0.166-0.405-0.415c-0.122-0.124-0.264-0.27-0.416-0.425
	c-0.154-0.154-0.32-0.315-0.486-0.477c-0.166-0.162-0.333-0.324-0.488-0.476c-0.159-0.148-0.308-0.287-0.435-0.405
	c-0.255-0.237-0.424-0.395-0.424-0.395l-4.7,5.139c0,0-0.049-0.046-0.124-0.115c-0.076-0.068-0.177-0.157-0.278-0.247
	c-0.202-0.18-0.405-0.359-0.405-0.359s-0.025-0.022-0.07-0.062c-0.044-0.039-0.107-0.096-0.185-0.16
	c-0.155-0.131-0.362-0.306-0.569-0.48c-0.203-0.177-0.416-0.345-0.574-0.472c-0.158-0.128-0.263-0.212-0.263-0.212
	s-0.079-0.063-0.217-0.175c-0.069-0.057-0.155-0.121-0.253-0.196c-0.098-0.075-0.209-0.16-0.33-0.253
	c-0.12-0.093-0.251-0.193-0.389-0.299c-0.141-0.102-0.29-0.212-0.443-0.324c-0.154-0.112-0.312-0.227-0.474-0.346
	c-0.162-0.116-0.331-0.229-0.497-0.345c-0.166-0.116-0.333-0.231-0.496-0.345c-0.167-0.109-0.331-0.218-0.49-0.322
	c-0.159-0.105-0.312-0.206-0.457-0.302c-0.149-0.092-0.288-0.18-0.416-0.26c-0.258-0.161-0.473-0.295-0.624-0.388
	c-0.153-0.091-0.241-0.142-0.241-0.142l2.981-4.979c0,0,0.131,0.077,0.326,0.194c0.193,0.12,0.45,0.28,0.707,0.44
	c0.128,0.081,0.257,0.16,0.377,0.236c0.118,0.078,0.229,0.151,0.324,0.213c0.19,0.125,0.316,0.208,0.316,0.208l0.64-0.968
	c0,0-0.194-0.128-0.484-0.319c-0.145-0.097-0.318-0.204-0.502-0.319c-0.185-0.115-0.381-0.238-0.578-0.361
	c-0.195-0.125-0.396-0.241-0.583-0.353c-0.187-0.11-0.362-0.214-0.512-0.302c-0.151-0.088-0.274-0.164-0.363-0.212
	c-0.088-0.049-0.139-0.078-0.139-0.078l-3.443,6.054c0,0-0.235-0.132-0.472-0.263c-0.118-0.066-0.236-0.132-0.324-0.182
	c-0.089-0.047-0.149-0.079-0.149-0.079s-0.12-0.063-0.328-0.174c-0.105-0.055-0.231-0.122-0.378-0.198
	c-0.073-0.038-0.149-0.081-0.232-0.122c-0.083-0.041-0.17-0.084-0.261-0.13c-0.181-0.09-0.378-0.188-0.586-0.291
	c-0.052-0.026-0.105-0.052-0.158-0.079c-0.054-0.025-0.109-0.051-0.164-0.076c-0.11-0.052-0.224-0.104-0.338-0.158
	c-0.115-0.054-0.231-0.108-0.35-0.164c-0.117-0.055-0.237-0.111-0.36-0.164c-0.243-0.106-0.491-0.214-0.738-0.323l-0.186-0.081
	c-0.063-0.025-0.125-0.051-0.187-0.076c-0.125-0.051-0.248-0.101-0.372-0.152c-0.123-0.05-0.245-0.1-0.366-0.149
	c-0.061-0.025-0.121-0.049-0.18-0.073c-0.06-0.023-0.12-0.046-0.179-0.068c-0.474-0.179-0.913-0.353-1.297-0.482
	c-0.191-0.068-0.367-0.129-0.522-0.184c-0.077-0.027-0.149-0.054-0.217-0.076c-0.067-0.022-0.13-0.042-0.186-0.06
	c-0.225-0.073-0.354-0.114-0.354-0.114l1.792-5.52c0,0,0.144,0.047,0.36,0.117c0.054,0.017,0.112,0.036,0.175,0.057
	c0.062,0.019,0.127,0.042,0.194,0.065c0.133,0.047,0.277,0.098,0.42,0.148c0.285,0.102,0.572,0.2,0.785,0.279
	c0.212,0.081,0.355,0.134,0.355,0.134l0.407-1.087c0,0-0.054-0.02-0.149-0.056c-0.047-0.018-0.105-0.041-0.171-0.065
	c-0.065-0.026-0.14-0.053-0.222-0.082c-0.329-0.115-0.766-0.271-1.205-0.423c-0.442-0.143-0.883-0.286-1.214-0.394
	c-0.333-0.099-0.556-0.166-0.556-0.166l-2.001,6.67c0,0-0.258-0.077-0.517-0.154c-0.129-0.04-0.26-0.075-0.357-0.101
	c-0.098-0.027-0.163-0.044-0.163-0.044s-0.131-0.036-0.359-0.097c-0.114-0.031-0.253-0.068-0.411-0.111
	c-0.16-0.039-0.34-0.083-0.537-0.131c-0.196-0.048-0.41-0.1-0.635-0.155c-0.227-0.05-0.467-0.101-0.714-0.155
	c-0.124-0.027-0.249-0.055-0.377-0.083c-0.127-0.028-0.257-0.05-0.388-0.076c-0.261-0.05-0.526-0.101-0.791-0.151
	c-1.065-0.185-2.134-0.347-2.94-0.434c-0.403-0.044-0.738-0.089-0.974-0.105c-0.236-0.021-0.371-0.033-0.371-0.033l0.514-5.781
	c0,0,0.151,0.013,0.377,0.033c0.113,0.011,0.246,0.02,0.386,0.036c0.141,0.016,0.292,0.034,0.442,0.051
	c0.301,0.034,0.602,0.069,0.827,0.095c0.225,0.031,0.375,0.052,0.375,0.052l0.155-1.151c0,0-0.057-0.008-0.158-0.022
	c-0.101-0.014-0.245-0.035-0.417-0.054c-0.345-0.039-0.806-0.094-1.268-0.143c-0.462-0.041-0.924-0.082-1.271-0.113
	c-0.347-0.022-0.579-0.038-0.579-0.038l-0.461,6.949c0,0-0.27-0.017-0.539-0.034c-0.068-0.005-0.135-0.009-0.199-0.013
	c-0.064-0.003-0.123-0.005-0.173-0.007c-0.102-0.004-0.169-0.006-0.169-0.006s-0.135-0.005-0.372-0.015
	c-0.118-0.005-0.261-0.01-0.426-0.016c-0.041-0.001-0.084-0.003-0.128-0.004c-0.044-0.001-0.088-0.001-0.135-0.002
	c-0.093-0.001-0.189-0.002-0.291-0.003c-0.204-0.003-0.424-0.006-0.657-0.008c-0.057-0.001-0.117-0.003-0.177-0.003
	c-0.059,0.001-0.12,0.002-0.181,0.003c-0.123,0.001-0.247,0.004-0.374,0.005c-0.127,0.001-0.255,0.003-0.386,0.005
	c-0.131,0.002-0.263,0-0.396,0.007c-0.266,0.01-0.537,0.021-0.807,0.031c-0.135,0.006-0.271,0.007-0.404,0.017
	c-0.135,0.009-0.269,0.017-0.402,0.026c-0.265,0.017-0.527,0.034-0.781,0.05c-0.252,0.022-0.496,0.044-0.728,0.065
	c-0.231,0.021-0.451,0.037-0.652,0.062c-0.403,0.046-0.739,0.085-0.974,0.111c-0.234,0.032-0.368,0.051-0.368,0.051l-0.771-5.752
	c0,0,0.15-0.021,0.375-0.052c0.226-0.026,0.527-0.061,0.827-0.095c0.151-0.017,0.301-0.035,0.442-0.051
	c0.141-0.016,0.274-0.025,0.386-0.036c0.226-0.02,0.378-0.033,0.378-0.033l-0.103-1.156c0,0-0.231,0.02-0.577,0.051
	c-0.087,0.007-0.181,0.017-0.28,0.029c-0.099,0.011-0.203,0.024-0.312,0.036c-0.216,0.024-0.446,0.051-0.677,0.077
	c-0.231,0.024-0.46,0.059-0.676,0.089c-0.215,0.03-0.416,0.058-0.589,0.082C50.394,4.094,50.25,4.112,50.15,4.13
	c-0.1,0.016-0.158,0.025-0.158,0.025l1.081,6.88c0,0-0.267,0.044-0.533,0.088c-0.134,0.022-0.267,0.043-0.367,0.06
	c-0.1,0.016-0.166,0.03-0.166,0.03s-0.531,0.102-1.062,0.203c-0.528,0.114-1.056,0.229-1.056,0.229s-0.025,0.005-0.071,0.015
	c-0.023,0.005-0.052,0.012-0.086,0.019c-0.034,0.008-0.072,0.017-0.115,0.028c-0.172,0.043-0.418,0.103-0.714,0.174
	c-0.296,0.068-0.637,0.164-1.003,0.263c-0.092,0.025-0.186,0.05-0.28,0.075c-0.094,0.026-0.19,0.05-0.285,0.08
	c-0.192,0.057-0.385,0.115-0.579,0.172c-0.097,0.029-0.194,0.058-0.291,0.086c-0.097,0.029-0.194,0.057-0.288,0.089
	c-0.189,0.061-0.375,0.122-0.556,0.181c-0.181,0.059-0.357,0.113-0.521,0.17c-0.164,0.058-0.319,0.113-0.462,0.164
	c-0.144,0.05-0.275,0.097-0.391,0.138c-0.117,0.041-0.218,0.076-0.301,0.109c-0.166,0.063-0.26,0.099-0.26,0.099l-2.04-5.434
	c0,0,0.142-0.054,0.353-0.134c0.214-0.079,0.5-0.177,0.786-0.279c0.142-0.05,0.285-0.101,0.42-0.148
	c0.066-0.024,0.132-0.046,0.193-0.065c0.063-0.02,0.121-0.039,0.175-0.057c0.216-0.07,0.36-0.117,0.36-0.117l-0.359-1.103
	c0,0-0.22,0.072-0.551,0.179c-0.33,0.111-0.767,0.269-1.205,0.422c-0.054,0.019-0.109,0.039-0.164,0.058
	c-0.055,0.02-0.108,0.041-0.161,0.061c-0.107,0.041-0.212,0.081-0.313,0.119c-0.204,0.078-0.393,0.15-0.556,0.212
	c-0.081,0.031-0.156,0.059-0.222,0.084c-0.065,0.027-0.122,0.05-0.169,0.069c-0.094,0.039-0.148,0.06-0.148,0.06l2.595,6.463
	c0,0-0.25,0.102-0.499,0.204c-0.126,0.051-0.251,0.101-0.344,0.141c-0.093,0.04-0.154,0.068-0.154,0.068s-0.124,0.054-0.34,0.149
	c-0.216,0.096-0.528,0.225-0.893,0.401c-0.183,0.086-0.382,0.178-0.593,0.276c-0.106,0.048-0.212,0.102-0.321,0.157
	c-0.109,0.054-0.221,0.109-0.334,0.166c-0.113,0.056-0.229,0.113-0.345,0.172c-0.059,0.029-0.118,0.058-0.176,0.088
	c-0.059,0.031-0.116,0.062-0.175,0.093c-0.235,0.124-0.474,0.25-0.713,0.377c-0.95,0.517-1.885,1.058-2.571,1.492
	c-0.172,0.107-0.33,0.206-0.469,0.293c-0.07,0.042-0.135,0.085-0.194,0.124c-0.06,0.039-0.114,0.076-0.164,0.108
	c-0.198,0.13-0.311,0.204-0.311,0.204l-3.201-4.841c0,0,0.126-0.084,0.316-0.208c0.095-0.062,0.206-0.135,0.324-0.213
	c0.12-0.075,0.249-0.155,0.377-0.236c0.257-0.16,0.514-0.321,0.707-0.441c0.195-0.116,0.326-0.193,0.326-0.193l-0.596-0.996
	c0,0-0.05,0.03-0.137,0.081c-0.044,0.027-0.097,0.057-0.158,0.094c-0.06,0.037-0.128,0.079-0.201,0.125
	c-0.148,0.092-0.32,0.2-0.504,0.315c-0.092,0.057-0.187,0.117-0.285,0.178c-0.048,0.031-0.097,0.061-0.146,0.091
	c-0.049,0.032-0.097,0.064-0.145,0.095c-0.194,0.128-0.388,0.256-0.569,0.375c-0.091,0.06-0.179,0.118-0.262,0.172
	c-0.084,0.055-0.163,0.107-0.233,0.157c-0.286,0.198-0.477,0.331-0.477,0.331l3.971,5.721c0,0-0.222,0.154-0.445,0.308
	c-0.218,0.159-0.437,0.319-0.437,0.319s-0.109,0.079-0.301,0.219c-0.194,0.136-0.459,0.345-0.781,0.592
	c-0.326,0.242-0.69,0.544-1.086,0.861c-0.049,0.039-0.099,0.079-0.149,0.12c-0.049,0.042-0.099,0.083-0.149,0.126
	c-0.1,0.084-0.2,0.169-0.302,0.255c-0.102,0.086-0.204,0.173-0.307,0.259c-0.052,0.044-0.104,0.086-0.155,0.131l-0.151,0.135
	c-0.203,0.18-0.405,0.359-0.604,0.536c-0.101,0.087-0.196,0.179-0.292,0.267c-0.096,0.089-0.19,0.177-0.282,0.264
	c-0.375,0.341-0.709,0.677-1,0.96c-0.073,0.071-0.142,0.139-0.208,0.203c-0.065,0.066-0.125,0.129-0.183,0.188
	c-0.115,0.118-0.215,0.221-0.299,0.305c-0.165,0.169-0.26,0.267-0.26,0.267l-4.194-4.011c0,0,0.423-0.433,0.846-0.867
	c0.434-0.423,0.867-0.847,0.867-0.847l-0.802-0.839c0,0-0.165,0.163-0.415,0.405c-0.124,0.122-0.27,0.263-0.426,0.415
	c-0.154,0.153-0.314,0.321-0.477,0.486c-0.162,0.166-0.324,0.333-0.476,0.488c-0.149,0.159-0.286,0.307-0.405,0.435
	c-0.237,0.255-0.396,0.424-0.396,0.424l5.139,4.7c0,0-0.045,0.05-0.114,0.123c-0.067,0.076-0.157,0.178-0.247,0.279
	c-0.179,0.202-0.359,0.404-0.359,0.404s-0.022,0.026-0.064,0.073c-0.021,0.024-0.047,0.053-0.078,0.087
	c-0.03,0.035-0.064,0.075-0.101,0.121c-0.153,0.181-0.372,0.438-0.634,0.749c-0.127,0.158-0.265,0.329-0.411,0.51
	c-0.073,0.09-0.148,0.183-0.225,0.279c-0.038,0.047-0.077,0.095-0.116,0.143c-0.037,0.05-0.076,0.1-0.115,0.15
	c-0.154,0.201-0.314,0.409-0.475,0.62c-0.04,0.053-0.081,0.105-0.121,0.159c-0.039,0.054-0.08,0.109-0.119,0.163
	c-0.08,0.109-0.159,0.218-0.239,0.327c-0.324,0.433-0.624,0.883-0.915,1.298c-0.074,0.103-0.14,0.209-0.208,0.311
	c-0.067,0.101-0.133,0.202-0.196,0.299c-0.064,0.097-0.127,0.192-0.186,0.282c-0.061,0.092-0.119,0.179-0.171,0.266
	c-0.215,0.344-0.394,0.63-0.519,0.832c-0.063,0.1-0.108,0.181-0.142,0.235c-0.031,0.054-0.049,0.084-0.049,0.084l-4.979-2.982
	c0,0,0.077-0.13,0.193-0.325c0.12-0.193,0.281-0.45,0.441-0.707c0.08-0.128,0.16-0.257,0.236-0.377
	c0.078-0.118,0.151-0.229,0.213-0.324c0.126-0.19,0.209-0.316,0.209-0.316l-0.968-0.64c0,0-0.128,0.193-0.319,0.484
	c-0.097,0.144-0.204,0.317-0.319,0.501c-0.115,0.184-0.238,0.381-0.361,0.578c-0.124,0.196-0.242,0.396-0.352,0.584
	c-0.111,0.187-0.214,0.362-0.303,0.512c-0.087,0.15-0.163,0.274-0.212,0.364c-0.05,0.088-0.077,0.139-0.077,0.139l6.053,3.443
	c0,0-0.132,0.236-0.263,0.472c-0.066,0.118-0.133,0.236-0.182,0.324c-0.047,0.09-0.079,0.149-0.079,0.149s-0.252,0.479-0.503,0.957
	c-0.241,0.484-0.481,0.968-0.481,0.968s-0.172,0.367-0.429,0.917c-0.251,0.554-0.577,1.295-0.877,2.048
	c-0.302,0.752-0.584,1.511-0.781,2.087c-0.05,0.143-0.097,0.274-0.138,0.39c-0.038,0.118-0.071,0.22-0.099,0.304
	c-0.054,0.17-0.086,0.266-0.086,0.266l-5.52-1.792c0,0,0.047-0.145,0.117-0.36c0.018-0.054,0.037-0.112,0.057-0.175
	c0.02-0.062,0.042-0.127,0.065-0.194c0.047-0.134,0.098-0.277,0.148-0.419c0.1-0.285,0.199-0.572,0.278-0.785
	c0.081-0.212,0.135-0.354,0.135-0.354L6.987,39.24c0,0-0.021,0.055-0.057,0.149c-0.018,0.047-0.04,0.105-0.065,0.171
	c-0.025,0.066-0.053,0.141-0.081,0.223c-0.115,0.329-0.271,0.766-0.422,1.205c-0.143,0.442-0.286,0.883-0.394,1.213
	c-0.1,0.334-0.166,0.556-0.166,0.556l6.671,2.001c0,0-0.078,0.258-0.155,0.517c-0.04,0.129-0.075,0.26-0.1,0.357
	c-0.027,0.098-0.044,0.163-0.044,0.163s-0.036,0.13-0.097,0.359c-0.031,0.114-0.069,0.253-0.112,0.411
	c-0.039,0.16-0.082,0.34-0.131,0.538c-0.048,0.197-0.1,0.41-0.156,0.635c-0.049,0.227-0.101,0.467-0.154,0.713
	c-0.027,0.124-0.055,0.25-0.083,0.378c-0.028,0.127-0.05,0.257-0.076,0.388c-0.05,0.261-0.101,0.526-0.151,0.791
	c-0.185,1.065-0.347,2.134-0.434,2.94c-0.045,0.403-0.088,0.738-0.105,0.975c-0.021,0.235-0.033,0.37-0.033,0.37L4.86,53.779
	c0,0,0.013-0.151,0.033-0.377c0.011-0.113,0.02-0.245,0.036-0.386c0.016-0.141,0.034-0.292,0.051-0.442
	c0.034-0.301,0.069-0.602,0.094-0.827c0.032-0.225,0.053-0.375,0.053-0.375l-1.151-0.154c0,0-0.008,0.057-0.022,0.158
	c-0.014,0.101-0.035,0.244-0.053,0.417c-0.039,0.346-0.094,0.806-0.143,1.267c-0.041,0.463-0.082,0.925-0.113,1.272
	c-0.022,0.347-0.038,0.578-0.038,0.578l6.949,0.462c0,0-0.017,0.27-0.034,0.539c-0.005,0.068-0.009,0.135-0.013,0.199
	c-0.004,0.063-0.005,0.123-0.007,0.173c-0.004,0.102-0.006,0.169-0.006,0.169s-0.005,0.135-0.015,0.372
	c-0.005,0.118-0.01,0.263-0.017,0.427c-0.002,0.041-0.003,0.084-0.004,0.128c-0.001,0.043-0.001,0.088-0.002,0.135
	c-0.001,0.093-0.002,0.19-0.003,0.291c-0.003,0.203-0.006,0.423-0.008,0.656c-0.001,0.058-0.002,0.117-0.002,0.177
	c0,0.059,0.002,0.12,0.002,0.181c0.002,0.122,0.004,0.246,0.005,0.374c0.002,0.127,0.003,0.257,0.005,0.386
	c0.002,0.131,0,0.263,0.007,0.396c0.01,0.267,0.02,0.537,0.031,0.808c0.006,0.135,0.008,0.27,0.017,0.405
	c0.009,0.135,0.017,0.269,0.026,0.402c0.017,0.265,0.034,0.527,0.05,0.78c0.023,0.252,0.044,0.496,0.065,0.728
	c0.022,0.231,0.037,0.45,0.063,0.652c0.047,0.403,0.085,0.739,0.111,0.974c0.032,0.234,0.051,0.368,0.051,0.368l-5.752,0.772
	c0,0-0.021-0.15-0.053-0.375c-0.025-0.226-0.06-0.527-0.094-0.827c-0.017-0.15-0.035-0.301-0.051-0.442
	c-0.016-0.141-0.025-0.273-0.036-0.386c-0.02-0.227-0.033-0.378-0.033-0.378l-1.156,0.103c0,0,0.021,0.231,0.051,0.577
	c0.007,0.087,0.017,0.181,0.029,0.28c0.011,0.099,0.024,0.203,0.035,0.311c0.025,0.216,0.051,0.447,0.077,0.677
	c0.024,0.231,0.059,0.46,0.089,0.676c0.029,0.215,0.058,0.416,0.082,0.588c0.025,0.172,0.042,0.317,0.06,0.416
	c0.017,0.1,0.027,0.158,0.027,0.158l6.88-1.081c0,0,0.044,0.267,0.088,0.533c0.022,0.133,0.043,0.266,0.06,0.366
	c0.016,0.101,0.03,0.167,0.03,0.167s0.025,0.132,0.07,0.365c0.022,0.116,0.05,0.257,0.08,0.418c0.031,0.162,0.064,0.345,0.11,0.542
	c0.043,0.198,0.089,0.412,0.139,0.639c0.025,0.113,0.049,0.23,0.077,0.348c0.029,0.118,0.058,0.239,0.09,0.363
	c0.059,0.246,0.121,0.5,0.184,0.759c0.069,0.257,0.139,0.517,0.211,0.778c0.035,0.13,0.07,0.26,0.106,0.39
	c0.038,0.129,0.077,0.257,0.115,0.385c0.076,0.255,0.15,0.505,0.222,0.748c0.078,0.241,0.155,0.473,0.227,0.694
	c0.071,0.22,0.137,0.431,0.207,0.62c0.135,0.382,0.247,0.701,0.326,0.924c0.084,0.221,0.133,0.347,0.133,0.347l-5.433,2.04
	c0,0-0.054-0.141-0.135-0.354c-0.078-0.213-0.177-0.499-0.278-0.785c-0.051-0.143-0.101-0.286-0.148-0.42
	c-0.023-0.067-0.046-0.132-0.065-0.194c-0.021-0.062-0.039-0.12-0.057-0.174c-0.07-0.216-0.117-0.361-0.117-0.361L6.17,75.658
	c0,0,0.072,0.22,0.18,0.552c0.111,0.33,0.268,0.766,0.422,1.205c0.019,0.055,0.039,0.109,0.057,0.164
	c0.021,0.054,0.041,0.108,0.062,0.161c0.041,0.108,0.081,0.212,0.119,0.314c0.078,0.204,0.15,0.393,0.211,0.556
	c0.031,0.081,0.06,0.156,0.085,0.222c0.027,0.066,0.05,0.122,0.069,0.169c0.038,0.094,0.06,0.148,0.06,0.148l6.463-2.594
	c0,0,0.102,0.25,0.204,0.5c0.051,0.125,0.1,0.25,0.141,0.343c0.04,0.093,0.068,0.155,0.068,0.155s0.054,0.124,0.135,0.31
	c0.041,0.092,0.088,0.201,0.139,0.317c0.052,0.116,0.102,0.241,0.161,0.363c0.229,0.489,0.458,0.979,0.458,0.979
	s0.18,0.363,0.451,0.907c0.065,0.137,0.145,0.282,0.226,0.436c0.081,0.154,0.166,0.316,0.255,0.484
	c0.045,0.084,0.088,0.17,0.135,0.256c0.048,0.085,0.096,0.172,0.145,0.259c0.098,0.174,0.196,0.351,0.296,0.528
	c0.096,0.178,0.201,0.351,0.303,0.523c0.102,0.172,0.202,0.341,0.298,0.505c0.095,0.164,0.194,0.32,0.286,0.467
	c0.092,0.148,0.18,0.288,0.26,0.416c0.08,0.128,0.152,0.249,0.221,0.351c0.068,0.103,0.127,0.193,0.175,0.267
	c0.097,0.148,0.154,0.233,0.154,0.233l-4.841,3.201c0,0-0.083-0.126-0.209-0.316c-0.062-0.095-0.135-0.205-0.213-0.324
	c-0.075-0.121-0.156-0.249-0.236-0.377c-0.16-0.257-0.321-0.515-0.441-0.707c-0.116-0.196-0.193-0.325-0.193-0.325l-0.996,0.596
	c0,0,0.029,0.05,0.081,0.137c0.027,0.043,0.058,0.097,0.094,0.157c0.037,0.06,0.079,0.127,0.125,0.202
	c0.092,0.148,0.2,0.319,0.315,0.504c0.058,0.092,0.117,0.187,0.178,0.285c0.03,0.048,0.061,0.097,0.092,0.146
	c0.031,0.049,0.064,0.097,0.095,0.145c0.128,0.194,0.255,0.388,0.375,0.57c0.06,0.09,0.117,0.178,0.172,0.261
	c0.055,0.083,0.107,0.162,0.157,0.233c0.198,0.286,0.33,0.477,0.33,0.477l5.721-3.971c0,0,0.153,0.222,0.308,0.445
	c0.159,0.218,0.318,0.437,0.318,0.437s0.08,0.109,0.219,0.3c0.136,0.193,0.345,0.459,0.592,0.782
	c0.242,0.325,0.544,0.69,0.861,1.086c0.039,0.049,0.079,0.099,0.12,0.15c0.041,0.049,0.083,0.099,0.125,0.149
	c0.084,0.099,0.169,0.2,0.255,0.302c0.086,0.102,0.173,0.204,0.259,0.307c0.044,0.051,0.086,0.104,0.131,0.154l0.135,0.151
	c0.179,0.203,0.359,0.404,0.536,0.604c0.087,0.101,0.179,0.196,0.267,0.292c0.089,0.095,0.177,0.189,0.264,0.282
	c0.341,0.375,0.677,0.709,0.959,1c0.071,0.073,0.139,0.142,0.204,0.208c0.066,0.064,0.129,0.126,0.188,0.183
	c0.118,0.115,0.221,0.216,0.306,0.299c0.169,0.165,0.266,0.26,0.266,0.26l-4.011,4.194c0,0-0.433-0.423-0.867-0.846
	c-0.423-0.433-0.846-0.867-0.846-0.867l-0.839,0.802c0,0,0.162,0.166,0.405,0.415c0.122,0.124,0.263,0.27,0.416,0.425
	c0.153,0.154,0.32,0.315,0.486,0.477c0.165,0.162,0.332,0.324,0.488,0.476c0.159,0.148,0.308,0.287,0.435,0.406
	c0.255,0.237,0.424,0.395,0.424,0.395l4.7-5.139c0,0,0.05,0.046,0.124,0.115c0.077,0.068,0.178,0.157,0.279,0.247
	c0.202,0.179,0.405,0.359,0.405,0.359s0.025,0.022,0.073,0.064c0.024,0.021,0.053,0.047,0.087,0.077
	c0.036,0.03,0.076,0.064,0.12,0.102c0.181,0.153,0.439,0.371,0.749,0.634c0.158,0.127,0.329,0.265,0.509,0.411
	c0.091,0.073,0.184,0.147,0.279,0.224c0.047,0.038,0.096,0.077,0.143,0.116c0.05,0.038,0.1,0.076,0.15,0.115
	c0.201,0.154,0.409,0.313,0.62,0.475c0.053,0.04,0.106,0.082,0.159,0.122c0.054,0.039,0.108,0.079,0.163,0.118
	c0.109,0.08,0.218,0.159,0.327,0.238c0.185,0.139,0.373,0.273,0.56,0.404v1.413c-0.515-0.352-1.106-0.774-1.69-1.204
	c-0.195-0.143-0.385-0.294-0.575-0.438c-0.095-0.073-0.188-0.144-0.282-0.215c-0.046-0.036-0.092-0.071-0.138-0.106
	c-0.046-0.035-0.09-0.072-0.134-0.108c-0.177-0.142-0.348-0.28-0.51-0.411c-0.162-0.131-0.316-0.253-0.453-0.372
	c-0.278-0.235-0.509-0.43-0.671-0.567c-0.082-0.067-0.143-0.124-0.186-0.161s-0.066-0.058-0.066-0.058l-4.584,5.242
	c0,0-0.295-0.261-0.738-0.655c-0.22-0.198-0.471-0.436-0.742-0.687c-0.068-0.063-0.136-0.127-0.206-0.192
	c-0.069-0.065-0.14-0.131-0.209-0.199c-0.139-0.135-0.281-0.273-0.422-0.411c-0.141-0.138-0.282-0.276-0.422-0.412
	c-0.137-0.138-0.27-0.275-0.4-0.407c-0.128-0.133-0.253-0.26-0.372-0.382c-0.059-0.06-0.116-0.119-0.172-0.176
	c-0.056-0.057-0.107-0.114-0.158-0.168c-0.404-0.433-0.673-0.722-0.673-0.722l1.713-1.567c0,0-0.051-0.055-0.128-0.138
	c-0.076-0.085-0.177-0.199-0.277-0.312c-0.201-0.227-0.402-0.454-0.402-0.454l-2.622,2.293c0,0,0.081,0.09,0.221,0.249
	c0.141,0.157,0.339,0.385,0.583,0.653c0.247,0.265,0.535,0.575,0.844,0.906c0.316,0.325,0.654,0.671,0.992,1.017
	c0.346,0.337,0.692,0.675,1.016,0.991c0.332,0.309,0.641,0.597,0.907,0.844c0.268,0.243,0.496,0.442,0.653,0.583
	c0.159,0.14,0.249,0.22,0.249,0.22l0,0c0,0,0.06,0.054,0.15,0.134c0.091,0.08,0.215,0.183,0.338,0.287
	c0.246,0.208,0.491,0.416,0.491,0.416l4.467-5.344c0,0,0.067,0.057,0.186,0.157c0.118,0.1,0.293,0.237,0.499,0.404
	c0.104,0.083,0.215,0.174,0.334,0.27c0.06,0.047,0.121,0.097,0.184,0.146c0.063,0.049,0.128,0.098,0.194,0.149
	c0.264,0.201,0.544,0.42,0.827,0.631c0.286,0.209,0.572,0.418,0.841,0.614c0.271,0.192,0.527,0.366,0.745,0.518
	c0.108,0.076,0.209,0.145,0.298,0.206c0.089,0.06,0.168,0.111,0.233,0.154c0.13,0.085,0.203,0.134,0.203,0.134l-1.28,1.936
	c0,0,0.247,0.163,0.495,0.326c0.123,0.082,0.25,0.16,0.344,0.219c0.094,0.059,0.157,0.098,0.157,0.098l0.349-0.554v2.133
	l-0.261-0.155c-0.193-0.12-0.45-0.281-0.707-0.441c-0.128-0.08-0.257-0.16-0.377-0.236c-0.118-0.078-0.229-0.151-0.324-0.214
	c-0.19-0.125-0.316-0.208-0.316-0.208l-0.64,0.968c0,0,0.194,0.127,0.484,0.319c0.145,0.097,0.318,0.204,0.502,0.319
	c0.184,0.115,0.381,0.238,0.578,0.361c0.197,0.125,0.397,0.242,0.583,0.352l0.478,0.283v1.339l-0.214-0.119
	c-0.147-0.083-0.3-0.176-0.46-0.27c-0.159-0.094-0.324-0.192-0.491-0.29c-0.084-0.05-0.168-0.099-0.253-0.149
	c-0.084-0.051-0.167-0.104-0.251-0.156c-0.335-0.21-0.671-0.417-0.983-0.615c-0.31-0.204-0.598-0.394-0.845-0.556
	c-0.249-0.161-0.45-0.304-0.592-0.402c-0.141-0.098-0.223-0.155-0.223-0.155l1.323-1.907c0,0-0.249-0.172-0.498-0.345
	c-0.244-0.179-0.489-0.357-0.489-0.357l-2.049,2.815c0,0,0.098,0.071,0.269,0.195c0.086,0.062,0.188,0.14,0.31,0.223
	c0.12,0.084,0.257,0.179,0.406,0.282c0.298,0.205,0.643,0.451,1.023,0.697c0.38,0.248,0.781,0.519,1.193,0.771
	c0.206,0.128,0.41,0.256,0.612,0.382c0.051,0.031,0.102,0.063,0.151,0.094c0.051,0.031,0.102,0.061,0.151,0.09
	c0.101,0.06,0.2,0.118,0.297,0.176c0.391,0.23,0.753,0.449,1.071,0.623l0.541,0.302v1.324l-0.035-0.018l0,0
	c0,0-0.031-0.016-0.091-0.049c-0.06-0.031-0.146-0.079-0.256-0.141c-0.22-0.123-0.534-0.298-0.91-0.509
	c-0.047-0.027-0.095-0.054-0.144-0.081c-0.048-0.029-0.098-0.058-0.148-0.087c-0.1-0.06-0.204-0.121-0.31-0.183
	c-0.213-0.126-0.437-0.259-0.67-0.396c-0.231-0.139-0.466-0.289-0.707-0.439c-0.121-0.074-0.241-0.151-0.363-0.227
	c-0.121-0.076-0.243-0.151-0.363-0.231c-0.241-0.158-0.481-0.316-0.717-0.472c-0.118-0.078-0.236-0.155-0.351-0.233
	c-0.113-0.079-0.227-0.157-0.338-0.234c-0.222-0.154-0.436-0.302-0.639-0.443c-0.051-0.035-0.101-0.07-0.15-0.104
	c-0.048-0.035-0.097-0.07-0.144-0.105c-0.094-0.068-0.185-0.134-0.272-0.198c-0.174-0.127-0.334-0.244-0.476-0.347
	c-0.141-0.103-0.265-0.193-0.365-0.271c-0.199-0.153-0.314-0.24-0.314-0.24l3.519-4.615c0,0,0.117,0.09,0.293,0.226
	c0.088,0.069,0.194,0.144,0.305,0.226c0.113,0.082,0.232,0.17,0.352,0.257c0.24,0.175,0.478,0.352,0.662,0.475
	c0.183,0.127,0.304,0.212,0.304,0.212l0.661-0.954c0,0-0.178-0.124-0.447-0.309c-0.263-0.192-0.615-0.448-0.966-0.704
	c-0.347-0.261-0.691-0.528-0.95-0.726c-0.13-0.098-0.234-0.185-0.308-0.244c-0.074-0.06-0.117-0.094-0.117-0.094l-4.345,5.442
	c0,0-0.128-0.104-0.321-0.258c-0.192-0.155-0.449-0.359-0.698-0.574c-0.251-0.212-0.501-0.425-0.69-0.584
	c-0.094-0.079-0.171-0.147-0.225-0.196c-0.054-0.047-0.085-0.075-0.085-0.075l0,0c0,0-0.108-0.095-0.296-0.262
	c-0.094-0.083-0.208-0.185-0.34-0.301c-0.065-0.059-0.135-0.12-0.208-0.185c-0.072-0.067-0.148-0.138-0.227-0.211
	c-0.158-0.147-0.329-0.306-0.51-0.474c-0.09-0.085-0.183-0.172-0.278-0.26c-0.093-0.091-0.188-0.183-0.285-0.278
	c-0.193-0.188-0.392-0.383-0.595-0.58c-0.051-0.049-0.102-0.099-0.152-0.149c-0.05-0.051-0.1-0.102-0.149-0.153
	c-0.101-0.103-0.201-0.205-0.302-0.308c-0.2-0.207-0.404-0.41-0.597-0.617c-0.193-0.207-0.383-0.411-0.566-0.608
	c-0.092-0.098-0.183-0.196-0.271-0.291c-0.089-0.095-0.172-0.192-0.255-0.283c-0.164-0.185-0.319-0.36-0.462-0.521
	c-0.289-0.321-0.517-0.599-0.681-0.79c-0.162-0.192-0.256-0.302-0.256-0.302l4.454-3.721c0,0,0.095,0.113,0.239,0.283
	c0.072,0.085,0.156,0.183,0.245,0.29c0.046,0.053,0.091,0.108,0.139,0.163c0.049,0.054,0.098,0.11,0.147,0.166
	c0.197,0.221,0.393,0.443,0.54,0.609c0.074,0.083,0.135,0.154,0.18,0.2c0.044,0.047,0.069,0.075,0.069,0.075l0.856-0.783
	c0,0-0.037-0.04-0.101-0.109c-0.063-0.071-0.153-0.173-0.261-0.295c-0.108-0.122-0.235-0.264-0.37-0.416
	c-0.067-0.076-0.138-0.156-0.208-0.235c-0.069-0.082-0.139-0.165-0.209-0.248c-0.141-0.166-0.281-0.332-0.413-0.488
	c-0.065-0.078-0.13-0.152-0.19-0.225c-0.058-0.073-0.114-0.141-0.164-0.205c-0.204-0.254-0.342-0.424-0.342-0.424l-5.442,4.346
	c0,0-0.103-0.128-0.257-0.32c-0.151-0.194-0.351-0.456-0.551-0.717c-0.101-0.13-0.2-0.261-0.294-0.383
	c-0.093-0.123-0.176-0.24-0.249-0.339c-0.146-0.199-0.242-0.332-0.242-0.332v0c0,0-0.084-0.117-0.234-0.319
	c-0.15-0.202-0.351-0.5-0.598-0.854c-0.122-0.178-0.258-0.369-0.395-0.574c-0.137-0.206-0.28-0.424-0.428-0.649
	C9.24,90.229,8.94,89.738,8.635,89.25c-0.155-0.242-0.298-0.492-0.443-0.736c-0.144-0.244-0.286-0.484-0.423-0.716
	c-0.264-0.471-0.511-0.91-0.719-1.288c-0.202-0.382-0.37-0.7-0.486-0.923c-0.06-0.111-0.106-0.199-0.137-0.259
	c-0.031-0.06-0.046-0.092-0.046-0.092l5.168-2.639c0,0,0.016,0.033,0.047,0.091c0.03,0.057,0.073,0.139,0.126,0.238
	c0.104,0.196,0.241,0.458,0.38,0.721c0.067,0.132,0.141,0.261,0.209,0.382c0.068,0.122,0.131,0.235,0.186,0.332
	c0.108,0.194,0.18,0.324,0.18,0.324l1.009-0.574c0,0-0.106-0.19-0.265-0.475c-0.04-0.071-0.083-0.148-0.129-0.23
	c-0.045-0.082-0.095-0.167-0.14-0.258c-0.096-0.18-0.197-0.372-0.298-0.564c-0.051-0.097-0.101-0.193-0.152-0.287
	c-0.05-0.095-0.099-0.187-0.143-0.279c-0.091-0.183-0.175-0.353-0.248-0.499c-0.145-0.292-0.242-0.486-0.242-0.486l-6.273,3.026
	c0,0-0.017-0.037-0.048-0.102c-0.03-0.065-0.074-0.159-0.126-0.27c-0.105-0.223-0.244-0.521-0.383-0.82
	c-0.071-0.148-0.134-0.3-0.197-0.441c-0.062-0.142-0.12-0.273-0.169-0.386c-0.098-0.226-0.165-0.377-0.165-0.377l0,0
	c0,0-0.014-0.033-0.041-0.095c-0.027-0.062-0.067-0.152-0.113-0.269c-0.096-0.234-0.231-0.567-0.395-0.966
	c-0.084-0.199-0.166-0.419-0.253-0.65c-0.088-0.231-0.181-0.475-0.277-0.727c-0.023-0.063-0.048-0.127-0.072-0.191
	c-0.023-0.065-0.046-0.13-0.07-0.196c-0.046-0.131-0.093-0.263-0.139-0.397c-0.094-0.268-0.191-0.539-0.284-0.811
	c-0.089-0.274-0.178-0.548-0.265-0.817c-0.044-0.135-0.088-0.268-0.131-0.401c-0.044-0.132-0.08-0.264-0.119-0.393
	c-0.077-0.259-0.151-0.509-0.222-0.746c-0.035-0.118-0.069-0.234-0.103-0.346c-0.03-0.112-0.059-0.221-0.088-0.325
	c-0.113-0.417-0.207-0.765-0.273-1.007c-0.032-0.122-0.054-0.219-0.071-0.284c-0.016-0.065-0.025-0.101-0.025-0.101l5.629-1.414
	c0,0,0.008,0.036,0.024,0.099c0.016,0.063,0.035,0.153,0.066,0.26c0.058,0.215,0.135,0.5,0.213,0.787
	c0.039,0.143,0.077,0.286,0.113,0.42c0.04,0.133,0.077,0.258,0.108,0.364c0.064,0.213,0.106,0.355,0.106,0.355l1.112-0.334
	c0,0-0.063-0.208-0.155-0.52c-0.023-0.078-0.05-0.162-0.074-0.253c-0.024-0.09-0.05-0.185-0.077-0.284
	c-0.053-0.196-0.109-0.407-0.166-0.616c-0.028-0.105-0.057-0.209-0.084-0.313c-0.024-0.104-0.05-0.206-0.074-0.305
	c-0.048-0.198-0.093-0.382-0.132-0.541c-0.038-0.158-0.07-0.29-0.092-0.383c-0.02-0.093-0.032-0.146-0.032-0.146l-6.791,1.543
	c0,0-0.139-0.643-0.278-1.286c-0.124-0.646-0.249-1.293-0.249-1.293h0.001c0,0-0.007-0.035-0.019-0.102
	c-0.011-0.067-0.027-0.164-0.049-0.288c-0.041-0.249-0.1-0.604-0.17-1.03c-0.019-0.106-0.034-0.218-0.05-0.333
	c-0.016-0.115-0.033-0.234-0.05-0.357c-0.034-0.245-0.071-0.503-0.108-0.77c-0.02-0.133-0.033-0.27-0.05-0.408
	c-0.016-0.138-0.032-0.278-0.048-0.418c-0.031-0.281-0.066-0.567-0.095-0.854c-0.026-0.287-0.051-0.573-0.076-0.855
	c-0.025-0.282-0.051-0.56-0.066-0.829c-0.017-0.269-0.034-0.529-0.05-0.776c-0.007-0.123-0.015-0.243-0.022-0.359
	c-0.008-0.116-0.01-0.228-0.015-0.336c-0.016-0.431-0.03-0.79-0.039-1.041C0.022,60.2,0.018,60.1,0.018,60.034
	c-0.001-0.068-0.002-0.104-0.002-0.104l5.803-0.128c0,0,0,0.037,0.001,0.102c0,0.065,0.004,0.157,0.008,0.269
	c0.009,0.222,0.02,0.518,0.031,0.814c0.007,0.148,0.009,0.296,0.019,0.435c0.009,0.138,0.017,0.268,0.024,0.378
	c0.015,0.222,0.024,0.37,0.024,0.37l1.159-0.076c0,0-0.014-0.217-0.035-0.543c-0.005-0.082-0.01-0.17-0.017-0.263
	c-0.003-0.093-0.007-0.192-0.011-0.294c-0.008-0.203-0.016-0.421-0.025-0.638c-0.022-0.435-0.019-0.87-0.026-1.196
	c-0.003-0.326-0.007-0.544-0.007-0.544H0c0,0,0.008-0.657,0.016-1.313c0.001-0.164,0.008-0.328,0.013-0.482
	c0.006-0.154,0.011-0.297,0.016-0.421c0.009-0.246,0.015-0.41,0.015-0.41l0,0c0,0,0.006-0.144,0.015-0.395
	c0.016-0.251,0.039-0.61,0.066-1.04c0.023-0.431,0.072-0.932,0.119-1.469c0.012-0.134,0.024-0.271,0.038-0.409
	c0.013-0.138,0.03-0.277,0.046-0.418c0.032-0.282,0.065-0.567,0.097-0.853l0.025-0.215c0.008-0.071,0.019-0.142,0.028-0.213
	c0.021-0.142,0.04-0.283,0.059-0.424c0.04-0.28,0.078-0.556,0.116-0.823c0.087-0.533,0.169-1.03,0.24-1.456
	c0.163-0.849,0.271-1.414,0.271-1.414l5.686,1.158c0,0-0.111,0.582-0.223,1.165c-0.053,0.291-0.098,0.584-0.135,0.804
	c-0.037,0.219-0.061,0.365-0.061,0.365l1.147,0.18c0,0,0.036-0.215,0.089-0.536c0.027-0.161,0.058-0.348,0.092-0.549
	c0.038-0.2,0.078-0.414,0.12-0.627c0.041-0.214,0.082-0.427,0.12-0.627c0.043-0.199,0.084-0.385,0.119-0.544
	c0.069-0.319,0.115-0.531,0.115-0.531l-6.791-1.543c0,0,0.009-0.041,0.024-0.111c0.015-0.071,0.04-0.17,0.069-0.29
	c0.058-0.24,0.136-0.559,0.214-0.88c0.076-0.32,0.165-0.637,0.229-0.876c0.064-0.238,0.108-0.397,0.108-0.397l0,0
	c0,0,0.037-0.139,0.103-0.382c0.068-0.243,0.173-0.587,0.295-1.001c0.119-0.415,0.278-0.894,0.444-1.407
	c0.043-0.128,0.085-0.259,0.128-0.391c0.045-0.131,0.092-0.264,0.139-0.398c0.094-0.267,0.19-0.539,0.285-0.81
	c0.048-0.136,0.098-0.271,0.15-0.405c0.05-0.134,0.101-0.268,0.151-0.4c0.102-0.264,0.199-0.526,0.298-0.777
	c0.102-0.25,0.2-0.492,0.294-0.72c0.047-0.115,0.092-0.226,0.136-0.334c0.044-0.108,0.086-0.212,0.131-0.31
	c0.173-0.396,0.318-0.726,0.418-0.957c0.051-0.115,0.09-0.206,0.119-0.267c0.028-0.061,0.044-0.094,0.044-0.094l5.282,2.403
	c0,0-0.015,0.034-0.043,0.093c-0.026,0.059-0.063,0.144-0.108,0.246c-0.09,0.204-0.208,0.475-0.327,0.746
	c-0.03,0.068-0.059,0.136-0.089,0.203c-0.028,0.067-0.055,0.134-0.081,0.198c-0.052,0.129-0.101,0.249-0.143,0.352
	c-0.085,0.206-0.141,0.343-0.141,0.343l1.077,0.432c0,0,0.082-0.201,0.205-0.503c0.031-0.076,0.064-0.157,0.099-0.243
	c0.018-0.044,0.037-0.087,0.055-0.133c0.02-0.045,0.039-0.091,0.06-0.138c0.082-0.187,0.169-0.385,0.256-0.584
	c0.17-0.4,0.359-0.792,0.496-1.088c0.069-0.147,0.126-0.271,0.167-0.357c0.02-0.043,0.035-0.077,0.047-0.1
	c0.011-0.023,0.017-0.035,0.017-0.035l-6.273-3.025c0,0,0.293-0.59,0.586-1.179c0.15-0.293,0.306-0.582,0.421-0.801
	c0.115-0.218,0.192-0.364,0.192-0.364l0,0c0,0,0.016-0.031,0.049-0.091c0.031-0.06,0.079-0.146,0.14-0.256
	c0.123-0.22,0.299-0.534,0.509-0.91c0.027-0.047,0.054-0.095,0.081-0.145c0.029-0.048,0.057-0.097,0.087-0.147
	c0.059-0.1,0.121-0.204,0.183-0.31c0.126-0.213,0.259-0.437,0.396-0.67c0.139-0.231,0.289-0.466,0.439-0.707
	c0.075-0.12,0.15-0.241,0.226-0.363c0.076-0.121,0.152-0.243,0.232-0.363c0.158-0.24,0.316-0.481,0.472-0.717
	c0.078-0.117,0.154-0.236,0.233-0.351c0.078-0.114,0.157-0.227,0.233-0.338c0.154-0.222,0.302-0.436,0.443-0.639
	c0.036-0.05,0.07-0.101,0.105-0.15c0.035-0.049,0.07-0.096,0.104-0.143c0.069-0.094,0.135-0.185,0.198-0.272
	c0.127-0.175,0.244-0.334,0.347-0.476c0.104-0.141,0.193-0.265,0.271-0.364c0.153-0.2,0.241-0.314,0.241-0.314l4.615,3.519
	c0,0-0.09,0.117-0.226,0.294c-0.069,0.088-0.144,0.193-0.226,0.305c-0.082,0.113-0.169,0.233-0.256,0.352
	c-0.175,0.24-0.352,0.477-0.475,0.662c-0.127,0.183-0.211,0.304-0.211,0.304l0.953,0.662c0,0,0.124-0.179,0.31-0.448
	c0.192-0.263,0.448-0.615,0.704-0.966c0.261-0.347,0.528-0.69,0.726-0.95c0.098-0.131,0.185-0.234,0.245-0.309
	c0.059-0.074,0.093-0.116,0.093-0.116l-5.442-4.346c0,0,0.104-0.128,0.259-0.321c0.154-0.192,0.359-0.449,0.572-0.698
	c0.213-0.252,0.425-0.502,0.585-0.691c0.079-0.095,0.147-0.172,0.195-0.225c0.048-0.054,0.075-0.084,0.075-0.084l0,0
	c0,0,0.095-0.108,0.262-0.296c0.083-0.094,0.185-0.209,0.301-0.339c0.058-0.066,0.12-0.135,0.185-0.209
	c0.067-0.072,0.137-0.148,0.211-0.227c0.147-0.158,0.306-0.329,0.474-0.51c0.085-0.091,0.171-0.183,0.26-0.278
	c0.09-0.093,0.183-0.188,0.276-0.285c0.189-0.193,0.383-0.393,0.581-0.595c0.049-0.051,0.099-0.102,0.149-0.152
	c0.051-0.05,0.102-0.1,0.153-0.15c0.102-0.101,0.206-0.201,0.308-0.302c0.207-0.2,0.41-0.403,0.617-0.598
	c0.207-0.193,0.411-0.383,0.608-0.567c0.098-0.091,0.196-0.182,0.291-0.27c0.095-0.089,0.192-0.172,0.284-0.254
	c0.185-0.164,0.359-0.319,0.52-0.463c0.321-0.289,0.599-0.517,0.79-0.68c0.192-0.163,0.302-0.256,0.302-0.256l3.722,4.453
	c0,0-0.113,0.095-0.283,0.239c-0.085,0.072-0.184,0.155-0.29,0.245c-0.053,0.045-0.109,0.091-0.163,0.139
	c-0.055,0.049-0.11,0.098-0.166,0.147c-0.221,0.197-0.443,0.393-0.609,0.541c-0.083,0.074-0.153,0.135-0.2,0.18
	c-0.047,0.044-0.074,0.069-0.074,0.069l0.783,0.857c0,0,0.04-0.037,0.109-0.102c0.072-0.063,0.173-0.153,0.295-0.261
	c0.122-0.108,0.264-0.235,0.416-0.37c0.076-0.067,0.155-0.138,0.235-0.208c0.082-0.069,0.165-0.139,0.248-0.209
	c0.166-0.141,0.332-0.281,0.487-0.412c0.078-0.066,0.153-0.13,0.225-0.189c0.073-0.059,0.141-0.114,0.204-0.165
	c0.254-0.204,0.423-0.341,0.423-0.341l-4.345-5.442c0,0,0.128-0.103,0.32-0.257c0.194-0.152,0.456-0.351,0.716-0.551
	c0.131-0.1,0.261-0.2,0.384-0.293c0.122-0.094,0.24-0.177,0.339-0.25c0.199-0.146,0.332-0.242,0.332-0.242l0,0
	c0,0,0.116-0.085,0.319-0.233c0.201-0.15,0.5-0.352,0.854-0.599c0.178-0.122,0.368-0.258,0.574-0.395
	c0.206-0.136,0.424-0.279,0.649-0.427c0.448-0.301,0.939-0.601,1.428-0.906c0.242-0.155,0.492-0.298,0.736-0.443
	c0.243-0.144,0.484-0.286,0.716-0.423c0.471-0.263,0.91-0.51,1.288-0.718c0.382-0.202,0.7-0.37,0.923-0.488
	c0.111-0.059,0.199-0.104,0.258-0.136c0.06-0.031,0.093-0.046,0.093-0.046l2.639,5.169c0,0-0.034,0.016-0.091,0.046
	c-0.058,0.03-0.139,0.073-0.238,0.125c-0.197,0.104-0.458,0.242-0.721,0.38c-0.132,0.068-0.261,0.142-0.382,0.209
	c-0.121,0.068-0.235,0.132-0.331,0.186c-0.194,0.108-0.324,0.18-0.324,0.18l0.573,1.009c0,0,0.19-0.106,0.474-0.265
	c0.071-0.04,0.149-0.083,0.23-0.129c0.082-0.045,0.166-0.094,0.257-0.14c0.18-0.095,0.372-0.197,0.564-0.298
	c0.096-0.051,0.193-0.101,0.287-0.152c0.094-0.05,0.187-0.099,0.279-0.143c0.183-0.091,0.353-0.175,0.498-0.248
	c0.292-0.145,0.487-0.242,0.487-0.242l-3.025-6.272c0,0,0.036-0.018,0.102-0.049c0.065-0.03,0.158-0.075,0.271-0.126
	c0.223-0.104,0.521-0.243,0.82-0.382c0.147-0.071,0.3-0.134,0.441-0.197c0.142-0.062,0.273-0.119,0.386-0.169
	c0.226-0.099,0.377-0.165,0.377-0.165h0.001c0,0,0.033-0.014,0.094-0.042c0.062-0.027,0.153-0.067,0.27-0.114
	c0.234-0.095,0.566-0.231,0.966-0.394c0.199-0.084,0.419-0.165,0.65-0.253c0.231-0.088,0.475-0.181,0.727-0.277
	c0.063-0.024,0.127-0.048,0.191-0.072c0.065-0.023,0.13-0.046,0.195-0.069c0.131-0.046,0.264-0.093,0.397-0.14
	c0.267-0.093,0.539-0.191,0.811-0.284c0.274-0.089,0.548-0.178,0.817-0.266c0.135-0.043,0.268-0.087,0.401-0.13
	c0.132-0.043,0.264-0.08,0.393-0.119c0.259-0.077,0.509-0.151,0.747-0.222c0.118-0.035,0.233-0.069,0.345-0.102
	c0.113-0.03,0.221-0.06,0.325-0.088c0.417-0.113,0.765-0.207,1.008-0.272c0.121-0.033,0.218-0.054,0.283-0.071
	c0.066-0.016,0.101-0.024,0.101-0.024l1.414,5.629c0,0-0.036,0.009-0.099,0.024c-0.063,0.016-0.153,0.036-0.261,0.065
	c-0.215,0.058-0.501,0.136-0.787,0.213c-0.143,0.039-0.286,0.077-0.42,0.114c-0.133,0.039-0.258,0.076-0.364,0.108
	c-0.213,0.064-0.355,0.106-0.355,0.106l0.333,1.111c0,0,0.209-0.062,0.521-0.155c0.078-0.023,0.162-0.05,0.252-0.074
	c0.09-0.025,0.185-0.05,0.283-0.077c0.197-0.053,0.406-0.11,0.617-0.167c0.105-0.028,0.209-0.058,0.313-0.084
	c0.103-0.025,0.206-0.05,0.305-0.075c0.198-0.048,0.383-0.093,0.541-0.132c0.158-0.038,0.29-0.071,0.383-0.093
	c0.093-0.02,0.145-0.032,0.145-0.032l-1.543-6.791c0,0,0.644-0.139,1.286-0.278c0.647-0.124,1.293-0.248,1.293-0.248l0,0
	c0,0,0.035-0.006,0.101-0.019c0.067-0.011,0.165-0.027,0.288-0.048c0.249-0.041,0.604-0.1,1.03-0.17
	c0.106-0.019,0.218-0.034,0.334-0.05c0.115-0.016,0.234-0.033,0.357-0.05c0.245-0.034,0.503-0.071,0.771-0.108
	c0.134-0.02,0.27-0.033,0.408-0.05c0.138-0.016,0.277-0.032,0.418-0.048c0.282-0.031,0.567-0.066,0.854-0.094
	c0.286-0.026,0.573-0.052,0.855-0.077c0.282-0.025,0.559-0.051,0.829-0.066c0.269-0.017,0.529-0.034,0.775-0.05
	c0.123-0.007,0.243-0.015,0.359-0.022c0.117-0.008,0.229-0.01,0.336-0.015c0.43-0.016,0.79-0.03,1.041-0.039
	c0.126-0.005,0.224-0.008,0.291-0.008c0.068-0.001,0.103-0.001,0.103-0.001l0.128,5.803c0,0-0.037,0-0.102,0.001
	c-0.065,0-0.157,0.004-0.268,0.008c-0.222,0.009-0.518,0.019-0.814,0.031c-0.148,0.007-0.296,0.009-0.435,0.019
	c-0.138,0.009-0.268,0.017-0.379,0.024c-0.221,0.014-0.369,0.023-0.369,0.023l0.077,1.158c0,0,0.217-0.014,0.542-0.035
	c0.082-0.005,0.17-0.01,0.263-0.017c0.094-0.003,0.191-0.007,0.293-0.011c0.204-0.008,0.421-0.016,0.638-0.024
	c0.435-0.022,0.87-0.019,1.196-0.025c0.327-0.004,0.545-0.007,0.545-0.007V0c0,0,0.656,0.009,1.313,0.016
	c0.164,0.001,0.329,0.007,0.482,0.014c0.154,0.006,0.298,0.011,0.421,0.016c0.246,0.009,0.41,0.016,0.41,0.016l0,0
	c0,0,0.144,0.006,0.395,0.015c0.251,0.016,0.61,0.039,1.041,0.066c0.43,0.023,0.932,0.072,1.469,0.119
	c0.134,0.012,0.271,0.024,0.409,0.036c0.138,0.014,0.278,0.031,0.418,0.046c0.281,0.032,0.567,0.065,0.854,0.098l0.214,0.025
	c0.071,0.008,0.143,0.019,0.213,0.029c0.142,0.02,0.283,0.039,0.424,0.06c0.281,0.039,0.557,0.077,0.824,0.115
	c0.532,0.088,1.029,0.17,1.455,0.24c0.848,0.163,1.414,0.271,1.414,0.271l-1.159,5.686c0,0-0.581-0.111-1.164-0.223
	c-0.292-0.053-0.584-0.098-0.804-0.135c-0.22-0.036-0.365-0.061-0.365-0.061l-0.18,1.146c0,0,0.214,0.036,0.535,0.089
	c0.161,0.027,0.349,0.058,0.55,0.092c0.2,0.038,0.414,0.079,0.627,0.12c0.214,0.041,0.427,0.082,0.628,0.12
	c0.198,0.043,0.384,0.083,0.543,0.118c0.319,0.07,0.532,0.116,0.532,0.116l1.543-6.791c0,0,0.04,0.009,0.11,0.024
	c0.07,0.015,0.17,0.04,0.29,0.069c0.24,0.058,0.56,0.137,0.88,0.214c0.32,0.075,0.637,0.164,0.876,0.228
	c0.238,0.065,0.397,0.108,0.397,0.108l0,0c0,0,0.139,0.038,0.382,0.104c0.242,0.068,0.587,0.173,1.001,0.295
	c0.415,0.119,0.894,0.278,1.407,0.445c0.128,0.042,0.259,0.084,0.391,0.127c0.131,0.045,0.264,0.092,0.399,0.139
	c0.266,0.094,0.538,0.19,0.81,0.286c0.136,0.047,0.271,0.098,0.405,0.15c0.134,0.05,0.267,0.101,0.4,0.152
	c0.264,0.102,0.526,0.198,0.777,0.298c0.249,0.102,0.492,0.201,0.72,0.294c0.115,0.047,0.227,0.093,0.334,0.136
	c0.107,0.044,0.212,0.086,0.31,0.131c0.396,0.173,0.726,0.316,0.957,0.418c0.115,0.051,0.206,0.089,0.267,0.118
	c0.061,0.028,0.094,0.043,0.094,0.043l-2.403,5.283c0,0-0.034-0.016-0.093-0.043c-0.059-0.026-0.144-0.063-0.245-0.108
	c-0.204-0.089-0.475-0.208-0.747-0.327c-0.067-0.029-0.136-0.059-0.202-0.088c-0.068-0.028-0.134-0.055-0.198-0.081
	c-0.129-0.053-0.249-0.101-0.352-0.143c-0.206-0.084-0.343-0.141-0.343-0.141l-0.433,1.077c0,0,0.202,0.083,0.504,0.206
	c0.075,0.031,0.157,0.064,0.243,0.1c0.043,0.018,0.087,0.036,0.133,0.054c0.045,0.019,0.091,0.04,0.138,0.06
	c0.186,0.082,0.385,0.169,0.584,0.256c0.4,0.17,0.792,0.358,1.088,0.495c0.147,0.069,0.27,0.127,0.357,0.167
	c0.043,0.02,0.076,0.036,0.1,0.047c0.023,0.011,0.035,0.017,0.035,0.017l3.025-6.272c0,0,0.59,0.293,1.179,0.586
	c0.294,0.15,0.583,0.306,0.802,0.42c0.218,0.115,0.364,0.192,0.364,0.192l0,0c0,0,0.031,0.017,0.091,0.049
	c0.06,0.031,0.146,0.079,0.256,0.141c0.22,0.123,0.534,0.298,0.91,0.509c0.047,0.027,0.095,0.054,0.144,0.082
	c0.048,0.028,0.098,0.057,0.148,0.087c0.1,0.059,0.204,0.12,0.31,0.183c0.213,0.126,0.437,0.259,0.67,0.396
	c0.232,0.139,0.466,0.289,0.706,0.438c0.12,0.075,0.241,0.151,0.363,0.227c0.122,0.076,0.244,0.151,0.363,0.232
	c0.241,0.159,0.481,0.316,0.717,0.472c0.118,0.078,0.236,0.154,0.351,0.232c0.114,0.079,0.227,0.157,0.338,0.234
	c0.222,0.154,0.436,0.302,0.639,0.443c0.051,0.035,0.101,0.07,0.15,0.105c0.048,0.035,0.097,0.07,0.144,0.104
	c0.094,0.069,0.184,0.135,0.272,0.198c0.174,0.127,0.334,0.244,0.476,0.347c0.141,0.103,0.266,0.193,0.365,0.27
	c0.199,0.153,0.314,0.241,0.314,0.241l-3.519,4.615c0,0-0.117-0.09-0.294-0.226c-0.087-0.069-0.193-0.144-0.304-0.226
	c-0.113-0.082-0.232-0.17-0.352-0.257c-0.24-0.175-0.478-0.352-0.662-0.475c-0.183-0.128-0.304-0.212-0.304-0.212l-0.661,0.953
	c0,0,0.178,0.124,0.447,0.31c0.263,0.192,0.615,0.448,0.966,0.704c0.348,0.261,0.691,0.528,0.951,0.726
	c0.13,0.098,0.234,0.186,0.309,0.244C90.777,18.2,90.82,18.233,90.82,18.233L90.82,18.233z M14.158,80.023
	c0,0-0.235-0.501-0.469-1.002c-0.06-0.124-0.113-0.253-0.166-0.371c-0.051-0.119-0.1-0.23-0.142-0.325
	c-0.083-0.19-0.139-0.317-0.139-0.317l-6.402,2.74c0,0-0.04-0.09-0.109-0.249c-0.065-0.16-0.158-0.388-0.271-0.662
	c-0.112-0.275-0.245-0.594-0.374-0.94c-0.066-0.174-0.134-0.352-0.203-0.534C5.817,78.18,5.744,77.997,5.68,77.81
	c-0.131-0.373-0.262-0.745-0.385-1.095c-0.115-0.352-0.222-0.68-0.314-0.962c-0.046-0.141-0.088-0.271-0.125-0.385
	c-0.034-0.115-0.065-0.216-0.089-0.299c-0.049-0.165-0.078-0.26-0.078-0.26l2.224-0.667c0,0-0.086-0.29-0.173-0.581
	c-0.045-0.145-0.083-0.291-0.113-0.4c-0.029-0.109-0.049-0.183-0.049-0.183L3.22,73.904c0,0,0.032,0.116,0.088,0.321
	c0.027,0.102,0.064,0.225,0.105,0.366c0.043,0.141,0.089,0.301,0.142,0.475c0.051,0.173,0.107,0.362,0.167,0.561
	c0.06,0.199,0.13,0.406,0.2,0.622c0.07,0.216,0.143,0.439,0.216,0.665c0.035,0.114,0.076,0.227,0.116,0.34
	c0.04,0.114,0.08,0.228,0.121,0.342c0.08,0.228,0.16,0.456,0.24,0.681c0.08,0.224,0.166,0.442,0.245,0.655
	c0.081,0.212,0.159,0.417,0.233,0.611c0.018,0.048,0.037,0.096,0.054,0.143c0.02,0.047,0.038,0.093,0.057,0.138
	c0.037,0.091,0.072,0.178,0.107,0.262c0.137,0.335,0.252,0.615,0.331,0.812c0.04,0.098,0.075,0.174,0.097,0.226
	c0.023,0.052,0.035,0.08,0.035,0.08l0,0c0,0,0.129,0.295,0.259,0.591c0.065,0.147,0.129,0.295,0.178,0.406
	c0.024,0.056,0.045,0.101,0.06,0.134c0.015,0.032,0.023,0.05,0.023,0.05l6.34-2.884l0.48,1.027c0,0,0.126,0.253,0.315,0.634
	c0.096,0.19,0.201,0.414,0.328,0.647c0.124,0.234,0.256,0.485,0.388,0.735c0.065,0.126,0.135,0.249,0.203,0.371
	c0.068,0.122,0.135,0.242,0.2,0.357c0.065,0.116,0.127,0.228,0.186,0.334c0.03,0.053,0.059,0.105,0.087,0.154
	c0.029,0.049,0.058,0.097,0.085,0.143c0.216,0.365,0.36,0.609,0.36,0.609l-1.992,1.193c0,0,0.038,0.064,0.094,0.16
	c0.028,0.048,0.061,0.104,0.097,0.163c0.037,0.06,0.076,0.122,0.116,0.185c0.156,0.251,0.314,0.503,0.314,0.503l2.947-1.856
	c0,0-0.046-0.074-0.126-0.201c-0.079-0.129-0.197-0.311-0.33-0.533c-0.132-0.223-0.286-0.484-0.451-0.763
	c-0.041-0.069-0.084-0.141-0.126-0.213c-0.041-0.073-0.082-0.146-0.123-0.22c-0.083-0.149-0.168-0.3-0.252-0.451
	c-0.042-0.076-0.084-0.152-0.127-0.227c-0.042-0.075-0.084-0.15-0.122-0.226c-0.08-0.15-0.158-0.299-0.234-0.442
	c-0.075-0.143-0.148-0.282-0.218-0.414c-0.017-0.033-0.034-0.065-0.051-0.097c-0.016-0.032-0.032-0.065-0.047-0.096
	c-0.031-0.063-0.061-0.123-0.09-0.181C14.312,80.333,14.158,80.023,14.158,80.023L14.158,80.023z M22.122,93.509l-1.678,1.605
	l0.828,0.848l2.462-2.462c0,0-0.339-0.347-0.846-0.868c-0.246-0.266-0.537-0.575-0.844-0.91c-0.15-0.17-0.307-0.345-0.464-0.523
	c-0.08-0.09-0.159-0.179-0.24-0.27c-0.08-0.091-0.156-0.184-0.235-0.277c-0.157-0.185-0.313-0.37-0.467-0.552
	c-0.078-0.09-0.151-0.183-0.225-0.275c-0.073-0.091-0.145-0.181-0.217-0.269c-0.142-0.177-0.28-0.348-0.411-0.51
	c-0.126-0.165-0.246-0.321-0.357-0.466c-0.11-0.144-0.212-0.276-0.302-0.394c-0.09-0.117-0.163-0.222-0.226-0.308
	c-0.125-0.171-0.196-0.269-0.196-0.269l-5.631,4.098c0,0-0.058-0.08-0.16-0.219c-0.05-0.07-0.113-0.155-0.183-0.252
	c-0.07-0.098-0.146-0.21-0.231-0.332c-0.169-0.243-0.366-0.527-0.576-0.832c-0.204-0.309-0.42-0.638-0.637-0.969
	c-0.11-0.164-0.212-0.333-0.316-0.497c-0.103-0.165-0.204-0.327-0.302-0.484c-0.199-0.312-0.371-0.612-0.523-0.866
	c-0.15-0.255-0.276-0.467-0.364-0.616c-0.084-0.151-0.133-0.237-0.133-0.237l2.018-1.148c0,0-0.148-0.264-0.296-0.529
	c-0.073-0.132-0.148-0.264-0.202-0.363c-0.054-0.1-0.089-0.167-0.089-0.167l-3.065,1.653c0,0,0.014,0.026,0.041,0.076
	c0.026,0.05,0.066,0.123,0.117,0.215c0.104,0.185,0.251,0.448,0.428,0.765c0.173,0.319,0.392,0.68,0.623,1.071
	c0.058,0.097,0.117,0.197,0.176,0.297c0.03,0.05,0.059,0.101,0.09,0.151c0.031,0.05,0.062,0.1,0.094,0.151
	c0.126,0.202,0.254,0.407,0.382,0.612c0.252,0.412,0.523,0.813,0.772,1.192c0.246,0.381,0.492,0.725,0.697,1.024
	c0.103,0.149,0.198,0.286,0.282,0.407c0.084,0.121,0.162,0.223,0.223,0.309c0.125,0.171,0.195,0.269,0.195,0.269h0.001
	c0,0,0.19,0.261,0.38,0.521c0.094,0.131,0.194,0.257,0.267,0.353c0.073,0.096,0.123,0.16,0.123,0.16l5.538-4.223
	c0,0,0.054,0.07,0.148,0.194c0.047,0.062,0.105,0.136,0.17,0.221c0.066,0.086,0.139,0.184,0.224,0.286
	c0.166,0.207,0.36,0.448,0.569,0.707c0.102,0.131,0.216,0.26,0.328,0.393c0.112,0.133,0.226,0.269,0.341,0.404
	C21.142,92.485,22.122,93.509,22.122,93.509L22.122,93.509z M14.158,37.211c0,0,0.246-0.495,0.493-0.991
	c0.257-0.49,0.514-0.98,0.514-0.98l-6.129-3.305c0,0,0.012-0.022,0.033-0.063c0.021-0.041,0.053-0.101,0.095-0.176
	c0.084-0.151,0.205-0.367,0.349-0.625c0.072-0.129,0.151-0.269,0.233-0.418c0.084-0.147,0.177-0.301,0.27-0.46
	c0.094-0.16,0.192-0.324,0.29-0.491c0.05-0.084,0.099-0.168,0.15-0.253c0.051-0.084,0.104-0.168,0.156-0.251
	c0.21-0.334,0.417-0.671,0.615-0.983c0.204-0.309,0.393-0.598,0.556-0.845c0.16-0.249,0.305-0.449,0.402-0.592
	c0.099-0.142,0.154-0.223,0.154-0.223l1.908,1.323c0,0,0.173-0.249,0.345-0.498c0.179-0.244,0.357-0.49,0.357-0.49l-2.816-2.048
	c0,0-0.071,0.097-0.196,0.268c-0.061,0.086-0.139,0.188-0.223,0.309c-0.083,0.121-0.179,0.258-0.281,0.407
	c-0.206,0.299-0.452,0.643-0.698,1.024c-0.248,0.379-0.519,0.78-0.771,1.192c-0.128,0.205-0.256,0.41-0.382,0.613
	c-0.031,0.05-0.063,0.101-0.094,0.15c-0.03,0.051-0.061,0.101-0.09,0.152c-0.059,0.1-0.117,0.199-0.176,0.297
	c-0.23,0.391-0.449,0.753-0.623,1.072c-0.177,0.316-0.325,0.58-0.427,0.765c-0.052,0.092-0.092,0.165-0.118,0.216
	c-0.026,0.05-0.041,0.076-0.041,0.076l0.001,0c0,0-0.151,0.285-0.302,0.57c-0.075,0.143-0.15,0.285-0.206,0.392
	c-0.057,0.107-0.092,0.179-0.093,0.179l6.203,3.167l-0.505,1.014c0,0-0.009,0.016-0.022,0.046c-0.014,0.031-0.035,0.075-0.061,0.13
	c-0.052,0.113-0.127,0.273-0.217,0.465c-0.045,0.097-0.094,0.201-0.146,0.311c-0.026,0.054-0.052,0.112-0.079,0.169
	c-0.026,0.059-0.051,0.119-0.079,0.179c-0.106,0.243-0.22,0.503-0.333,0.763c-0.028,0.065-0.057,0.129-0.085,0.194
	c-0.027,0.065-0.053,0.13-0.08,0.194c-0.053,0.13-0.104,0.257-0.155,0.379c-0.05,0.123-0.098,0.242-0.144,0.355
	c-0.047,0.112-0.091,0.219-0.128,0.318c-0.151,0.397-0.252,0.661-0.252,0.661L9.16,40.056c0,0-0.026,0.069-0.066,0.173
	c-0.04,0.104-0.094,0.242-0.141,0.382c-0.099,0.28-0.197,0.559-0.197,0.559l3.287,1.15c0,0,0.029-0.082,0.079-0.225
	c0.025-0.071,0.055-0.158,0.09-0.257c0.018-0.05,0.036-0.103,0.055-0.159c0.019-0.055,0.043-0.113,0.065-0.174
	c0.093-0.243,0.2-0.526,0.315-0.828c0.056-0.153,0.122-0.307,0.186-0.465c0.064-0.157,0.13-0.317,0.194-0.477
	c0.127-0.322,0.271-0.636,0.4-0.934c0.065-0.149,0.127-0.292,0.186-0.428c0.06-0.137,0.122-0.263,0.177-0.38
	c0.109-0.235,0.201-0.431,0.265-0.568c0.032-0.069,0.057-0.122,0.074-0.159C14.148,37.23,14.158,37.211,14.158,37.211L14.158,37.211
	z M8.579,51.835l-2.301-0.309c0,0-0.01,0.074-0.026,0.184c-0.007,0.054-0.016,0.119-0.026,0.188
	c-0.008,0.069-0.016,0.143-0.024,0.216c-0.034,0.295-0.067,0.589-0.067,0.589l3.46,0.386c0,0,0.014-0.12,0.037-0.331
	c0.012-0.106,0.028-0.234,0.043-0.38c0.018-0.146,0.043-0.311,0.068-0.491c0.051-0.36,0.104-0.781,0.183-1.228
	c0.037-0.224,0.075-0.455,0.114-0.691c0.04-0.234,0.09-0.471,0.134-0.71c0.022-0.119,0.045-0.237,0.068-0.356
	c0.023-0.118,0.044-0.236,0.07-0.353c0.051-0.233,0.101-0.462,0.149-0.684c0.024-0.111,0.048-0.22,0.071-0.326
	c0.022-0.107,0.05-0.21,0.073-0.312c0.049-0.202,0.097-0.393,0.139-0.57c0.021-0.088,0.043-0.172,0.062-0.253
	c0.01-0.04,0.019-0.079,0.028-0.118c0.011-0.037,0.02-0.074,0.03-0.11c0.038-0.143,0.071-0.267,0.099-0.369
	c0.056-0.204,0.087-0.321,0.087-0.321L4.34,43.639c0,0,0.026-0.096,0.071-0.262c0.043-0.167,0.116-0.403,0.2-0.687
	c0.043-0.142,0.088-0.296,0.137-0.458c0.049-0.163,0.097-0.335,0.156-0.511c0.115-0.352,0.237-0.728,0.359-1.103
	c0.128-0.374,0.261-0.746,0.384-1.095c0.031-0.087,0.061-0.173,0.09-0.257c0.031-0.083,0.063-0.165,0.092-0.244
	c0.061-0.158,0.118-0.308,0.171-0.447c0.106-0.277,0.191-0.508,0.257-0.669c0.065-0.159,0.102-0.251,0.102-0.251l2.154,0.865
	c0,0,0.115-0.28,0.229-0.56c0.058-0.141,0.114-0.282,0.159-0.386C8.945,37.469,8.975,37.4,8.975,37.4l-3.202-1.371
	c0,0-0.012,0.028-0.035,0.08c-0.022,0.052-0.057,0.128-0.097,0.226c-0.08,0.196-0.194,0.476-0.331,0.812
	c-0.034,0.084-0.07,0.171-0.107,0.263c-0.018,0.044-0.037,0.091-0.057,0.138c-0.017,0.047-0.036,0.095-0.054,0.143
	c-0.074,0.194-0.151,0.399-0.233,0.611c-0.079,0.212-0.165,0.43-0.245,0.655c-0.079,0.225-0.16,0.453-0.24,0.681
	c-0.04,0.114-0.08,0.228-0.121,0.342c-0.039,0.113-0.081,0.226-0.116,0.34c-0.073,0.227-0.146,0.45-0.216,0.665
	c-0.07,0.216-0.139,0.423-0.2,0.622c-0.059,0.199-0.116,0.388-0.167,0.562c-0.053,0.174-0.099,0.334-0.141,0.475
	c-0.043,0.141-0.08,0.264-0.106,0.367c-0.056,0.204-0.087,0.321-0.087,0.321l0,0c0,0-0.084,0.312-0.168,0.623
	c-0.042,0.156-0.086,0.311-0.113,0.429c-0.029,0.117-0.048,0.195-0.048,0.195l6.755,1.697c0,0-0.084,0.344-0.21,0.86
	c-0.061,0.258-0.124,0.562-0.196,0.886c-0.034,0.162-0.073,0.329-0.106,0.5c-0.033,0.171-0.066,0.346-0.099,0.519
	c-0.034,0.174-0.067,0.348-0.1,0.519c-0.009,0.042-0.016,0.085-0.024,0.128c-0.007,0.042-0.014,0.085-0.021,0.127
	c-0.013,0.084-0.028,0.167-0.041,0.249c-0.054,0.327-0.104,0.633-0.148,0.895C8.629,51.484,8.579,51.835,8.579,51.835L8.579,51.835z
	 M8.329,63.147l-2.313,0.205c0,0,0.026,0.295,0.053,0.59c0.013,0.148,0.032,0.295,0.044,0.405c0.013,0.111,0.022,0.184,0.022,0.184
	l3.46-0.385c0,0-0.014-0.12-0.038-0.331c-0.006-0.052-0.014-0.111-0.02-0.174c-0.005-0.064-0.012-0.133-0.019-0.207
	c-0.013-0.147-0.028-0.313-0.044-0.494c-0.015-0.181-0.035-0.376-0.051-0.584c-0.013-0.208-0.026-0.427-0.041-0.654
	c-0.007-0.113-0.014-0.229-0.022-0.346c-0.004-0.058-0.008-0.116-0.011-0.175c-0.004-0.059-0.005-0.118-0.008-0.178
	c-0.009-0.238-0.017-0.481-0.027-0.723c-0.005-0.121-0.009-0.242-0.014-0.363c-0.001-0.12-0.003-0.241-0.005-0.36
	c-0.003-0.239-0.006-0.474-0.01-0.702c-0.006-0.227,0-0.447,0.002-0.656c0.003-0.208,0.005-0.405,0.007-0.587
	c0.001-0.091,0.003-0.178,0.004-0.261c0.002-0.083,0.006-0.162,0.008-0.235c0.006-0.147,0.011-0.276,0.015-0.382
	C9.333,56.522,9.337,56.4,9.337,56.4L2.38,56.093c0,0,0.004-0.098,0.011-0.271c0.006-0.172,0.025-0.418,0.042-0.714
	c0.009-0.147,0.02-0.307,0.03-0.476c0.011-0.169,0.02-0.348,0.039-0.532c0.032-0.368,0.067-0.762,0.102-1.154
	c0.086-0.785,0.172-1.57,0.261-2.156c0.042-0.293,0.076-0.537,0.1-0.708c0.028-0.171,0.043-0.268,0.043-0.268l2.293,0.36
	c0,0,0.049-0.299,0.1-0.597c0.024-0.15,0.049-0.299,0.068-0.411c0.018-0.112,0.033-0.187,0.033-0.187l-3.426-0.617
	c0,0-0.006,0.029-0.016,0.085c-0.01,0.056-0.023,0.138-0.041,0.242c-0.035,0.209-0.084,0.507-0.143,0.865
	c-0.015,0.089-0.031,0.182-0.046,0.279c-0.016,0.097-0.028,0.197-0.044,0.3c-0.028,0.206-0.059,0.423-0.091,0.647
	c-0.016,0.112-0.031,0.226-0.047,0.342c-0.008,0.058-0.016,0.116-0.025,0.175c-0.007,0.058-0.014,0.117-0.02,0.176
	c-0.027,0.236-0.055,0.477-0.082,0.717c-0.014,0.121-0.028,0.24-0.041,0.36c-0.006,0.06-0.013,0.12-0.02,0.179
	c-0.005,0.06-0.01,0.119-0.016,0.178c-0.021,0.237-0.042,0.47-0.062,0.696c-0.019,0.225-0.041,0.444-0.056,0.65
	c-0.014,0.208-0.026,0.403-0.038,0.584c-0.022,0.362-0.043,0.663-0.053,0.874c-0.009,0.211-0.013,0.332-0.013,0.332h0.001
	c0,0-0.013,0.322-0.025,0.644c-0.006,0.161-0.011,0.322-0.017,0.442c-0.002,0.121-0.002,0.202-0.002,0.202l6.963,0.153
	c0,0-0.005,0.354-0.011,0.886c-0.008,0.266,0.003,0.577,0.005,0.908c0.002,0.166,0.004,0.338,0.007,0.513
	c0.001,0.043,0.001,0.087,0.001,0.131c0.002,0.045,0.003,0.089,0.006,0.133c0.003,0.088,0.006,0.177,0.01,0.265
	C8.194,61.736,8.329,63.147,8.329,63.147L8.329,63.147z M10.586,74.224L8.378,74.94c0,0,0.092,0.282,0.183,0.564
	c0.047,0.141,0.098,0.281,0.135,0.385c0.037,0.105,0.061,0.175,0.061,0.175l3.286-1.15c0,0-0.039-0.114-0.11-0.314
	c-0.018-0.05-0.037-0.105-0.059-0.165c-0.019-0.061-0.041-0.126-0.064-0.196c-0.045-0.141-0.097-0.299-0.152-0.472
	c-0.056-0.173-0.12-0.359-0.18-0.558c-0.06-0.199-0.122-0.41-0.187-0.627c-0.135-0.433-0.256-0.902-0.383-1.369
	c-0.031-0.117-0.066-0.233-0.093-0.351c-0.029-0.117-0.057-0.233-0.086-0.349c-0.056-0.232-0.111-0.459-0.166-0.68
	c-0.1-0.443-0.187-0.857-0.266-1.212c-0.137-0.714-0.23-1.189-0.23-1.189l-6.853,1.236c0,0-0.279-1.555-0.471-3.122
	c-0.045-0.393-0.09-0.785-0.132-1.153c-0.033-0.368-0.064-0.712-0.09-1.007c-0.013-0.148-0.026-0.283-0.036-0.403
	c-0.009-0.12-0.015-0.224-0.021-0.31C2.457,62.5,2.45,62.402,2.45,62.402l2.316-0.154c0,0-0.019-0.302-0.038-0.604
	c-0.004-0.076-0.01-0.151-0.014-0.222c-0.004-0.071-0.006-0.137-0.008-0.194c-0.005-0.114-0.007-0.19-0.007-0.19L1.22,61.192
	c0,0,0.004,0.121,0.013,0.332c0.01,0.212,0.031,0.512,0.053,0.874c0.012,0.181,0.024,0.377,0.038,0.584
	c0.015,0.207,0.037,0.425,0.056,0.651c0.02,0.226,0.041,0.459,0.062,0.696c0.006,0.059,0.011,0.118,0.016,0.178
	c0.007,0.059,0.014,0.119,0.02,0.179c0.014,0.12,0.027,0.24,0.041,0.359c0.028,0.241,0.055,0.48,0.082,0.717
	c0.006,0.059,0.013,0.117,0.02,0.176c0.009,0.058,0.016,0.116,0.025,0.174c0.016,0.116,0.031,0.23,0.047,0.342
	c0.032,0.224,0.062,0.441,0.091,0.647c0.015,0.103,0.028,0.203,0.044,0.3c0.015,0.096,0.031,0.19,0.046,0.28
	c0.059,0.357,0.109,0.656,0.143,0.865c0.018,0.104,0.031,0.186,0.04,0.242c0.011,0.056,0.017,0.085,0.017,0.085l0,0l0.243,1.267
	l6.824-1.39c0,0,0.003,0.021,0.012,0.062c0.009,0.04,0.022,0.1,0.038,0.175c0.033,0.151,0.08,0.368,0.137,0.627
	c0.028,0.13,0.059,0.27,0.091,0.419c0.036,0.147,0.074,0.303,0.114,0.464c0.039,0.161,0.079,0.328,0.121,0.498
	c0.021,0.085,0.042,0.17,0.063,0.255c0.023,0.085,0.046,0.17,0.07,0.255c0.093,0.342,0.183,0.684,0.272,1.003
	c0.094,0.318,0.183,0.615,0.259,0.869c0.073,0.255,0.145,0.465,0.192,0.612C10.558,74.14,10.586,74.224,10.586,74.224L10.586,74.224
	z M47.633,10.514c0,0,0.541-0.117,1.081-0.234c0.543-0.104,1.088-0.208,1.088-0.208l-1.236-6.854c0,0,1.555-0.28,3.123-0.471
	c0.392-0.045,0.784-0.089,1.152-0.132c0.368-0.033,0.712-0.064,1.007-0.09c0.147-0.013,0.283-0.025,0.402-0.036
	c0.12-0.01,0.225-0.015,0.311-0.02c0.172-0.011,0.271-0.018,0.271-0.018l0.154,2.316c0,0,0.302-0.019,0.604-0.038
	c0.076-0.005,0.151-0.01,0.222-0.014c0.071-0.004,0.137-0.006,0.193-0.008c0.114-0.005,0.19-0.007,0.19-0.007l-0.154-3.479
	c0,0-0.12,0.005-0.332,0.013c-0.211,0.011-0.512,0.031-0.874,0.053c-0.181,0.012-0.377,0.024-0.584,0.038
	c-0.207,0.015-0.425,0.036-0.651,0.056c-0.225,0.02-0.458,0.041-0.696,0.062c-0.059,0.005-0.118,0.011-0.178,0.016
	c-0.059,0.007-0.12,0.014-0.179,0.021c-0.12,0.014-0.239,0.027-0.36,0.041c-0.24,0.028-0.48,0.056-0.716,0.082
	c-0.059,0.007-0.118,0.014-0.176,0.02c-0.059,0.008-0.117,0.016-0.175,0.024c-0.116,0.016-0.23,0.032-0.342,0.048
	c-0.224,0.032-0.441,0.062-0.647,0.091c-0.103,0.015-0.203,0.027-0.3,0.043c-0.097,0.016-0.19,0.031-0.279,0.046
	c-0.357,0.059-0.656,0.109-0.865,0.144c-0.104,0.017-0.186,0.031-0.242,0.04C48.39,2.07,48.36,2.075,48.36,2.075v0.001l-1.267,0.243
	l1.39,6.824c0,0-0.017,0.003-0.047,0.009c-0.031,0.007-0.074,0.016-0.125,0.028c-0.104,0.022-0.242,0.053-0.381,0.083
	c-0.276,0.06-0.553,0.12-0.553,0.12s-0.07,0.015-0.191,0.042c-0.12,0.029-0.292,0.071-0.499,0.121
	c-0.206,0.05-0.447,0.109-0.705,0.172c-0.257,0.069-0.529,0.143-0.803,0.217c-0.137,0.037-0.274,0.075-0.408,0.111
	c-0.133,0.04-0.265,0.079-0.392,0.117c-0.254,0.075-0.492,0.146-0.695,0.206c-0.204,0.061-0.371,0.119-0.489,0.156
	c-0.119,0.039-0.186,0.06-0.186,0.06l-0.717-2.207c0,0-0.282,0.092-0.564,0.183c-0.141,0.047-0.279,0.098-0.384,0.134
	C41.24,8.733,41.17,8.758,41.17,8.758l1.15,3.286c0,0,0.082-0.029,0.225-0.079c0.071-0.025,0.158-0.056,0.257-0.09
	c0.1-0.033,0.213-0.07,0.337-0.109c0.246-0.081,0.534-0.174,0.843-0.273c0.311-0.093,0.642-0.191,0.973-0.29
	c0.165-0.052,0.334-0.094,0.497-0.139c0.164-0.044,0.327-0.088,0.483-0.13c0.078-0.021,0.155-0.042,0.231-0.063
	c0.075-0.021,0.148-0.04,0.22-0.057c0.144-0.035,0.281-0.068,0.407-0.099c0.252-0.061,0.462-0.113,0.609-0.149
	c0.074-0.019,0.131-0.03,0.172-0.039C47.612,10.519,47.633,10.514,47.633,10.514L47.633,10.514z M32.72,15.266l-1.193-1.992
	c0,0-0.064,0.038-0.159,0.094c-0.048,0.029-0.104,0.061-0.163,0.097c-0.059,0.037-0.121,0.076-0.185,0.116
	c-0.251,0.157-0.502,0.314-0.502,0.314l1.855,2.946c0,0,0.102-0.064,0.282-0.176c0.09-0.057,0.199-0.124,0.325-0.203
	c0.125-0.078,0.27-0.16,0.426-0.254c0.313-0.184,0.675-0.404,1.074-0.621c0.198-0.111,0.403-0.225,0.611-0.342
	c0.21-0.111,0.424-0.224,0.639-0.337c0.426-0.231,0.862-0.441,1.268-0.644c0.102-0.05,0.2-0.101,0.299-0.147
	c0.1-0.046,0.196-0.091,0.291-0.135c0.189-0.088,0.366-0.171,0.531-0.248c0.083-0.038,0.16-0.077,0.236-0.109
	c0.076-0.033,0.148-0.064,0.216-0.094c0.135-0.059,0.253-0.111,0.35-0.153c0.194-0.085,0.305-0.133,0.305-0.133l-2.74-6.402
	c0,0,0.091-0.04,0.249-0.108c0.16-0.066,0.388-0.159,0.662-0.271c0.275-0.112,0.594-0.246,0.941-0.374
	c0.173-0.066,0.351-0.134,0.534-0.203c0.182-0.067,0.365-0.141,0.552-0.205c0.373-0.131,0.745-0.262,1.095-0.385
	c0.352-0.115,0.681-0.223,0.962-0.314c0.141-0.046,0.271-0.088,0.385-0.125c0.114-0.034,0.215-0.065,0.297-0.089
	c0.166-0.05,0.261-0.077,0.261-0.077l0.667,2.223c0,0,0.29-0.086,0.581-0.173c0.145-0.045,0.291-0.083,0.401-0.113
	c0.11-0.029,0.182-0.05,0.182-0.05l-0.924-3.357c0,0-0.117,0.032-0.321,0.087c-0.103,0.027-0.226,0.064-0.367,0.106
	c-0.141,0.042-0.301,0.09-0.475,0.141c-0.174,0.051-0.363,0.108-0.561,0.167c-0.2,0.06-0.407,0.13-0.623,0.2
	c-0.216,0.07-0.438,0.143-0.664,0.216c-0.114,0.036-0.227,0.076-0.341,0.116c-0.113,0.04-0.227,0.08-0.342,0.12
	c-0.227,0.08-0.456,0.161-0.68,0.24c-0.225,0.08-0.443,0.166-0.655,0.245C38.09,4.941,37.884,5.02,37.69,5.093
	c-0.048,0.019-0.097,0.037-0.143,0.055c-0.047,0.02-0.093,0.038-0.138,0.056c-0.091,0.037-0.178,0.073-0.262,0.107
	c-0.335,0.138-0.616,0.252-0.812,0.332c-0.098,0.039-0.174,0.074-0.226,0.096c-0.052,0.023-0.08,0.035-0.08,0.035l0,0
	c0,0-0.295,0.13-0.592,0.259c-0.147,0.064-0.295,0.129-0.405,0.178c-0.056,0.024-0.101,0.045-0.134,0.06
	c-0.031,0.015-0.049,0.023-0.049,0.023l2.883,6.34c0,0-0.32,0.149-0.802,0.374c-0.06,0.028-0.123,0.057-0.188,0.087
	c-0.063,0.031-0.13,0.064-0.198,0.098c-0.136,0.068-0.279,0.139-0.428,0.213c-0.149,0.074-0.302,0.15-0.459,0.228
	c-0.154,0.081-0.311,0.163-0.467,0.246c-0.631,0.323-1.244,0.677-1.708,0.935C33.025,15.086,32.72,15.266,32.72,15.266L32.72,15.266
	z M23.725,22.122l-1.605-1.677l-0.848,0.828l2.462,2.462c0,0,0.347-0.338,0.867-0.846c0.267-0.247,0.575-0.538,0.911-0.844
	c0.17-0.151,0.345-0.307,0.523-0.465c0.09-0.079,0.18-0.159,0.27-0.239c0.09-0.079,0.184-0.156,0.277-0.235
	c0.185-0.156,0.37-0.313,0.552-0.467c0.09-0.078,0.183-0.151,0.274-0.225c0.092-0.074,0.181-0.146,0.269-0.217
	c0.177-0.142,0.348-0.28,0.511-0.41c0.165-0.127,0.321-0.246,0.465-0.357c0.145-0.111,0.277-0.212,0.394-0.302
	c0.117-0.09,0.222-0.164,0.308-0.227c0.171-0.125,0.269-0.196,0.269-0.196l-4.098-5.631c0,0,0.08-0.059,0.219-0.16
	c0.07-0.05,0.155-0.113,0.252-0.183c0.098-0.071,0.21-0.147,0.331-0.231c0.243-0.169,0.527-0.365,0.832-0.576
	c0.309-0.204,0.639-0.421,0.969-0.637c0.164-0.111,0.333-0.212,0.497-0.316c0.165-0.103,0.326-0.204,0.484-0.302
	c0.312-0.199,0.611-0.371,0.866-0.523c0.255-0.15,0.467-0.276,0.616-0.364c0.15-0.084,0.237-0.133,0.237-0.133l1.147,2.018
	c0,0,0.265-0.148,0.529-0.296c0.132-0.074,0.264-0.147,0.363-0.203c0.1-0.053,0.167-0.089,0.167-0.089l-1.653-3.065
	c0,0-0.027,0.014-0.076,0.04c-0.05,0.026-0.124,0.066-0.216,0.118c-0.185,0.103-0.448,0.251-0.765,0.428
	c-0.318,0.174-0.68,0.393-1.071,0.623c-0.097,0.058-0.196,0.117-0.297,0.176c-0.05,0.03-0.101,0.06-0.151,0.09
	c-0.05,0.031-0.101,0.063-0.151,0.094c-0.202,0.126-0.407,0.254-0.612,0.382c-0.413,0.253-0.813,0.524-1.193,0.772
	c-0.381,0.246-0.725,0.492-1.024,0.697c-0.149,0.103-0.285,0.198-0.406,0.282c-0.122,0.084-0.224,0.162-0.31,0.223
	c-0.171,0.124-0.268,0.195-0.268,0.195v0.001c0,0-0.26,0.19-0.521,0.38c-0.131,0.094-0.257,0.195-0.353,0.267
	c-0.096,0.073-0.16,0.122-0.16,0.122l4.223,5.538c0,0-0.071,0.054-0.193,0.148c-0.062,0.047-0.136,0.104-0.221,0.17
	c-0.086,0.066-0.184,0.139-0.286,0.224c-0.207,0.166-0.449,0.36-0.707,0.569c-0.131,0.103-0.26,0.216-0.393,0.327
	c-0.133,0.113-0.269,0.227-0.404,0.342C24.749,21.142,23.725,22.122,23.725,22.122L23.725,22.122z M16.473,30.803l-1.936-1.281
	c0,0-0.163,0.247-0.326,0.495c-0.083,0.124-0.161,0.25-0.22,0.344c-0.059,0.094-0.098,0.157-0.098,0.157l2.947,1.855
	c0,0,0.064-0.103,0.176-0.283c0.114-0.179,0.283-0.431,0.482-0.734c0.398-0.608,0.957-1.4,1.532-2.18
	c0.144-0.195,0.294-0.386,0.438-0.575c0.073-0.094,0.144-0.188,0.216-0.281c0.035-0.046,0.071-0.093,0.105-0.139
	c0.035-0.046,0.072-0.089,0.107-0.134c0.143-0.177,0.28-0.348,0.411-0.51c0.13-0.162,0.253-0.316,0.371-0.454
	c0.235-0.277,0.43-0.509,0.567-0.67c0.068-0.082,0.124-0.143,0.163-0.186c0.037-0.042,0.057-0.066,0.057-0.066l-5.242-4.584
	c0,0,0.263-0.295,0.655-0.738c0.198-0.22,0.436-0.471,0.687-0.742c0.063-0.068,0.127-0.136,0.192-0.206
	c0.065-0.07,0.131-0.14,0.199-0.209c0.136-0.139,0.274-0.281,0.412-0.422c0.138-0.141,0.275-0.282,0.411-0.421
	c0.138-0.137,0.275-0.27,0.407-0.4c0.133-0.129,0.26-0.254,0.382-0.372c0.061-0.059,0.12-0.117,0.177-0.172
	c0.057-0.056,0.114-0.108,0.168-0.159c0.433-0.403,0.722-0.672,0.722-0.672l1.567,1.713c0,0,0.055-0.051,0.139-0.128
	c0.085-0.075,0.198-0.176,0.311-0.277c0.226-0.201,0.453-0.402,0.453-0.402l-2.292-2.621c0,0-0.09,0.081-0.249,0.221
	c-0.157,0.141-0.385,0.339-0.653,0.583c-0.265,0.247-0.575,0.535-0.907,0.844c-0.324,0.316-0.67,0.654-1.016,0.992
	c-0.338,0.346-0.675,0.692-0.991,1.017c-0.309,0.331-0.597,0.641-0.844,0.906c-0.243,0.268-0.442,0.496-0.583,0.653
	c-0.14,0.159-0.221,0.249-0.221,0.249h0.001c0,0-0.054,0.061-0.134,0.15c-0.08,0.091-0.183,0.215-0.287,0.338
	c-0.208,0.246-0.416,0.492-0.416,0.492l5.343,4.466c0,0-0.057,0.068-0.157,0.186c-0.1,0.119-0.236,0.293-0.404,0.499
	c-0.084,0.104-0.174,0.215-0.27,0.334c-0.047,0.059-0.096,0.12-0.147,0.183c-0.049,0.063-0.098,0.128-0.149,0.194
	c-0.201,0.264-0.419,0.544-0.631,0.826c-0.209,0.286-0.418,0.573-0.614,0.841c-0.192,0.271-0.366,0.527-0.519,0.745
	c-0.075,0.109-0.145,0.209-0.206,0.298c-0.061,0.089-0.112,0.168-0.154,0.233C16.522,30.729,16.473,30.803,16.473,30.803
	L16.473,30.803z M89.371,20.047c0,0,0.108,0.087,0.27,0.217c0.161,0.13,0.379,0.302,0.588,0.483
	c0.212,0.179,0.423,0.358,0.581,0.492c0.08,0.066,0.145,0.124,0.19,0.165c0.045,0.041,0.071,0.063,0.071,0.063l4.584-5.243
	c0,0,0.295,0.263,0.738,0.655c0.22,0.198,0.471,0.436,0.742,0.687c0.068,0.064,0.136,0.127,0.206,0.193
	c0.069,0.065,0.139,0.131,0.209,0.199c0.139,0.136,0.281,0.274,0.421,0.411c0.142,0.138,0.283,0.276,0.422,0.412
	c0.138,0.138,0.271,0.275,0.399,0.407c0.129,0.132,0.254,0.26,0.373,0.382c0.059,0.061,0.117,0.12,0.172,0.177
	c0.055,0.057,0.107,0.114,0.157,0.168c0.405,0.434,0.673,0.723,0.673,0.723l-1.713,1.566c0,0,0.051,0.056,0.128,0.139
	c0.076,0.085,0.176,0.198,0.276,0.311c0.202,0.227,0.403,0.453,0.403,0.453l2.622-2.292c0,0-0.081-0.09-0.221-0.249
	c-0.141-0.157-0.339-0.385-0.583-0.653c-0.247-0.265-0.535-0.575-0.844-0.906c-0.317-0.325-0.654-0.671-0.992-1.017
	c-0.346-0.337-0.692-0.675-1.016-0.991c-0.332-0.309-0.641-0.597-0.907-0.844c-0.268-0.244-0.495-0.442-0.653-0.583
	c-0.158-0.14-0.248-0.22-0.248-0.22v0c0,0-0.061-0.054-0.151-0.134c-0.09-0.08-0.215-0.183-0.338-0.287
	c-0.246-0.208-0.492-0.416-0.492-0.416l-4.466,5.344c0,0-0.054-0.046-0.135-0.114c-0.08-0.07-0.19-0.158-0.301-0.247
	c-0.221-0.178-0.442-0.356-0.442-0.356s-0.055-0.044-0.152-0.122c-0.048-0.039-0.106-0.087-0.174-0.14
	c-0.069-0.053-0.145-0.112-0.23-0.177c-0.169-0.129-0.366-0.28-0.576-0.441c-0.053-0.04-0.106-0.083-0.161-0.122
	c-0.055-0.04-0.111-0.082-0.167-0.122c-0.113-0.082-0.227-0.166-0.342-0.249c-0.454-0.34-0.924-0.655-1.273-0.899
	c-0.173-0.123-0.322-0.218-0.426-0.287c-0.103-0.068-0.163-0.107-0.163-0.107l1.281-1.936c0,0-0.248-0.163-0.495-0.325
	c-0.123-0.083-0.25-0.16-0.344-0.219c-0.094-0.059-0.157-0.098-0.157-0.098l-1.855,2.946c0,0,0.074,0.046,0.202,0.126
	c0.13,0.078,0.309,0.2,0.526,0.341c0.109,0.071,0.226,0.149,0.35,0.23c0.124,0.082,0.256,0.166,0.389,0.26
	c0.267,0.185,0.551,0.382,0.835,0.58c0.279,0.204,0.559,0.408,0.821,0.599c0.132,0.094,0.255,0.19,0.374,0.281
	c0.118,0.09,0.229,0.176,0.332,0.255c0.206,0.159,0.379,0.287,0.496,0.384C89.304,19.994,89.371,20.047,89.371,20.047L89.371,20.047
	z M76.362,11.334l0.816-2.173c0,0-0.069-0.027-0.173-0.066c-0.104-0.039-0.242-0.094-0.382-0.141c-0.28-0.098-0.56-0.197-0.56-0.197
	l-1.149,3.286c0,0,0.114,0.041,0.313,0.111c0.1,0.035,0.221,0.077,0.361,0.127c0.137,0.052,0.293,0.112,0.463,0.176
	c0.169,0.064,0.353,0.134,0.547,0.208c0.098,0.036,0.196,0.077,0.298,0.119c0.1,0.042,0.204,0.083,0.309,0.126
	c0.21,0.087,0.427,0.175,0.647,0.266c0.219,0.096,0.44,0.193,0.662,0.29c0.111,0.049,0.222,0.097,0.333,0.146
	c0.11,0.047,0.218,0.101,0.326,0.151c0.216,0.101,0.428,0.2,0.633,0.296c0.207,0.094,0.402,0.194,0.589,0.287
	s0.363,0.179,0.525,0.26c0.164,0.079,0.31,0.159,0.441,0.228c0.13,0.069,0.244,0.128,0.338,0.178
	c0.188,0.099,0.295,0.155,0.295,0.155l3.305-6.13c0,0,0.021,0.012,0.062,0.033c0.041,0.021,0.101,0.053,0.176,0.095
	c0.151,0.084,0.367,0.205,0.625,0.349c0.129,0.073,0.269,0.151,0.417,0.234c0.148,0.084,0.3,0.176,0.461,0.27
	c0.159,0.094,0.324,0.192,0.491,0.291c0.084,0.05,0.168,0.099,0.253,0.149c0.084,0.051,0.168,0.104,0.251,0.156
	c0.335,0.21,0.671,0.417,0.983,0.615c0.31,0.203,0.598,0.394,0.845,0.556c0.249,0.161,0.449,0.304,0.592,0.402
	c0.142,0.098,0.223,0.154,0.223,0.154l-1.324,1.908c0,0,0.249,0.172,0.498,0.345c0.244,0.179,0.489,0.357,0.489,0.357l2.049-2.815
	c0,0-0.098-0.071-0.268-0.196c-0.086-0.061-0.189-0.139-0.31-0.223c-0.12-0.084-0.257-0.179-0.407-0.282
	c-0.299-0.206-0.643-0.452-1.024-0.698c-0.379-0.248-0.78-0.519-1.192-0.771c-0.206-0.128-0.41-0.256-0.613-0.382
	c-0.05-0.031-0.101-0.063-0.15-0.094c-0.051-0.03-0.102-0.06-0.152-0.089c-0.1-0.059-0.199-0.118-0.297-0.176
	c-0.391-0.23-0.753-0.449-1.071-0.623c-0.317-0.177-0.58-0.325-0.765-0.428c-0.092-0.052-0.165-0.092-0.215-0.118
	c-0.05-0.026-0.077-0.04-0.077-0.04h0c0,0-0.285-0.15-0.57-0.301c-0.143-0.076-0.285-0.151-0.392-0.207
	c-0.106-0.057-0.179-0.092-0.179-0.093l-3.167,6.203c0,0-0.317-0.157-0.793-0.394c-0.236-0.121-0.519-0.249-0.819-0.389
	c-0.15-0.071-0.306-0.143-0.463-0.217c-0.158-0.073-0.321-0.141-0.483-0.214c-0.162-0.07-0.324-0.142-0.484-0.211
	c-0.08-0.035-0.159-0.07-0.237-0.104c-0.079-0.032-0.157-0.064-0.234-0.095c-0.307-0.125-0.594-0.243-0.839-0.343
	C76.693,11.46,76.362,11.334,76.362,11.334L76.362,11.334z M65.399,8.58l0.31-2.301c0,0-0.074-0.01-0.184-0.026
	c-0.055-0.007-0.119-0.016-0.188-0.026c-0.069-0.008-0.142-0.016-0.216-0.025c-0.295-0.033-0.589-0.067-0.589-0.067l-0.386,3.461
	c0,0,0.12,0.013,0.331,0.037c0.106,0.012,0.234,0.027,0.38,0.044c0.146,0.018,0.311,0.043,0.491,0.068
	c0.359,0.051,0.78,0.104,1.227,0.183c0.224,0.037,0.455,0.075,0.691,0.114c0.235,0.04,0.471,0.09,0.71,0.134
	c0.119,0.023,0.238,0.046,0.356,0.068c0.118,0.023,0.236,0.044,0.353,0.071c0.233,0.05,0.463,0.101,0.684,0.149
	c0.111,0.024,0.22,0.047,0.327,0.07c0.107,0.023,0.21,0.051,0.311,0.075c0.201,0.049,0.393,0.096,0.57,0.139
	c0.088,0.021,0.173,0.042,0.253,0.061c0.039,0.01,0.079,0.019,0.118,0.028c0.037,0.01,0.075,0.02,0.11,0.03
	c0.143,0.038,0.267,0.072,0.369,0.1c0.204,0.055,0.321,0.087,0.321,0.087l1.849-6.714c0,0,0.095,0.026,0.262,0.071
	c0.168,0.043,0.404,0.116,0.688,0.2c0.142,0.042,0.295,0.087,0.458,0.135c0.163,0.05,0.335,0.097,0.511,0.157
	c0.351,0.114,0.727,0.236,1.102,0.358c0.374,0.128,0.746,0.261,1.095,0.384c0.087,0.031,0.173,0.062,0.257,0.091
	c0.083,0.031,0.165,0.062,0.244,0.092c0.158,0.06,0.308,0.118,0.446,0.17c0.277,0.106,0.509,0.191,0.669,0.256
	c0.159,0.065,0.251,0.103,0.251,0.103l-0.865,2.154c0,0,0.28,0.115,0.561,0.229c0.141,0.058,0.281,0.114,0.385,0.159
	c0.104,0.046,0.173,0.076,0.173,0.076l1.371-3.202c0,0-0.028-0.012-0.08-0.035c-0.052-0.022-0.127-0.057-0.226-0.096
	c-0.196-0.08-0.476-0.194-0.812-0.332c-0.084-0.034-0.171-0.07-0.262-0.107c-0.045-0.019-0.091-0.037-0.138-0.057
	c-0.047-0.018-0.095-0.036-0.143-0.055c-0.195-0.073-0.4-0.151-0.611-0.233c-0.212-0.079-0.431-0.166-0.655-0.245
	c-0.224-0.079-0.453-0.16-0.681-0.24c-0.114-0.04-0.228-0.081-0.342-0.12c-0.114-0.04-0.227-0.08-0.341-0.116
	c-0.226-0.074-0.449-0.146-0.665-0.216c-0.216-0.069-0.423-0.139-0.622-0.2c-0.199-0.059-0.388-0.116-0.562-0.167
	c-0.174-0.052-0.334-0.099-0.475-0.141c-0.141-0.042-0.264-0.079-0.367-0.105c-0.205-0.056-0.321-0.088-0.321-0.088v0
	c0,0-0.312-0.084-0.623-0.168c-0.156-0.042-0.312-0.086-0.429-0.113c-0.117-0.029-0.196-0.048-0.196-0.048l-1.697,6.754
	c0,0-0.343-0.084-0.859-0.209c-0.258-0.061-0.562-0.124-0.886-0.195c-0.162-0.034-0.329-0.074-0.5-0.107
	c-0.17-0.033-0.345-0.066-0.519-0.099c-0.174-0.033-0.348-0.067-0.519-0.1c-0.043-0.009-0.086-0.016-0.128-0.024
	c-0.043-0.008-0.085-0.014-0.127-0.021c-0.085-0.014-0.168-0.028-0.25-0.041c-0.327-0.054-0.633-0.105-0.895-0.147
	C65.75,8.629,65.399,8.58,65.399,8.58L65.399,8.58z M54.087,8.33l-0.206-2.312c0,0-0.295,0.026-0.59,0.052
	c-0.147,0.013-0.295,0.033-0.405,0.045c-0.111,0.012-0.184,0.021-0.184,0.021l0.386,3.461c0,0,0.121-0.014,0.331-0.038
	c0.053-0.006,0.11-0.014,0.175-0.02c0.063-0.006,0.132-0.012,0.205-0.018c0.148-0.013,0.313-0.028,0.495-0.044
	c0.18-0.015,0.376-0.035,0.584-0.051c0.208-0.013,0.427-0.026,0.654-0.041c0.113-0.007,0.229-0.015,0.346-0.022
	c0.058-0.003,0.117-0.007,0.176-0.011c0.059-0.004,0.119-0.004,0.178-0.008c0.238-0.009,0.481-0.018,0.723-0.027
	c0.121-0.005,0.242-0.009,0.363-0.014c0.121-0.001,0.242-0.003,0.36-0.005c0.239-0.003,0.474-0.006,0.701-0.009
	c0.228-0.006,0.448,0,0.656,0.002c0.208,0.003,0.405,0.005,0.587,0.008C59.713,9.3,59.8,9.301,59.883,9.302
	c0.083,0.003,0.161,0.006,0.235,0.009c0.147,0.005,0.276,0.01,0.382,0.015c0.211,0.008,0.333,0.012,0.333,0.012l0.307-6.957
	c0,0,0.099,0.004,0.272,0.011c0.172,0.006,0.418,0.025,0.713,0.043c0.148,0.009,0.308,0.019,0.477,0.03
	c0.169,0.011,0.348,0.02,0.532,0.039c0.369,0.033,0.763,0.068,1.155,0.103c0.785,0.086,1.571,0.172,2.155,0.261
	c0.294,0.041,0.537,0.075,0.709,0.1c0.17,0.027,0.268,0.043,0.268,0.043l-0.36,2.293c0,0,0.299,0.049,0.597,0.099
	c0.15,0.025,0.299,0.05,0.412,0.068c0.112,0.018,0.186,0.033,0.186,0.033l0.618-3.427c0,0-0.03-0.005-0.086-0.016
	c-0.055-0.009-0.137-0.023-0.242-0.04c-0.21-0.035-0.508-0.084-0.865-0.144c-0.09-0.015-0.183-0.03-0.279-0.046
	c-0.097-0.016-0.197-0.028-0.3-0.043c-0.206-0.029-0.423-0.059-0.647-0.091c-0.112-0.016-0.226-0.031-0.342-0.048
	c-0.058-0.008-0.116-0.016-0.174-0.024c-0.058-0.006-0.117-0.013-0.176-0.02c-0.236-0.027-0.477-0.054-0.717-0.082
	c-0.12-0.014-0.24-0.027-0.36-0.041c-0.059-0.006-0.12-0.013-0.179-0.021c-0.059-0.005-0.119-0.01-0.178-0.016
	c-0.237-0.021-0.47-0.042-0.696-0.062c-0.226-0.02-0.444-0.041-0.651-0.056c-0.207-0.013-0.403-0.026-0.584-0.038
	c-0.362-0.022-0.663-0.043-0.874-0.053c-0.212-0.008-0.332-0.013-0.332-0.013l0,0c0,0-0.321-0.012-0.644-0.024
	c-0.161-0.006-0.322-0.012-0.442-0.016c-0.121-0.002-0.202-0.003-0.202-0.003L59.751,8.14c0,0-0.355-0.005-0.886-0.011
	c-0.265-0.008-0.576,0.002-0.908,0.005c-0.166,0.002-0.338,0.004-0.512,0.007c-0.044,0.001-0.088,0.001-0.131,0.002
	c-0.044,0.001-0.088,0.003-0.132,0.005c-0.088,0.003-0.178,0.007-0.266,0.01C55.498,8.194,54.087,8.33,54.087,8.33L54.087,8.33z
	 M109.503,36.868h1.052l-0.054-0.132c-0.069-0.159-0.109-0.249-0.109-0.249L109.503,36.868L109.503,36.868z M95.112,23.726
	l1.677-1.605l-0.828-0.848L93.5,23.735c0,0,0.338,0.347,0.846,0.868c0.247,0.267,0.538,0.575,0.844,0.91
	c0.15,0.17,0.307,0.345,0.464,0.523c0.08,0.09,0.16,0.179,0.24,0.27c0.08,0.091,0.156,0.184,0.235,0.277
	c0.157,0.184,0.313,0.37,0.467,0.552c0.078,0.09,0.152,0.183,0.226,0.274c0.073,0.091,0.145,0.181,0.216,0.269
	c0.142,0.177,0.28,0.348,0.411,0.51c0.126,0.165,0.245,0.322,0.357,0.466c0.11,0.144,0.212,0.276,0.302,0.393
	c0.09,0.117,0.163,0.222,0.226,0.308c0.125,0.171,0.196,0.269,0.196,0.269l5.631-4.098c0,0,0.059,0.08,0.16,0.219
	c0.05,0.07,0.112,0.155,0.183,0.252c0.069,0.098,0.146,0.21,0.231,0.331c0.169,0.243,0.366,0.527,0.576,0.832
	c0.203,0.309,0.421,0.639,0.637,0.969c0.11,0.163,0.212,0.333,0.316,0.497c0.103,0.164,0.204,0.327,0.302,0.484
	c0.2,0.312,0.371,0.612,0.523,0.866c0.15,0.255,0.276,0.467,0.364,0.616c0.084,0.151,0.133,0.237,0.133,0.237l-2.018,1.147
	c0,0,0.148,0.265,0.295,0.529c0.074,0.132,0.148,0.264,0.203,0.363c0.054,0.1,0.089,0.167,0.089,0.167l3.065-1.653
	c0,0-0.014-0.027-0.04-0.076c-0.025-0.051-0.066-0.123-0.118-0.215c-0.104-0.185-0.251-0.449-0.428-0.765
	c-0.174-0.319-0.393-0.681-0.623-1.072c-0.058-0.097-0.117-0.197-0.176-0.296c-0.029-0.051-0.059-0.101-0.09-0.151
	c-0.031-0.05-0.062-0.1-0.094-0.151c-0.126-0.202-0.254-0.407-0.382-0.612c-0.252-0.412-0.523-0.813-0.771-1.193
	c-0.245-0.381-0.491-0.725-0.697-1.024c-0.103-0.149-0.198-0.285-0.282-0.406c-0.084-0.121-0.162-0.223-0.223-0.309
	c-0.125-0.171-0.196-0.268-0.196-0.268l0,0c0,0-0.19-0.26-0.38-0.521c-0.094-0.131-0.195-0.257-0.268-0.353
	c-0.073-0.096-0.122-0.16-0.122-0.16l-5.538,4.223c0,0-0.054-0.071-0.148-0.194c-0.047-0.062-0.104-0.136-0.17-0.222
	c-0.065-0.086-0.139-0.183-0.224-0.285c-0.166-0.207-0.361-0.448-0.569-0.707c-0.102-0.131-0.216-0.26-0.328-0.394
	c-0.112-0.133-0.227-0.268-0.341-0.403C96.092,24.75,95.112,23.726,95.112,23.726z"/>
</svg>
