<?xml version="1.0" encoding="utf-8"?>
<!-- Generator: Adobe Illustrator 15.1.0, SVG Export Plug-In . SVG Version: 6.00 Build 0)  -->
<!DOCTYPE svg PUBLIC "-//W3C//DTD SVG 1.1//EN" "http://www.w3.org/Graphics/SVG/1.1/DTD/svg11.dtd">
<svg version="1.1" id="_x31_" xmlns="http://www.w3.org/2000/svg" xmlns:xlink="http://www.w3.org/1999/xlink" x="0px" y="0px"
	 width="130.811px" height="130.811px" viewBox="0 0 130.811 130.811" enable-background="new 0 0 130.811 130.811"
	 xml:space="preserve">
<g>
	<path fill-rule="evenodd" clip-rule="evenodd" fill="#3B7382" d="M65.405,130.811c36.023,0,65.405-29.381,65.405-65.405
		C130.811,29.381,101.429,0,65.405,0C29.381,0,0,29.381,0,65.405C0,101.43,29.381,130.811,65.405,130.811z"/>
	<path fill-rule="evenodd" clip-rule="evenodd" fill="#FCFAE6" d="M105.188,85.598c-3.191-2.342-9.325-5.478-19.206-5.472
		c-10.033-0.014-16.016,3.409-19.048,5.925V49.909c0.022-0.031,0.054-0.077,0.124-0.152c1.053-1.237,6.29-6.899,18.92-6.909
		c7.238,0,12.14,1.763,15.241,3.492c1.551,0.859,2.647,1.713,3.346,2.334c0.266,0.237,0.47,0.434,0.622,0.593L105.188,85.598
		L105.188,85.598L105.188,85.598z M44.892,80.126h-0.057c-9.883-0.006-16.018,3.128-19.212,5.472V49.276
		c1.376-1.405,6.998-6.418,19.212-6.426c7.229,0,12.009,1.868,15.01,3.667c1.494,0.917,2.534,1.812,3.197,2.467
		c0.333,0.33,0.568,0.596,0.713,0.771c0.058,0.061,0.085,0.103,0.108,0.133l0.003,36.138C60.822,83.523,54.861,80.13,44.892,80.126
		L44.892,80.126L44.892,80.126z M107.932,47.744c-0.171-0.254-6.438-7.984-21.953-7.968c-11.999-0.013-18.273,4.866-20.577,7.229
		c-2.303-2.36-8.571-7.238-20.57-7.229c-15.517-0.016-21.788,7.715-21.956,7.968c-0.21,0.266-0.324,0.605-0.324,0.944v40.354
		c0,0.647,0.418,1.24,1.031,1.449c0.622,0.21,1.313,0.006,1.716-0.507c0,0,0.031-0.058,0.187-0.22
		c1.116-1.174,6.693-6.553,19.349-6.566c7.229,0,11.987,1.875,14.961,3.689c1.484,0.91,2.519,1.812,3.172,2.467
		c0.333,0.327,0.565,0.594,0.707,0.768c0.149,0.181,0.175,0.231,0.182,0.231c0.272,0.428,0.755,0.681,1.262,0.681l0.568-0.004
		c0.507,0,0.986-0.25,1.266-0.676c0,0,0.031-0.051,0.181-0.231c1.031-1.231,6.214-6.905,18.845-6.928
		c7.239,0,12.14,1.77,15.241,3.492c1.552,0.859,2.648,1.719,3.346,2.341c0.346,0.314,0.594,0.568,0.752,0.732
		c0.158,0.166,0.193,0.22,0.193,0.22c0.402,0.515,1.091,0.717,1.715,0.507c0.613-0.21,1.031-0.802,1.031-1.449V48.685
		C108.256,48.349,108.141,48.01,107.932,47.744z"/>
	<path fill-rule="evenodd" clip-rule="evenodd" fill="#FCFAE6" d="M94.104,87.768c-2.303-1.69-6.728-3.953-13.858-3.945
		c-7.239-0.01-11.553,2.461-13.741,4.272l0.004-26.074c0.015-0.025,0.038-0.054,0.088-0.112c0.758-0.894,4.539-4.976,13.652-4.985
		c5.225,0,8.758,1.271,10.993,2.519c1.12,0.622,1.91,1.237,2.414,1.685c0.19,0.171,0.339,0.317,0.45,0.428l0.001,26.213H94.104
		L94.104,87.768z M50.605,83.822h-0.042c-7.131-0.004-11.559,2.258-13.861,3.945V61.564c0.993-1.011,5.047-4.627,13.861-4.637
		c5.215,0,8.663,1.347,10.829,2.646c1.079,0.659,1.827,1.306,2.307,1.779c0.241,0.237,0.409,0.428,0.515,0.555
		c0.041,0.044,0.06,0.073,0.076,0.098l0.004,26.074C62.097,86.273,57.799,83.824,50.605,83.822L50.605,83.822L50.605,83.822z
		 M96.084,60.457c-0.124-0.184-4.646-5.76-15.838-5.748c-8.656-0.006-13.183,3.512-14.846,5.215
		c-1.662-1.704-6.185-5.225-14.841-5.215c-11.194-0.013-15.717,5.566-15.84,5.751c-0.152,0.191-0.231,0.434-0.231,0.679v29.115
		c0,0.466,0.301,0.895,0.742,1.043c0.451,0.152,0.949,0.006,1.237-0.368c0.003,0,0.025-0.041,0.137-0.158
		c0.802-0.847,4.832-4.729,13.957-4.735c5.215,0,8.647,1.351,10.794,2.661c1.072,0.657,1.817,1.307,2.287,1.783
		c0.241,0.234,0.409,0.428,0.511,0.555c0.108,0.129,0.127,0.168,0.13,0.168c0.2,0.305,0.545,0.491,0.914,0.491l0.409-0.004
		c0.368,0,0.713-0.181,0.913-0.487c0,0,0.025-0.039,0.13-0.168c0.746-0.885,4.482-4.98,13.595-4.999
		c5.225,0,8.758,1.278,10.993,2.519c1.12,0.622,1.91,1.241,2.414,1.69c0.246,0.226,0.428,0.409,0.541,0.526
		c0.114,0.117,0.14,0.158,0.14,0.158c0.291,0.372,0.786,0.517,1.237,0.368c0.44-0.148,0.741-0.58,0.741-1.043V61.139
		C96.318,60.895,96.236,60.651,96.084,60.457z"/>
</g>
</svg>
