<?xml version="1.0" encoding="utf-8"?>
<!-- Generator: Adobe Illustrator 15.1.0, SVG Export Plug-In . SVG Version: 6.00 Build 0)  -->
<!DOCTYPE svg PUBLIC "-//W3C//DTD SVG 1.1//EN" "http://www.w3.org/Graphics/SVG/1.1/DTD/svg11.dtd">
<svg version="1.1" id="_x31_" xmlns="http://www.w3.org/2000/svg" xmlns:xlink="http://www.w3.org/1999/xlink" x="0px" y="0px"
	 width="133.226px" height="133.229px" viewBox="0 0 133.226 133.229" enable-background="new 0 0 133.226 133.229"
	 xml:space="preserve">
<g>
	<path fill-rule="evenodd" clip-rule="evenodd" fill="#9C0259" d="M66.613,133.229c36.689,0,66.613-29.924,66.613-66.613
		C133.229,29.923,103.302,0,66.613,0C29.923,0,0,29.923,0,66.613C0,103.302,29.923,133.229,66.613,133.229z"/>
	<path fill-rule="evenodd" clip-rule="evenodd" fill="#FCFAE6" d="M91.829,85.885c0,3.35-2.775,6.113-6.121,6.119H54.686
		c-3.359-0.006-6.125-2.77-6.138-6.119l0.001-32.695l3.079-3.07V38h-1.624c0,0-2.449,0-5.094,0h-6.322
		c-1.272-0.067-2.378,0.873-2.683,1.665c-0.058,0.124-0.102,0.237-0.137,0.345h-1.075v-1.443c0-0.308,0.175-0.698,0.609-1.075
		c0.428-0.358,1.069-0.615,1.725-0.615c2.049,0,12.301,0.177,14.746,0.177c0.085,0,0.156,0,0.222,0
		c-0.016,0.216-0.054,0.534-0.067,0.952v3.873l7.931-0.001l4.749-4.743l21.096,0.006c3.344,0.006,6.119,2.756,6.119,6.109v42.635
		H91.829L91.829,85.885z M36.273,50.529c-0.866-1.25-1.713-2.396-2.396-3.242c-0.637,0.838-1.443,1.956-2.264,3.197
		c-1.751,2.598-3.381,5.935-3.309,7.451c0.035,1.76,0.711,2.623,1.779,3.343c1.075,0.717,2.626,1.028,3.768,1.028
		c1.136,0,2.791-0.333,3.953-1.07c1.195-0.758,1.906-1.661,1.941-3.315C39.816,56.492,38.113,53.138,36.273,50.529L36.273,50.529
		L36.273,50.529z M85.71,33.901H63.27l-4.749,4.743h-3.344v-0.638c-0.013-0.114,0.063-0.562,0.077-1.151
		c0.003-0.54-0.102-1.428-0.821-2.138c-0.711-0.704-1.662-0.9-2.652-0.9c-2.386,0-12.627-0.168-14.746-0.168
		c-2.835,0.016-5.471,1.957-5.576,4.92v4.682l1.493-0.002l-0.339,0.409c-0.025,0.029-1.84,2.23-3.698,5.043
		c-1.814,2.87-3.778,6.169-3.845,9.237c-0.023,2.826,1.468,4.967,3.28,6.084c1.801,1.145,3.845,1.517,5.509,1.528
		c1.685-0.013,3.781-0.412,5.649-1.542c1.875-1.104,3.512-3.227,3.477-6.087c-0.069-3.083-2.126-6.346-4.026-9.224
		c-1.935-2.825-3.851-5.04-3.876-5.065l-0.333-0.387h4.209l-0.187-1.792h-0.012c0-0.06,0.013-0.143,0.022-0.22h9.61v7.537
		l-3.068,3.074v34.044c0,5.157,4.206,9.354,9.367,9.36l31.025-0.003c5.151-0.004,9.36-4.2,9.36-9.361V43.251
		C95.062,38.098,90.865,33.914,85.71,33.901L85.71,33.901L85.71,33.901z M86.177,55.575l-0.004-7.309
		c0-2.879-2.376-5.255-5.259-5.255h-7.307L86.177,55.575L86.177,55.575L86.177,55.575z M80.915,39.902H66.118l23.173,23.193V48.269
		C89.281,43.651,85.527,39.902,80.915,39.902z"/>
</g>
</svg>
