<?xml version="1.0" encoding="utf-8"?>
<!-- Generator: Adobe Illustrator 15.1.0, SVG Export Plug-In . SVG Version: 6.00 Build 0)  -->
<!DOCTYPE svg PUBLIC "-//W3C//DTD SVG 1.1//EN" "http://www.w3.org/Graphics/SVG/1.1/DTD/svg11.dtd">
<svg version="1.1" id="_x31_" xmlns="http://www.w3.org/2000/svg" xmlns:xlink="http://www.w3.org/1999/xlink" x="0px" y="0px"
	 width="133.23px" height="133.229px" viewBox="0 0 133.23 133.229" enable-background="new 0 0 133.23 133.229"
	 xml:space="preserve">
<g>
	<path fill-rule="evenodd" clip-rule="evenodd" fill="#F797AF" d="M66.616,133.229c36.689,0,66.614-29.924,66.614-66.617
		S103.306,0,66.616,0C29.923,0,0,29.923,0,66.616C0,103.31,29.923,133.229,66.616,133.229z"/>
	<path fill-rule="evenodd" clip-rule="evenodd" fill="#FCFAE6" d="M110.43,84.545c-0.644-0.889-1.596-1.475-2.681-1.646
		c-1.082-0.172-2.163,0.088-3.045,0.729c-1.237,0.898-2.589,1.742-4.026,2.534c0.2-1.158,0.083-2.392-0.408-3.546
		c-1.14-2.677-2.595-5.208-4.33-7.523c-0.01-0.014-0.023-0.025-0.031-0.039c-5.583-8.095-4.571-16.855-2.76-21.731
		c0.821,0.575,1.944,1.307,3.197,1.966c3.657,1.925,6.516,2.243,8.497,0.948c1.912-1.25,2.471-3.191,1.661-5.766
		c-0.614-1.955-1.969-4.175-3.406-6.528l-0.162-0.263c-2.623-4.294-2.253-8.808-2.132-10.293c0.014-0.166,0.022-0.295,0.029-0.384
		c0.05-1.193-0.937-1.434-1.047-1.459c-4.975-1.05-8.933-0.418-12.391,1.989c-0.71-0.595-1.626-0.954-2.626-0.954
		c-2.261,0-4.102,1.84-4.102,4.101c0,1.063,0.406,2.03,1.072,2.76c-0.309,0.413-0.615,0.825-0.914,1.231
		c-3.282,4.454-6.385,8.663-12.812,8.663l-16.754-0.001c-0.003,0-0.006,0-0.009,0H49.96c-0.707,0-1.379-0.166-1.95-0.473
		c-4.121-2.243-7.937-2.598-11.336-1.052c-7.312,3.318-9.836,14.254-9.941,14.72c-0.095,0.418,0.022,0.856,0.314,1.174
		c0.054,0.058,1.347,1.462,3.004,2.779c2.509,1.999,4.492,2.737,6.055,2.258c0.91-0.279,2.071-1.097,2.423-3.423
		c0.66-4.346,2.75-6.965,4.412-7.562c0.914-0.33,1.783-0.111,2.646,0.663c2.75,2.467-2.693,10.315-5.618,14.534
		c-0.524,0.755-1.021,1.472-1.438,2.1c-0.013,0.016-0.029,0.031-0.038,0.051c-1.779,2.378-3.267,4.983-4.419,7.742
		c-0.628,1.507-0.605,3.223,0.063,4.71c0.025,0.058,0.054,0.111,0.083,0.168c-2.103-0.971-4.057-2.047-5.836-3.22
		c-1.887-1.243-4.435-0.723-5.681,1.167c-1.247,1.888-0.723,4.438,1.164,5.685c10.422,6.874,25.746,10.815,42.041,10.815
		c17.271,0,33.166-4.336,43.607-11.898C111.343,88.947,111.755,86.378,110.43,84.545L110.43,84.545L110.43,84.545z M84.766,35.202
		c0.819,0,1.484,0.667,1.484,1.484c0,0.819-0.666,1.484-1.484,1.484s-1.484-0.667-1.484-1.484
		C83.285,35.865,83.948,35.202,84.766,35.202L84.766,35.202L84.766,35.202z M71.66,51.528l-2.764,4.758
		c-1.012,1.742-2.893,2.826-4.907,2.826h-3.942c-2.271,0-4.317-1.348-5.215-3.438l-1.592-3.717h14.769
		C69.337,51.956,70.546,51.801,71.66,51.528L71.66,51.528L71.66,51.528z M36.487,83.855c1.046-2.513,2.395-4.888,4.006-7.062
		c0.05-0.054,0.095-0.111,0.137-0.175c0.416-0.634,0.936-1.38,1.484-2.172c3.857-5.561,9.687-13.967,5.215-17.976
		c-1.58-1.415-3.454-1.833-5.278-1.18c-2.987,1.072-5.389,4.853-6.115,9.632c-0.111,0.742-0.336,1.231-0.6,1.313
		c-1.025,0.314-3.793-1.669-5.884-3.797c0.634-2.293,3.086-9.881,8.299-12.247c2.611-1.187,5.639-0.86,9.002,0.971
		c0.952,0.521,2.058,0.793,3.201,0.793l0.439,0.002l2.037,4.749c1.307,3.051,4.298,5.024,7.619,5.024h3.943
		c2.943,0,5.691-1.583,7.171-4.13l4.514-7.781c3.074-1.925,5.244-4.866,7.251-7.589c0.368-0.498,0.745-1.008,1.123-1.51
		c0.231,0.041,0.473,0.063,0.717,0.063c2.262,0,4.102-1.84,4.102-4.101c0-0.311-0.035-0.615-0.102-0.907
		c2.61-1.858,5.627-2.461,9.376-1.868c-0.226,4.24,0.632,7.984,2.557,11.14l0.162,0.264c1.348,2.208,2.623,4.297,3.144,5.947
		c0.577,1.837-0.004,2.405-0.596,2.791c-2.225,1.453-7.692-1.919-9.992-3.781c-0.31-0.25-0.717-0.345-1.109-0.26
		c-0.39,0.089-0.721,0.345-0.891,0.708c-0.717,1.475-2.376,5.516-2.328,11.108c0.044,5.392,1.64,10.382,4.739,14.832
		c0.03,0.045,0.066,0.089,0.104,0.13c1.57,2.116,2.894,4.421,3.93,6.861c0.679,1.596,0.166,3.438-1.192,4.282
		c-0.54,0.333-1.148,0.511-1.764,0.511c-1.339,0-2.538-0.796-3.051-2.033c-4.161-9.976-13.83-16.421-24.634-16.421
		c-10.677,0-20.3,6.341-24.519,16.152c-0.751,1.747-2.607,2.681-4.228,2.125c-0.879-0.301-1.571-0.933-1.948-1.772
		C36.144,85.642,36.13,84.707,36.487,83.855L36.487,83.855L36.487,83.855z M45.104,87.164c3.803-8.85,12.484-14.568,22.111-14.568
		c9.74,0,18.461,5.814,22.216,14.813c0.463,1.106,1.228,2.018,2.18,2.651c-7.584,2.513-16.492,3.908-25.708,3.908
		c-8.669,0-16.969-1.195-24.195-3.403C43.169,89.949,44.419,88.76,45.104,87.164L45.104,87.164L45.104,87.164z M107.978,88.154
		c-10.008,7.245-25.341,11.4-42.072,11.4c-15.796,0-30.597-3.784-40.601-10.383c-0.683-0.45-0.873-1.373-0.422-2.056
		c0.286-0.432,0.758-0.666,1.241-0.666c0.28,0,0.565,0.079,0.815,0.244c9.534,6.287,23.736,9.893,38.967,9.893
		c15.884,0,30.964-4.051,40.333-10.835c0.317-0.231,0.708-0.327,1.097-0.264c0.394,0.063,0.739,0.275,0.972,0.596
		C108.79,86.742,108.637,87.671,107.978,88.154z"/>
</g>
</svg>
