<?xml version="1.0" encoding="utf-8"?>
<!-- Generator: Adobe Illustrator 15.1.0, SVG Export Plug-In . SVG Version: 6.00 Build 0)  -->
<!DOCTYPE svg PUBLIC "-//W3C//DTD SVG 1.1//EN" "http://www.w3.org/Graphics/SVG/1.1/DTD/svg11.dtd">
<svg version="1.1" id="_x31_" xmlns="http://www.w3.org/2000/svg" xmlns:xlink="http://www.w3.org/1999/xlink" x="0px" y="0px"
	 width="133.227px" height="133.229px" viewBox="0 0 133.227 133.229" enable-background="new 0 0 133.227 133.229"
	 xml:space="preserve">
<g>
	<path fill-rule="evenodd" clip-rule="evenodd" fill="#3ABA3A" d="M66.613,133.229c36.688,0,66.613-29.924,66.613-66.613
		C133.229,29.923,103.302,0,66.613,0C29.923,0,0,29.923,0,66.613C0,103.302,29.923,133.229,66.613,133.229z"/>
	<path fill-rule="evenodd" clip-rule="evenodd" fill="#FCFAE6" d="M99.858,52.171c-0.578,0.069-1.143,0.102-1.679,0.102
		c-6.442,0.108-10.499-4.882-16.861-6.169c-0.625-0.117-1.272-0.158-1.91-0.158c-2.553,0.029-5.205,0.73-7.501,1.58
		c0.416-0.533,0.869-1.075,1.326-1.63c3.022-3.692,7.137-7.41,9.757-7.829c0.635-0.136,1.205-0.192,1.735-0.192
		c2.242,0,3.908,0.958,5.918,2.549c1.985,1.571,4.14,3.747,7.089,5.522c3.074,1.843,6.157,2.348,8.576,2.348
		c0.362,0,0.708-0.01,1.041-0.023C105.968,49.916,103.667,51.705,99.858,52.171L99.858,52.171L99.858,52.171z M74.597,76.062
		c0,0,0,0.041,0,0.095c-0.01,1.143-0.559,2.034-1.868,3.105c-1.095,0.879-2.651,1.671-4.323,2.48V71.365
		c1.754,0.727,3.29,1.499,4.365,2.268C74.14,74.628,74.597,75.444,74.597,76.062L74.597,76.062L74.597,76.062z M71.38,91.236
		c-0.203,1.089-0.844,1.831-2.201,2.617c-0.244,0.13-0.505,0.267-0.774,0.381v-6.728c0.838,0.488,1.558,0.987,2.047,1.449
		c0.713,0.714,0.944,1.225,0.957,1.841C71.406,90.931,71.393,91.074,71.38,91.236L71.38,91.236L71.38,91.236z M66.419,94.845
		c-0.054-0.013-0.095-0.024-0.143-0.054h0.667c-0.103,0.041-0.21,0.083-0.328,0.121C66.552,94.884,66.486,94.875,66.419,94.845
		L66.419,94.845L66.419,94.845z M63.615,88.26c0.362-0.266,0.768-0.517,1.212-0.767v6.739c-1.779-0.809-2.798-1.767-2.985-3.035
		c-0.025-0.146-0.041-0.267-0.041-0.39C61.801,89.999,62.273,89.26,63.615,88.26L63.615,88.26L63.615,88.26z M58.629,76.157
		c0,0,0,0,0-0.069c-0.063-0.821,0.958-2.118,3.404-3.426c0.821-0.435,1.767-0.869,2.794-1.297v10.378
		c-0.679-0.32-1.351-0.647-1.964-0.98C60.057,79.247,58.563,77.774,58.629,76.157L58.629,76.157L58.629,76.157z M62.543,32.841
		c0.01-2.245,1.814-4.051,4.07-4.063c2.243,0.013,4.066,1.821,4.066,4.063c0,2.255-1.827,4.076-4.066,4.076
		C64.364,36.92,62.549,35.1,62.543,32.841L62.543,32.841L62.543,32.841z M53.824,45.944c-0.644,0-1.285,0.041-1.91,0.158
		c-6.36,1.291-10.426,6.277-16.869,6.169c-0.54,0-1.097-0.031-1.671-0.102c-3.771-0.47-6.001-2.189-7.416-3.826
		c-0.025-0.029-0.054-0.054-0.077-0.077c0.333,0.013,0.672,0.022,1.041,0.022c2.42,0,5.497-0.504,8.567-2.347
		c2.956-1.779,5.107-3.952,7.089-5.521c2.02-1.592,3.677-2.538,5.922-2.55c0.524,0,1.101,0.058,1.742,0.193
		c2.624,0.418,6.728,4.139,9.76,7.828c0.46,0.555,0.904,1.101,1.322,1.631C59.032,46.674,56.38,45.971,53.824,45.944L53.824,45.944
		L53.824,45.944z M110.201,44.153c0,0-0.313,0.121-1.012,0.266c-0.693,0.148-1.699,0.291-2.883,0.291
		c-1.944,0-4.336-0.384-6.734-1.831c-2.495-1.488-4.494-3.482-6.702-5.261c-2.18-1.754-4.764-3.331-8.148-3.319
		c-0.79,0-1.6,0.083-2.449,0.25c-4.466,0.987-8.476,5.181-11.777,9.041c-0.762,0.904-1.455,1.779-2.094,2.617v-5.947
		c3.351-0.81,5.846-3.813,5.846-7.422c0-4.222-3.419-7.636-7.635-7.636c-4.228,0-7.651,3.414-7.651,7.636
		c0,3.609,2.509,6.614,5.865,7.422v5.947c-0.638-0.838-1.339-1.713-2.093-2.617c-3.305-3.86-7.314-8.054-11.784-9.041
		c-0.844-0.167-1.652-0.25-2.445-0.25c-3.391-0.013-5.969,1.563-8.149,3.319c-2.201,1.779-4.203,3.771-6.695,5.261
		c-2.407,1.447-4.789,1.831-6.734,1.84c-1.189,0-2.198-0.156-2.889-0.305c-0.695-0.143-1.009-0.262-1.009-0.262l-3.403-1.237
		l1.088,3.454c0.041,0.215,2.642,8.161,12.23,9.356c0.73,0.079,1.424,0.124,2.103,0.124c8.256-0.124,12.982-5.643,17.47-6.227
		c0.416-0.067,0.844-0.108,1.307-0.108c2.413-0.013,5.525,0.999,7.933,2.046c1.268,0.555,2.337,1.101,3.07,1.488v13.179
		c-2.249-0.768-4.52-1.491-6.606-2.243c-2.373-0.838-4.479-1.713-5.878-2.563c-1.463-0.875-1.916-1.656-1.891-1.91
		c-0.011-0.134-0.018-0.198-0.018-0.306c0.069-1.084,0.314-1.31,1.101-1.779c0.79-0.409,2.154-0.613,3.473-0.613
		c2.004,0,3.791,0.403,3.8,0.388c0.964,0.212,1.91-0.399,2.118-1.367c0.219-0.971-0.399-1.91-1.367-2.126
		c-0.067-0.016-2.106-0.462-4.552-0.462c-1.618,0.013-3.435,0.171-5.084,0.983c-1.665,0.755-3.128,2.623-3.064,4.974
		c0,0.184,0.006,0.416,0.031,0.653c0.397,2.916,2.864,4.311,5.542,5.656c2.632,1.228,5.899,2.309,9.135,3.398
		c-1.161,0.542-2.236,1.143-3.182,1.813c-1.754,1.249-3.255,2.95-3.331,5.25c0-0.016-0.006,0.041-0.006,0.184
		c-0.013,2.563,1.488,4.552,3.236,5.902c1.297,1.016,2.813,1.851,4.33,2.589c-0.838,0.517-1.63,1.062-2.319,1.725
		c-1.154,1.089-2.071,2.62-2.058,4.432c0,0.308,0.023,0.666,0.095,1.026c0.311,1.979,1.513,3.468,2.956,4.501
		c-0.095,0.025-0.196,0.05-0.298,0.083c-1.455,0.393-2.829,0.821-4.038,1.535c-1.167,0.694-2.325,1.951-2.411,3.65
		c-0.006,0.134-0.02,0.292-0.02,0.495c-0.058,2.452,1.354,4.308,2.862,5.056c1.494,0.78,2.956,0.863,3.8,0.863
		c0.409,0,0.672-0.025,0.713-0.025c0.977-0.082,1.706-0.957,1.617-1.938c-0.089-0.982-0.952-1.713-1.938-1.624
		c-0.006,0-0.121,0.013-0.393,0.013c-0.54,0-1.504-0.102-2.101-0.434c-0.584-0.399-0.923-0.596-0.987-1.91
		c0-0.058,0.01-0.148,0.013-0.272c-0.006-0.238,0.166-0.605,1.503-1.203c1.625-0.707,4.331-1.208,7.007-1.979
		c1.637,0.461,3.271,0.821,4.685,1.215c1.346,0.362,2.475,0.762,3.112,1.158c0.667,0.441,0.677,0.584,0.707,0.796
		c0.01,0.067,0.01,0.162,0.01,0.273c-0.054,1.313-0.393,1.522-0.98,1.91c-0.605,0.349-1.582,0.45-2.112,0.45
		c-0.266,0-0.362-0.014-0.362-0.014c-0.992-0.088-1.871,0.641-1.956,1.625c-0.089,0.978,0.632,1.84,1.617,1.938
		c0.048,0,0.309,0.025,0.701,0.025c0.85,0,2.318-0.083,3.807-0.863c1.507-0.748,2.918-2.604,2.867-5.069c0-0.136,0-0.291-0.013-0.47
		c-0.166-2.354-2.018-3.622-3.678-4.291c-0.957-0.394-2.017-0.702-3.099-0.991c1.456-1.046,2.617-2.467,2.991-4.542
		c0.048-0.358,0.077-0.679,0.077-0.998c0-2.456-1.593-4.234-3.309-5.438c-0.34-0.254-0.732-0.47-1.107-0.693
		c0.502-0.238,1.006-0.488,1.494-0.756c2.95-1.596,6.056-3.81,6.115-7.752v-0.129c-0.166-3.166-2.588-5.04-5.281-6.506
		c-0.396-0.216-0.818-0.416-1.236-0.613c1.528-0.517,3.079-1.04,4.538-1.557c2.468-0.875,4.739-1.779,6.544-2.88
		c1.76-1.088,3.364-2.455,3.596-4.669c0.014-0.212,0.02-0.39,0.02-0.599c0.06-2.351-1.393-4.219-3.064-4.974
		c-1.652-0.819-3.461-0.971-5.084-0.983c-2.439,0-4.473,0.447-4.552,0.462c-0.958,0.216-1.571,1.155-1.36,2.125
		c0.212,0.964,1.163,1.577,2.127,1.367h0.007c0,0,1.786-0.387,3.783-0.387c1.325,0,2.692,0.203,3.482,0.613
		c0.78,0.47,1.025,0.691,1.095,1.779c0,0.07-0.006,0.197-0.014,0.375c0.13,0.263-0.974,1.561-3.508,2.706
		c-2.819,1.339-6.892,2.588-10.86,3.943V53.046c0.732-0.383,1.803-0.929,3.064-1.484c2.411-1.046,5.52-2.059,7.937-2.046
		c0.463,0,0.891,0.041,1.297,0.108c4.495,0.584,9.224,6.103,17.475,6.227c0.682,0,1.38-0.041,2.101-0.137
		c9.604-1.187,12.199-9.129,12.24-9.345l1.081-3.454L110.201,44.153z"/>
</g>
</svg>
