<?xml version="1.0" encoding="utf-8"?>
<!-- Generator: Adobe Illustrator 15.1.0, SVG Export Plug-In . SVG Version: 6.00 Build 0)  -->
<!DOCTYPE svg PUBLIC "-//W3C//DTD SVG 1.1//EN" "http://www.w3.org/Graphics/SVG/1.1/DTD/svg11.dtd">
<svg version="1.1" id="_x31_" xmlns="http://www.w3.org/2000/svg" xmlns:xlink="http://www.w3.org/1999/xlink" x="0px" y="0px"
	 width="133.227px" height="133.229px" viewBox="0 0 133.227 133.229" enable-background="new 0 0 133.227 133.229"
	 xml:space="preserve">
<g>
	
		<path fill-rule="evenodd" clip-rule="evenodd" fill="none" stroke="#FCFAE6" stroke-width="0.4252" stroke-miterlimit="22.9256" d="
		M34.465,36.442c0,0,18.388,19.114,24.379,20.722c5.992,1.605,11.197,4.213,23.771-3.049c12.573-7.257,21.939-15.847,21.939-15.847
		S86.881,59.599,82.615,74.833c-4.267,15.238-6.705,32.912-6.705,32.912l-6.703-22.549l-10.971,22.549
		c0,0,1.222-31.082-2.437-38.396C52.14,62.039,55.796,69.35,34.465,36.442z"/>
	<path fill-rule="evenodd" clip-rule="evenodd" fill="#BFC21D" d="M66.613,133.229c36.688,0,66.613-29.924,66.613-66.613
		C133.229,29.923,103.302,0,66.613,0C29.923,0,0,29.923,0,66.613C0,103.302,29.923,133.229,66.613,133.229z"/>
	<path fill-rule="evenodd" clip-rule="evenodd" fill="#FCFAE6" d="M99.657,47.54h-68.94v-1.579c0.006-1.954,1.617-3.565,3.584-3.565
		h61.798c1.956,0,3.559,1.605,3.559,3.565V47.54L99.657,47.54L99.657,47.54z M99.657,81.515c0,1.956-1.602,3.559-3.559,3.564H34.3
		c-1.966-0.006-3.579-1.61-3.584-3.564V58.957l68.941,0.006L99.657,81.515L99.657,81.515L99.657,81.515z M30.717,50.639h68.94v5.225
		h-68.94V50.639L30.717,50.639L30.717,50.639z M102.751,49.307v-3.346c0-3.673-2.97-6.664-6.651-6.668H34.301
		c-3.683,0.004-6.674,2.985-6.686,6.668v4.679l0.005-0.001v5.225v25.652c0.006,3.683,2.997,6.664,6.68,6.664h61.799
		c3.683,0,6.648-2.997,6.648-6.664v-24.31h0.006v-7.898H102.751L102.751,49.307L102.751,49.307z M95.801,66.166H65.953v3.089h29.848
		V66.166z"/>
</g>
</svg>
