<?xml version="1.0" encoding="utf-8"?>
<!-- Generator: Adobe Illustrator 15.1.0, SVG Export Plug-In . SVG Version: 6.00 Build 0)  -->
<!DOCTYPE svg PUBLIC "-//W3C//DTD SVG 1.1//EN" "http://www.w3.org/Graphics/SVG/1.1/DTD/svg11.dtd">
<svg version="1.1" id="_x31_" xmlns="http://www.w3.org/2000/svg" xmlns:xlink="http://www.w3.org/1999/xlink" x="0px" y="0px"
	 width="133.227px" height="133.229px" viewBox="0 0 133.227 133.229" enable-background="new 0 0 133.227 133.229"
	 xml:space="preserve">
<g>
	<path fill-rule="evenodd" clip-rule="evenodd" fill="#3B94AD" d="M66.613,133.229c36.689,0,66.614-29.924,66.614-66.613
		C133.229,29.923,103.302,0,66.613,0C29.923,0,0,29.923,0,66.613C0,103.302,29.923,133.229,66.613,133.229z"/>
	<g>
		<polygon fill-rule="evenodd" clip-rule="evenodd" fill="#FCFAE6" points="29.746,46.231 31.842,43.585 66.609,71.254 
			101.377,43.585 101.383,43.585 103.479,46.231 66.609,75.564 		"/>
		<path fill-rule="evenodd" clip-rule="evenodd" fill="#FCFAE6" d="M32.559,86.627h68.11V46.599l-68.11-0.001V86.627L32.559,86.627
			L32.559,86.627z M102.351,88.318v-1.69V88.318L102.351,88.318L102.351,88.318z M29.184,90.006V43.223h74.854v45.098v1.685
			L29.184,90.006z"/>
		
			<rect x="87.994" y="59.56" transform="matrix(0.6715 -0.741 0.741 0.6715 -27.4207 91.6741)" fill-rule="evenodd" clip-rule="evenodd" fill="#FCFAE6" width="3.368" height="34.402"/>
		
			<rect x="26.374" y="75.185" transform="matrix(0.7407 -0.6719 0.6719 0.7407 -40.3915 49.0975)" fill-rule="evenodd" clip-rule="evenodd" fill="#FCFAE6" width="34.065" height="3.375"/>
	</g>
</g>
</svg>
