<?xml version="1.0" encoding="utf-8"?>
<!-- Generator: Adobe Illustrator 15.1.0, SVG Export Plug-In . SVG Version: 6.00 Build 0)  -->
<!DOCTYPE svg PUBLIC "-//W3C//DTD SVG 1.1//EN" "http://www.w3.org/Graphics/SVG/1.1/DTD/svg11.dtd">
<svg version="1.1" id="_x31_" xmlns="http://www.w3.org/2000/svg" xmlns:xlink="http://www.w3.org/1999/xlink" x="0px" y="0px"
	 width="133.227px" height="133.23px" viewBox="0 0 133.227 133.23" enable-background="new 0 0 133.227 133.23"
	 xml:space="preserve">
<g>
	<path fill-rule="evenodd" clip-rule="evenodd" fill="#FFA300" d="M66.614,133.23c36.689,0,66.613-29.925,66.613-66.614
		C133.227,29.923,103.303,0,66.614,0S0,29.923,0,66.613C0,103.303,29.924,133.23,66.614,133.23z"/>
	<path fill-rule="evenodd" clip-rule="evenodd" fill="#FCFAE6" d="M98.111,64.951H35.12v-3.781h62.991V64.951L98.111,64.951
		L98.111,64.951z M91.425,86.964c-0.251,2.798-2.63,4.985-5.447,5.015H47.229c-2.8-0.025-5.18-2.217-5.437-5.021l-1.554-19.158
		h52.752L91.425,86.964L91.425,86.964L91.425,86.964z M62.916,43.417c1.05,0.72,2.322,1.142,3.694,1.142
		c1.376,0,2.648-0.418,3.702-1.142l14.915,14.911H48L62.916,43.417L62.916,43.417L62.916,43.417z M66.61,34.199
		c2.084,0.006,3.759,1.681,3.766,3.762c-0.006,2.074-1.681,3.753-3.766,3.759c-2.074-0.004-3.749-1.685-3.756-3.759
		C62.861,35.88,64.536,34.205,66.61,34.199L66.61,34.199L66.61,34.199z M100.954,58.329H89.048l0.103-0.093L72.26,41.339
		c0.593-0.99,0.954-2.141,0.954-3.378c0-3.65-2.95-6.601-6.604-6.601c-3.641,0-6.591,2.95-6.597,6.601
		c0,1.237,0.372,2.389,0.962,3.381L44.08,58.236l0.099,0.093H32.281v1.42v8.05h5.104l1.582,19.403
		c0.394,4.282,3.968,7.568,8.251,7.616l38.786-0.001c4.292-0.048,7.86-3.334,8.253-7.607l1.583-19.411h5.11v-9.471H100.954z"/>
</g>
</svg>
