<?xml version="1.0" encoding="utf-8"?>
<!-- Generator: Adobe Illustrator 15.1.0, SVG Export Plug-In . SVG Version: 6.00 Build 0)  -->
<!DOCTYPE svg PUBLIC "-//W3C//DTD SVG 1.1//EN" "http://www.w3.org/Graphics/SVG/1.1/DTD/svg11.dtd">
<svg version="1.1" id="_x31_" xmlns="http://www.w3.org/2000/svg" xmlns:xlink="http://www.w3.org/1999/xlink" x="0px" y="0px"
	 width="133.227px" height="133.229px" viewBox="0 0 133.227 133.229" enable-background="new 0 0 133.227 133.229"
	 xml:space="preserve">
<g>
	<path fill-rule="evenodd" clip-rule="evenodd" fill="#AD050B" d="M66.613,133.229c36.688,0,66.613-29.924,66.613-66.613
		C133.229,29.923,103.302,0,66.613,0C29.923,0,0,29.923,0,66.613C0,103.302,29.923,133.229,66.613,133.229z"/>
	<path fill-rule="evenodd" clip-rule="evenodd" fill="#FCFAE6" d="M90.348,86.383c-1.542,1.233-3.737,2.037-6.185,2.037
		c-2.449,0-4.641-0.803-6.185-2.037c-1.539-1.237-2.402-2.843-2.405-4.571c0.003-1.725,0.865-3.33,2.405-4.571
		c1.545-1.233,3.736-2.039,6.185-2.039s4.644,0.802,6.185,2.039c1.535,1.241,2.397,2.845,2.404,4.571
		C92.749,83.541,91.887,85.146,90.348,86.383L90.348,86.383L90.348,86.383z M60.307,47.436v-2.629h32.445v2.629H60.307
		L60.307,47.436L60.307,47.436z M55.245,86.389c-1.538,1.231-3.733,2.033-6.179,2.033c-2.456,0-4.65-0.802-6.188-2.029
		c-1.536-1.243-2.405-2.845-2.405-4.573c0-1.726,0.865-3.331,2.405-4.571c1.538-1.234,3.733-2.04,6.188-2.033
		c2.449-0.007,4.644,0.799,6.179,2.033c1.545,1.24,2.405,2.845,2.405,4.571C57.649,83.541,56.786,85.146,55.245,86.389
		L55.245,86.389L55.245,86.389z M95.385,81.486h0.025V42.151H57.649V75.83c-2.091-2.033-5.211-3.271-8.586-3.276
		c-6.005,0.01-11.188,3.905-11.244,9.263c0.06,5.359,5.24,9.249,11.244,9.258c5.998-0.009,11.181-3.898,11.244-9.258
		c-0.003-0.114-0.019-0.22-0.025-0.328l0.025,0.002V50.097h32.445v25.74c-2.093-2.039-5.217-3.271-8.593-3.276
		c-6.005,0.003-11.182,3.898-11.244,9.256c0.067,5.36,5.24,9.249,11.244,9.259c6.005-0.01,11.182-3.901,11.244-9.259
		C95.41,81.702,95.389,81.6,95.385,81.486z"/>
</g>
</svg>
