<?xml version="1.0" encoding="utf-8"?>
<!-- Generator: Adobe Illustrator 15.1.0, SVG Export Plug-In . SVG Version: 6.00 Build 0)  -->
<!DOCTYPE svg PUBLIC "-//W3C//DTD SVG 1.1//EN" "http://www.w3.org/Graphics/SVG/1.1/DTD/svg11.dtd">
<svg version="1.1" id="_x31_" xmlns="http://www.w3.org/2000/svg" xmlns:xlink="http://www.w3.org/1999/xlink" x="0px" y="0px"
	 width="133.226px" height="133.229px" viewBox="0 0 133.226 133.229" enable-background="new 0 0 133.226 133.229"
	 xml:space="preserve">
<g>
	<path fill-rule="evenodd" clip-rule="evenodd" fill="#030436" d="M66.613,133.229c36.689,0,66.613-29.924,66.613-66.613
		C133.229,29.923,103.302,0,66.613,0C29.923,0,0,29.923,0,66.613C0,103.302,29.923,133.229,66.613,133.229z"/>
	<g>
		<path fill-rule="evenodd" clip-rule="evenodd" fill="#FCFAE6" d="M33.596,85.843V47.378h-7.642V85.84l7.642,0.001V85.843
			L33.596,85.843z M24.198,89.378h-1.79v-45.54h14.727v45.54H24.198z"/>
		<path fill-rule="evenodd" clip-rule="evenodd" fill="#FCFAE6" d="M44.77,88.969V44.263h-7.63v44.708h7.63V88.969L44.77,88.969z
			 M35.359,92.517h-1.77V40.713h14.724v51.801l-12.955,0.001V92.517z"/>
		<path fill-rule="evenodd" clip-rule="evenodd" fill="#FCFAE6" d="M99.635,85.843l7.628-0.013l0.002-38.455h-7.63V85.843
			L99.635,85.843L99.635,85.843z M97.855,89.378h-1.776v-45.54h14.731v45.54H97.855z"/>
		<path fill-rule="evenodd" clip-rule="evenodd" fill="#FCFAE6" d="M88.454,88.975l7.629-0.014V44.257h-7.629V88.975L88.454,88.975
			L88.454,88.975z M86.676,92.508h-1.771V40.721h14.729v51.788L86.676,92.508z"/>
		<path fill-rule="evenodd" clip-rule="evenodd" fill="#FCFAE6" d="M48.304,70.435l36.601-0.016v-7.619L48.304,62.8V70.435
			L48.304,70.435L48.304,70.435z M46.547,73.968H44.77V59.26l43.688,0.001v14.708L46.547,73.968z"/>
	</g>
</g>
</svg>
