<?xml version="1.0" encoding="utf-8"?>
<!-- Generator: Adobe Illustrator 15.1.0, SVG Export Plug-In . SVG Version: 6.00 Build 0)  -->
<!DOCTYPE svg PUBLIC "-//W3C//DTD SVG 1.1//EN" "http://www.w3.org/Graphics/SVG/1.1/DTD/svg11.dtd">
<svg version="1.1" id="_x31_" xmlns="http://www.w3.org/2000/svg" xmlns:xlink="http://www.w3.org/1999/xlink" x="0px" y="0px"
	 width="133.227px" height="133.229px" viewBox="0 0 133.227 133.229" enable-background="new 0 0 133.227 133.229"
	 xml:space="preserve">
<g>
	<path fill-rule="evenodd" clip-rule="evenodd" fill="#017A01" d="M66.613,133.229c36.688,0,66.613-29.924,66.613-66.613
		C133.229,29.923,103.302,0,66.613,0C29.924,0,0,29.923,0,66.613C0,103.302,29.923,133.229,66.613,133.229z"/>
	<path fill-rule="evenodd" clip-rule="evenodd" fill="#FCFAE6" d="M82.152,81.677c-5.919,6.793-11.296,8.969-15.672,8.979
		c-3.036,0.02-5.722-1.081-7.879-2.658c1.792-0.933,3.543-1.953,5.164-3.099C70.182,80.306,79.561,71,83.23,63.99
		c0.428-0.846,0.095-1.868-0.742-2.307c-0.828-0.428-1.858-0.098-2.294,0.736l0,0c-3.093,6.096-12.465,15.534-18.403,19.704
		c-1.76,1.259-3.797,2.396-5.855,3.389c-0.565-0.66-1.07-1.352-1.465-2.043c-0.044-0.083-0.083-0.149-0.143-0.22
		c0-0.006-0.013-0.019-0.013-0.025c0.003-0.013-0.063-0.129-0.183-0.453c-0.355-0.954-1.116-3.381-1.116-6.489
		c0.013-4.199,1.301-9.595,6.899-14.88c4.161-3.953,12.466-8.199,19.646-11.301c4.628-2.024,8.783-3.606,11.165-4.482
		c0.076,1.195,0.139,2.829,0.139,4.774C90.896,58.924,89.488,73.274,82.152,81.677L82.152,81.677L82.152,81.677z M93.945,43.078
		l-0.231-2.116l-2.018,0.698c-0.095,0.07-24.519,8.32-34.127,17.268c-6.31,5.899-7.981,12.44-7.967,17.353
		c0.015,4.895,1.557,8.231,1.621,8.374c0.063,0.123,0.129,0.237,0.206,0.339c0.025,0.058,0.05,0.108,0.089,0.152v-0.004
		c0.339,0.604,0.736,1.219,1.187,1.818c-2.922,1.187-5.693,2.042-7.647,2.42c-3.972,0.796-6.969,1.006-9.041,1.006
		c-0.927,0-1.697,0.768-1.697,1.706c0.003,0.942,0.767,1.703,1.697,1.703c2.307-0.003,5.522-0.237,9.706-1.075
		c2.515-0.511,5.925-1.582,9.44-3.105c2.845,2.554,6.712,4.432,11.317,4.441h0.026c5.58,0,11.911-2.878,18.207-10.153
		c8.345-9.719,9.524-24.668,9.558-33.515C94.271,46.012,93.957,43.128,93.945,43.078z"/>
</g>
</svg>
