<svg id="SvgjsSvg1008" xmlns="http://www.w3.org/2000/svg" version="1.1" xmlns:xlink="http://www.w3.org/1999/xlink" xmlns:svgjs="http://svgjs.com/svgjs" width="29" height="21" viewBox="0 0 29 21"><title>стрелка</title><desc>Created with Avocode.</desc><defs id="SvgjsDefs1009"></defs><path id="SvgjsPath1010" d="M263.855 462.3C263.473 461.899 262.838 461.899 262.444 462.3C262.062 462.688 262.062 463.333 262.444 463.719L269.599 470.988H245.988C245.437 470.989 245 471.434 245 471.993C245 472.551 245.437 473.01099999999997 245.988 473.01099999999997H269.599L262.444 480.265C262.062 480.667 262.062 481.312 262.444 481.699C262.838 482.1 263.474 482.1 263.855 481.699L272.704 472.709C273.099 472.322 273.099 471.677 272.704 471.29Z " fill="#ffffff" fill-opacity="1" transform="matrix(1,0,0,1,-245,-461)"></path></svg>