<svg id="SvgjsSvg1011" xmlns="http://www.w3.org/2000/svg" version="1.1" xmlns:xlink="http://www.w3.org/1999/xlink" xmlns:svgjs="http://svgjs.com/svgjs" width="57" height="41" viewBox="0 0 57 41"><title>стрелка</title><desc>Created with Avocode.</desc><defs id="SvgjsDefs1012"></defs><path id="SvgjsPath1013" d="M527.71 924.6C526.946 923.798 525.676 923.798 524.888 924.6C524.124 925.376 524.124 926.666 524.888 927.438L539.198 941.976H491.976C490.874 941.978 490 942.868 490 943.986C490 945.102 490.874 946.0219999999999 491.976 946.0219999999999H539.198L524.888 960.53C524.124 961.334 524.124 962.624 524.888 963.398C525.676 964.2 526.948 964.2 527.71 963.398L545.408 945.418C546.198 944.644 546.198 943.354 545.408 942.58Z " fill="#ffffff" fill-opacity="1" transform="matrix(1,0,0,1,-490,-923)"></path></svg>