<svg id="SvgjsSvg1017" xmlns="http://www.w3.org/2000/svg" version="1.1" xmlns:xlink="http://www.w3.org/1999/xlink" xmlns:svgjs="http://svgjs.com/svgjs" width="62" height="31" viewBox="0 0 62 31"><title>Shape 1</title><desc>Created with Avocode.</desc><defs id="SvgjsDefs1018"></defs><path id="SvgjsPath1019" d="M478.565 3571.95L478.923 3549.6099999999997C478.958 3547.5199999999995 477.281 3545.7899999999995 475.182 3545.7499999999995L443.394 3545.1999999999994C441.419 3545.1599999999994 439.786 3546.649999999999 439.574 3548.5599999999995C439.522 3548.7199999999993 439.173 3571.2699999999995 439.173 3571.2699999999995C439.156 3572.2799999999997 439.536 3573.2399999999993 440.244 3573.9599999999996C440.793 3574.5299999999997 441.48800000000006 3574.8999999999996 442.247 3575.0499999999997C442.46500000000003 3575.0899999999997 442.688 3575.12 442.914 3575.12L474.70099999999996 3575.68C475.717 3575.69 476.67699999999996 3575.3199999999997 477.40799999999996 3574.6099999999997C478.13699999999994 3573.91 478.54799999999994 3572.97 478.56499999999994 3571.95ZM476.656 3567.94L467.857 3558.02C471.372 3555.47 475.074 3552.63 476.925 3551.2ZM443.363 3547.16L475.151 3547.72C475.26 3547.72 475.366 3547.73 475.469 3547.75C476.063 3547.87 476.548 3548.27 476.788 3548.81C475.684 3549.67 465.69 3557.43 461.046 3560.33C459.831 3561.09 458.292 3561.04 457.132 3560.21C452.90500000000003 3557.17 443.779 3550.16 441.586 3548.4700000000003C441.67400000000004 3548.17 441.831 3547.9 442.062 3547.6800000000003C442.413 3547.34 442.87600000000003 3547.1600000000003 443.363 3547.1600000000003ZM441.474 3550.87C443.53 3552.45 447.264 3555.2999999999997 450.683 3557.88L441.203 3567.76ZM476.035 3573.2C475.684 3573.54 475.22200000000004 3573.72 474.73400000000004 3573.71L442.946 3573.15C442.458 3573.14 442.00100000000003 3572.9500000000003 441.661 3572.6C441.321 3572.25 441.138 3571.79 441.146 3571.2999999999997L441.156 3570.6499999999996L452.271 3559.0699999999997C453.678 3560.12 454.968 3561.0699999999997 455.97900000000004 3561.7999999999997C456.641 3562.2799999999997 457.38100000000003 3562.5899999999997 458.14500000000004 3562.74C459.48100000000005 3563 460.89200000000005 3562.75 462.098 3562C463.247 3561.28 464.697 3560.28 466.25100000000003 3559.18L476.60900000000004 3570.8599999999997L476.59200000000004 3571.9199999999996C476.58400000000006 3572.4099999999994 476.386 3572.8599999999997 476.035 3573.2ZM436.874 3554C436.88300000000004 3553.46 436.44800000000004 3553 435.904 3553L418.847 3552.7C418.30199999999996 3552.6899999999996 417.85299999999995 3553.12 417.844 3553.6699999999996C417.836 3554.1499999999996 418.181 3554.5599999999995 418.643 3554.6499999999996C418.698 3554.66 418.756 3554.6699999999996 418.815 3554.6699999999996L435.872 3554.9599999999996C436.41700000000003 3554.97 436.86600000000004 3554.5399999999995 436.874 3553.9999999999995ZM436.781 3559.77C436.79 3559.23 436.355 3558.78 435.811 3558.77L425.57599999999996 3558.59C425.032 3558.58 424.58199999999994 3559.02 424.57399999999996 3559.56C424.566 3560.04 424.91099999999994 3560.45 425.37199999999996 3560.54C425.42799999999994 3560.55 425.48599999999993 3560.56 425.54499999999996 3560.56L435.77899999999994 3560.74C436.32399999999996 3560.75 436.77299999999997 3560.3199999999997 436.78099999999995 3559.77ZM435.718 3564.52L428.896 3564.4C428.351 3564.39 427.902 3564.82 427.894 3565.36C427.885 3565.85 428.23 3566.26 428.692 3566.35C428.748 3566.36 428.805 3566.36 428.86400000000003 3566.36L435.68600000000004 3566.48C436.23100000000005 3566.4900000000002 436.68000000000006 3566.06 436.68800000000005 3565.52C436.69800000000004 3564.98 436.261 3564.52 435.718 3564.52Z " fill="#ffffff" fill-opacity="1" transform="matrix(1,0,0,1,-417,-3545)"></path></svg>